<svg xmlns="http://www.w3.org/2000/svg" viewBox="0 0 124.62 192.17"><defs><style>.cls-1{isolation:isolate;}.cls-2,.cls-4,.cls-5{fill:#afa692;}.cls-3{fill:#5b5b5b;}.cls-12,.cls-14,.cls-15,.cls-32,.cls-4{mix-blend-mode:screen;}.cls-13,.cls-19,.cls-22,.cls-29,.cls-35,.cls-5,.cls-8{mix-blend-mode:multiply;}.cls-6{fill:#6d6d6d;}.cls-35,.cls-7{fill:#d6d6d6;}.cls-16,.cls-24,.cls-29,.cls-8{opacity:0.5;}.cls-9{fill:#848383;}.cls-10{fill:#4496aa;}.cls-11,.cls-13,.cls-15,.cls-16{fill:#56e0bf;}.cls-12{fill:#97ee9c;}.cls-14{fill:#89ab92;}.cls-17{fill:#4992c0;}.cls-18{fill:#140099;}.cls-20{fill:#61a5c8;}.cls-21{fill:#5997c4;}.cls-22{fill:#59c0c9;}.cls-23{fill:#5b856f;}.cls-24{fill:#143b4e;}.cls-25{fill:#3b84a3;}.cls-26{fill:#437393;}.cls-27{fill:#5b4643;}.cls-28,.cls-29,.cls-32{fill:#aa837c;}.cls-30{fill:#cab88d;}.cls-31{fill:#5f4945;}.cls-33{fill:#b3b3b3;}.cls-34{fill:#fff;}.cls-36{fill:#4f7450;}.cls-37{fill:#d1d1d1;}.cls-38{fill:#7d492b;}.cls-39{fill:#4e2e1b;}</style></defs><g class="cls-1"><g id="Layer_2" data-name="Layer 2"><g id="Layer_1-2" data-name="Layer 1"><path class="cls-2" d="M27.56,12.19c-1.95-3-4.77-6.33-8.26-7.84-3-1.3-7.58-1.7-10.24.67a20.66,20.66,0,0,0-4.62,6.75,23.13,23.13,0,0,0-1.76,3.86c-.69,2.49-.11,4.81.58,7.22.86,3,2.47,5.75,3.71,8.65.73,1.7.48,3.84.53,5.66a15.17,15.17,0,0,0,.89,4.46c1.1,3.16,1.78,6.43,2.82,9.6s2,6.6,2.88,10c.42,1.72,1,3.37,1.41,5.1s.22,3.43.41,5.14a46.33,46.33,0,0,0,1,5.33c0,1.25,0,2.49,0,3.74.06,2-.72,3.26-1.36,5-1,2.59,5.05,1.36,5.88,1.19,1.4-.28,3.32-1.32,2.41-3a18.52,18.52,0,0,1-1.59-2.37,22.24,22.24,0,0,1-.34-2.47l0-.27c.09-3.93-.11-7.85,0-11.79a84.05,84.05,0,0,1,2-15.14,72.64,72.64,0,0,0,1.65-14.39c0-2.09,0-4.18,0-6.26,0-2.55,1.12-4.94,2.08-7.27C29.38,19.49,30.12,16.2,27.56,12.19Z"/><path class="cls-3" d="M17.8,87.35c-1.26,0-2-.24-2.38-.73a1.25,1.25,0,0,1-.08-1.2c.15-.4.3-.78.45-1.15a8.66,8.66,0,0,0,.9-3.78c0-.7,0-1.4,0-2.08s0-1.09,0-1.64a47.35,47.35,0,0,1-1-5.33c-.07-.69-.1-1.39-.12-2.07a17.52,17.52,0,0,0-.29-3.06c-.2-1-.49-1.9-.77-2.82-.22-.74-.45-1.5-.64-2.27-.8-3.28-1.77-6.62-2.86-9.93-.5-1.49-.92-3-1.32-4.52-.45-1.68-.92-3.41-1.5-5.08a14.9,14.9,0,0,1-.9-4.52c0-.43,0-.87,0-1.32a10.71,10.71,0,0,0-.51-4.27c-.41-1-.87-1.92-1.32-2.84a37,37,0,0,1-2.4-5.83c-.73-2.54-1.27-4.85-.59-7.34A13.82,13.82,0,0,1,3.67,12.8c.19-.37.39-.74.57-1.13A21,21,0,0,1,8.92,4.86a7.85,7.85,0,0,1,5.34-1.77,13.31,13.31,0,0,1,5.13,1.06c3.75,1.62,6.61,5.2,8.35,7.92,2.52,3.94,2,7.16.12,11.72l-.27.65A18.08,18.08,0,0,0,25.8,31c0,.94,0,1.87,0,2.81,0,1.15,0,2.3,0,3.45a71.83,71.83,0,0,1-1.66,14.43,84,84,0,0,0-2,15.11c-.07,2.07-.05,4.18,0,6.22,0,1.82,0,3.71,0,5.57v.08s0,.1,0,.14c.05.32.08.65.11,1a8.52,8.52,0,0,0,.22,1.47,5.07,5.07,0,0,0,.86,1.33,7.26,7.26,0,0,1,.71,1,1.74,1.74,0,0,1,.1,1.65,3.85,3.85,0,0,1-2.66,1.69A18.44,18.44,0,0,1,17.8,87.35ZM14.26,3.53a7.58,7.58,0,0,0-5,1.66,20.56,20.56,0,0,0-4.57,6.67c-.19.39-.39.77-.58,1.14a13,13,0,0,0-1.17,2.69c-.66,2.38-.15,4.53.58,7.1a36.35,36.35,0,0,0,2.38,5.76c.44.93.91,1.89,1.32,2.86a10.94,10.94,0,0,1,.55,4.44c0,.45,0,.89,0,1.31a14.67,14.67,0,0,0,.88,4.39c.58,1.68,1.06,3.42,1.51,5.1.41,1.49.82,3,1.31,4.5,1.1,3.33,2.07,6.68,2.88,10,.18.75.41,1.51.63,2.24.28.93.57,1.89.78,2.86a18.45,18.45,0,0,1,.3,3.14c0,.66,0,1.36.12,2a44.62,44.62,0,0,0,.95,5.3.09.09,0,0,1,0,0c0,.55,0,1.11,0,1.66s0,1.39,0,2.08a9.13,9.13,0,0,1-.93,4c-.15.36-.3.73-.44,1.13a.82.82,0,0,0,0,.8c.25.35.94.54,2,.54a18,18,0,0,0,3.57-.43A3.47,3.47,0,0,0,23.74,85a1.35,1.35,0,0,0-.1-1.27,6.58,6.58,0,0,0-.66-.93A5.24,5.24,0,0,1,22,81.36a8.78,8.78,0,0,1-.24-1.55c0-.33-.05-.65-.1-.94a1,1,0,0,1,0-.17l0-.11c0-1.88,0-3.77,0-5.59,0-2-.05-4.15,0-6.23a84.72,84.72,0,0,1,2-15.19,71.75,71.75,0,0,0,1.65-14.34q0-1.73,0-3.45c0-.94,0-1.88,0-2.82a18.34,18.34,0,0,1,1.83-6.7l.26-.65c1.81-4.42,2.34-7.53-.08-11.31-1.71-2.67-4.51-6.18-8.15-7.76A13,13,0,0,0,14.26,3.53Z"/><path class="cls-4" d="M6.05,22.76c.34,1.18.69,2.35,1,3.54-.27-3.19-.67-6.35.12-9.51a59.3,59.3,0,0,0,1.51-6.15c.12-.92.17-1.88.34-2.8A31.21,31.21,0,0,0,5,16.34C4.39,18.53,5.45,20.69,6.05,22.76Z"/><path class="cls-4" d="M17.44,64.51c-.75-5.33-3.1-10.21-5.25-15.14.35,1.59.72,3.16,1.14,4.73,1,3.7,2.22,7.29,3.34,10.93.53,1.73-.09,3.29,0,5s.49,3.52.73,5.29A21.26,21.26,0,0,1,18,80.5c-.06.53-.15,1.06-.25,1.59.83-2.14,1.54-4.26,1.06-6.73C18.05,71.76,18,68.13,17.44,64.51Z"/><path class="cls-5" d="M27.56,12.19c-1.95-3-4.77-6.33-8.26-7.84-3-1.3-7.58-1.7-10.24.67a20.66,20.66,0,0,0-4.62,6.75,23.13,23.13,0,0,0-1.76,3.86c-.69,2.49-.11,4.81.58,7.22.86,3,2.47,5.75,3.71,8.65.73,1.7.48,3.84.53,5.66a15.17,15.17,0,0,0,.89,4.46c1.1,3.16,1.78,6.43,2.82,9.6s2,6.6,2.88,10c.42,1.72,1,3.37,1.41,5.1s.22,3.43.41,5.14a46.33,46.33,0,0,0,1,5.33c0,1.25,0,2.49,0,3.74.06,2-.72,3.26-1.36,5-1,2.59,5.05,1.36,5.88,1.19,1.4-.28,3.32-1.32,2.41-3a18.52,18.52,0,0,1-1.59-2.37,22.24,22.24,0,0,1-.34-2.47l0-.27c.09-3.93-.11-7.85,0-11.79a84.05,84.05,0,0,1,2-15.14,72.64,72.64,0,0,0,1.65-14.39c0-2.09,0-4.18,0-6.26,0-2.55,1.12-4.94,2.08-7.27C29.38,19.49,30.12,16.2,27.56,12.19Zm-12,31.62c-1.06,1.31-2.16,2.79-3.77,3.43a.26.26,0,0,1-.33-.17,8.14,8.14,0,0,1,.27-6.94,8.37,8.37,0,0,0,1.14-3.38c0-.59,0-1.19-.07-1.78a18.37,18.37,0,0,1,.08-5.34.27.27,0,0,1,.44-.12A15.6,15.6,0,0,1,16,34.45a15.89,15.89,0,0,1,1.68,5.39C17.76,41.67,16.63,42.48,15.56,43.81ZM17,13.42c-1,1.84-2.13,3.66-3.14,5.52-1.1,2-2.13,4.11-3.19,6.16a46.79,46.79,0,0,1-2.8,5.46.27.27,0,0,1-.46,0c-1.11-1.87-1.53-4.06-2.22-6.11-.76-2.23-1.92-4.66-2-7.06-.06-2.22,1.24-4.07,2.31-5.92A39.85,39.85,0,0,1,8.36,7,4.69,4.69,0,0,1,11,4.38a2.35,2.35,0,0,1,2.51,1.21c1,1.3,1.93,2.66,2.85,4S17.76,12,17,13.42Z"/><path class="cls-5" d="M27.56,12.19c-1.95-3-4.77-6.33-8.26-7.84l-.45-.18,0,0a.27.27,0,0,1,.06.42c-.81.68-2.12,1.39-2.27,2.56s1.19,2.27,1.94,3.13c.6.7,1.49,1.83,2.54,1.75a5.24,5.24,0,0,0,2.73-1.49.29.29,0,0,1,.38,0c1.36,1.2,3.06,3.33,3.06,5.22,0,.81-.92,1.07-1.52,1.35-.9.44-1.77.94-2.63,1.43s-1.87,1-1.8,2.19a6.76,6.76,0,0,0,.72,2.47,12.18,12.18,0,0,1,1.34,3.31c.36,2.81-1.8,5.54-3.17,7.84a26.73,26.73,0,0,1,2.95,2,.27.27,0,0,1-.17.46C22,37,20,36.74,19.53,38a10,10,0,0,0-.28,2.57c-.12,1-.87,3,0,3.86.69.63,1.53,1,2.24,1.63a.27.27,0,0,1,.05.32,36,36,0,0,0-2.63,7,.27.27,0,0,1-.44.13c-1.3-1.33-2.62-6.41-5-5.67-.91.27-1.87,1-2.86,1.41.19.65.39,1.31.6,1.95q1.63,4.94,2.88,10c.25,1,.57,2,.87,3.07.14-1.26.28-2.52.36-3.79a.27.27,0,0,1,.39-.24,69.09,69.09,0,0,1,6.36,3.53,86.12,86.12,0,0,1,1.81-12.11,72.64,72.64,0,0,0,1.65-14.39c0-2.09,0-4.18,0-6.26,0-2.55,1.12-4.94,2.08-7.27C29.38,19.49,30.12,16.2,27.56,12.19Z"/><path class="cls-5" d="M10.64,25.1c-.56,1.08-1,2.23-1.59,3.34,3.62-2.78,4.63-7.19,5.9-11.5-.38.66-.75,1.33-1.12,2C12.73,21,11.7,23.05,10.64,25.1Z"/><path class="cls-6" d="M4.42,16.67A2.5,2.5,0,0,0,6.72,16l.06-.06A6.58,6.58,0,0,0,7.9,14h0a4.39,4.39,0,0,0,0-2.19,2,2,0,0,0-.73-.95C6,10.16,4.75,9.6,3.62,8.94A25.76,25.76,0,0,0,.21,7.28c-.73.27.67,2.69.82,3,.29.67.57,1.34.87,2A37.25,37.25,0,0,0,4,15.88,2.42,2.42,0,0,0,4.42,16.67Z"/><path class="cls-7" d="M.24,7.66c2.42,1.09,4.62,2.86,7,4a1.55,1.55,0,0,1,.46,1.61,5.58,5.58,0,0,1-1,2.14c-.53.71-1.7,1.32-2.3.56-.69-1.41-1.63-2.74-2.3-4.15S1,9,.24,7.66Z"/><path class="cls-6" d="M24.75.13A.38.38,0,0,0,24.57,0a6.48,6.48,0,0,0-.91.46,4.7,4.7,0,0,0-.43.35c-.45.52-.84,1.13-1,1.34a44.15,44.15,0,0,0-3.07,4A.89.89,0,0,0,19.22,6c0-.06,0,0,0,0-.57.9-1.26,1.43-1.09,2.56s1.26,1.59,2.07,1.94a3.55,3.55,0,0,0,3-.07l.19-.13a2.33,2.33,0,0,0,.39-.45,4.75,4.75,0,0,0,.31-.59,41.13,41.13,0,0,0,1-7.8A4.34,4.34,0,0,0,24.75.13Z"/><path class="cls-7" d="M24.47,2.33C24.23,4.66,24,7,23.63,9.24a1.8,1.8,0,0,1-1.35,1.09,3.87,3.87,0,0,1-2.5-.54A2.62,2.62,0,0,1,18.35,8a.48.48,0,0,1,0-.21,42.06,42.06,0,0,1,3.15-4.25L23,1.76C24.17.31,24.64.69,24.47,2.33Z"/><path class="cls-6" d="M34,22.14c.37-.15.5-.34.33-.65l0,0c-1-.25-2-.4-2.82-.59-1.2-.27-2.4-.54-3.58-.87l-1.63-.26a2.1,2.1,0,0,0-.93.24,2.71,2.71,0,0,0-.63.59l-.18.27a8.31,8.31,0,0,0-.37,1.25c-.19.8,0,2.22.71,2.64h0a2.45,2.45,0,0,0,.78.11Z"/><path class="cls-7" d="M30.07,23.26c-1.48.5-3,.78-4.49,1.24-2-.36-1.2-4.65.73-4.62a74.62,74.62,0,0,1,7.58,1.81c.63.2-1.69.85-1,.61Z"/><path class="cls-6" d="M15.81,21.76a2.73,2.73,0,0,0-1.91-1.5,4,4,0,0,0-1,0,2.82,2.82,0,0,0-.65.5,8.9,8.9,0,0,0-.92,1.71c-.75,1.56-2,3.32-2.19,5.07a.13.13,0,0,0,.08.14c.81.33,2.16-.78,2.81-1.15A13.72,13.72,0,0,0,15.74,24,1.72,1.72,0,0,0,15.81,21.76Z"/><path class="cls-7" d="M15.21,24.07a21.45,21.45,0,0,1-3.68,2.42c-.3.14-.58.3-.87.47h0a5.27,5.27,0,0,1-.92.46c-.24.08-.4-.19-.31-.39a19.33,19.33,0,0,1,1.17-2.26l.21-.42c.49-1,1.33-3.69,2.62-3.83a.29.29,0,0,0,.15-.1,2.67,2.67,0,0,1,1.15.58C15.57,21.68,16.29,23.09,15.21,24.07Z"/><path class="cls-6" d="M9.65,31.31A3.44,3.44,0,0,0,8,31.49a13.76,13.76,0,0,1-1.32.88l-.93.84c-1.67,1.42-3.42,2.81-5,4.34C-1.37,39.67,5,39.14,5.71,39.17c2.69.11,6.65.7,6.53-2.94C12.19,34.64,11.13,32.13,9.65,31.31Z"/><path class="cls-7" d="M4.39,38.63c-1,0-2.1,0-3.14-.14s1.52-2.23,1.58-2.28C4.3,35,7.11,31.44,9.07,31.61a.18.18,0,0,0,.12,0c1.82.64,2.68,3.92,2.58,5.58C11.64,39.56,5.75,38.67,4.39,38.63Z"/><path class="cls-6" d="M28.36,41.32h0c-1.42-.87-2.75-1.87-4.21-2.69a2.83,2.83,0,0,0-1.41-.42l-.11,0c-1.58-.76-2.6,2.3-2.56,3.47.05,1.44,1,1.87,2.3,1.91.64,0,1.28,0,1.93.07s1.34,0,2,0c.91,0,1.83-.09,2.74-.06.4,0,1.15-.18,1.13-.59A10.31,10.31,0,0,0,28.36,41.32Z"/><path class="cls-7" d="M29.69,43.21a.29.29,0,0,0-.13.1c-1.43-.09-2.87-.06-4.31-.09-1.1,0-2.21,0-3.32-.11-1.88-.1-1.93-3-.68-4.1a1.62,1.62,0,0,1,.86-.59,1.6,1.6,0,0,1,1.16.27A11.69,11.69,0,0,1,25.49,40c.74.44,1.45.92,2.15,1.42C27.73,41.46,30,43.17,29.69,43.21Z"/><path class="cls-6" d="M31.26,31.37a32.47,32.47,0,0,0-5.74.4c-.49.54-.29,1.75-.24,2.38a7.55,7.55,0,0,0,.06.8h0a5.58,5.58,0,0,0,1.87-.58c.91-.36,1.84-.67,2.74-1.06.62-.27,2.37-.73,2.61-1.49C32.77,31.23,31.52,31.37,31.26,31.37Z"/><path class="cls-7" d="M31.85,32a32.17,32.17,0,0,1-4.1,1.75c-.34.13-2.21,1.11-2.19,0A16.61,16.61,0,0,0,25.47,32a36.05,36.05,0,0,1,3.75,0c.62,0,1.26-.08,1.89-.1C31.27,31.83,32.36,31.72,31.85,32Z"/><path class="cls-6" d="M15,50.33a1.82,1.82,0,0,0-1.7-1.22s0,0,0,0c-1.54-.84-3.62,2.36-4.46,3.42-1,1.26-2.07,2.33-3.16,3.49-.22.22-.29.36-.16.61a.09.09,0,0,0,.08,0,29.62,29.62,0,0,0,5.31-1.79c1.37-.51,3.38-.8,4.34-2C15.76,52.2,15.29,51,15,50.33Z"/><path class="cls-7" d="M12.2,54c-1.89.76-3.76,1.6-5.7,2.22-1.15.36.48-1.06.52-1.09A14.7,14.7,0,0,0,8.3,53.75c.85-1,2.61-3.93,4.25-4.34,1.37-.19,2.18.75,2.48,2.23S13.07,53.61,12.2,54Z"/><path class="cls-6" d="M28.31,59.88A6.56,6.56,0,0,0,26.25,58c-1.12-.81-2.12-1.75-3.2-2.61-.3-.23-1.47-1.61-2-1.37A2.6,2.6,0,0,0,20,55.35c-.05.1,0,.17,0,.2s-.08.29-.11.45c-.12.57-.27,2.67.61,2.82,1.69.31,3.3.62,5,1.08.71.19,2.12.89,2.77.32C28.28,60.15,28.37,60,28.31,59.88Z"/><path class="cls-7" d="M27.31,59.79a10.26,10.26,0,0,1-1.1-.24c-.88-.21-1.75-.48-2.62-.72a12,12,0,0,0-2-.39c-1.6-.16-1.62-1.94-1.15-3.21.38-.43.91-.66,1.4-.15s1.47,1.16,2.16,1.75c1.16,1,2.46,1.85,3.57,2.92C28.06,60,28,60,27.31,59.79Z"/><g class="cls-8"><path class="cls-9" d="M7.92,11.79a2,2,0,0,0-.73-.95C6,10.16,4.75,9.6,3.62,8.94A25.76,25.76,0,0,0,.21,7.28a.18.18,0,0,0-.07,0c1.38,1.24,2.64,2.59,3.92,3.93.9,1,2.17,1.86,2.7,3.08.32.72-.36,1.69-1,2a4.21,4.21,0,0,1-1.17.38A2.73,2.73,0,0,0,6.72,16l.06-.06A6.58,6.58,0,0,0,7.9,14h0A4.39,4.39,0,0,0,7.92,11.79Z"/><path class="cls-9" d="M23.2,4.45a18.58,18.58,0,0,1-1.43,4.46c-1,1.71-2.75.44-3.7-.82a1.56,1.56,0,0,0,0,.48c.15,1,1.26,1.59,2.07,1.94a3.55,3.55,0,0,0,3-.07l.19-.13a2.33,2.33,0,0,0,.39-.45,4.75,4.75,0,0,0,.31-.59,41.13,41.13,0,0,0,1-7.8,7,7,0,0,0-.19-1C24.44,1.86,23.61,3.07,23.2,4.45Z"/><path class="cls-9" d="M29.67,22.6c-1.06.24-2.83,1-3.93.6s-1.22-1.69-.86-2.77l-.14.15-.18.27a8.31,8.31,0,0,0-.37,1.25c-.19.8,0,2.22.71,2.64h0a2.45,2.45,0,0,0,.78.11L34,22.14a.68.68,0,0,0,.38-.3A36,36,0,0,0,29.67,22.6Z"/><path class="cls-9" d="M15.81,21.76a2.73,2.73,0,0,0-1.91-1.5,4,4,0,0,0-1,0l-.21.14c.91,0,1.86.35,1.56,1.41A7,7,0,0,1,12,24.7c-1,.94-1.94,1.94-2.85,3l.05,0c.81.33,2.16-.78,2.81-1.15A13.72,13.72,0,0,0,15.74,24,1.72,1.72,0,0,0,15.81,21.76Z"/><path class="cls-9" d="M9.65,31.31H9.58c1,.78,1.16,2.56.9,3.73C10.05,37,8.39,37.57,6.6,38a34.69,34.69,0,0,1-4.54.64l-1.41.15c1.08.65,4.54.38,5.06.4,2.69.11,6.65.7,6.53-2.94C12.19,34.64,11.13,32.13,9.65,31.31Z"/><path class="cls-9" d="M25.54,42.31a10,10,0,0,1-3.88-.57c-1.34-.65-.53-2.43.3-3.62-1.2.21-1.94,2.57-1.9,3.57.05,1.44,1,1.87,2.3,1.91.64,0,1.28,0,1.93.07s1.34,0,2,0c.91,0,1.83-.09,2.74-.06a1.61,1.61,0,0,0,1-.32A19.59,19.59,0,0,0,25.54,42.31Z"/><path class="cls-9" d="M29.59,32.43a23,23,0,0,1-2.66.88c-1.11.22-1.49-.22-1.68-.92a6.8,6.8,0,0,0,0,1.76,7.55,7.55,0,0,0,.06.8h0a5.58,5.58,0,0,0,1.87-.58c.91-.36,1.84-.67,2.74-1.06.62-.27,2.37-.73,2.61-1.49a.64.64,0,0,1,0-.07A20.91,20.91,0,0,0,29.59,32.43Z"/><path class="cls-9" d="M15,50.33a1.82,1.82,0,0,0-1.7-1.22s0,0,0,0a1.33,1.33,0,0,0-1.29.07,1.6,1.6,0,0,1,1.19.53,1.43,1.43,0,0,1-.15,2.11,24.71,24.71,0,0,1-3.2,1.93C8.5,54.55,7.34,55.65,6,56.54a34.1,34.1,0,0,0,4.89-1.7c1.37-.51,3.38-.8,4.34-2C15.76,52.2,15.29,51,15,50.33Z"/><path class="cls-9" d="M25.56,59A32.22,32.22,0,0,1,21,56.91a2,2,0,0,1-.7-2.25,5.62,5.62,0,0,0-.38.69c-.05.1,0,.17,0,.2s-.08.29-.11.45c-.12.57-.27,2.67.61,2.82,1.69.31,3.3.62,5,1.08.61.16,1.72.7,2.44.5A24.2,24.2,0,0,0,25.56,59Z"/></g><path class="cls-5" d="M21.15,14.85c-.47-.33-1-.48-1.33.08-.14.24,0,.53.08.76a4.58,4.58,0,0,0,.38.92c.06.14.11.29.17.44.11.32.3.86.69.93.24,0,.42-.17.53-.35l0-.07a2.45,2.45,0,0,0,.53-1.14C22.37,15.73,21.64,15.18,21.15,14.85Z"/><path class="cls-5" d="M24.8,14.86c-.15-.11-.35.1-.41.22a.35.35,0,0,0,0,.12.14.14,0,0,0,0,.2h0c.09.06.2,0,.27-.07l0,0c.08-.07.19-.23.15-.35A.19.19,0,0,0,24.8,14.86Z"/><path class="cls-5" d="M19.7,27.69a2.36,2.36,0,0,0-1.19-1.22.68.68,0,0,0-.28,0,.49.49,0,0,0-.24,0c-.59.16-1,.89-1.13,1.43-.44,1.37,1.45,2.05,2.45,1.51A1.29,1.29,0,0,0,19.7,27.69Z"/><path class="cls-5" d="M19.43,32.72a1.1,1.1,0,0,0-.85-.09c-.21,0-.42,0-.6.18a.43.43,0,0,0-.1.6l0,0a.69.69,0,0,0,.25.46.64.64,0,0,0,.71.17C19.2,33.9,19.88,33.08,19.43,32.72Z"/><path class="cls-5" d="M21.46,28.73a.17.17,0,0,0-.18,0,.26.26,0,0,0-.14.1A.18.18,0,0,0,21,29c0,.12-.1.3.08.34s.34-.28.38-.42S21.52,28.77,21.46,28.73Z"/><path class="cls-5" d="M7.81,19.17c-.6-.19-.9.67-.9,1.11,0,.19,0,.37.07.55a.36.36,0,0,0,.46.31c.4,0,.73-.49.82-.81S8.32,19.33,7.81,19.17Z"/><path class="cls-5" d="M9.2,17.55c-.09-.1-.28.09-.31.16a.77.77,0,0,0-.1.29v0c0,.13.07.24.23.13l0,0a.41.41,0,0,0,.2-.38A.26.26,0,0,0,9.2,17.55Z"/><path class="cls-5" d="M13,42.9a.53.53,0,0,0-.37-.3.4.4,0,0,0-.41.18h0a.48.48,0,0,0-.46.47,1.3,1.3,0,0,0,.19.74,1.08,1.08,0,0,0,.48.53c.32.14.59-.27.68-.51A1.7,1.7,0,0,0,13,42.9Z"/><path class="cls-5" d="M14.72,43.45H14.6a.24.24,0,0,0-.2.2c-.08.15-.08.33.07.3a.45.45,0,0,0,.21-.1C14.76,43.77,14.91,43.49,14.72,43.45Z"/><path class="cls-5" d="M19.45,49.45a.8.8,0,0,0-.36.26.55.55,0,0,0-.2.11,1.08,1.08,0,0,0-.38.51,1.84,1.84,0,0,0-.05.62.61.61,0,0,0,.32.53c.78.43,1.25-1,1.24-1.56C20,49.6,19.78,49.35,19.45,49.45Z"/><path class="cls-10" d="M55.05,70a5,5,0,0,0-.95,0c-4.56-.87-6.82,4.44-8.71,7.79-1.44,2.53-2.78,5.12-4.24,7.63-1.27,2.2-2.73,4.27-4.09,6.41-1-.93-2.16-1.76-3.4-2.72a43.39,43.39,0,0,1-6.74-5.9c1.25-2.2,0-5.66-.59-7.85a8.69,8.69,0,0,0-2.56-4.64A23.59,23.59,0,0,0,18,67.18a1.16,1.16,0,0,0-1.31.5c-1.78-.88-4.48-2.58-5.45-.08A11.33,11.33,0,0,0,10.31,72a2.84,2.84,0,0,0,.47,1.51A2.09,2.09,0,0,0,9,75.4a4,4,0,0,0,1.76,3.45c-.49.14-.85,1.17-1,1.51-.52,1.43.5,2.5,1.68,3.11A1.91,1.91,0,0,0,11.3,85c.35,1.35,2,1.78,3.22,1.89l.32,0c.13,1.74,3.59,3.1,5,3.14a7.32,7.32,0,0,0,3.66-.89c.37.48.76.93,1.06,1.35,2.92,4.14,6.17,8.78,10.9,11h.08a5.19,5.19,0,0,0,1.51,1c1.65.67,4-.8,5.16-1.88.3-.53.56-1.09.82-1.65l-.1.14a5.25,5.25,0,0,0,.44-1.27.49.49,0,0,0,.17-.14c1.58-3,3.74-5.56,5.6-8.39,1-1.47,2-2.89,3-4.35.19-.28.43-.54.63-.82a.76.76,0,0,1,0,.15l.55-.89A54.94,54.94,0,0,1,54,77.56a70.85,70.85,0,0,0,1.16-7.46S55.1,70,55.05,70Z"/><path class="cls-11" d="M11,69.91a7,7,0,0,1,.56-1.9c.67-1.65,1.45-1.15,2.44-.8a13.8,13.8,0,0,0,2.51.8,3.88,3.88,0,0,0,1,4,6.42,6.42,0,0,1-2.78-2.88,6.62,6.62,0,0,0,1.4,2.74c.24.19.49.37.76.55a5.66,5.66,0,0,1,1.79,1.44c-.22,1.81-1,2.52-2.29,2.13a8.1,8.1,0,0,1-1.73-.55C12.1,74.41,10.49,72.87,11,69.91Z"/><path class="cls-11" d="M10.56,77.81c-1-.91-2-3.26.4-4a7.37,7.37,0,0,0,2.2,1.67c1.31.73,3.07,1.46,4.45,1.08a6.67,6.67,0,0,1,.46.88c-.26,1.78-1.06,2.55-2.42,2.3-.63,0-1.27-.11-1.9-.21a5.57,5.57,0,0,1-2.39-1C11.08,78.28,10.82,78.05,10.56,77.81Z"/><path class="cls-11" d="M10.43,81.57c-.15-.23-.28-2.44.5-2.24.09,0,.2-.07.25-.17a7.1,7.1,0,0,0,1.21.66c1.15.5,4,1,5.1.1a1.8,1.8,0,0,0,.2-.19c.12.19.24.36.35.55,1.06,1.74-1,2.62-2.18,2.86a7.93,7.93,0,0,1-3.29,0A3.49,3.49,0,0,1,10.43,81.57Z"/><path class="cls-11" d="M14.53,86.28a4.55,4.55,0,0,1-1.93-.64c-.49-.29-1.29-1.41-.9-2l.1,0c1.55.67,4.56.56,5.91-.52l.1-.08c.35.94,1.12,2.34-.39,2.88A7.67,7.67,0,0,1,14.53,86.28Z"/><path class="cls-11" d="M54.38,71.79c-.34,1.73-.51,3.51-.8,5.26-.36,2.19-.63,4.4-.77,6.62-1.47,2.25-3.32,4.48-5,6.6-1.39,1.8-3.4,4.06-4.34,6.36a3.24,3.24,0,0,0-.25-1.38.1.1,0,0,0-.07-.06,11.56,11.56,0,0,0-.41,1.17c-.09,1.47-.22,3.11-1.19,4.2-.15.13-.31.27-.48.39a4.37,4.37,0,0,1-4.74.47,5.27,5.27,0,0,1-1.08-1.06,9.48,9.48,0,0,1-.87-.81,2.82,2.82,0,0,0,.35,1c-1.12-.85-2.3-1.63-3.37-2.56a32.91,32.91,0,0,1-4.61-5.25c-1-1.27-1.81-2.62-2.77-3.89a6.43,6.43,0,0,0,1.72-1.69,11,11,0,0,1-1.44,1.1,3.93,3.93,0,0,1-2,.84,6.32,6.32,0,0,1-2.86.22c-1.06-.16-3.55-1.16-4.28-2.39a5.21,5.21,0,0,0,3.43-1.07,2.26,2.26,0,0,0-.41-3.14,2.45,2.45,0,0,0-.06-3.36,2.15,2.15,0,0,0,.05-3,2.7,2.7,0,0,0,1.1-1.18A2,2,0,0,0,18.84,73l-.34-.27a5.73,5.73,0,0,0,1.13.37c2.22.5,1.23,2.39.79,3.82a6.37,6.37,0,0,0,.8,5.7.1.1,0,0,0,.11.06c0-.43,0-.87-.08-1.31a7.48,7.48,0,0,1-.13-5.1,6.72,6.72,0,0,0,.61-2.56c-.08-.66-.67-.84-1.19-1.07-.69-.3-1.28-.48-1.8-.74h-.07a3,3,0,0,1-1.82-3.7.77.77,0,0,1,1.23-.34,1.5,1.5,0,0,1,.36.35l.34.2c.71.46,1.44.87,2.16,1.3a10.91,10.91,0,0,1,3.63,2.7,13.15,13.15,0,0,1,1.54,3.94c.26.9.54,1.78.72,2.7A11.4,11.4,0,0,1,27,80.45a4,4,0,0,1-.35,2.44h0A4.86,4.86,0,0,1,26.25,84a2.54,2.54,0,0,0,.28-.29A40.3,40.3,0,0,0,31,87.69c1.69,1.52,3.68,2.75,5.34,4.23.42.35.85.69,1.28,1a9.77,9.77,0,0,1,1,.76,9,9,0,0,0-1.29-1.6c2.6-3.1,4.46-6.84,6.38-10.35,1.18-2.15,2.39-4.27,3.52-6.44,1.54-2.94,3.5-4.77,6.68-4.94C54.38,70.57,54.55,70.94,54.38,71.79Z"/><path class="cls-12" d="M23,71.86a16.17,16.17,0,0,1,3.22,4.88c0-.14-.09-.28-.13-.42a13.15,13.15,0,0,0-1.54-3.94,10.91,10.91,0,0,0-3.63-2.7c-.72-.43-1.45-.84-2.16-1.3l-.34-.2a1.5,1.5,0,0,0-.36-.35,1,1,0,0,0-.53-.17C18.62,69.58,21.49,70.3,23,71.86Z"/><path class="cls-12" d="M26.81,84.06c-.24.75,4.39,4.54,4.85,4.88,2,1.47,4.06,2.72,6.06,4.13L37.61,93c-.43-.34-.86-.68-1.28-1-1.66-1.48-3.65-2.71-5.34-4.23A51.46,51.46,0,0,1,26.81,84.06Z"/><path class="cls-12" d="M37.89,92.48l.16.17h0a15.5,15.5,0,0,0,2-3.3c.63-1.26,1.35-2.46,2.07-3.66,1.45-2.44,3-4.85,4.29-7.37,1.1-2.13,2.17-4.73,3.81-6.67a10.34,10.34,0,0,0-3,3.68c-1.13,2.17-2.34,4.29-3.52,6.44C41.81,85.27,40,89,37.35,92.11l.28.3A.23.23,0,0,1,37.89,92.48Z"/><path class="cls-12" d="M12,72.56a8,8,0,0,1,0-5.22,3.68,3.68,0,0,0-.36.67,7,7,0,0,0-.56,1.9c-.53,3,1.08,4.5,3.64,5.53l.38.15A6,6,0,0,1,12,72.56Z"/><path class="cls-12" d="M10.82,77.43c-.57-.86-1.22-2.21-.81-3.1-1.09,1-.27,2.73.55,3.48.26.24.52.47.8.7a5.86,5.86,0,0,0,2.15,1A5.66,5.66,0,0,1,10.82,77.43Z"/><path class="cls-12" d="M12,82.45c-.78-.6-1.7-1.51-1.66-2.47a3.74,3.74,0,0,0,.06,1.59,3.49,3.49,0,0,0,2.14,1.53,7.42,7.42,0,0,0,1.5.18A4.09,4.09,0,0,1,12,82.45Z"/><path class="cls-12" d="M11.6,84a2.4,2.4,0,0,0,1,1.64,4.55,4.55,0,0,0,1.93.64,6.6,6.6,0,0,0,.89,0C13.78,86,12.18,85.17,11.6,84Z"/><path class="cls-13" d="M53.93,70.38A7.16,7.16,0,0,0,48,74,9.81,9.81,0,0,1,51,72c.14-.06.36,0,.39.16.26,1.76-.56,3.34-1,5A51.69,51.69,0,0,1,49,83.55a30.69,30.69,0,0,1-5.88,10.32.26.26,0,0,1-.41-.05,11,11,0,0,0-1.55-2.44c.22,2.23,1,4.52-.94,6.32-1.66,1.59-3.73,1.15-5.46-.1C30.7,94.68,29,89.85,28,85.18a13.68,13.68,0,0,1-1.42-1.43,2.54,2.54,0,0,1-.28.29,4.86,4.86,0,0,0,.41-1.16h0A4,4,0,0,0,27,80.45,11.4,11.4,0,0,0,26.83,79c0-.26-.11-.52-.18-.79a4.84,4.84,0,0,1-.56,2.38c-1.5,2.54-3.42-1.11-3.63-2.59a9.8,9.8,0,0,1,0-2.65c.14-1.09.29-2-.64-2.81s-1.95-1.27-2.83-2-1.89-1.79-1.83-2.77a.65.65,0,0,0-.29.4,3,3,0,0,0,1.82,3.7h.07c.52.26,1.11.44,1.8.74.52.23,1.11.41,1.19,1.07a6.72,6.72,0,0,1-.61,2.56,7.48,7.48,0,0,0,.13,5.1c0,.44.06.88.08,1.31a.1.1,0,0,1-.11-.06,6.37,6.37,0,0,1-.8-5.7c.44-1.43,1.43-3.32-.79-3.82a5.73,5.73,0,0,1-1.13-.37l.34.27a2,2,0,0,1,.39,2.18,2.7,2.7,0,0,1-1.1,1.18,2.15,2.15,0,0,1-.05,3,2.45,2.45,0,0,1,.06,3.36,2.26,2.26,0,0,1,.41,3.14,5.21,5.21,0,0,1-3.43,1.07c.73,1.23,3.22,2.23,4.28,2.39a6.32,6.32,0,0,0,2.86-.22,3.93,3.93,0,0,0,2-.84,11,11,0,0,0,1.44-1.1A6.43,6.43,0,0,1,24,88.83c1,1.27,1.82,2.62,2.77,3.89A32.91,32.91,0,0,0,31.39,98c1.07.93,2.25,1.71,3.37,2.56a2.82,2.82,0,0,1-.35-1,9.48,9.48,0,0,0,.87.81,5.27,5.27,0,0,0,1.08,1.06A4.37,4.37,0,0,0,41.1,101c.17-.12.33-.26.48-.39,1-1.09,1.1-2.73,1.19-4.2a11.56,11.56,0,0,1,.41-1.17.1.1,0,0,1,.07.06,3.24,3.24,0,0,1,.25,1.38c.94-2.3,3-4.56,4.34-6.36,1.65-2.12,3.5-4.35,5-6.6.14-2.22.41-4.43.77-6.62.29-1.75.46-3.53.8-5.26C54.55,70.94,54.38,70.57,53.93,70.38Z"/><path class="cls-14" d="M18.12,79l-.14.18c0,.14,0,.27,0,.41a7.16,7.16,0,0,1,.38.64,9.81,9.81,0,0,0,.43-4.6,2.07,2.07,0,0,1-1,.63A2.31,2.31,0,0,1,18.12,79Z"/><path class="cls-13" d="M16.89,72.42c-.27-.18-.52-.36-.76-.55a6.62,6.62,0,0,1-1.4-2.74A6.42,6.42,0,0,0,17.51,72a3.88,3.88,0,0,1-1-4,13.8,13.8,0,0,1-2.51-.8L13.33,67A2.76,2.76,0,0,0,13,68.82a7.22,7.22,0,0,0,.62,1.32,3.83,3.83,0,0,1,.62,1.62,1.33,1.33,0,0,1-1,1.49A2.86,2.86,0,0,1,11.41,73a6.18,6.18,0,0,0,3.25,2.46,8.1,8.1,0,0,0,1.73.55c1.31.39,2.07-.32,2.29-2.13A5.66,5.66,0,0,0,16.89,72.42Z"/><path class="cls-13" d="M17.61,76.55c-1.38.38-3.14-.35-4.45-1.08A7.37,7.37,0,0,1,11,73.8h0a18.23,18.23,0,0,0,2.37,2.36c.45.47,1,1.43.22,1.9a3.1,3.1,0,0,1-2.68,0l.5.44a5.57,5.57,0,0,0,2.39,1c.63.1,1.27.17,1.9.21,1.36.25,2.16-.52,2.42-2.3A6.67,6.67,0,0,0,17.61,76.55Z"/><path class="cls-13" d="M18,80.28c-.11-.19-.23-.36-.35-.55a1.8,1.8,0,0,1-.2.19c-1.09.91-3.95.4-5.1-.1a7.1,7.1,0,0,1-1.21-.66.35.35,0,0,1-.13.14,12.72,12.72,0,0,0,2.31,1.32c.7.38,1.15,1.11.38,1.75a2.35,2.35,0,0,1-2.13.34,3.87,3.87,0,0,0,1,.39,7.93,7.93,0,0,0,3.29,0C17.07,82.9,19.1,82,18,80.28Z"/><path class="cls-13" d="M17.81,83l-.1.08c-1.35,1.08-4.36,1.19-5.91.52l-.1,0a.16.16,0,0,0,0,.07c1.05.81,2.54.9,3.79,1.28a.26.26,0,0,1,.19.32,1.61,1.61,0,0,1-1.22,1l.11,0a7.67,7.67,0,0,0,2.89-.36C18.93,85.38,18.16,84,17.81,83Z"/><path class="cls-13" d="M39,96.55a4.15,4.15,0,0,0-.79-3.2c-.18-.14-.37-.27-.57-.4-.43-.34-.86-.68-1.28-1-.58-.52-1.19-1-1.83-1.47C36,92.5,37.6,94.41,39,96.55Z"/><path class="cls-10" d="M102.13,114.39a45.44,45.44,0,0,0,2.55-15.8c-.1-2.66-.46-5.33-.75-8-.11-.66-.23-1.31-.37-2-.29-1.42-.68-2.81-1.07-4.21,0,0,0,0,0,0-.14-.55-.28-1.1-.44-1.65,0-.09-.05-.19-.08-.28-.15-.56-.32-1.11-.5-1.67-1.74-5.33-5.15-10.22-8.83-14.41A22.21,22.21,0,0,0,78.44,59.3a31.73,31.73,0,0,0-8.35.79l-.64.16c-3.4.47-6.79,2.28-9.61,3.92-.73.42-1.42.88-2.08,1.35a27.66,27.66,0,0,0-3.82,4.32,16.61,16.61,0,0,0-1.43,2.86,5.7,5.7,0,0,1,3-1.85c.2,0,.44.18.3.39a23.9,23.9,0,0,0-4.38,10c-.32,2.1-.47,4.22-.65,6.34,0,1.72,0,3.44,0,5.16a17.1,17.1,0,0,1-1,4.79A32.09,32.09,0,0,1,48,102.1c-.27.7-.54,1.39-.8,2.09a46.63,46.63,0,0,0-1.52,7.09c-.61,4.5-.6,9.72,1.53,13.83,2,3.89,7.43,6.27,11.34,7.72,4.94,1.85,10.28,1.23,15.42.86S84,133,88.88,131c3.71-1.53,8-3.16,10.94-6a9.85,9.85,0,0,0,2.39-10.52A.1.1,0,0,0,102.13,114.39Z"/><path class="cls-11" d="M96.14,126.88c-4.09,2.19-8.61,4.37-13.17,5.25s-9.18.87-13.69,1.12a26.36,26.36,0,0,1-14.47-3.08A33.55,33.55,0,0,1,49.9,127c-2-1.58-2.92-4.12-3.39-6.55-.95-4.89-.26-10.07.94-14.84.29-1.14.68-2.25,1-3.37A47.63,47.63,0,0,0,51,95.61c.8-2.84.45-6,.35-8.94-.25-6.83.42-13.86,4.8-19.14a31,31,0,0,1,4.36-3,33.64,33.64,0,0,1,4.42-2.19l.46-.15a18,18,0,0,1,3-1,21.13,21.13,0,0,1,2.92-.73c.44,0,.89,0,1.33-.06a26.11,26.11,0,0,1,6.13-.17c5.1.5,10.39,3.73,13.71,7.52A41.05,41.05,0,0,1,100.77,81c1.66,4.72,2.17,10,3,14.93,0,.5.09,1,.12,1.5.47,6.68-.86,12.91-2.82,19.27-.08.28.27.15.33,0,.15-.41.29-.82.43-1.23C102.43,120.42,100.77,124.39,96.14,126.88Z"/><path class="cls-11" d="M96.14,126.88c-4.09,2.19-8.61,4.37-13.17,5.25s-9.18.87-13.69,1.12a26.36,26.36,0,0,1-14.47-3.08A33.55,33.55,0,0,1,49.9,127c-2-1.58-2.92-4.12-3.39-6.55-.95-4.89-.26-10.07.94-14.84.29-1.14.68-2.25,1-3.37A47.63,47.63,0,0,0,51,95.61c.8-2.84.45-6,.35-8.94-.25-6.83.42-13.86,4.8-19.14a31,31,0,0,1,4.36-3,33.64,33.64,0,0,1,4.42-2.19l.46-.15a18,18,0,0,1,3-1,21.13,21.13,0,0,1,2.92-.73c.44,0,.89,0,1.33-.06a26.11,26.11,0,0,1,6.13-.17c5.1.5,10.39,3.73,13.71,7.52A41.05,41.05,0,0,1,100.77,81c1.66,4.72,2.17,10,3,14.93,0,.5.09,1,.12,1.5.47,6.68-.86,12.91-2.82,19.27-.08.28.27.15.33,0,.15-.41.29-.82.43-1.23C102.43,120.42,100.77,124.39,96.14,126.88Z"/><path class="cls-12" d="M49.89,99.68A28.28,28.28,0,0,0,52,95.75a13.39,13.39,0,0,0,.7-4.66c0-2.37-.29-4.73-.31-7.11-.06-5.83.89-11.85,4-16.61l-.2.16c-4.38,5.28-5,12.31-4.8,19.14.1,2.91.45,6.1-.35,8.94a47.63,47.63,0,0,1-2.53,6.61l-.24.73Q49,101.29,49.89,99.68Z"/><path class="cls-13" d="M101.37,116.64c-.06.18-.41.31-.33,0,2-6.36,3.29-12.59,2.82-19.27,0-.5-.08-1-.12-1.5-.8-4.88-1.31-10.21-3-14.93a41.05,41.05,0,0,0-8.26-13.31c-3.32-3.79-8.61-7-13.71-7.52a26.11,26.11,0,0,0-6.13.17c-.44,0-.89,0-1.33.06a21.13,21.13,0,0,0-2.92.73,18,18,0,0,0-3,1l-.46.15a33.64,33.64,0,0,0-4.42,2.19,31,31,0,0,0-4.36,3,18,18,0,0,0-1.75,2.55,18,18,0,0,0,12.34,5,22.6,22.6,0,0,0,5.56-.64C74.1,74,75.88,73.3,77.71,73c3-.45,5.45.29,7.24,2.83A37.29,37.29,0,0,1,89.35,85,46.78,46.78,0,0,1,91.8,95.57c.69,6.54.09,13.9-4,19.35-3.57,4.77-9,8-15.12,7.49a.27.27,0,0,1-.27-.26,5.58,5.58,0,0,0-.58-2.78,3.69,3.69,0,0,1-.94,3.07,4.68,4.68,0,0,1-3.69.94,27.41,27.41,0,0,1-12.71-4.51c-3.33-2.42-6.12-5.93-6.77-10.1a18,18,0,0,1-.17-3.66c0,.16-.09.32-.13.48-1.2,4.77-1.89,10-.94,14.84.47,2.43,1.37,5,3.39,6.55a33.55,33.55,0,0,0,4.91,3.19,26.36,26.36,0,0,0,14.47,3.08c4.51-.25,9.25-.26,13.69-1.12s9.08-3.06,13.17-5.25c4.63-2.49,6.29-6.46,5.66-11.47C101.66,115.82,101.52,116.23,101.37,116.64Z"/><path class="cls-15" d="M67.44,119.41a3.14,3.14,0,0,0-.06,2.8,2.6,2.6,0,0,0,2.15,1.18c-1.26-.76-2.42-1.7-1.86-3.42a3.47,3.47,0,0,1,1.47-2A2.17,2.17,0,0,0,67.44,119.41Z"/><path class="cls-13" d="M101.37,116.64c-.06.18-.41.31-.33,0a76.52,76.52,0,0,0,2.1-8.27C96.73,119,83.43,123.73,71.43,123.85c-6.73.06-14.42-.83-19.91-5.09a12.26,12.26,0,0,1-5-7.71c0-.12,0-.24,0-.37a29.27,29.27,0,0,0,.07,9.75c.47,2.43,1.37,5,3.39,6.55a33.55,33.55,0,0,0,4.91,3.19,26.36,26.36,0,0,0,14.47,3.08c4.51-.25,9.25-.26,13.69-1.12s9.08-3.06,13.17-5.25c4.63-2.49,6.29-6.46,5.66-11.47C101.66,115.82,101.52,116.23,101.37,116.64Z"/><path class="cls-10" d="M71.84,122.79a2.59,2.59,0,0,1-2.8.62,2.82,2.82,0,0,1-1.78-2.08,3.72,3.72,0,0,1,.48-2.18c.66-1.31,2-1.08,3.06-.44.09.06.25-.13.17-.21-2-1.9-3.9.21-4.15,2.36a2.83,2.83,0,0,0,1.58,2.89A2.76,2.76,0,0,0,72,123C72.16,122.83,72,122.63,71.84,122.79Z"/><path class="cls-10" d="M70.53,121a4.41,4.41,0,0,1-1.45,0c-.25-.51-.54-1.24-.3-1.64.09-.14-.07-.2-.16-.08a1.85,1.85,0,0,0-.07,1.58,2.3,2.3,0,0,1-.49-.26c-.11-.09-.3.15-.2.25a2.33,2.33,0,0,0,.86.56c.24.66.69,1.53,1.44,1.39.11,0,.32-.22.19-.33s-.4-.24-.6-.39a1.51,1.51,0,0,1-.39-.51,2.28,2.28,0,0,0,1-.11C70.55,121.41,70.81,121,70.53,121Z"/><path class="cls-16" d="M98,116.89a.43.43,0,0,0-.59.06h0c-.09,0-.14.19-.15.28a.4.4,0,0,0,.1.33c.17.2.46.06.61-.09A.42.42,0,0,0,98,116.89Z"/><path class="cls-16" d="M93.54,117.59a1.27,1.27,0,0,0-1.71.18l-.08,0a1.1,1.1,0,0,0-.45.82,1.25,1.25,0,0,0,.3,1c.49.57,1.35.15,1.77-.27A1.22,1.22,0,0,0,93.54,117.59Z"/><path class="cls-16" d="M94.73,115.29a.42.42,0,0,0-.58.06h0a.45.45,0,0,0-.16.28.47.47,0,0,0,.11.34c.17.19.46,0,.6-.09A.41.41,0,0,0,94.73,115.29Z"/><path class="cls-16" d="M89.24,117.76c-.15-.16-.43-.08-.58.06h0a.39.39,0,0,0-.15.28.44.44,0,0,0,.1.33c.17.2.46,0,.6-.09A.41.41,0,0,0,89.24,117.76Z"/><path class="cls-16" d="M86.61,120.45a.64.64,0,0,0-.85.09s0,0,0,0-.21.27-.23.41a.62.62,0,0,0,.15.48c.24.28.67.07.88-.13A.6.6,0,0,0,86.61,120.45Z"/><path class="cls-16" d="M97.16,108.13c.15,0,.25-.15.26-.29v0a.33.33,0,0,0-.05-.21.31.31,0,0,0-.2-.11c-.17,0-.25.18-.26.31A.27.27,0,0,0,97.16,108.13Z"/><path class="cls-16" d="M99,105.79c.43,0,.73-.44.76-.85a.08.08,0,0,1,0,0,.76.76,0,0,0-.15-.6.8.8,0,0,0-.58-.34c-.5-.06-.73.52-.75.92A.8.8,0,0,0,99,105.79Z"/><path class="cls-16" d="M99.47,107.45c.15,0,.25-.15.26-.29v0a.31.31,0,0,0,0-.21.27.27,0,0,0-.2-.11c-.17,0-.25.18-.26.31S99.3,107.44,99.47,107.45Z"/><path class="cls-16" d="M101.05,103.79c.15,0,.25-.15.26-.29v0a.24.24,0,0,0,0-.2.28.28,0,0,0-.2-.12c-.17,0-.25.18-.25.31A.27.27,0,0,0,101.05,103.79Z"/><path class="cls-16" d="M101.13,101.3c.22,0,.37-.22.38-.42v0a.37.37,0,0,0-.07-.3.44.44,0,0,0-.29-.17c-.25,0-.36.27-.37.46A.4.4,0,0,0,101.13,101.3Z"/><path class="cls-16" d="M49.67,108.62a.28.28,0,0,0,.26-.29v0a.23.23,0,0,0,0-.21.24.24,0,0,0-.2-.11c-.17,0-.25.18-.25.31A.27.27,0,0,0,49.67,108.62Z"/><path class="cls-16" d="M51.54,106.28c.44,0,.74-.44.76-.85a.17.17,0,0,0,0-.05.74.74,0,0,0-.14-.61.82.82,0,0,0-.59-.34c-.49-.06-.72.53-.74.92A.8.8,0,0,0,51.54,106.28Z"/><path class="cls-16" d="M52,107.94c.14,0,.25-.16.26-.3h0a.23.23,0,0,0,0-.21.27.27,0,0,0-.2-.12c-.17,0-.24.18-.25.32A.28.28,0,0,0,52,107.94Z"/><path class="cls-16" d="M53.57,104.28c.14,0,.24-.15.25-.29v0a.21.21,0,0,0,0-.2.28.28,0,0,0-.2-.12c-.16,0-.24.18-.25.31A.27.27,0,0,0,53.57,104.28Z"/><path class="cls-16" d="M53.65,101.79c.21,0,.36-.22.37-.42l0,0A.42.42,0,0,0,54,101a.4.4,0,0,0-.29-.17c-.24,0-.36.26-.36.46A.39.39,0,0,0,53.65,101.79Z"/><path class="cls-16" d="M60.17,120c0-.23-.26-.36-.47-.35h0a.37.37,0,0,0-.3.1.42.42,0,0,0-.15.32c0,.26.31.35.51.34S60.18,120.21,60.17,120Z"/><path class="cls-16" d="M56.38,117.49c0-.65-.78-1-1.39-1l-.08,0a1.18,1.18,0,0,0-.89.31,1.25,1.25,0,0,0-.42.93c0,.76.9,1,1.49,1A1.2,1.2,0,0,0,56.38,117.49Z"/><path class="cls-16" d="M58.81,116.58c0-.23-.27-.35-.48-.35h0a.41.41,0,0,0-.3.11.44.44,0,0,0-.15.32c0,.26.31.34.51.33A.42.42,0,0,0,58.81,116.58Z"/><path class="cls-16" d="M53.07,114.75c0-.22-.26-.35-.47-.34h0a.37.37,0,0,0-.3.1.4.4,0,0,0-.14.32c0,.25.3.34.5.33A.41.41,0,0,0,53.07,114.75Z"/><path class="cls-16" d="M49.31,115c0-.33-.38-.52-.69-.51h0a.61.61,0,0,0-.44.15.64.64,0,0,0-.21.47c0,.37.45.5.74.48S49.33,115.36,49.31,115Z"/><path class="cls-10" d="M100.38,171.7c0-.16-.09-.31-.13-.47-.22-.49-.34-1-.54-1.52-.33-.89-.72-1.75-1.09-2.63q-1.07-2.6-2.09-5.2-1.87-4.78-3.55-9.64a9.22,9.22,0,0,1-.7-1.41c.37-3.94.59-7.88,1.28-11.81.41-2.33,1-4.63,1.52-7,0-.23.11-.48.19-.74.35-.71.91-1.86.69-2.54a5.4,5.4,0,0,0,.1-2.41c0-.06-.08,0-.08.05a5.31,5.31,0,0,1-.37,1.88c-1.24-1.13-3.57-.64-5.07-.56s-4.35.22-5.46,1.23a2,2,0,0,0-.46.6s-.06,0-.06.06v.08a3.3,3.3,0,0,0-.25,1.34c-1.17,6.25-2.2,12.39-1.35,18.8.34,2.62,2,8.19,4.74,7.54a10.21,10.21,0,0,0,.64,2.29c.58,1.83,1.12,3.68,1.71,5.51.63,2,1.18,4,1.76,6,.09.31.2.63.31.94-1.93.28-3.77,1.43-5.48,2.28a79.79,79.79,0,0,0-8.19,5,32.67,32.67,0,0,0-5.34,3.86A4.24,4.24,0,0,0,67.42,185c-.48.83-.7,2.5.14,3.21a3.29,3.29,0,0,0,2.57.75,2.46,2.46,0,0,0,.78.47,2.63,2.63,0,0,0,1.73,0,1.29,1.29,0,0,0,1.16.73,3.45,3.45,0,0,0,1-.05,1.42,1.42,0,0,0,.1.29c.53,1.07,2.47.92,3.4.79l.54-.09a2.86,2.86,0,0,0,.32.41c1.26,1.27,3.76.35,5-.45a2.88,2.88,0,0,0,1.14-1.28,2.36,2.36,0,0,0,.1-.95c0-.29.26-.53.58-.73,1-.39,2-.79,2.84-1.11a52,52,0,0,0,5.52-2.68c2.17-1.09,4.45-1.2,6.68-2C105.51,180.75,104.27,173.33,100.38,171.7Z"/><path class="cls-11" d="M99.12,182.05a14.34,14.34,0,0,0-3.58.95c-2.8,1.16-5.36,2.76-8.23,3.8-.77.28-1.53.54-2.3.78a3.58,3.58,0,0,1-1.24,3.28c-1,.66-2.64,1.13-3.74.44s-.91-1.89,0-2.73a4.08,4.08,0,0,1,3.13-1,.07.07,0,0,0-.05-.08,4,4,0,0,0-3.47,1,3.75,3.75,0,0,0-.94,1.43v0a1.43,1.43,0,0,0,0,.29h0a2.07,2.07,0,0,0,0,.35,6,6,0,0,1-1,.1c-1,.25-2.37-.18-2.29-1.44a2.73,2.73,0,0,1,1.19-1.94,3.39,3.39,0,0,0-1.73,2.25l-.5.08-.09,0c-1.1.15-1.47-1-1.17-1.88a3.81,3.81,0,0,1,1.82-1.89,5.12,5.12,0,0,0-.81.41,3.11,3.11,0,0,0-1.47,2,2.25,2.25,0,0,0,0,.51,2.14,2.14,0,0,1-1.54,0,1.53,1.53,0,0,1-.7-.47,1.78,1.78,0,0,1-.06-1.81,3.61,3.61,0,0,1,3.16-1.83c-.65-.38-1.7.15-2.25.49a3.28,3.28,0,0,0-1.5,2.42,1.47,1.47,0,0,0,.09.76,3.53,3.53,0,0,1-.76-.1c-1.38-.35-1.61-1.77-1.23-2.93a2.6,2.6,0,0,1,1.94-1.85,3,3,0,0,1,.49-.18c1.4-.35,2.65.25,3.92.77v0c0-.06,0-.07-.07-.06a3.65,3.65,0,0,0-.52-.45c3.72-2.47,7.36-5,11.17-7.35a45.32,45.32,0,0,1,4-2.24,9.73,9.73,0,0,1,3.5-1.37,9.12,9.12,0,0,1,4.29.58,7.14,7.14,0,0,0-3.23-1.11H92.9c-.57-1.81-1.05-3.65-1.6-5.47-.61-2-1.34-4-1.9-6-.29-1.08-1.05-2.19-1.35-3.28a3.89,3.89,0,0,0,1.24-.93,1.76,1.76,0,0,1-1.34.36c-3.8,1.19-4.68-9.85-4.75-11.94a71.38,71.38,0,0,1,1.14-12.46v0c.16-1.05.28-2.76,1.42-3.25a15.4,15.4,0,0,1,4.62-.85,19,19,0,0,1,3.84,0c.71.08,1,.39,1.15.81-.13.35-.25.7-.34,1-.29,1-.5,2.06-.75,3.09-.54,2.32-1.11,4.63-1.52,7-.38,2.17-.78,4.47-1,6.78a.26.26,0,0,1,.07.23,16.72,16.72,0,0,0-.26,2.46v.09a11.89,11.89,0,0,0,.41,3.67.24.24,0,0,0,.06-.11c0-.36.08-.73.12-1.1.26.83.68,1.7.87,2.3.29.93.63,1.85,1,2.76,1.12,2.71,2.12,5.47,3.12,8.23.93,2.24,1.85,4.49,2.74,6.75l0,.05c1.38.07,2.22,1.18,2.6,2.54a6.7,6.7,0,0,1,.67,3.22C103.08,180.44,101.55,181.71,99.12,182.05Z"/><path class="cls-13" d="M84.87,141.09a.26.26,0,0,1,.48.06c.26,1.14,1.71,4.26,3.34,3.14,1-.7,1.32-2.11,1.63-3.25a.26.26,0,0,1,.48-.06A9.87,9.87,0,0,0,92.26,143c.17-1,.34-2,.51-3,.41-2.34,1-4.65,1.52-7,.25-1,.46-2.07.75-3.09.09-.31.21-.66.34-1-.12-.42-.44-.73-1.15-.81a19,19,0,0,0-3.84,0,15.4,15.4,0,0,0-4.62.85c-1.14.49-1.26,2.2-1.42,3.25v0a83.46,83.46,0,0,0-1.15,11.14A12.31,12.31,0,0,0,84.87,141.09Z"/><path class="cls-13" d="M102.49,174.69c-.38-1.36-1.22-2.47-2.6-2.54l0-.05c-.89-2.26-1.81-4.51-2.74-6.75-1-2.76-2-5.52-3.12-8.23-.36-.91-.7-1.83-1-2.76-.19-.6-.61-1.47-.87-2.3,0,.37-.07.74-.12,1.1a.24.24,0,0,1-.06.11,11.89,11.89,0,0,1-.41-3.67v-.09a16.72,16.72,0,0,1,.26-2.46.26.26,0,0,0-.07-.23c.24-2.31.64-4.61,1-6.78.41-2.34,1-4.65,1.52-7,.25-1,.46-2.07.75-3.09.09-.31.21-.66.34-1-.12-.42-.44-.73-1.15-.81a19,19,0,0,0-3.84,0,15.4,15.4,0,0,0-4.62.85c-1.14.49-1.26,2.2-1.42,3.25v0a71.38,71.38,0,0,0-1.14,12.46c0,.32,0,.85.1,1.52a3.52,3.52,0,0,1,2.27-2.48c1.4-.35,2.28,1.62,2.54,2.64.55,2.18,1.13,4.62.64,6.87-.2.92-.59,2.23-1.76,2.1s-1.91-1.33-2.44-2.13h0c.72,2.26,1.8,3.93,3.4,3.43a1.76,1.76,0,0,0,1.34-.36,3.89,3.89,0,0,1-1.24.93,10.51,10.51,0,0,0,.63,1.55,2.7,2.7,0,0,1,.36-1.44c1.58-2.36,3.49,2.6,3.85,3.54a51.48,51.48,0,0,1,1.86,5.84c.32,1.28.47,2.7.91,3.94.33.91.53,1.49,1.41,1.89s2.75,1.72,1.74,2.87a2.89,2.89,0,0,1-3.22.49,2.42,2.42,0,0,0,2.81,1.59.27.27,0,0,1,.32.33c-.86,4.83-14.2,7.21-14.5,8-.11.3.44,2,.29,2.23a3.64,3.64,0,0,1-2.21,2.31,2.45,2.45,0,0,1-2.59-.24,2.71,2.71,0,0,1-.39-.49A1.43,1.43,0,0,0,80,191.3c1.1.69,2.75.22,3.74-.44A3.58,3.58,0,0,0,85,187.58c.77-.24,1.53-.5,2.3-.78,2.87-1,5.43-2.64,8.23-3.8a14.34,14.34,0,0,1,3.58-.95c2.43-.34,4-1.61,4-4.14A6.7,6.7,0,0,0,102.49,174.69Z"/><path class="cls-13" d="M69.64,187.64a3.44,3.44,0,0,1,.88-1.92,3.27,3.27,0,0,1-1-2.15,2.61,2.61,0,0,0-1.75,1.8c-.38,1.16-.15,2.58,1.23,2.93a3.53,3.53,0,0,0,.76.1A1.47,1.47,0,0,1,69.64,187.64Z"/><path class="cls-16" d="M94.7,180.08a.43.43,0,0,0-.47-.35h0a.41.41,0,0,0-.31.11.42.42,0,0,0-.14.32c0,.25.31.34.51.33A.41.41,0,0,0,94.7,180.08Z"/><path class="cls-16" d="M90.91,177.62c0-.66-.78-1-1.39-1l-.08,0a1.09,1.09,0,0,0-.89.31,1.21,1.21,0,0,0-.42.92c0,.76.9,1,1.49,1A1.21,1.21,0,0,0,90.91,177.62Z"/><path class="cls-16" d="M93.33,176.7c0-.22-.26-.35-.47-.34h0a.37.37,0,0,0-.3.1.41.41,0,0,0-.15.32c0,.26.31.35.51.34S93.34,177,93.33,176.7Z"/><path class="cls-16" d="M87.27,181.61c0-.22-.27-.35-.48-.34h0a.38.38,0,0,0-.3.11.42.42,0,0,0-.15.31c0,.26.31.34.51.33A.41.41,0,0,0,87.27,181.61Z"/><path class="cls-16" d="M83.51,181.86c0-.33-.38-.51-.69-.5l0,0a.58.58,0,0,0-.44.16.62.62,0,0,0-.21.46c0,.37.45.5.74.48S83.53,182.23,83.51,181.86Z"/><path class="cls-10" d="M67.14,171.61a75,75,0,0,0-1-11.69c-.36-2.21-.71-4.42-1.2-6.6-.32-1.4-1.38-2.92-1.69-4.37a.09.09,0,0,0,0-.06,32.39,32.39,0,0,0,.64-3.82,45.42,45.42,0,0,1,1.63-6.37c.56-1.83,1.08-3.66,1.7-5.47,0,.13,0,.25,0,.38s.28.06.32-.07a4.47,4.47,0,0,0,.21-1.47c.4-.73.91-1.61.74-2.27,0-.09-.12,0-.13.07a7.73,7.73,0,0,1-.64,1.75c-.36-2.87-3.44-5.18-6-6.35-1-.48-2.5-1-3.48-.29a1.7,1.7,0,0,1,0,.22c-.91.1-1.64,6.1-1.72,6.7a94.91,94.91,0,0,0-.64,9.54,55,55,0,0,0,.09,8.8,3,3,0,0,0,.91,1.93c.25,1.1.62,2.19.76,3.3.2,1.57.44,3.23.78,4.78.26,3,.27,6.12.37,9.13a72.83,72.83,0,0,0-15.71,5.16c-1.13.5-2.27,1-3.37,1.55a22.2,22.2,0,0,1-5.7,1.66,6.62,6.62,0,0,0-2,.74,1.53,1.53,0,0,0-.89-.17.06.06,0,0,0,0,0s-.33-.35-.36-.37a1.19,1.19,0,0,0-.65-.21,1.71,1.71,0,0,0-1.33.48c-.66.65-.77,2.06.33,2.31a.14.14,0,0,0,.09,0,1.74,1.74,0,0,0,.37.95,1.61,1.61,0,0,0,1.49.68.24.24,0,0,0,.09-.06c.34.75,1,1.38,1.74,1.19a2,2,0,0,0,2.48,1.56c.91,3.74,6.76,2.09,8.71-.68,1.94.92,3.87.57,6.25-.07,2-.56,4.11-1.11,6.14-1.78s3.81-1.66,6.12-1.72c2.56-.06,5,.86,6.42-1.85C70.18,176.42,68.64,173.62,67.14,171.61Z"/><path class="cls-11" d="M29.34,179.62a2.78,2.78,0,0,0-.12.38,1.32,1.32,0,0,1-.52-.76c-.13-.57.45-1,.93-1.07a2.17,2.17,0,0,1,1.07.16l.12.06-.16,0A2.41,2.41,0,0,0,29.34,179.62Z"/><path class="cls-13" d="M29.74,178.16h-.11c-.48.08-1.06.5-.93,1.07a1.32,1.32,0,0,0,.52.76,2.78,2.78,0,0,1,.12-.38,2.23,2.23,0,0,1,.66-.81A2.39,2.39,0,0,1,29.74,178.16Z"/><path class="cls-11" d="M35.25,184.24a1.85,1.85,0,0,1-1.25-.35,1.65,1.65,0,0,1-.66-1c0-.13.07-.25-.05-.25a2.26,2.26,0,0,1,.07-.89c.44-1.6,1.94-1.53,3.26-1.48A4.81,4.81,0,0,0,35.25,184.24Z"/><path class="cls-13" d="M35.75,181.5a12.7,12.7,0,0,1-2-.46,2.1,2.1,0,0,0-.36.75,2.26,2.26,0,0,0-.07.89c.12,0,.1.12.05.25a1.65,1.65,0,0,0,.66,1,1.85,1.85,0,0,0,1.25.35A5.12,5.12,0,0,1,35.75,181.5Z"/><path class="cls-11" d="M68.37,178.53a2.34,2.34,0,0,1-2.24,1.38,3.35,3.35,0,0,1-1.56-.07,12.72,12.72,0,0,0-6.11.85,60.5,60.5,0,0,1-7.38,2.4,14.5,14.5,0,0,1-4.76.91,2.78,2.78,0,0,1-.64-.12c-.53,0-1-.16-1.61-.26a7.11,7.11,0,0,1-1.41-.36,7.92,7.92,0,0,0,1.07.71,6.57,6.57,0,0,1-5,2.16,2.57,2.57,0,0,1-1.64-.54,2.62,2.62,0,0,1-.79-.83,3.08,3.08,0,0,1,1.47-4.33,3.21,3.21,0,0,1,2.22-.49,7,7,0,0,1,2.49,1c-.67-1.92-3.14-2-4.78-1.29A3.79,3.79,0,0,0,37,180c-1.41-.91-3.42.08-4,1.56a2.6,2.6,0,0,0-.17,1.09,2,2,0,0,1-1.4-1.5,1.22,1.22,0,0,1,.84-1.38,2.87,2.87,0,0,1,1.12-.16L33,179.5a1.52,1.52,0,0,0-.6-.1l-.1,0A1.75,1.75,0,0,0,31,181.55a1.72,1.72,0,0,1-1.23-1.5,1.33,1.33,0,0,1,.91-1.07,1.38,1.38,0,0,1,.89-.29,5.62,5.62,0,0,0,1.48-.07c.53-.18,1-.45,1.56-.61a28.45,28.45,0,0,1,5-1.18c1.87-.88,3.76-1.72,5.68-2.49,2.55-1,5.15-1.93,7.75-2.82,1.94-.66,3.91-1.14,5.88-1.65,0,.11,0,.21,0,.32a.77.77,0,0,1,.12-.13,6,6,0,0,0,.61-.62l.18-.24-.32.06a62.78,62.78,0,0,0-.33-6.56c-.1-1.29-.16-2.77-.34-4.21a15.26,15.26,0,0,0-1-5.84,4,4,0,0,0,2,0c.1,0,.26-.25.09-.26-3.22-.2-3.33-2.77-3.41-5.43s.06-5.43.18-8.12c.2-4.31.26-9.09,1.72-13.23a.17.17,0,0,0,0,.07c.67-.91,2-.47,3.08,0,2.8,1.18,5.61,3.71,5.77,6.79a18.43,18.43,0,0,0-.87,1.8c-.64,1.7-1.16,3.46-1.7,5.19a42,42,0,0,0-2,9.52c0,.09,0,.14,0,.17a6,6,0,0,0,.58,1.82,24.15,24.15,0,0,1,1.38,5c0,.13.07.25.1.37.43,1.85.86,3.7,1.14,5.58a61.66,61.66,0,0,1,.48,9.52.09.09,0,0,1,0,.05C67.84,173.29,69.52,176.3,68.37,178.53Z"/><path class="cls-13" d="M57.16,146.07a15,15,0,0,0,3.3-2.41.27.27,0,0,1,.42.33,12.65,12.65,0,0,0-.77,2,4.34,4.34,0,0,0,3.21-1.28,46.87,46.87,0,0,1,1.35-5.17c.54-1.73,1.06-3.49,1.7-5.19a18.43,18.43,0,0,1,.87-1.8c-.16-3.08-3-5.61-5.77-6.79-1.08-.46-2.41-.9-3.08,0a.17.17,0,0,1,0-.07c-1.46,4.14-1.52,8.92-1.72,13.23-.11,2.49-.24,5-.19,7.52A7.37,7.37,0,0,0,57.16,146.07Z"/><path class="cls-13" d="M33,180.8c-.45-.18-.93-.36-1.39-.59a1,1,0,0,0-.26,1,2,2,0,0,0,1.4,1.5,2.6,2.6,0,0,1,.17-1.09,3.07,3.07,0,0,1,.39-.68Z"/><path class="cls-13" d="M30.91,180.82a1.56,1.56,0,0,1,.37-.8,3.58,3.58,0,0,1-1-.83,1.13,1.13,0,0,0-.54.86,1.72,1.72,0,0,0,1.23,1.5A1.84,1.84,0,0,1,30.91,180.82Z"/><path class="cls-13" d="M66.45,171.52a.09.09,0,0,0,0-.05A61.66,61.66,0,0,0,66,162c-.28-1.88-.71-3.73-1.14-5.58,0-.12-.07-.24-.1-.37a24.15,24.15,0,0,0-1.38-5,6,6,0,0,1-.58-1.82s-.06-.08,0-.17a42,42,0,0,1,2-9.52c.54-1.73,1.06-3.49,1.7-5.19a18.43,18.43,0,0,1,.87-1.8c-.16-3.08-3-5.61-5.77-6.79-1.08-.46-2.41-.9-3.08,0a.17.17,0,0,1,0-.07c-1.46,4.14-1.52,8.92-1.72,13.23-.07,1.63-.15,3.27-.19,4.91A3.32,3.32,0,0,1,57,143c.64-.61,1.65-1.22,2.46-.49a4.21,4.21,0,0,1,1.08,3.17c.1,1.86.13,6-2.64,5.92a1.09,1.09,0,0,1-.26,0,3.41,3.41,0,0,0,2.22.84c.17,0,0,.24-.09.26a4,4,0,0,1-2,0,8.91,8.91,0,0,1,.43,1.16c.23-.4.61-.57,1.2-.24,1.44.8,1.94,3.16,2.31,4.62A40.35,40.35,0,0,1,63,166.93a17.13,17.13,0,0,1-.12,2.77c-.11.86.25,1.14.75,1.79a9.35,9.35,0,0,1,1.84,3.17c.54,2.13-.64,3.43-2.78,3.06a5.77,5.77,0,0,0-4,.26,36.06,36.06,0,0,0-3.21,1.8c-3.47,2.1-8.71,5.13-11.82,1.16a4.09,4.09,0,0,1-5,2.44c-.94-.36-2.15-1.36-1.85-2.25a2.88,2.88,0,0,0-.54,3.63,2.62,2.62,0,0,0,.79.83,2.57,2.57,0,0,0,1.64.54,6.57,6.57,0,0,0,5-2.16,7.92,7.92,0,0,1-1.07-.71,7.11,7.11,0,0,0,1.41.36c.56.1,1.08.21,1.61.26a2.78,2.78,0,0,0,.64.12,14.5,14.5,0,0,0,4.76-.91,60.5,60.5,0,0,0,7.38-2.4,12.72,12.72,0,0,1,6.11-.85,3.35,3.35,0,0,0,1.56.07,2.34,2.34,0,0,0,2.24-1.38C69.52,176.3,67.84,173.29,66.45,171.52Z"/><path class="cls-16" d="M60.06,176.68c0-.23-.26-.36-.47-.35h0a.41.41,0,0,0-.3.11.41.41,0,0,0-.15.32c0,.26.31.34.51.33S60.07,176.93,60.06,176.68Z"/><path class="cls-16" d="M56.27,174.22c0-.66-.77-1-1.39-1l-.08,0a1.14,1.14,0,0,0-.89.31,1.21,1.21,0,0,0-.42.93c0,.75.9,1,1.49,1A1.22,1.22,0,0,0,56.27,174.22Z"/><path class="cls-16" d="M58.7,173.31c0-.23-.27-.36-.48-.35h0a.37.37,0,0,0-.3.1.46.46,0,0,0-.15.32c0,.26.31.35.51.34A.42.42,0,0,0,58.7,173.31Z"/><path class="cls-16" d="M52.63,178.22a.43.43,0,0,0-.47-.35h0a.38.38,0,0,0-.3.11.41.41,0,0,0-.14.31c0,.26.3.35.5.33S52.64,178.47,52.63,178.22Z"/><path class="cls-16" d="M48.88,178.46c0-.32-.39-.51-.7-.5h0a.54.54,0,0,0-.44.15.59.59,0,0,0-.21.46c0,.38.44.5.74.49A.6.6,0,0,0,48.88,178.46Z"/><path class="cls-10" d="M124,122c-1-1.21-2.17-.7-3,.2a18.18,18.18,0,0,0-.5-5.78,4.7,4.7,0,0,0-3.14-3,75,75,0,0,1,2-9c.51-2.28,1.46-5.19,1.35-7.77a2.94,2.94,0,0,0,1.13-3.32,4.44,4.44,0,0,0-1.94-2.42,4.68,4.68,0,0,0-1.58-.53,1.5,1.5,0,0,0-.22,0,78,78,0,0,0-9-11c-1.88-2.06-3.9-4-5.89-6a18.21,18.21,0,0,0-6.56-4.15c-2.61-1-6.69.46-6.68,3.56a3.27,3.27,0,0,0,.2,1,3,3,0,0,1,.68-2c.83-.92,2-1.22,2.84-.07,1,1.52,1.25,3.43,2.29,5a18.62,18.62,0,0,0,2.56,2.76c2.21,1.83,4.23,3.93,6.31,5.85,3,2.8,6.25,5.64,8.54,9.11a24,24,0,0,0-1.57,5,88.63,88.63,0,0,0-1.49,8.89,28.61,28.61,0,0,0-.26,5.75c-1.93,1.7-3,5-3.61,7-.37,1.35-1.72,3.59-1.08,4.94a1.33,1.33,0,0,0,1.12.8,4.91,4.91,0,0,0,.34,1.13,2.75,2.75,0,0,0,3.81,1.48,1.28,1.28,0,0,0,.61.21,4,4,0,0,0,.41.21,2.86,2.86,0,0,0,3.12-.42,4,4,0,0,0,.74.25,2.66,2.66,0,0,0,2.8-.82,3.5,3.5,0,0,0,1.12.35c1.67.24,3.47-1.12,4.26-2.49S125.11,123.41,124,122Z"/><path class="cls-11" d="M121.78,127.93a3.27,3.27,0,0,1-1.46.61,2.56,2.56,0,0,1-2.35-.48c-.54-.38-.79-1.07-1.41-1.36a2.14,2.14,0,0,1,.17.56,1.41,1.41,0,0,0,.74.86,4,4,0,0,0,.54.47,2.69,2.69,0,0,1-2.26.41,2,2,0,0,1-1.34-.47,2.43,2.43,0,0,1-.71-.88c-.09-.24-.23-.93-.57-.89a1.4,1.4,0,0,0-.53.19.67.67,0,0,1,.39.2,3.49,3.49,0,0,0,.65,1.29,1.48,1.48,0,0,0,.36.39,3.61,3.61,0,0,0,.44.33,3.05,3.05,0,0,1-2.1.16,2.07,2.07,0,0,1-1.38-.43,2.35,2.35,0,0,1-.69-1c-.23-.65-.5-1-1.1-.81.65.28.5,1,.83,1.6a2.13,2.13,0,0,0,.23.32,2.37,2.37,0,0,1-2.38-.86c-1.15-1-1.12-2.75-1-4.33a4.82,4.82,0,0,0-.41,1.75c-.8-1.16.5-4,.85-5.31a15.08,15.08,0,0,1,2-4.52c.12-.2.24-.41.38-.6.67-1,1.74-1.37,2.54-2.15a3.72,3.72,0,0,0-1.3.45,49.61,49.61,0,0,1,.57-8.67q.45-2.82,1-5.6c.12-.61.28-1.47.51-2.35a6.43,6.43,0,0,1,2.12-4.12c-.5,0-1,.44-1.35,1.06a23.17,23.17,0,0,0-2.52-3.13,52,52,0,0,0-4.83-4.79,86.12,86.12,0,0,0-8.73-7.57l-1-.21c.24.17.48.33.71.51-2.85,1.74-11.16-6.61-4.4-8.79,4.25-1.38,8,2.48,10.82,5.09.12.11.24.22.35.34a60.19,60.19,0,0,1,7.07,7.21c1.62,1.85,3.14,3.78,4.7,5.68.6.73,1.17,1.47,1.71,2.24h-.49s-.13.05-.12.12c.23,0,.47.06.71.11h.06v0l.43.1,0,0a4.16,4.16,0,0,1,.79.3,3.34,3.34,0,0,1,2.36,2.83,4.35,4.35,0,0,1-.49,1.86l-.06.17h0l0,0a3.29,3.29,0,0,1-1.07,1.28.22.22,0,0,0,.15,0l.15-.09,0,.18a69.54,69.54,0,0,1-1.78,8.91,49.55,49.55,0,0,0-1.53,7.16,2.84,2.84,0,0,0-.65,0,3.36,3.36,0,0,0,.82.3,5.29,5.29,0,0,1,1.15.61,3.55,3.55,0,0,1,1.17,1.14,7.81,7.81,0,0,1,1.31,3.42c.22,1.45-.13,3,.09,4.38h0a2.66,2.66,0,0,0,.12,1.22,1.52,1.52,0,0,0,.12.43.94.94,0,0,1,0,.16,3.36,3.36,0,0,1-.2,1.93c0,.14.11.13.17.05a4,4,0,0,0,.71-1.8,3.28,3.28,0,0,0,0-.55h.1a1,1,0,0,0,.69-.09s0,0,0,0a1.11,1.11,0,0,0-.89-.41,2.8,2.8,0,0,0-.43-1l0-.29c1.38-1.66,2.86-.38,3.08,1.1S123,127.11,121.78,127.93Z"/><path class="cls-12" d="M111.27,90.6a23.17,23.17,0,0,1,2.52,3.13,3,3,0,0,1,.5-.63l0,0c-3.22-3.35-6.37-6.78-9.57-10.15-2.56-2.68-5.36-5.44-9.06-6.3a16.87,16.87,0,0,0,1.55,1.5l.54.12a86.12,86.12,0,0,1,8.73,7.57A52,52,0,0,1,111.27,90.6Z"/><path class="cls-12" d="M113.76,113.15c-2.17.2-3.63,1.78-5,3.47a16.57,16.57,0,0,0-1.48,3.61c0,.17-.11.37-.18.59a26.36,26.36,0,0,1,2-3.49A11.91,11.91,0,0,1,113.76,113.15Z"/><path class="cls-12" d="M112.51,99.14q-.54,2.77-1,5.6a50.53,50.53,0,0,0-.57,6.56A105.13,105.13,0,0,1,113.05,99a13.69,13.69,0,0,1,1.9-5,5,5,0,0,1,1.34-1.36,5.19,5.19,0,0,1-1.33.21,6.77,6.77,0,0,0-1.94,4C112.79,97.67,112.63,98.53,112.51,99.14Z"/><path class="cls-13" d="M124.11,123.82c-.22-1.48-1.7-2.76-3.08-1.1l0,.29a2.8,2.8,0,0,1,.43,1,1.11,1.11,0,0,1,.89.41s0,0,0,0a1,1,0,0,1-.69.09h-.1a3.28,3.28,0,0,1,0,.55,4,4,0,0,1-.71,1.8c-.06.08-.22.09-.17-.05a3.36,3.36,0,0,0,.2-1.93.94.94,0,0,0,0-.16,1.52,1.52,0,0,1-.12-.43,2.66,2.66,0,0,1-.12-1.22h0c-.22-1.43.13-2.93-.09-4.38a7.81,7.81,0,0,0-1.31-3.42,3.55,3.55,0,0,0-1.17-1.14,5.29,5.29,0,0,0-1.15-.61,3.36,3.36,0,0,1-.82-.3,2.84,2.84,0,0,1,.65,0,49.55,49.55,0,0,1,1.53-7.16A69.54,69.54,0,0,0,120,97.18l0-.18-.15.09a.22.22,0,0,1-.15,0,3.29,3.29,0,0,0,1.07-1.28l0,0h0l.06-.17a4.35,4.35,0,0,0,.49-1.86,3.34,3.34,0,0,0-2.36-2.83,4.16,4.16,0,0,0-.79-.3l0,0-.43-.1v0h-.06c-.24,0-.48-.08-.71-.11,0-.07.07-.17.12-.12h.49c-.54-.77-1.11-1.51-1.71-2.24-1.56-1.9-3.08-3.83-4.7-5.68a60.19,60.19,0,0,0-7.07-7.21c-.11-.12-.23-.23-.35-.34-2.81-2.61-6.57-6.47-10.82-5.09a3.49,3.49,0,0,0-2.42,2c2.51-2.66,7,.35,9.5,2.5,2.82,2.38,5.52,4.92,8.14,7.52,2.85,2.83,5.44,6,8.39,8.71a.26.26,0,0,1-.12.44,3.92,3.92,0,0,0-3.09,2.35l.33.51a2.44,2.44,0,0,1,.94-1,2.72,2.72,0,0,1,2.12-.73c1.79.19,2.12,2.62,2.05,4a35.8,35.8,0,0,1-2.57,10.11c-.67,1.82-1.28,3.68-2,5.48-.25.65-.89,1.46,0,1.89a6,6,0,0,1,1.31.8c3.6,3.12,1.9,10.85-3.09,11.56-3.85.55-5.42-3-5.08-6.26l-.18.59c-.35,1.27-1.65,4.15-.85,5.31a4.82,4.82,0,0,1,.41-1.75c-.11,1.58-.14,3.36,1,4.33a2.37,2.37,0,0,0,2.38.86,2.13,2.13,0,0,1-.23-.32c-.33-.56-.18-1.32-.83-1.6.6-.23.87.16,1.1.81a2.35,2.35,0,0,0,.69,1,2.07,2.07,0,0,0,1.38.43,3.05,3.05,0,0,0,2.1-.16,3.61,3.61,0,0,1-.44-.33,1.48,1.48,0,0,1-.36-.39,3.49,3.49,0,0,1-.65-1.29.67.67,0,0,0-.39-.2,1.4,1.4,0,0,1,.53-.19c.34,0,.48.65.57.89a2.43,2.43,0,0,0,.71.88,2,2,0,0,0,1.34.47,2.69,2.69,0,0,0,2.26-.41,4,4,0,0,1-.54-.47,1.41,1.41,0,0,1-.74-.86,2.14,2.14,0,0,0-.17-.56c.62.29.87,1,1.41,1.36a2.56,2.56,0,0,0,2.35.48,3.27,3.27,0,0,0,1.46-.61C123,127.11,124.33,125.38,124.11,123.82Z"/><path class="cls-11" d="M50.13,45.29s-5.26-4.77-11.89-1.83-8.3,7.74-8.3,7.74A3.87,3.87,0,0,1,34.09,51c2.08,1.33,14.65,8.69,19.51-.51Z"/><path class="cls-17" d="M45.9,55.27h0C40.64,55.27,35,51.88,34,51.2a3.14,3.14,0,0,0-1.72-.51,4.08,4.08,0,0,0-2.18.69.24.24,0,0,1-.26,0,.22.22,0,0,1-.08-.25c.07-.2,1.79-4.93,8.42-7.87a11,11,0,0,1,4.49-1,12.29,12.29,0,0,1,7.64,2.84l0,.05,3.48,5.21a.24.24,0,0,1,0,.22A8.34,8.34,0,0,1,45.9,55.27Zm-13.65-5a3.64,3.64,0,0,1,2,.58c1,.67,6.55,4,11.69,4a7.92,7.92,0,0,0,7.45-4.32L50,45.43a12.08,12.08,0,0,0-7.33-2.71,10.64,10.64,0,0,0-4.31.94,15.85,15.85,0,0,0-7.92,7A4.34,4.34,0,0,1,32.25,50.25Z"/><path class="cls-13" d="M38.66,43.29a14.22,14.22,0,0,1,3.19,0,2.67,2.67,0,0,1,2,1.15c.19.36.22.77-.18,1a6.08,6.08,0,0,1-2.16.44,24.46,24.46,0,0,0-3.78.81,10,10,0,0,0-3.89,2.14c-.56.52-1.11,1.07-1.67,1.61a3.6,3.6,0,0,1,.65,0,7,7,0,0,1,4,.57c2.42.95,4.59,2.29,7.28,2.33a11.24,11.24,0,0,0,2.77-.28c.27-.07.7-.22,1,0,.71.46-.39,1.59-.75,1.86L47,55a8,8,0,0,0,6.63-4.5l-3.47-5.21S45.08,40.72,38.66,43.29Z"/><path class="cls-18" d="M43.66,46.56a12.4,12.4,0,0,0-9.43,2.75s0,0,0,0c4-2.95,9-2.69,13.57-1.29.81,2-.88,3.74-2.77,4a8.62,8.62,0,0,1-4.62-.69s0,0,0,0c2,1,4.77,2,6.76.47a3.07,3.07,0,0,0,.93-3.73,37.88,37.88,0,0,1,5.4,2.21c.1,0,.11-.12,0-.16C50.41,48.33,47.35,46.85,43.66,46.56Z"/><g class="cls-19"><path class="cls-20" d="M44,46.57a10.86,10.86,0,0,0-7,1.24A18.46,18.46,0,0,0,35.08,49c3.78,2,8,5.33,12.15,2.62a4.57,4.57,0,0,0,1.08-4A20.58,20.58,0,0,0,44,46.57Z"/><path class="cls-17" d="M43.91,52.81h0c-2.46,0-4.85-1.37-7.16-2.68-.62-.35-1.19-.68-1.77-1a.21.21,0,0,1-.12-.17.22.22,0,0,1,.08-.19,9,9,0,0,1,1.32-.84l.55-.32a10,10,0,0,1,5.29-1.37,16.2,16.2,0,0,1,1.88.11,20.23,20.23,0,0,1,4.4,1,.21.21,0,0,1,.14.16,4.8,4.8,0,0,1-1.14,4.24A6.16,6.16,0,0,1,43.91,52.81Zm-8.42-3.89c.48.26,1,.53,1.47.82,2.27,1.29,4.61,2.63,6.95,2.63h0a5.66,5.66,0,0,0,3.2-1,4.3,4.3,0,0,0,1-3.68,20.39,20.39,0,0,0-4.19-.92,17.5,17.5,0,0,0-1.83-.1A9.44,9.44,0,0,0,37,48l-.56.32C36.13,48.52,35.8,48.7,35.49,48.92Z"/></g><path class="cls-12" d="M31.08,49.72s4.51-6,10.76-6.68A32.33,32.33,0,0,0,31.08,49.72Z"/><path class="cls-11" d="M97.57,53.34c-.2-3.56-.39-7.21-.85-10.78a26.83,26.83,0,0,0-.1-9.79,20.58,20.58,0,0,0-4-8.38,32.55,32.55,0,0,0-3.43-3.74c-4.84-4.58-11.8-6.62-18.36-6.52a25.55,25.55,0,0,0-5.51.67,25.16,25.16,0,0,0-8.86,3.82,25.63,25.63,0,0,0-5.19,4.73,19.71,19.71,0,0,0-3,4.95,19.88,19.88,0,0,0-.89,4.35c-.15,1.83-.11,3.66-.11,5.49.15,2.14.34,4.27.32,6.42-.05,5.07-1.77,9.95-1.71,15a12.62,12.62,0,0,0,3.37,8.94c1.43,1.43,3.5,2,5.41,2.35s7.49,1.42,7.88,1.64c1.61.91,3.81,1.88,5.61,1.73,5.39-.46,5.79-2,7.48-3C76,71,84,70.63,86.4,70.18c3.59-.67,7.44-2.16,9.35-5.47C97.78,61.22,97.81,57.27,97.57,53.34Z"/><path class="cls-21" d="M67.76,74.51h0a12.09,12.09,0,0,1-5.33-1.78c-.26-.14-3-.68-5.08-1.07-1.09-.21-2.1-.41-2.74-.55-2-.42-4.06-1-5.52-2.4a12.89,12.89,0,0,1-3.43-9.1,42.82,42.82,0,0,1,.86-7.8,45,45,0,0,0,.85-7.25c0-1.85-.12-3.73-.26-5.54l-.06-.86v-1c0-1.48,0-3,.12-4.53a20,20,0,0,1,.9-4.4,20.51,20.51,0,0,1,3.06-5,26.38,26.38,0,0,1,5.24-4.77,25.79,25.79,0,0,1,8.94-3.86,26.34,26.34,0,0,1,5.56-.67h.44c7.06,0,13.64,2.4,18.07,6.59a31.14,31.14,0,0,1,3.45,3.77,20.63,20.63,0,0,1,4,8.46,26.8,26.8,0,0,1,.11,9.84c.42,3.25.61,6.57.8,9.79l.05,1c.22,3.64.27,7.84-1.85,11.49-1.64,2.83-4.83,4.7-9.5,5.57-1.29.25-4.09.47-6.57.66-1.83.15-3.9.31-4.13.41a7.69,7.69,0,0,0-1,.76c-1.1.89-2.35,1.91-6.53,2.27ZM71.3,14.34h-.44A25.48,25.48,0,0,0,65.4,15a25,25,0,0,0-13.93,8.48,19.75,19.75,0,0,0-3,4.89,19.34,19.34,0,0,0-.87,4.29c-.13,1.49-.12,3-.12,4.49v1l.07.85c.13,1.82.28,3.71.26,5.57A45.45,45.45,0,0,1,47,51.88a43.25,43.25,0,0,0-.85,7.73,12.45,12.45,0,0,0,3.3,8.79c1.37,1.37,3.37,1.88,5.3,2.29l2.74.54a49.17,49.17,0,0,1,5.21,1.12,11.67,11.67,0,0,0,5.11,1.72h0l.37,0c4.05-.35,5.24-1.32,6.29-2.17a9.19,9.19,0,0,1,1.1-.81,27.82,27.82,0,0,1,4.32-.45c2.46-.2,5.25-.42,6.52-.66,4.54-.85,7.63-2.65,9.2-5.36,2.06-3.55,2-7.67,1.8-11.25l-.06-1c-.19-3.22-.38-6.55-.8-9.79,0,0,0-.05,0-.07a26.32,26.32,0,0,0-.1-9.71,20.16,20.16,0,0,0-3.93-8.28,31,31,0,0,0-3.4-3.72C84.72,16.7,78.25,14.34,71.3,14.34Z"/><path class="cls-13" d="M66.44,43.46c-.89-.36-2.08-.37-2.39-1.44a7.35,7.35,0,0,1-.17-1.93,4.51,4.51,0,0,0-.36-1.51,9.53,9.53,0,0,1-.1,3.29c-.26,1-.88,1.21-1.81,1.53A7.35,7.35,0,0,0,57,48.26c1.09-2.09,2.66-4.17,5.15-4.51A12.79,12.79,0,0,1,70,45.37,18,18,0,0,0,66.44,43.46Z"/><path class="cls-22" d="M57.41,36.55c-1.71.09-4.67.7-5.93,2a12,12,0,0,0-1.22,1.59,4.48,4.48,0,0,0,3,3.21A6.91,6.91,0,0,0,58,42.67c2.58-1.28,5-3.88,4.53-6.88C61.55,37.51,59.3,36.46,57.41,36.55Z"/><path class="cls-22" d="M76.83,33.9c-2,.42-3.88,1.28-5.86,1.64a4.77,4.77,0,0,1-1.89,0c.66,5,6.41,5.26,10.43,4.4,3.27-.7,8.24-2.29,8.5-6.29v0A34.7,34.7,0,0,0,76.83,33.9Z"/><path class="cls-13" d="M49.61,45a9.14,9.14,0,0,1,1.83-.5c2.49-.3,12.16-3,15.9-3.45a84.74,84.74,0,0,1,8.9-.72c4.41-.4,8.8-1,12.71-3.07,0,0,0,0,0,0-2.61-1.41-15.68.49-19.42,1a62.45,62.45,0,0,0-12.16,2.76A53.43,53.43,0,0,0,51.81,43a19.63,19.63,0,0,0-3.51,2.33Z"/><path class="cls-13" d="M54.16,27.72a2.51,2.51,0,0,0-.4,2.48c-.16-1.18,1.44-2.51,2.48-1.52C56.14,27.58,55.26,26.57,54.16,27.72Z"/><path class="cls-13" d="M63,19.55a1.51,1.51,0,0,1,.56,0c1.48.22,1.21,1.57.57,2.54.77-.47,1.46-1.42,1-2.15A1.51,1.51,0,0,0,63,19.55Z"/><path class="cls-13" d="M89.57,30.19a1.65,1.65,0,0,1,.54.35c.86.84,0,2-.71,2.76a2.41,2.41,0,0,0,1.32-.54,1.41,1.41,0,0,0,.18-2A2.31,2.31,0,0,0,89.57,30.19Z"/><path class="cls-13" d="M85.19,18.56a2,2,0,0,0-1.29-.14,1.8,1.8,0,0,1,.92.44c.88.85.59,1.85.19,2.83A1.86,1.86,0,0,0,85.19,18.56Z"/><path class="cls-13" d="M74.32,55.25A2.13,2.13,0,0,1,73,54.69a5.88,5.88,0,0,0-2.87-2.16,6.21,6.21,0,0,0-2.42-.17c1.48.5,3.31,1.15,3.55,2.77a2.59,2.59,0,0,1-2.71,3c-1.21,0-2.6-.7-3.79-.4a3.88,3.88,0,0,0-.91.4,10.35,10.35,0,0,1,3.59.57c1.88.58,5,1.77,5.55-1.18.15-.83.34-1.3,1.25-1.25a26.06,26.06,0,0,1,3.61.48A7.21,7.21,0,0,0,74.32,55.25Z"/><path class="cls-15" d="M46,58.9c.4-3.59,1.76-6.88,2.45-10.4.85-4.34.15-8.39-.64-12.68-.17-.88-.32-1.77-.41-2.67-.11,1.66-.08,3.33-.08,5,.15,2.14.34,4.27.32,6.42-.05,5.07-1.77,9.95-1.71,15v.13C45.9,59.46,45.92,59.18,46,58.9Z"/><path class="cls-13" d="M96.62,32.77a20.58,20.58,0,0,0-4-8.38,32.55,32.55,0,0,0-3.43-3.74c-4.84-4.58-11.8-6.62-18.36-6.52a25.55,25.55,0,0,0-5.51.67,25.16,25.16,0,0,0-8.86,3.82,26.3,26.3,0,0,0-2.8,2.23,26.7,26.7,0,0,1,18.07-4.58,17.2,17.2,0,0,1,12.77,8.85c.85,1.57,2.25,4.56,1.19,6.31-.34.58-1.44.59-2,.69l-2.89.52c1,0,2.1-.06,3.15,0,.67,0,1.56.18,1.55,1,0,1.68-1.66,3-3.15,3.9a12,12,0,0,1-5.3,1.89c1.6.95,5.42,2.73,7,3.73a12,12,0,0,1,1.65,1.29c2.27,1.51,3.68,4.3,4.52,6.8,1.2,3.6,2.31,7.87,1.48,11.68-.73,3.3-3.76,5.13-6.55,6.52-.68.34-1.34.72-2,1.09,1.33-.12,2.51-.25,3.22-.38,3.59-.67,7.44-2.16,9.35-5.47,2-3.49,2.06-7.44,1.82-11.37-.2-3.56-.39-7.21-.85-10.78A26.83,26.83,0,0,0,96.62,32.77Z"/><path class="cls-13" d="M92.18,64.2a2.45,2.45,0,0,0,3.07-1.91c.31-1.7-1-2.46-2.42-2.49.92.58,2,1.43,1.69,2.46S93.15,63.8,92.18,64.2Z"/><path class="cls-13" d="M60.8,31.71c1.07,1.61,1.68,4.45-.87,4.7-1.8.17-3.54-.24-5.35.22a6.34,6.34,0,0,0-3.92,2.5c.61,2,3.22,3.13,5.15,2.95,1.71-.17,4-1.08,4.92-2.65.36-.61.3-1.27.67-1.84a2.63,2.63,0,0,1,.64-.5,2.14,2.14,0,0,0,.85-2.17A5.16,5.16,0,0,0,60.8,31.71Z"/><path class="cls-13" d="M65.44,31.73a4.47,4.47,0,0,0-.67,2.6c.28,1.19,1.61,2.5,2.89,2.05a10.23,10.23,0,0,1-2-2.79A3.82,3.82,0,0,1,65.44,31.73Z"/><path class="cls-13" d="M58.57,65.9a8.2,8.2,0,0,0-2.15-5.07,4.22,4.22,0,0,0-.9-.89c-1.47-.95-1.85.72-1.85,1.45a23.09,23.09,0,0,0,.26,2.49.27.27,0,0,1-.51.14c-.13-.22-1.44-2.1-1.8-.94a3.4,3.4,0,0,0-.14,1,5.5,5.5,0,0,0,.24,2.31c.28-.12.6-.2.74-.26a8.06,8.06,0,0,1,3.45-.36c.88.07,1.78.15,2.67.19C58.58,65.94,58.57,65.93,58.57,65.9Z"/><path class="cls-13" d="M89.54,60.33a5.54,5.54,0,0,1-1.06-.45,2.27,2.27,0,0,1-1-1.47c-.09-.39-.9-3.65-1.74-2.35a9.36,9.36,0,0,0-.87,2.53.27.27,0,0,1-.49,0,15.38,15.38,0,0,0-2.32-4.34c-.32-.42-1.41-1.87-2-1.07-.86,1.18-.74,3-.78,4.39,0,.49.24,1.78-.4,2.07-1.38.6-3.1.38-4.51,1a2,2,0,0,1-2.28-.08c-1.56-1.21-1.78,1.52-1.18,2.5,1-.41,2-.8,3-1.15a19.06,19.06,0,0,1,6.37-1.38,23,23,0,0,1,3.9-.22,24.12,24.12,0,0,1,4.55.66,12,12,0,0,1,2.61,1.12A3.16,3.16,0,0,0,89.54,60.33Z"/><path class="cls-13" d="M74.11,33.42c-1.48.35-3.7,1.44-5.12.46-.95-.65-1.12-1.92-1.26-3.1a3.81,3.81,0,0,0-.59,2.94c.31,1.49,1.22,1.82,2.49,2.34a1.48,1.48,0,0,1,.55.56,4.92,4.92,0,0,0,1.28,1.45,7.5,7.5,0,0,0,3.66,1.08c3.63.18,7.88-.91,10.29-3.79.14-.58.3-1.31.76-1.43a4.07,4.07,0,0,1,1.92.08C84,31.41,78.65,32.35,74.11,33.42Z"/><path class="cls-13" d="M72.29,63.3c5.47-2,11.65-4,17.29-1.69C88.3,59.67,85,60.23,83,60.41a49.5,49.5,0,0,0-11,1.84c-3.4,1.12-6.54,2.67-10.12,3.25a37.14,37.14,0,0,1-5.38.39c-1.25,0-2.85-.26-4,.31a18.34,18.34,0,0,1,3.7,0,34.62,34.62,0,0,0,5.67-.11A47.35,47.35,0,0,0,72.29,63.3Z"/><path class="cls-13" d="M69.38,66a8.2,8.2,0,0,0-3.71,2.21,17,17,0,0,1,2.9-.63c2-.32,4-.39,5.92-.67A5.88,5.88,0,0,0,69.38,66Z"/><path class="cls-13" d="M71,56.33c-.93,1.05-2.54.67-3.72.42a6.16,6.16,0,0,0-2.89-.18,7.89,7.89,0,0,0-2.8,1.59c-1,.78-2.35,1.91-3.73,1.78-2.27-.2-2.85-2.76-2.91-4.78a12.34,12.34,0,0,0-.14,1.61,4.92,4.92,0,0,0,.92,3.38,4,4,0,0,0,4.34.77c2.16-.86,4.21-2.86,6.71-2.19,1.78.48,4.74,1.52,5.55-1a3.12,3.12,0,0,0-.91-3.45A1.9,1.9,0,0,1,71,56.33Z"/><path class="cls-13" d="M97.57,53.34c-.2-3.56-.39-7.21-.85-10.78a26.83,26.83,0,0,0-.1-9.79,20.58,20.58,0,0,0-4-8.38,32.55,32.55,0,0,0-3.43-3.74,25.33,25.33,0,0,0-14.76-6.36,31.83,31.83,0,0,1,6.64,3.09,29.45,29.45,0,0,1,12.42,15,19.19,19.19,0,0,1,1,11.18c-.23,1-.49,2.62-1.45,3.21a2.27,2.27,0,0,1-.68.26c.62.92,1.28,1.83,1.84,2.79a12.42,12.42,0,0,1,1.64,5.06c.34,3.26.26,7.36-1.92,10-3.86,4.74-11.08,3.42-16.36,4.94-.18,0-.4-.14-.32-.33a8.83,8.83,0,0,0,.6-3.58c-.08.12-.18.23-.27.34a10,10,0,0,1-14,5.16c-.28-.1-.57-.21-.85-.34A19.47,19.47,0,0,1,58,67.76a23.92,23.92,0,0,0,.84,2.56.27.27,0,0,1-.27.37A17.69,17.69,0,0,1,48.44,66a11.53,11.53,0,0,1-2.13-2.85,11.35,11.35,0,0,0,2.94,5.4c1.43,1.43,3.5,2,5.41,2.35s7.49,1.42,7.88,1.64c1.61.91,3.81,1.88,5.61,1.73,5.39-.46,5.79-2,7.48-3C76,71,84,70.63,86.4,70.18c3.59-.67,7.44-2.16,9.35-5.47C97.78,61.22,97.81,57.27,97.57,53.34Z"/><path class="cls-15" d="M50.33,37.16A12.72,12.72,0,0,1,51,27.28a31.58,31.58,0,0,1,4.75-6.45C50.35,25.1,45.48,31.94,50.33,37.16Z"/><path class="cls-11" d="M104.23,34a11.67,11.67,0,0,0-8.93,2,13.45,13.45,0,0,0-1.81,2.24A14,14,0,0,0,91,43.71a3.92,3.92,0,0,0,2.52,4.23l.52.21c7,2.06,14.94-5.67,16.47-7.26A4.2,4.2,0,0,1,115,40S112,35.38,104.23,34Z"/><path class="cls-13" d="M92.28,44.52a.22.22,0,0,1,.29-.05,10.42,10.42,0,0,0,6.69,1.81,12,12,0,0,0,6.45-3.12c1.32-1.1,2.68-2.27,4.46-2.36h.48a3.76,3.76,0,0,1,2.79-1.07A31.57,31.57,0,0,0,104,37.09c-3.38-.33-7.47-.17-9.93,2.52-.13.13-.34,0-.34-.17A5.92,5.92,0,0,1,94.34,37a14.11,14.11,0,0,0-.85,1.18A14,14,0,0,0,91,43.71a3.8,3.8,0,0,0,.81,3A2.64,2.64,0,0,1,92.28,44.52Z"/><path class="cls-17" d="M115.15,39.91a12.64,12.64,0,0,0-3.39-3.18,19.51,19.51,0,0,0-7.49-2.95,12,12,0,0,0-9.08,2,11.94,11.94,0,0,0-1,1.8,13.7,13.7,0,0,1,1.25-1.46,11.55,11.55,0,0,1,8.79-1.93,19.07,19.07,0,0,1,7.33,2.89,14,14,0,0,1,2.91,2.59,4.19,4.19,0,0,0-4,1.09c-.93,1-9.22,9.29-16.26,7.21l-.5-.21a5.4,5.4,0,0,1-.79-.44,3.59,3.59,0,0,1-1.54-2.14,3.48,3.48,0,0,1-.5-.59,3.93,3.93,0,0,0,1.81,3.07,6.24,6.24,0,0,0,.85.47l.54.23c3,.89,6.51.12,10.43-2.29a33.55,33.55,0,0,0,6.25-5,4,4,0,0,1,4.2-.82l.6.25Z"/><path class="cls-18" d="M109.55,39.09s0,0,0,0a13.45,13.45,0,0,0-10.65-.49,19.91,19.91,0,0,0-6.06,3.32c-.31.42-.61.84-.9,1.27.86-.62,1.75-1.22,2.67-1.78a3.33,3.33,0,0,0,1.94,3.7c2.49,1.09,5.18-.63,7-2.23,0,0,0,0,0,0a9.17,9.17,0,0,1-4.7,1.91c-2.07.18-4.29-1.25-3.95-3.54C99.39,38.55,104.55,37,109.55,39.09Z"/><g class="cls-19"><path class="cls-20" d="M96.78,44.9a6.85,6.85,0,0,0,5.91-1.07,28.6,28.6,0,0,0,5.48-5.12A12.38,12.38,0,0,0,105,38a17,17,0,0,0-7.79,1.39,31.78,31.78,0,0,0-3.11,1.5A4.11,4.11,0,0,0,96.78,44.9Z"/><path class="cls-17" d="M98.53,45.41a5.29,5.29,0,0,1-1.83-.31,4.31,4.31,0,0,1-2.86-4.26.23.23,0,0,1,.12-.18,30.64,30.64,0,0,1,3.13-1.51A16.92,16.92,0,0,1,105,37.74a12.72,12.72,0,0,1,3.27.76.25.25,0,0,1,.14.16.21.21,0,0,1,0,.2A29.33,29.33,0,0,1,102.81,44,8,8,0,0,1,98.53,45.41ZM94.27,41a3.88,3.88,0,0,0,2.58,3.7,6.67,6.67,0,0,0,5.72-1,27.7,27.7,0,0,0,5.21-4.84,11.27,11.27,0,0,0-2.84-.63,16.7,16.7,0,0,0-7.68,1.37A32.36,32.36,0,0,0,94.27,41Z"/></g><path class="cls-12" d="M114.14,39.45S107,32,97.92,34.93C97.92,34.93,105.66,33.71,114.14,39.45Z"/><path class="cls-23" d="M94.18,21.62c-.57.38-1.13.78-1.69,1.17s-.93.91-1.45,1.32c-.1.08-.13.36,0,.23.52-.38.92-.88,1.46-1.25s1.13-.77,1.69-1.18C94.38,21.81,94.41,21.46,94.18,21.62Z"/><path class="cls-23" d="M95.14,24.17c-1,.45-1.89.92-2.84,1.35-.11.05-.2.35,0,.27,1-.4,1.9-.83,2.84-1.28C95.26,24.45,95.36,24.07,95.14,24.17Z"/><path class="cls-23" d="M55.23,21.56a27.57,27.57,0,0,0-2.68-3.22c0-.05-.15.08-.1.13a40.84,40.84,0,0,1,2.64,3.23C55.14,21.78,55.28,21.62,55.23,21.56Z"/><path class="cls-23" d="M56.51,20.6,55.2,17.87c-.05-.1-.22.08-.17.17l1.3,2.75C56.38,20.9,56.56,20.7,56.51,20.6Z"/><path class="cls-23" d="M48.55,29.43a19.22,19.22,0,0,1-2.07-1.28c-.06,0-.15.1-.1.14a14.77,14.77,0,0,0,2.06,1.29C48.52,29.62,48.62,29.46,48.55,29.43Z"/><path class="cls-23" d="M49,28.6c-.59-.58-1.13-1.21-1.7-1.8-.1-.1-.32.18-.21.3a20.41,20.41,0,0,0,1.73,1.75C48.93,28.93,49.1,28.69,49,28.6Z"/><path class="cls-23" d="M75.61,21.68c0-.1-.16,0-.15.11a21.58,21.58,0,0,1,.05,3.94c0,.15.17,0,.18-.08.06-.66,0-1.32,0-2A8.29,8.29,0,0,0,75.61,21.68Z"/><path class="cls-23" d="M77.71,23.52a21.93,21.93,0,0,1-.32,2.28c0,.14.18,0,.19-.06a17.86,17.86,0,0,0,.34-2.31C77.93,23.26,77.72,23.41,77.71,23.52Z"/><path class="cls-24" d="M52.87,31.06c-.59-.21-1.18.33-1.36.89l0,.06a1.1,1.1,0,0,0,0,.89,1.21,1.21,0,0,0,.68.69c.67.27,1.2-.46,1.37-1A1.14,1.14,0,0,0,52.87,31.06Z"/><path class="cls-24" d="M55.78,29a.65.65,0,0,0-.69-.26,1.08,1.08,0,0,0-.75.76c-.09.26-.1.72.2.84a.35.35,0,0,0,.17,0,.86.86,0,0,0,.85-.33A.93.93,0,0,0,55.78,29Z"/><path class="cls-24" d="M64,20.28a.92.92,0,0,0-1.23.12l-.06,0a.75.75,0,0,0-.32.59.88.88,0,0,0,.21.7c.36.41,1,.11,1.27-.19A.87.87,0,0,0,64,20.28Z"/><path class="cls-24" d="M66.67,19.93a.49.49,0,0,0-.38-.42.83.83,0,0,0-.77.25c-.15.14-.32.45-.16.64l.11.08a.64.64,0,0,0,.68.07C66.41,20.44,66.69,20.24,66.67,19.93Z"/><path class="cls-24" d="M89.76,31.26a.92.92,0,0,0-1.24.13l0,0a.83.83,0,0,0-.33.59,1,1,0,0,0,.22.71c.36.41,1,.1,1.27-.2A.87.87,0,0,0,89.76,31.26Z"/><path class="cls-24" d="M92.43,30.91a.5.5,0,0,0-.38-.42.83.83,0,0,0-.77.25c-.15.14-.32.45-.16.64a.43.43,0,0,0,.1.09.66.66,0,0,0,.69.07A.73.73,0,0,0,92.43,30.91Z"/><path class="cls-24" d="M82.14,18.74c0-.48-.56-.75-1-.74l-.06,0a.8.8,0,0,0-.64.22.9.9,0,0,0-.31.67c0,.54.65.73,1.07.71A.88.88,0,0,0,82.14,18.74Z"/><path class="cls-24" d="M84.35,20.27a.5.5,0,0,0,0-.56.82.82,0,0,0-.74-.33c-.21,0-.54.12-.55.36a.68.68,0,0,0,0,.14c0,.24.27.44.46.51A.73.73,0,0,0,84.35,20.27Z"/><path class="cls-25" d="M70.43,53.57a2.25,2.25,0,0,0-.42-.13,3.58,3.58,0,0,1,1.1,1.48A2.62,2.62,0,0,1,70.94,57a1.57,1.57,0,0,1-1,.71,2.25,2.25,0,0,1-.84.23,7.07,7.07,0,0,1-1,.11c-1.1.08-2.21-.26-3.29,0-2.51.69-6.75,5.06-8.63,1.55-1.78-3.33-.8-7.63.7-10.84a9.84,9.84,0,0,1,3.57-4.22c1.95-1.22,4.18-.67,6.27-.29.06,0,.15-.11.08-.14a7.59,7.59,0,0,0-3.58-.76,1.71,1.71,0,0,0,.05-2.07s-.09,0-.08.07a2.71,2.71,0,0,1,.08,1.1,5.16,5.16,0,0,1-.36.92c-2.37.24-4.35,1.83-5.88,4.25C54.8,51.2,53.41,57.42,56.27,61c1,1.31,3.09.35,4.25-.2.92-.43,1.78-1,2.65-1.5,1.58-.92,3-.64,4.73-.66,1.37,0,3.17-.55,3.88-1.85S71.53,54.3,70.43,53.57Z"/><path class="cls-21" d="M77.21,68.05a8.81,8.81,0,0,1-2.66,3.84,12.33,12.33,0,0,1-4.49,1.78,8.34,8.34,0,0,1-9-3.36c0-.07-.15.06-.12.12A6.51,6.51,0,0,0,64.49,74a10.38,10.38,0,0,0,6.12.12c3.43-1,5.82-2.57,7-6C77.74,67.73,77.31,67.83,77.21,68.05Z"/><path class="cls-25" d="M84.58,18.61a1.84,1.84,0,0,0-2.35,1.24c0,.06.07,0,.09,0A1.55,1.55,0,0,1,84.17,19c.68.14,1.31,1.23.74,1.84,0,0,0,.12,0,.07C85.62,20.31,85.55,18.85,84.58,18.61Z"/><path class="cls-25" d="M90.21,30.44c-1.15-1.09-2.74-.09-3.43,1,0,.09,0,.11.1.05a2.32,2.32,0,0,1,2.46-.91,1.35,1.35,0,0,1,.56,2.34s-.05.13,0,.1A1.5,1.5,0,0,0,90.21,30.44Z"/><path class="cls-25" d="M62,19.72a1.85,1.85,0,0,0-.44,2.67c.09.08.21-.13.19-.2-.36-1-.28-2,.82-2.44.63-.27,2.08-.34,2.34.49,0,.06.1,0,.09-.07C64.86,18.79,62.7,19.24,62,19.72Z"/><path class="cls-25" d="M55.18,27.86a1.94,1.94,0,0,0-1.48.91,2.11,2.11,0,0,0-.36,1.63c.13.52.82.64,1.27.66.06,0,.18-.16.1-.2a4.17,4.17,0,0,1-.73-.37c-.39-.27-.31-.8-.19-1.19A1.51,1.51,0,0,1,56.51,29s.07,0,.06-.06A1.29,1.29,0,0,0,55.18,27.86Z"/><path class="cls-26" d="M94,61.2a1.6,1.6,0,0,1-.27,2.27,3.49,3.49,0,0,1-1,.44,3.79,3.79,0,0,0,1.52-.24,1.94,1.94,0,0,0,.63-1.12c.28-1.69-1.2-2.63-2.49-3.32-.06,0-.14.08-.09.12A12.28,12.28,0,0,1,94,61.2Z"/><path class="cls-26" d="M50.07,67.51a1.06,1.06,0,0,1,.1-1c0-.08.12-.21.21-.35a3.7,3.7,0,0,0-.66.65,1,1,0,0,0-.07.15l0,.12a1.56,1.56,0,0,0,0,.48,1,1,0,0,0,.1.28,1.08,1.08,0,0,0,1.47.44A1.45,1.45,0,0,1,50.07,67.51Z"/><path class="cls-25" d="M73.07,66.16a7.81,7.81,0,0,0-6.7.58c-.21.15-.42.29-.61.45s-1.19.87-1.29,1.42a.36.36,0,0,0,.08-.12.34.34,0,0,0,0-.17c.05.19-.27.53.09.24a9.08,9.08,0,0,1,2.54-1.19,19.51,19.51,0,0,1,5.65-.77C73,66.6,73.29,66.25,73.07,66.16Z"/><path class="cls-10" d="M90.53,62.18a2.31,2.31,0,0,0,.24-.2l0,0,0,0a.62.62,0,0,0,.18-.3,1.29,1.29,0,0,0-.45-.67.39.39,0,0,0-.1.08l-.16.16c-.55-.18-2.26-.78-2.42-.82A16.16,16.16,0,0,0,82.72,60,34.49,34.49,0,0,0,70.9,62.52a36.05,36.05,0,0,1-12.23,3.16c-1.93.12-3.86-.33-5.77,0a1.17,1.17,0,0,0-1.13,1,5.37,5.37,0,0,1,2.76-.78c1.26.06,2.51.18,3.78.16a25.05,25.05,0,0,0,8.32-1.39,65.36,65.36,0,0,1,6.52-2.51c3.91-1.11,8.51-2,12.56-1.43,1.05.16,3.19.6,4,1.41A5.75,5.75,0,0,1,90.53,62.18Z"/><g class="cls-19"><g class="cls-19"><path class="cls-16" d="M70.72,55.59a.28.28,0,0,0-.39,0h0a.29.29,0,0,0,0,.41c.11.13.31,0,.41-.06A.28.28,0,0,0,70.72,55.59Z"/><path class="cls-16" d="M69.12,55.55c-.15-.16-.43-.08-.58.06h0a.39.39,0,0,0-.15.28.4.4,0,0,0,.1.33c.16.2.45.05.59-.09A.41.41,0,0,0,69.12,55.55Z"/><path class="cls-16" d="M70.07,54.74c-.1-.12-.29-.06-.39,0h0a.29.29,0,0,0-.11.19.32.32,0,0,0,.07.23c.12.13.31,0,.41-.06S70.19,54.86,70.07,54.74Z"/></g><g class="cls-19"><path class="cls-16" d="M66.38,56.4a.3.3,0,0,0-.4,0h0a.23.23,0,0,0-.11.18.28.28,0,0,0,.07.22c.12.14.31,0,.41-.06A.27.27,0,0,0,66.38,56.4Z"/><path class="cls-16" d="M64.79,56.36a.43.43,0,0,0-.57.06h0a.43.43,0,0,0-.15.28.46.46,0,0,0,.1.32c.17.2.45,0,.59-.09A.4.4,0,0,0,64.79,56.36Z"/></g></g><g class="cls-19"><g class="cls-19"><path class="cls-16" d="M83.83,43.59a.45.45,0,0,0-.59.06h0a.37.37,0,0,0-.16.29.41.41,0,0,0,.11.33c.16.2.46,0,.6-.09A.42.42,0,0,0,83.83,43.59Z"/><path class="cls-16" d="M81.45,43.54a.65.65,0,0,0-.86.09l0,0c-.14.06-.21.27-.23.41a.64.64,0,0,0,.16.49c.24.29.67.08.88-.13A.62.62,0,0,0,81.45,43.54Z"/><path class="cls-16" d="M82.86,42.33a.43.43,0,0,0-.59.06h0a.36.36,0,0,0-.15.28.44.44,0,0,0,.1.33c.17.2.46.05.61-.09A.42.42,0,0,0,82.86,42.33Z"/></g><g class="cls-19"><path class="cls-16" d="M77.37,44.8a.44.44,0,0,0-.59.06h0a.36.36,0,0,0-.15.28.41.41,0,0,0,.1.33c.17.19.45.05.6-.09A.42.42,0,0,0,77.37,44.8Z"/><path class="cls-16" d="M75,44.75a.63.63,0,0,0-.85.08l0,0a.58.58,0,0,0-.22.41.6.6,0,0,0,.15.48c.24.29.67.08.87-.13A.59.59,0,0,0,75,44.75Z"/></g></g><g class="cls-19"><g class="cls-19"><path class="cls-16" d="M57,47.1a.44.44,0,0,0-.59.06h0a.4.4,0,0,0-.16.28.42.42,0,0,0,.11.34c.17.19.46.05.6-.09A.42.42,0,0,0,57,47.1Z"/><path class="cls-16" d="M54.63,47.05a.63.63,0,0,0-.86.09l0,0c-.14.06-.21.27-.23.41a.64.64,0,0,0,.16.49c.24.29.67.07.88-.14A.6.6,0,0,0,54.63,47.05Z"/><path class="cls-16" d="M56,45.83a.45.45,0,0,0-.59.06h0a.37.37,0,0,0-.16.29.41.41,0,0,0,.11.33c.16.2.46,0,.6-.09A.42.42,0,0,0,56,45.83Z"/></g><g class="cls-19"><path class="cls-16" d="M50.55,48.3a.43.43,0,0,0-.58.06l0,0a.36.36,0,0,0-.15.27.39.39,0,0,0,.1.33c.17.2.46.05.6-.09A.42.42,0,0,0,50.55,48.3Z"/><path class="cls-16" d="M50.82,47a.64.64,0,0,0-.85.09l0,0c-.14.06-.21.27-.23.41a.66.66,0,0,0,.15.48c.25.28.67.07.88-.13A.6.6,0,0,0,50.82,47Z"/></g></g><path class="cls-15" d="M57.88,35.48A7.61,7.61,0,0,0,51,37.91c-.06.07,0,.18.06.11a13.45,13.45,0,0,1,6.66-2.27C57.84,35.73,58,35.5,57.88,35.48Z"/><path class="cls-15" d="M61.79,33.75a1.24,1.24,0,0,0-.4-.57,3.78,3.78,0,0,0-.54-.43c-.09-.06-.26.12-.2.21a2.49,2.49,0,0,1,.33.65c.07.22.13.53.39.59S61.83,34,61.79,33.75Z"/><path class="cls-15" d="M66.93,32.59c0-.05-.06-.12,0-.18s0-.35,0-.52,0-.07,0-.08h0c-.06,0-.14,0-.19.08l0,0a.06.06,0,0,0,0,0,0,0,0,0,0,0,.05c-.07.17-.1.34-.15.5a.69.69,0,0,0,0,.51c0,.06.08.07.14.07h.06c.14,0,.24-.17.27-.28A.38.38,0,0,0,66.93,32.59Z"/><path class="cls-15" d="M79.35,31.5A18.37,18.37,0,0,0,75,31.38a17,17,0,0,0-4.88,1.32c-.08,0-.21.23-.06.24,1.51.09,3.13-.62,4.66-.77s3-.35,4.5-.45C79.32,31.72,79.47,31.51,79.35,31.5Z"/><path class="cls-15" d="M68.65,65.07a2.4,2.4,0,0,0-2,.19,3.56,3.56,0,0,0-1.53,1.2c-.15.28.05.41.24.3h0c.16-.11.35-.13.51-.23a9.17,9.17,0,0,1,.86-.5c.27-.12.58-.12.84-.23a7.15,7.15,0,0,1,1-.37C68.63,65.41,68.83,65.14,68.65,65.07Z"/><path class="cls-15" d="M58.94,52.62c-.12-.75-.52-1.34-1.34-1.26s-1.44,1.09-1.71,1.87A3.54,3.54,0,0,0,56,55.81a1.18,1.18,0,0,0,1,.83h0c.68.17,1.33-.67,1.62-1.15A4.41,4.41,0,0,0,58.94,52.62Z"/><path class="cls-15" d="M58.37,48.54a.83.83,0,0,0-.82.76.3.3,0,0,0,.08.27.17.17,0,0,0,.19.19c.38,0,.6-.43.69-.76C58.55,48.87,58.59,48.57,58.37,48.54Z"/><path class="cls-15" d="M66.25,71.21a11,11,0,0,1-3-.55c-.11,0-.23.14-.19.24.17.48.78.7,1.24.83a2.11,2.11,0,0,0,1.91-.18C66.29,71.49,66.47,71.22,66.25,71.21Z"/><path class="cls-2" d="M23.84,83.67a18.52,18.52,0,0,1-1.59-2.37,22.24,22.24,0,0,1-.34-2.47l0-.27c0-1.31,0-2.62,0-3.93A3.81,3.81,0,0,0,20.37,73a12.69,12.69,0,0,0-2.27-.7,2.6,2.6,0,0,1,1,2.81,1.82,1.82,0,0,1-1.23,1.11A2.31,2.31,0,0,1,18.12,79a2,2,0,0,1-.3.35c.65.92,1.21,1.85.4,2.94a2.24,2.24,0,0,1-.43.44c.74,1,1.54,2.43.13,3.32a5.81,5.81,0,0,1-2,.78c1.32.74,4.85,0,5.47-.11C22.83,86.41,24.75,85.37,23.84,83.67Z"/><path class="cls-3" d="M17.8,87.35h0a4.24,4.24,0,0,1-2-.35.22.22,0,0,1-.11-.23.21.21,0,0,1,.18-.18,5.72,5.72,0,0,0,1.88-.76,1.32,1.32,0,0,0,.66-.84,3.24,3.24,0,0,0-.85-2.16.21.21,0,0,1,.05-.3,2.11,2.11,0,0,0,.39-.4c.7-1,.25-1.75-.41-2.69a.22.22,0,0,1,0-.28,1.53,1.53,0,0,0,.27-.32c.48-.71.4-1.45-.28-2.49a.22.22,0,0,1,0-.19.24.24,0,0,1,.14-.14,1.59,1.59,0,0,0,1.09-1A2.34,2.34,0,0,0,18,72.47a.23.23,0,0,1,0-.27.21.21,0,0,1,.25-.1l.57.14a9.56,9.56,0,0,1,1.74.57,4.06,4.06,0,0,1,1.61,1.7.49.49,0,0,1,0,.11c0,1.18,0,2.56,0,3.95v.08s0,.1,0,.14c.05.32.08.65.11,1a8.52,8.52,0,0,0,.22,1.47,5.07,5.07,0,0,0,.86,1.33,7.26,7.26,0,0,1,.71,1,1.74,1.74,0,0,1,.1,1.65,3.85,3.85,0,0,1-2.66,1.69A18.44,18.44,0,0,1,17.8,87.35Zm-1.08-.52a5.67,5.67,0,0,0,1.08.08h0a18,18,0,0,0,3.57-.43A3.47,3.47,0,0,0,23.74,85a1.35,1.35,0,0,0-.1-1.27,6.58,6.58,0,0,0-.66-.93A5.24,5.24,0,0,1,22,81.36a8.78,8.78,0,0,1-.24-1.55c0-.33-.05-.65-.1-.94a1,1,0,0,1,0-.17l0-.11c0-1.39,0-2.75,0-3.9a3.67,3.67,0,0,0-1.4-1.49,8.46,8.46,0,0,0-1.52-.5,2.52,2.52,0,0,1,.52,2.49,2,2,0,0,1-1.11,1.15,2.41,2.41,0,0,1,.14,2.75,2.32,2.32,0,0,1-.21.25c.66,1,1.13,1.92.3,3a2.51,2.51,0,0,1-.31.35,3.33,3.33,0,0,1,.8,2.33A1.76,1.76,0,0,1,18,86.2,6.8,6.8,0,0,1,16.72,86.83Z"/><path class="cls-5" d="M23.84,83.67a18.52,18.52,0,0,1-1.59-2.37,22.24,22.24,0,0,1-.34-2.47l0-.27c0-1.31,0-2.62,0-3.93A3.81,3.81,0,0,0,20.37,73a12.69,12.69,0,0,0-2.27-.7,2.6,2.6,0,0,1,1,2.81,1.82,1.82,0,0,1-1.23,1.11A2.31,2.31,0,0,1,18.12,79a2,2,0,0,1-.3.35c.65.92,1.21,1.85.4,2.94a2.24,2.24,0,0,1-.43.44c.74,1,1.54,2.43.13,3.32a5.81,5.81,0,0,1-2,.78c1.32.74,4.85,0,5.47-.11C22.83,86.41,24.75,85.37,23.84,83.67Z"/><path class="cls-27" d="M103.33,132.78a33.51,33.51,0,0,0-.76-10.7c-.36-1.41,1.23-2.24.74-3.56-.27-.73-2.27.48-2.52.61a12.6,12.6,0,0,0-3.51,2.58c0-.13.07-.26.1-.38a3.5,3.5,0,0,0,.09-1.54c-.13-.57-.85-.3-1.15-.12a6.18,6.18,0,0,0-2.08,2.55c-.18-.89-.56-2.29-1.27-1.86a1.12,1.12,0,0,0-.47.47c-.64,1.44-.5,2.33-2.48,2.76a89,89,0,0,1-18.44,1.53c-3.1,0-6.2-.12-9.29-.33-1.59-.1-3.16-.28-4.73-.52s-3.17-.13-3.54-2.08c-.08-.42-.45-1.54-1.06-1a3.17,3.17,0,0,0-.66,2.14c-1-1.13-2.37-2.86-3.74-2.5a.49.49,0,0,0-.31.45A4.64,4.64,0,0,0,48.8,123a5.09,5.09,0,0,0-3.9-.47c-.14,0-.35.29-.26.45a4.26,4.26,0,0,0,1.94,1.43l0,0c.16.13.11.1.33.11h0l0,0a18.19,18.19,0,0,0,.2,1.84,22.81,22.81,0,0,0,1.22,2.88,6.61,6.61,0,0,0,1,1.48c1,1.22.5,1.31-.29,2.49-2.06,3.09-4.55,7.32-4.17,11.2a.18.18,0,0,0,.2.17,4.35,4.35,0,0,0,2-1.23c-.41,1-.36,1.79,1.33,1.61,3.35-.35,5.81-2.89,8.76-4.2a4.51,4.51,0,0,0-.82,1.69.2.2,0,0,0,.05.2c1.06.81,3.43-.74,4.38-1.19.46-.22.9-.47,1.35-.71s2-1.51.66-.17a2,2,0,0,0-.52,1.1.19.19,0,0,0,.12.22c1.52.61,3.85-.86,5.37-2.07-.86,1.52-1.4,3.18.93,2.8a13.74,13.74,0,0,0,4.38-2.06l.83-.5a10.35,10.35,0,0,0-.89,1.23c0,.09-.09.22,0,.3,1,.82,4.37-2.08,5.44-3,.11,1.28.53,3.12,1.52,2.84.62-.18.91-.85,1.19-1.38a14.56,14.56,0,0,0,.81-2c.15,1,.41,2.18,1.12,2.61a.2.2,0,0,0,.23,0,2.26,2.26,0,0,0,.76-1.59c.08-.4.22-.93.28-1.44.75,1.7,2.24,3.53,3.88,3.16,1.32-.3,1.23-2.65,1-4.24a6.4,6.4,0,0,0,2.41,2.6c.12.05.28-.12.33-.21a2.7,2.7,0,0,0-.13-2.36A21.71,21.71,0,0,0,99.89,140c1.55.3,1.84-.44,1.61-1.4a4.06,4.06,0,0,0,2.12,1.2C105,139.94,103.82,134.83,103.33,132.78Z"/><path class="cls-28" d="M103.62,138.94c-.45.45-1.17-.36-1.43-.63-.71-.71-1.5-1.33-2.25-2a1.74,1.74,0,0,0,.1.19c.34.66.78,1.28,1.11,1.95s-.23,1.15-.93,1.08c-3.08-.34-6.33-2.14-8.94-3.84.14.35.29.7.43,1a2.19,2.19,0,0,1,.23,1.74.26.26,0,0,1-.37.09c-.67-.34-1-1.09-1.51-1.64s-.88-1-1.3-1.5a.39.39,0,0,0-.07.22c.16,1.55.65,5.89-2.16,4a3.94,3.94,0,0,1-.67-.59,7.37,7.37,0,0,1-1.64-2.1,9.88,9.88,0,0,1-.7,2.87c-.07.18-.37.3-.48.06a16,16,0,0,1-.85-3.19.51.51,0,0,0-.16.11c-.18.67-.38,1.34-.62,2s-.48,1.78-1.11,2.13-.78.16-1-.35a14.52,14.52,0,0,1-.72-2.2c-.5.38-1,.73-1.57,1.1a9.55,9.55,0,0,1-3,1.8.26.26,0,0,1-.3-.38c.44-.74.94-1.43,1.42-2.13a.37.37,0,0,0-.17.08,24.77,24.77,0,0,1-4.88,2.84c-.47.21-2.88,1.19-2.43-.59,0-.16.1-.32.16-.49a8.68,8.68,0,0,1,.57-1.72c-.68.46-1.35.91-2,1.38-.83.58-1.76,1.34-2.83,1.24a.27.27,0,0,1-.27-.26,4.94,4.94,0,0,1,.62-2c-.89.53-1.8,1-2.72,1.5-.14.07-.27.15-.4.23-1,.58-2.22,1.55-3.44,1.29a.26.26,0,0,1-.19-.32,19.28,19.28,0,0,1,.71-2,35.2,35.2,0,0,0-5,2.8,12.78,12.78,0,0,1-4.17,1.57,1.18,1.18,0,0,1-.32,0,1.7,1.7,0,0,1-.39,0,.27.27,0,0,1-.27-.26,7.64,7.64,0,0,1,.92-3.15.48.48,0,0,0-.16.13,31.68,31.68,0,0,1-2.22,2.27c-.89.87-.55-1-.48-1.38a20.33,20.33,0,0,1,.78-2.74,28.78,28.78,0,0,1,1.92-3.85c.67-1.21,1.67-2.2,2.34-3.38,0-.05.06-.12.1-.18a12.53,12.53,0,0,1-2.41-3.45c-.65-1.33-1.43-2.73-1.29-4.24-.61-.41-1.51-.85-1.75-1s2.28.09,2,0a5.87,5.87,0,0,1,1.81,1,.26.26,0,0,0,.33-.08,4.4,4.4,0,0,1-.75-2.38.26.26,0,0,1,.27-.26,3.81,3.81,0,0,1,2,1.35L52.54,124a4.45,4.45,0,0,1,.47-2.25.26.26,0,0,1,.45,0,12.76,12.76,0,0,1,.93,2.62,9.92,9.92,0,0,0,2.84.53,87.5,87.5,0,0,0,15,.85,102.67,102.67,0,0,0,16-1.2c1.32-.21,3-.36,4.13-1.19a1.2,1.2,0,0,0,.39-.7,2.6,2.6,0,0,0,.07-.56c.17-.26.34-.53.5-.8a7.06,7.06,0,0,1,.54,1.91c.05.29.41,0,.48-.11.15-.32,2.45-3.86,2.72-2.68a4.38,4.38,0,0,1-.54,2.32c-.13.31.25.28.39.1a12.21,12.21,0,0,1,4.1-3.25c.47-.43,1.09-1,1.55-.82,1,.35.13,1.89-.52,2.73a4.31,4.31,0,0,0,0,.94c.23,2.25.71,4.44.8,6.73,0,.7,0,1.4,0,2.09l0,1c0,.1,0,.2,0,.31,0,.53,0,1.07.07,1.6s.32,1,.44,1.47C103.59,136.35,104.25,138.31,103.62,138.94Z"/><path class="cls-29" d="M103.41,135.62c-.12-.49-.28-1-.44-1.47s0-1.07-.07-1.6c0-.11,0-.21,0-.31l0-1c0-.69,0-1.39,0-2.09-.09-2.29-.57-4.48-.8-6.73a4.31,4.31,0,0,1,0-.94c.65-.84,1.54-2.38.52-2.73-.46-.16-1.08.39-1.55.82a12.21,12.21,0,0,0-4.1,3.25c-.14.18-.52.21-.39-.1a4.38,4.38,0,0,0,.54-2.32c0-.22-.18-.28-.35-.21a75.39,75.39,0,0,0-3.37,7c2.52-2,4.53-4.6,7.23-6.41a.27.27,0,0,1,.39.3,14.66,14.66,0,0,1-6,7.58c1.61-.34,3.09-1.18,4.77-1.23a.28.28,0,0,1,.26.34,6.33,6.33,0,0,1-.91,1.93c-.5.94-.18,1,.28,1.7a16.05,16.05,0,0,1,2.22,4.29.27.27,0,0,1-.39.3c-1.38-.91-2.48-2.16-3.79-3.15.5.92,1.24,1.76,1.73,2.64.32.55,1.09,1.71.68,2.39s-2,.08-2.64-.15c-1.46-.51-3-.7-4.49-1.1a19.8,19.8,0,0,0,7.6,3c.7.07,1.28-.37.93-1.08s-.77-1.29-1.11-1.95a1.74,1.74,0,0,1-.1-.19c.75.65,1.54,1.27,2.25,2,.26.27,1,1.08,1.43.63C104.25,138.31,103.59,136.35,103.41,135.62Z"/><path class="cls-30" d="M65.33,133.5A82.2,82.2,0,0,1,50,132.22a.66.66,0,0,1,.28-1.29c.26.06,26.73,5.51,52.52-6.74a.65.65,0,1,1,.56,1.18C89.53,131.94,75.52,133.5,65.33,133.5Z"/><path class="cls-29" d="M50.94,131.78c0,.06-.07.13-.1.18-.67,1.18-1.67,2.17-2.34,3.38-.17.32-.35.64-.53,1a8.37,8.37,0,0,1,.84-.44,18.86,18.86,0,0,1,6.92-1.43c6.06-.21,12.1-.41,18.14-1A111.81,111.81,0,0,0,91.7,130.8c3.67-1,7.87-1.89,10.89-4.35l-.3-2.09c-.76.26-1.55.47-2.32.68-2.68.7-5.58,1.92-8.26,2.63a106,106,0,0,1-16.95,2.77c-6.18.66-12.73-.11-18.93-.75-2.73-.29-5.65-.67-7.77-2.31.16.32.31.64.47,1A12.53,12.53,0,0,0,50.94,131.78Z"/><path class="cls-29" d="M103.41,135.62c-.12-.49-.28-1-.44-1.47s0-1.07-.07-1.6c0-.11,0-.21,0-.31l0-1c0-.69,0-1.39,0-2.09-.09-2.29-.57-4.48-.8-6.73a4.31,4.31,0,0,1,0-.94c.65-.84,1.54-2.38.52-2.73-.46-.16-1.08.39-1.55.82a12.21,12.21,0,0,0-4.1,3.25c-.14.18-.52.21-.39-.1a4.38,4.38,0,0,0,.54-2.32c-.27-1.18-2.57,2.36-2.72,2.68-.07.15-.43.4-.48.11a7.06,7.06,0,0,0-.54-1.91c-.16.27-.33.54-.5.8a2.6,2.6,0,0,1-.07.56,1.2,1.2,0,0,1-.39.7c-1.1.83-2.81,1-4.13,1.19a102.67,102.67,0,0,1-16,1.2,87.5,87.5,0,0,1-15-.85,9.92,9.92,0,0,1-2.84-.53,12.76,12.76,0,0,0-.93-2.62.26.26,0,0,0-.45,0,4.45,4.45,0,0,0-.47,2.25l-1.38-1.29a3.81,3.81,0,0,0-2-1.35.26.26,0,0,0-.27.26,4.4,4.4,0,0,0,.75,2.38.26.26,0,0,1-.33.08,5.87,5.87,0,0,0-1.81-1c.32.07-2.06-.1-2,0s1.14.63,1.75,1a4.55,4.55,0,0,0,.11,1.38c.5.55,1,1.07,1.54,1.59a6.72,6.72,0,0,1-.56-2.61.27.27,0,0,1,.34-.26,4.79,4.79,0,0,1,2.06,1.49,8.1,8.1,0,0,1-.14-2c0-.16.17-.33.34-.26a1.41,1.41,0,0,1,.85.87c.48,1,.88,1.62,2.12,1.72,2,.17,3.93.47,5.91.6,4,.27,8,.6,12.07.68a104.09,104.09,0,0,0,12.47-.76c1.27-.13,3.17-.91,4.44-.42a1.45,1.45,0,0,1,.87,1.09,9.51,9.51,0,0,1,.94-1.68.27.27,0,0,1,.42-.06,17.4,17.4,0,0,1,4.89,6.48c.09.21-.21.43-.39.3a31.08,31.08,0,0,1-3.11-3c1,1.43,2.14,2.82,3.19,4.22.48.64,2.14,2.41,1.24,3.25s-2.74-.8-3.34-1.23a25.07,25.07,0,0,1-4.73-4.16c.32.87.67,1.71,1,2.56.1.23-.12.51-.36.36a8.13,8.13,0,0,1-2.12-1.84c.15.64.27,1.28.38,1.89.15.84.71,3-.58,3.27-1,.2-2-1.42-2.47-2.08-.31-.45-.59-.91-.87-1.38a7.57,7.57,0,0,1,.14,2.47c0,.2-.29.39-.46.19a16.26,16.26,0,0,1-2.07-3.35c.07,1.7-.34,3.62-1.35,4.52a.27.27,0,0,1-.42-.06,8.64,8.64,0,0,1-1.44-3.5,5.76,5.76,0,0,1-3.08,3.33.26.26,0,0,1-.34-.25,26.21,26.21,0,0,1,.4-2.8c-1.16,2.13-3,4.27-5.18,4.59a.26.26,0,0,1-.32-.19,11.06,11.06,0,0,1-.24-4.06,16.32,16.32,0,0,1-1.38,2.21,4.17,4.17,0,0,1-2.44,1.89c-.19,0-.39-.11-.33-.32.36-1.14.65-2.29,1-3.44a17.17,17.17,0,0,1-2.33,2.48c-1.26,1.08-2.77,2.19-4.51,2.1a.28.28,0,0,1-.26-.34,22.58,22.58,0,0,1,1.76-3.29,15.7,15.7,0,0,0,.75-1.93c-.56.55-1.16,1.07-1.75,1.63-1.1,1-2.29,2.27-3.86,2.46-.21,0-.32-.24-.23-.39.66-1.18,1.85-2,2.48-3.15.2-.37.39-.74.57-1.12a47.69,47.69,0,0,1-6.63,6.47c-.35.27-3.3,3-3.59,1.68a3.62,3.62,0,0,1,.39-1.76c.37-1,.8-1.93,1.24-2.88a.61.61,0,0,0,0-.12,21.13,21.13,0,0,1-3.79,3.36.28.28,0,0,1-.37-.1c-.14.49-.27,1-.37,1.49s-.41,2.25.48,1.38A31.68,31.68,0,0,0,48.5,141a.48.48,0,0,1,.16-.13,7.64,7.64,0,0,0-.92,3.15.27.27,0,0,0,.27.26,1.7,1.7,0,0,0,.39,0,1.18,1.18,0,0,0,.32,0,12.78,12.78,0,0,0,4.17-1.57,35.2,35.2,0,0,1,5-2.8,19.28,19.28,0,0,0-.71,2,.26.26,0,0,0,.19.32c1.22.26,2.45-.71,3.44-1.29.13-.08.26-.16.4-.23.92-.47,1.83-1,2.72-1.5a4.94,4.94,0,0,0-.62,2,.27.27,0,0,0,.27.26c1.07.1,2-.66,2.83-1.24.67-.47,1.34-.92,2-1.38a8.68,8.68,0,0,0-.57,1.72c-.06.17-.12.33-.16.49-.45,1.78,2,.8,2.43.59A24.77,24.77,0,0,0,75,138.88a.37.37,0,0,1,.17-.08c-.48.7-1,1.39-1.42,2.13a.26.26,0,0,0,.3.38,9.55,9.55,0,0,0,3-1.8c.53-.37,1.07-.72,1.57-1.1a14.52,14.52,0,0,0,.72,2.2c.22.51.51.62,1,.35s.87-1.52,1.11-2.13.44-1.33.62-2a.51.51,0,0,1,.16-.11,16,16,0,0,0,.85,3.19c.11.24.41.12.48-.06a9.88,9.88,0,0,0,.7-2.87,7.37,7.37,0,0,0,1.64,2.1,3.94,3.94,0,0,0,.67.59c2.81,1.88,2.32-2.46,2.16-4a.39.39,0,0,1,.07-.22c.42.51.87,1,1.3,1.5s.84,1.3,1.51,1.64a.26.26,0,0,0,.37-.09,2.19,2.19,0,0,0-.23-1.74c-.14-.34-.29-.69-.43-1,2.61,1.7,5.86,3.5,8.94,3.84.7.07,1.28-.37.93-1.08s-.77-1.29-1.11-1.95a1.74,1.74,0,0,1-.1-.19c.75.65,1.54,1.27,2.25,2,.26.27,1,1.08,1.43.63C104.25,138.31,103.59,136.35,103.41,135.62Z"/><path class="cls-31" d="M65.33,133.72A80.52,80.52,0,0,1,50,132.43a.87.87,0,0,1-.68-1,.89.89,0,0,1,1-.67,81,81,0,0,0,15,1.25c9.37,0,23.47-1.39,37.36-8a.89.89,0,0,1,1.16.41.88.88,0,0,1-.41,1.17C89.27,132.31,74.89,133.72,65.33,133.72Zm-15.2-2.58a.43.43,0,0,0-.43.34A.44.44,0,0,0,50,132a82.07,82.07,0,0,0,15.29,1.28c9.52,0,23.83-1.41,37.93-8.1a.43.43,0,0,0,.23-.25.5.5,0,0,0,0-.34.46.46,0,0,0-.59-.21c-14,6.63-28.12,8-37.54,8a81.48,81.48,0,0,1-15.12-1.26Z"/><path class="cls-32" d="M65.67,128.92c-4.94-.37-9.85-1.34-14.79-1.69-.09,0-.23.21-.11.25a42.7,42.7,0,0,0,14.58,2.15C65.6,129.62,66,129,65.67,128.92Z"/><path class="cls-32" d="M70.23,129c-.91,0-1.78.26-2.69.16-.14,0-.35.28-.18.32a7.32,7.32,0,0,0,2.68,0C70.24,129.5,70.56,129,70.23,129Z"/><path class="cls-32" d="M52.43,135.63a6.61,6.61,0,0,0-1.25,1.63A11.42,11.42,0,0,0,50,139.67c-.24.7.62.5.83.06a32.46,32.46,0,0,1,1.67-3.82s0,0,0,0a.47.47,0,0,0,.05-.1C52.68,135.61,52.57,135.53,52.43,135.63Z"/><path class="cls-32" d="M59,134.83c0-.13,0-.14,0,0l-.14.17c-.09.11-.17.23-.26.35a6.93,6.93,0,0,0-.56.85c-.06.11-.13.35,0,.4s.34-.14.43-.27c.21-.32.39-.65.59-1s.4-.48.38-.72S59,134.67,59,134.83Z"/><path class="cls-32" d="M63.43,134.79a.11.11,0,0,0-.11,0,3.08,3.08,0,0,0-.8.92,13.27,13.27,0,0,0-.93,1.53c-.08.15-.17.46.07.52s.54-.25.63-.47c.17-.42.37-.82.57-1.23s.44-.68.61-1C63.51,135,63.54,134.83,63.43,134.79Z"/><path class="cls-32" d="M67.13,135.32c-.1.42-.34.79-.42,1.22,0,.1.05.19.15.18s.26-.16.32-.29a4,4,0,0,0,.27-1.19C67.46,135,67.16,135.18,67.13,135.32Z"/><path class="cls-32" d="M95.18,134.32c-1.38-.89-2.82-1.71-4.24-2.54-.14-.09-.43.19-.32.33a7.68,7.68,0,0,0,1.78,1.58,5.34,5.34,0,0,0,2.39,1.19C95,134.91,95.43,134.49,95.18,134.32Z"/><path class="cls-32" d="M86.32,135.33c-.28-.31-.58-.61-.84-1-.11-.13-.29-.39-.48-.33a.2.2,0,0,0-.11.13,1.5,1.5,0,0,0,.21.68,7.69,7.69,0,0,0,.7,1C86,136.18,86.56,135.59,86.32,135.33Z"/><path class="cls-32" d="M79.65,135.16a2.28,2.28,0,0,1-.36-.62c0-.22-.34,0-.34.17a1.25,1.25,0,0,0,.13.6,3.91,3.91,0,0,1,.26.82c.07.36.62-.07.55-.34A2.82,2.82,0,0,0,79.65,135.16Z"/><path class="cls-33" d="M51.62,66.65a6.51,6.51,0,0,1,1-.44c.16-.13.31-.26.43-.34s0,0,.06,0a.05.05,0,0,0,0,0l.47,0a11.47,11.47,0,0,1,3.5.09.57.57,0,0,0,.27-.24c.24-.44.09-.79-.09-1.25a18.6,18.6,0,0,0-1.74-3.45c-.33-.51-1.66-2.22-2.26-1a8.39,8.39,0,0,0-.44,4.67l-.14-.32a3.44,3.44,0,0,0-.57-1c-.44-.48-.77.23-.79.6a13.73,13.73,0,0,0-.11,1.45c0,.28,0,.91.28,1.12Z"/><path class="cls-34" d="M51.65,65.73a3.9,3.9,0,0,1,0-1.23c0-.07.07-.84.16-.83s.4.38.5.55a7.76,7.76,0,0,1,.37.77,2.53,2.53,0,0,1,.12.36,1.13,1.13,0,0,0,.21.24,8.87,8.87,0,0,0-.81.55C51.71,66.43,51.72,66,51.65,65.73Z"/><path class="cls-35" d="M52.12,64.91c.07.35.15.71.24,1,0,0,0,0,0,0a4.65,4.65,0,0,1,.61-.41,1.13,1.13,0,0,1-.21-.24,2.53,2.53,0,0,0-.12-.36,7.76,7.76,0,0,0-.37-.77,1.45,1.45,0,0,0-.39-.51C52,64.11,52,64.51,52.12,64.91Z"/><path class="cls-34" d="M55.31,65.68c-.64-.09-1.3,0-2-.1l0,0s0-.09-.05-.1a9.28,9.28,0,0,0-.09-1.58,20.58,20.58,0,0,1,.07-2.22c0-.53.34-2,1.15-1.33a5.35,5.35,0,0,1,1.09,1.37A22.53,22.53,0,0,1,57,64.85C57.67,66.27,55.85,65.75,55.31,65.68Z"/><path class="cls-34" d="M55.31,65.68c-.64-.09-1.3,0-2-.1l0,0s0-.09-.05-.1a9.28,9.28,0,0,0-.09-1.58,20.58,20.58,0,0,1,.07-2.22c0-.53.34-2,1.15-1.33a5.35,5.35,0,0,1,1.09,1.37A22.53,22.53,0,0,1,57,64.85C57.67,66.27,55.85,65.75,55.31,65.68Z"/><path class="cls-35" d="M57,64.85a22.53,22.53,0,0,0-1.55-3.11,5.35,5.35,0,0,0-1.09-1.37.82.82,0,0,0-.27-.13,11.08,11.08,0,0,1,1.27,4.23,2.46,2.46,0,0,1-.14,1.2h.06C55.85,65.75,57.67,66.27,57,64.85Z"/><path class="cls-33" d="M86.66,57.18c-.41-1-1.26-1.13-1.84-.22a12.37,12.37,0,0,0-.93,1.81l-.1.21a4.58,4.58,0,0,0-.19-.66,13.61,13.61,0,0,0-1.71-3.76c-.49-.71-1.85-2.33-2.54-.93a14.27,14.27,0,0,0-1,3.07c-.16.71-1,3.07-.43,3.77h0c-.13,0-.29.4-.09.36l.13,0h0a26.28,26.28,0,0,1,3.85-.38,3.49,3.49,0,0,0,1.59-.21c0,.05,0,.08.11.07a5.82,5.82,0,0,1,2,0,1.6,1.6,0,0,0,1.18,0,1,1,0,0,0,.4-.9A9.26,9.26,0,0,0,86.66,57.18Z"/><path class="cls-34" d="M82.41,60a17.8,17.8,0,0,0-4.31.47,20,20,0,0,1,.9-4.78c.16-.58.63-2.55,1.58-1.77A7.42,7.42,0,0,1,82,55.66a10.67,10.67,0,0,1,.91,2.08C83.24,58.64,83.91,59.93,82.41,60Z"/><path class="cls-34" d="M82.41,60a17.8,17.8,0,0,0-4.31.47,20,20,0,0,1,.9-4.78c.16-.58.63-2.55,1.58-1.77A7.42,7.42,0,0,1,82,55.66a10.67,10.67,0,0,1,.91,2.08C83.24,58.64,83.91,59.93,82.41,60Z"/><path class="cls-34" d="M85.79,59.88a5.54,5.54,0,0,0-2,0,2.55,2.55,0,0,1,.35-.85c.21-.44.42-.87.65-1.3s.52-1.11,1-.7a2.61,2.61,0,0,1,.64,1.35c.09.36.13.73.21,1.09C86.84,60.13,86.18,60,85.79,59.88Z"/><path class="cls-34" d="M82.41,60a17.8,17.8,0,0,0-4.31.47,20,20,0,0,1,.9-4.78c.16-.58.63-2.55,1.58-1.77A7.42,7.42,0,0,1,82,55.66a10.67,10.67,0,0,1,.91,2.08C83.24,58.64,83.91,59.93,82.41,60Z"/><path class="cls-35" d="M82.91,57.74A10.67,10.67,0,0,0,82,55.66a7.42,7.42,0,0,0-1.42-1.78.89.89,0,0,0-.23-.13,11.46,11.46,0,0,1,1.08,3.85c.14,1,.09,1.89-1,2.38l-.14.08C81,60,81.73,60,82.41,60,83.91,59.93,83.24,58.64,82.91,57.74Z"/><path class="cls-34" d="M85.79,59.88a5.54,5.54,0,0,0-2,0,2.55,2.55,0,0,1,.35-.85c.21-.44.42-.87.65-1.3s.52-1.11,1-.7a2.61,2.61,0,0,1,.64,1.35c.09.36.13.73.21,1.09C86.84,60.13,86.18,60,85.79,59.88Z"/><path class="cls-35" d="M86.47,58.36A3.41,3.41,0,0,0,86,57.17a3.11,3.11,0,0,1-.42,2,2.33,2.33,0,0,1-.56.57,5,5,0,0,1,.79.09c.39.09,1,.25.89-.43C86.6,59.09,86.56,58.72,86.47,58.36Z"/><path class="cls-33" d="M62.1,65a4.07,4.07,0,0,0-.71-.78.75.75,0,0,0-1.29.2,2.76,2.76,0,0,0-.21.81.81.81,0,0,0,0,.49c0,.07,0,.14.07.14h0a.06.06,0,0,0,.06,0,6.16,6.16,0,0,0,1,0,2,2,0,0,0,1-.32A.39.39,0,0,0,62.1,65Z"/><path class="cls-34" d="M61.48,65.37a9.74,9.74,0,0,1-1.32.08.11.11,0,0,0-.07,0,2.32,2.32,0,0,1,.2-.88c.21-.58.7-.17,1,.11s.25.3.38.44a1,1,0,0,1,.16.2C61.74,65.25,61.57,65.35,61.48,65.37Z"/><path class="cls-35" d="M61.48,65.37a9.74,9.74,0,0,1-1.32.08.11.11,0,0,0-.07,0,2.32,2.32,0,0,1,.2-.88c.21-.58.7-.17,1,.11s.25.3.38.44a1,1,0,0,1,.16.2C61.74,65.25,61.57,65.35,61.48,65.37Z"/><path class="cls-33" d="M72.56,61.83a.05.05,0,0,0,0-.07c-.09-.55-1.1-1.26-1.61-.93a1.05,1.05,0,0,0-.48.77c0,.2,0,.41-.08.61a.54.54,0,0,0,0,.1l0,0c-.09.16-.19.58.09.64s.68-.23,1-.32,1-.26,1.11-.72l0,0A.24.24,0,0,0,72.56,61.83Z"/><path class="cls-34" d="M71.46,62.28a3.18,3.18,0,0,0-.53.24c-.13.07-.35.1-.38-.09s0-.08,0-.13a3,3,0,0,0,.12-.32,4.86,4.86,0,0,0,.11-.55c.18-.75,1.22.21,1.38.48S71.6,62.24,71.46,62.28Z"/><path class="cls-35" d="M71.46,62.28a3.18,3.18,0,0,0-.53.24c-.13.07-.35.1-.38-.09s0-.08,0-.13a3,3,0,0,0,.12-.32,4.86,4.86,0,0,0,.11-.55c.18-.75,1.22.21,1.38.48S71.6,62.24,71.46,62.28Z"/><path class="cls-36" d="M58.69,41c-1.93,1-4.17,1.56-6.13.24,0,0-.09.06-.07.09,1.77,1.9,4.32,1.26,6.22-.12C58.78,41.11,58.83,40.88,58.69,41Z"/><path class="cls-36" d="M62,32.73c-.07-.14-.29.11-.25.22.16.42.44,1.11.56,1.47.77,2.24-1.61,2.41-2.74,2.19a11.76,11.76,0,0,0-3.79-.07,7.63,7.63,0,0,0-5.1,2.94c-.06.08,0,.17.08.09a6.81,6.81,0,0,1,1-.9,2.82,2.82,0,0,0,1.1,1.86c.9.83,2.44.75,3.55.58,2-.31,4.2-1.86,4.58-3.92a3.16,3.16,0,0,0,.46-.16C63.34,36.15,62.74,34.18,62,32.73Z"/><path class="cls-34" d="M54.9,40.72A3.41,3.41,0,0,1,52,38.5a9.46,9.46,0,0,1,5.71-1.45,23,23,0,0,0,2.89.22C60.21,39.74,57,40.83,54.9,40.72Z"/><path class="cls-37" d="M54.26,38.29a11.26,11.26,0,0,1,6.16-.41,3.62,3.62,0,0,0,.17-.61,23,23,0,0,1-2.89-.22A9.46,9.46,0,0,0,52,38.5a5,5,0,0,0,.69,1.08A2.21,2.21,0,0,1,54.26,38.29Z"/><path class="cls-36" d="M67.63,35.8a1.9,1.9,0,0,1-1.38-1.35,7.48,7.48,0,0,1-.21-2c0-.08-.13,0-.13.08A5.86,5.86,0,0,0,66,35a1.89,1.89,0,0,0,1.42,1.32C67.62,36.38,67.9,35.85,67.63,35.8Z"/><path class="cls-36" d="M63.36,34.77c0-.07-.14.06-.13.11a1.42,1.42,0,0,1,0,.71c-.05.21-.15.4-.2.61s.07.19.17.11a1.07,1.07,0,0,0,.28-.73A1.25,1.25,0,0,0,63.36,34.77Z"/><path class="cls-36" d="M87.74,33.56c-2.88-1.09-6.86-.48-9.83-.05a56.57,56.57,0,0,0-5.6,1.4c-1.29.33-3,.59-4-.61-.67-.84-.57-2.37-.53-3.39,0-.11-.13,0-.14.05-.27,1.53-.55,3,.48,4.3a2.28,2.28,0,0,0,1.9.66c1.76,3.17,6.14,2.81,9.17,2.13,2.21-.5,5.37-1.93,6.29-4.26.68,0,1.36.1,2,.17C87.73,34,87.94,33.64,87.74,33.56Z"/><path class="cls-34" d="M77.44,37.87a7.85,7.85,0,0,1-7-2,13,13,0,0,0,2.41-.47,55.19,55.19,0,0,1,7.08-1.56,30.16,30.16,0,0,1,5.2-.11C84.08,36.47,79.86,37.5,77.44,37.87Z"/><path class="cls-37" d="M71.71,36.93a9.16,9.16,0,0,1,2.8-1.27,22.89,22.89,0,0,1,5.69-.95,24.88,24.88,0,0,1,4,.45,4.06,4.06,0,0,0,.92-1.4,30.16,30.16,0,0,0-5.2.11,55.19,55.19,0,0,0-7.08,1.56,13,13,0,0,1-2.41.47A7.37,7.37,0,0,0,71.71,36.93Z"/><path class="cls-36" d="M83.06,37c-3.3,1.59-7.93,3.18-11.39,1,0,0-.1.06-.06.1,3,2.84,8.45,1.12,11.47-.81C83.19,37.25,83.25,36.94,83.06,37Z"/><path class="cls-38" d="M79.32,36a1.4,1.4,0,0,1-1.38,1.44,1.41,1.41,0,1,1,0-2.82A1.39,1.39,0,0,1,79.32,36Z"/><path class="cls-39" d="M79,36.06a1.1,1.1,0,0,1-1.07,1.1A1.09,1.09,0,1,1,79,36.06Z"/><path class="cls-34" d="M77.58,35.56a.39.39,0,0,1-.39.4.4.4,0,0,1-.4-.39.39.39,0,0,1,.39-.39A.4.4,0,0,1,77.58,35.56Z"/><path class="cls-38" d="M58.07,39.08a1.41,1.41,0,1,1-2.82.05,1.41,1.41,0,0,1,2.82-.05Z"/><path class="cls-39" d="M57.74,39.14a1.08,1.08,0,1,1-1.1-1.07A1.08,1.08,0,0,1,57.74,39.14Z"/><path class="cls-34" d="M56.32,38.64a.39.39,0,1,1-.78,0,.39.39,0,0,1,.78,0Z"/></g></g></g></svg>