<svg xmlns="http://www.w3.org/2000/svg" viewBox="0 0 133.58 192.73"><defs><style>.cls-1{isolation:isolate;}.cls-2,.cls-4,.cls-5{fill:#afa692;}.cls-3{fill:#5b5b5b;}.cls-12,.cls-22,.cls-36,.cls-4{mix-blend-mode:screen;}.cls-13,.cls-15,.cls-19,.cls-28,.cls-31,.cls-5,.cls-8{mix-blend-mode:multiply;}.cls-6{fill:#6d6d6d;}.cls-7{fill:#d6d6d6;}.cls-14,.cls-15,.cls-24,.cls-8{opacity:0.5;}.cls-9{fill:#848383;}.cls-10{fill:#4496aa;}.cls-11,.cls-13,.cls-15,.cls-22{fill:#56e0bf;}.cls-12{fill:#97ee9c;}.cls-14{fill:#143b4e;}.cls-16{opacity:0.6;}.cls-17{fill:#4992c0;}.cls-18{fill:#140099;}.cls-20{fill:#61a5c8;}.cls-21{fill:#5997c4;}.cls-23{fill:#5b856f;}.cls-24{fill:#83c737;}.cls-25{fill:#3a6380;}.cls-26{fill:#333;}.cls-27,.cls-28{fill:#5d6861;}.cls-28{opacity:0.4;}.cls-29{fill:#fff;}.cls-30{fill:#c46537;}.cls-31{fill:#c4c4c4;}.cls-32{fill:#7d492b;}.cls-33{fill:#4e2e1b;}.cls-34{fill:#b0b0b0;}.cls-35,.cls-36{fill:#9fcce2;}.cls-37{fill:#3d8597;}</style></defs><g class="cls-1"><g id="Layer_2" data-name="Layer 2"><g id="Layer_1-2" data-name="Layer 1"><path class="cls-2" d="M64.59,15.88c-.5-3.58-1.69-7.75-4.23-10.57C58.17,2.87,54.18.6,50.78,1.65a20.6,20.6,0,0,0-7,4.19,23.72,23.72,0,0,0-3.21,2.78c-1.67,2-2.1,4.32-2.49,6.8-.48,3.13-.15,6.26-.23,9.41,0,1.85-1.17,3.7-1.88,5.37a14.63,14.63,0,0,0-1.05,4.43c-.32,3.32-1.08,6.58-1.45,9.9s-.89,6.84-1.54,10.24c-.33,1.73-.46,3.49-.84,5.22s-1.23,3.21-1.77,4.84a46.39,46.39,0,0,0-1.36,5.25c-.49,1.14-1,2.26-1.52,3.42-.77,1.81-2,2.66-3.33,4-1.94,2,4,3.35,4.84,3.54,1.39.33,3.57.19,3.46-1.74a18.45,18.45,0,0,1-.46-2.81,23.41,23.41,0,0,1,.73-2.39,2.41,2.41,0,0,1,.08-.25c1.73-3.54,3.17-7.19,4.94-10.71a84.28,84.28,0,0,1,8.11-12.94A71.76,71.76,0,0,0,52.3,37.79c.9-1.88,1.77-3.78,2.66-5.67,1.09-2.3,3.08-4,4.92-5.74C63.2,23.27,65.25,20.59,64.59,15.88Z"/><path class="cls-3" d="M29.11,81.38h0a5.66,5.66,0,0,1-1.23-.14c-1.84-.43-5-1.35-5.35-2.68a1.23,1.23,0,0,1,.41-1.23c.3-.3.6-.58.88-.85a8.74,8.74,0,0,0,2.4-3.07c.27-.64.56-1.28.84-1.9s.46-1,.67-1.49a46.3,46.3,0,0,1,1.36-5.25c.22-.66.49-1.31.75-1.93a17.79,17.79,0,0,0,1-2.9c.21-.95.35-1.93.48-2.88.11-.77.22-1.56.37-2.33.63-3.32,1.15-6.76,1.54-10.23.17-1.56.43-3.14.69-4.66.28-1.71.58-3.48.75-5.24a14.66,14.66,0,0,1,1.07-4.48c.17-.4.36-.8.55-1.21a10.59,10.59,0,0,0,1.31-4.08c0-1,0-2.12,0-3.14a36,36,0,0,1,.25-6.3c.4-2.61.87-4.94,2.53-6.91a14.17,14.17,0,0,1,2.25-2c.33-.26.66-.51,1-.79a21,21,0,0,1,7.09-4.23,6.34,6.34,0,0,1,1.86-.27c3.22,0,6.3,2.15,8,4,2.73,3,3.83,7.49,4.28,10.69.65,4.62-1.18,7.33-4.78,10.69l-.51.48a18.06,18.06,0,0,0-4.36,5.2c-.41.85-.8,1.7-1.2,2.56-.48,1-1,2.08-1.46,3.11A72.39,72.39,0,0,1,45,50.31a83.09,83.09,0,0,0-8.1,12.91c-.93,1.85-1.78,3.78-2.61,5.65-.74,1.66-1.51,3.38-2.33,5l0,.08s0,.09,0,.14c-.09.31-.2.62-.31.93a8.82,8.82,0,0,0-.41,1.43,5,5,0,0,0,.23,1.57,9.93,9.93,0,0,1,.23,1.2,1.81,1.81,0,0,1-.46,1.41A2.79,2.79,0,0,1,29.11,81.38ZM52.57,1.6a5.84,5.84,0,0,0-1.73.26A20.56,20.56,0,0,0,43.9,6c-.33.28-.66.54-1,.8a14,14,0,0,0-2.19,2c-1.58,1.89-2,4.06-2.43,6.7A36,36,0,0,0,38,21.68c0,1,0,2.1,0,3.16a11.07,11.07,0,0,1-1.36,4.26c-.19.4-.37.8-.54,1.19a14.77,14.77,0,0,0-1,4.36c-.17,1.77-.47,3.55-.76,5.26-.25,1.52-.51,3.09-.69,4.64-.38,3.48-.9,6.93-1.54,10.26-.15.76-.26,1.55-.36,2.31-.14,1-.27,2-.49,2.91a17.8,17.8,0,0,1-1,3c-.25.61-.52,1.25-.73,1.89a44.82,44.82,0,0,0-1.35,5.22s0,0,0,0c-.22.51-.45,1-.68,1.52s-.57,1.26-.84,1.89a9.28,9.28,0,0,1-2.5,3.22q-.42.39-.87.84a.8.8,0,0,0-.3.79c.23.81,2.11,1.7,5,2.38a5,5,0,0,0,1.14.13,2.35,2.35,0,0,0,1.72-.56,1.37,1.37,0,0,0,.34-1.08A7.64,7.64,0,0,0,31,78.17a4.94,4.94,0,0,1-.23-1.73,8.42,8.42,0,0,1,.43-1.52c.11-.31.22-.6.3-.9a1,1,0,0,1,.05-.16l0-.1c.82-1.69,1.59-3.41,2.33-5.07.83-1.87,1.69-3.8,2.62-5.67a84.66,84.66,0,0,1,8.14-13A71.54,71.54,0,0,0,52.1,37.7c.5-1,1-2.07,1.46-3.11L54.76,32a18.29,18.29,0,0,1,4.46-5.33l.51-.48C63.22,23,65,20.35,64.38,15.91c-.44-3.14-1.52-7.5-4.18-10.45C58.6,3.68,55.64,1.6,52.57,1.6Z"/><path class="cls-4" d="M40.64,16.51c-.19,1.21-.36,2.43-.56,3.63,1.08-3,2-6.05,4.08-8.59a55.19,55.19,0,0,0,3.93-5c.5-.78.94-1.63,1.49-2.4a30.89,30.89,0,0,0-7.25,6C40.89,12,41,14.38,40.64,16.51Z"/><path class="cls-4" d="M33.57,59.2c1.54-5.16,1.44-10.57,1.54-16-.34,1.59-.66,3.18-.94,4.78-.65,3.76-1,7.54-1.52,11.33-.24,1.79-1.45,2.94-2.07,4.59s-1,3.41-1.54,5.11A21.25,21.25,0,0,1,27.36,74c-.28.46-.58.9-.89,1.33,1.65-1.59,3.17-3.22,3.76-5.67C31.1,66.05,32.52,62.71,33.57,59.2Z"/><path class="cls-5" d="M64.59,15.88c-.5-3.58-1.69-7.75-4.23-10.57C58.17,2.87,54.18.6,50.78,1.65a20.6,20.6,0,0,0-7,4.19,23.72,23.72,0,0,0-3.21,2.78c-1.67,2-2.1,4.32-2.49,6.8-.48,3.13-.15,6.26-.23,9.41,0,1.85-1.17,3.7-1.88,5.37a14.63,14.63,0,0,0-1.05,4.43c-.32,3.32-1.08,6.58-1.45,9.9s-.89,6.84-1.54,10.24c-.33,1.73-.46,3.49-.84,5.22s-1.23,3.21-1.77,4.84a46.39,46.39,0,0,0-1.36,5.25c-.49,1.14-1,2.26-1.52,3.42-.77,1.81-2,2.66-3.33,4-1.94,2,4,3.35,4.84,3.54,1.39.33,3.57.19,3.46-1.74a18.45,18.45,0,0,1-.46-2.81,23.41,23.41,0,0,1,.73-2.39,2.41,2.41,0,0,1,.08-.25c1.73-3.54,3.17-7.19,4.94-10.71a84.28,84.28,0,0,1,8.11-12.94A71.76,71.76,0,0,0,52.3,37.79c.9-1.88,1.77-3.78,2.66-5.67,1.09-2.3,3.08-4,4.92-5.74C63.2,23.27,65.25,20.59,64.59,15.88ZM40.49,39.6c-1.5.75-3.12,1.64-4.85,1.55a.27.27,0,0,1-.23-.3,8.16,8.16,0,0,1,3.14-6.19A8.34,8.34,0,0,0,41,32.06l.68-1.64A18.12,18.12,0,0,1,44,25.6a.27.27,0,0,1,.45.07,15.55,15.55,0,0,1,.38,5.61,16,16,0,0,1-.72,5.61C43.39,38.58,42,38.85,40.49,39.6Zm14-27C52.74,13.81,51,15,49.3,16.28s-3.64,2.85-5.46,4.27A47.46,47.46,0,0,1,39,24.34a.27.27,0,0,1-.42-.18c-.22-2.16.32-4.33.54-6.47.25-2.35.2-5.05,1.15-7.25.87-2,2.82-3.18,4.56-4.42a39.83,39.83,0,0,1,4.48-2.85,4.74,4.74,0,0,1,3.47-1.32C53.88,2.06,54.34,3,54.56,4c.34,1.59.64,3.23.91,4.83C55.71,10.27,55.76,11.64,54.46,12.57Z"/><path class="cls-5" d="M64.59,15.88c-.5-3.58-1.69-7.75-4.23-10.57-.1-.12-.22-.24-.33-.36l0,0a.27.27,0,0,1-.12.41c-1,.28-2.51.38-3.13,1.38s.14,2.55.46,3.65c.25.89.58,2.28,1.57,2.65A5.18,5.18,0,0,0,62,12.88a.28.28,0,0,1,.34.15c.74,1.65,1.4,4.3.61,6-.34.74-1.28.58-1.95.59-1,0-2,.12-3,.2s-2.11.15-2.54,1.24a6.69,6.69,0,0,0-.37,2.55,12.14,12.14,0,0,1-.17,3.56C54,29.9,50.94,31.48,48.72,33a26.42,26.42,0,0,1,1.86,3c.1.23-.15.4-.35.34-1-.32-2.72-1.33-3.7-.4A10.13,10.13,0,0,0,45.2,38.2c-.54.88-2.05,2.39-1.58,3.52.36.86,1,1.58,1.36,2.42a.27.27,0,0,1-.09.31,35,35,0,0,0-5.32,5.29.28.28,0,0,1-.46-.07c-.62-1.76.3-6.92-2.2-7.26-.95-.13-2.12.12-3.19.1-.1.67-.19,1.34-.27,2-.38,3.44-.89,6.84-1.54,10.24-.2,1-.33,2.1-.48,3.15.65-1.09,1.31-2.18,1.91-3.29a.26.26,0,0,1,.45-.05,70.45,70.45,0,0,1,4.31,5.85,88.29,88.29,0,0,1,6.69-10.25A71.76,71.76,0,0,0,52.3,37.79c.9-1.88,1.77-3.78,2.66-5.67,1.09-2.3,3.08-4,4.92-5.74C63.2,23.27,65.25,20.59,64.59,15.88Z"/><path class="cls-5" d="M43.84,20.55c-1,.74-1.88,1.59-2.84,2.38,4.44-1,7.2-4.61,10.16-8L49.3,16.28C47.45,17.67,45.66,19.13,43.84,20.55Z"/><path class="cls-6" d="M41.7,10.29a2.52,2.52,0,0,0,2.39.31l.08,0A6.26,6.26,0,0,0,46,9.31h0a4.43,4.43,0,0,0,.94-2,2.14,2.14,0,0,0-.27-1.17C45.88,5,45,4,44.2,2.94A25.11,25.11,0,0,0,41.79,0c-.77-.06-.52,2.72-.52,3.1,0,.73,0,1.46-.05,2.19a37.9,37.9,0,0,0,.42,4.11A2.39,2.39,0,0,0,41.7,10.29Z"/><path class="cls-7" d="M41.66.36c1.74,2,3,4.53,4.66,6.59a1.53,1.53,0,0,1-.25,1.65,5.53,5.53,0,0,1-1.75,1.55c-.78.42-2.11.49-2.33-.45,0-1.57-.34-3.17-.36-4.73S41.74,1.89,41.66.36Z"/><path class="cls-6" d="M67.08,3.74A.45.45,0,0,0,67,3.55a7.07,7.07,0,0,0-1,0,5.36,5.36,0,0,0-.54.14c-.62.28-1.24.67-1.5.79A41.41,41.41,0,0,0,59.45,6.9l.15-.11s0-.06-.05,0c-.89.58-1.74.78-2.06,1.87s.48,2,1.07,2.63a3.55,3.55,0,0,0,2.77,1.19,1.6,1.6,0,0,0,.23,0,2.31,2.31,0,0,0,.55-.25,5.25,5.25,0,0,0,.53-.4A40.92,40.92,0,0,0,66.82,5.1,4.62,4.62,0,0,0,67.08,3.74Z"/><path class="cls-7" d="M65.91,5.63c-1.19,2-2.36,4-3.66,5.93a1.79,1.79,0,0,1-1.67.43,3.85,3.85,0,0,1-2-1.54A2.64,2.64,0,0,1,58,8.22.6.6,0,0,1,58.05,8a41,41,0,0,1,4.64-2.55l2.07-1C66.48,3.67,66.74,4.21,65.91,5.63Z"/><path class="cls-6" d="M66.33,27.62c.39,0,.59-.1.56-.45l0,0c-.77-.63-1.64-1.2-2.31-1.71-1-.75-2-1.5-2.89-2.29l-1.37-.92a2.09,2.09,0,0,0-.94-.17,2.57,2.57,0,0,0-.82.28,2.61,2.61,0,0,0-.28.17,8.32,8.32,0,0,0-.86,1c-.51.65-.95,2-.46,2.7h0a2.25,2.25,0,0,0,.67.42C59.83,26.86,66.14,27.61,66.33,27.62Z"/><path class="cls-7" d="M62.26,27c-1.55-.16-3.07-.55-4.6-.74-1.71-1.18.85-4.73,2.6-3.9a77.33,77.33,0,0,1,6.13,4.82c.49.44-1.9.06-1.13.15Z"/><path class="cls-6" d="M49.93,19.67a2.77,2.77,0,0,0-1.11-2.16,4.27,4.27,0,0,0-.91-.38,2.68,2.68,0,0,0-.79.19,8.91,8.91,0,0,0-1.56,1.16c-1.33,1.11-3.22,2.18-4.1,3.7a.13.13,0,0,0,0,.16c.6.63,2.29.19,3,.12A13.43,13.43,0,0,0,49,21.63C49.82,21.21,50,20.62,49.93,19.67Z"/><path class="cls-7" d="M48.42,21.52a21.27,21.27,0,0,1-4.36.66c-.33,0-.65,0-1,.07h0a5.07,5.07,0,0,1-1,0,.27.27,0,0,1-.13-.48,17,17,0,0,1,2-1.56l.36-.3c.85-.68,2.75-2.8,4-2.39a.3.3,0,0,0,.18,0,2.85,2.85,0,0,1,.81,1C49.74,19.5,49.81,21.08,48.42,21.52Z"/><path class="cls-6" d="M40.34,25.77a3.61,3.61,0,0,0-1.57-.52,11.42,11.42,0,0,1-1.57.25c-.41.12-.81.26-1.2.37-2.1.6-4.27,1.13-6.33,1.88-2.83,1,3.17,3.2,3.81,3.53,2.4,1.22,5.75,3.41,7.16,0C41.26,29.86,41.34,27.15,40.34,25.77Z"/><path class="cls-7" d="M32.5,30.24c-.93-.46-1.89-.9-2.79-1.43S32,27.4,32.1,27.39c1.84-.48,5.88-2.56,7.59-1.57a.24.24,0,0,0,.12,0c1.38,1.34.8,4.68,0,6.15C38.71,34.11,33.73,30.84,32.5,30.24Z"/><path class="cls-6" d="M53.17,42.69v0c-.92-1.38-1.72-2.85-2.7-4.2a2.81,2.81,0,0,0-1.11-1l-.1,0c-1.12-1.35-3.33,1-3.78,2.09-.55,1.33.15,2.13,1.29,2.69.58.28,1.15.57,1.73.87s1.21.57,1.83.83c.84.34,1.7.67,2.52,1.08.36.18,1.12.31,1.27-.07A10,10,0,0,0,53.17,42.69Z"/><path class="cls-7" d="M53.59,45a.25.25,0,0,0-.16,0c-1.27-.67-2.59-1.25-3.88-1.88-1-.49-2-1-3-1.48-1.67-.88-.52-3.5,1.09-4a1.55,1.55,0,0,1,1-.18,1.63,1.63,0,0,1,.94.73,11.71,11.71,0,0,1,1.48,2.1c.49.71.93,1.44,1.36,2.18C52.53,42.54,53.84,45,53.59,45Z"/><path class="cls-6" d="M60,34.85a32.38,32.38,0,0,0-5.39-2c-.67.28-1,1.46-1.21,2.05-.09.24-.2.49-.28.75l0,0A6,6,0,0,0,55,35.9c1,.05,2,.15,2.93.17.68,0,2.46.33,3-.26S60.2,35,60,34.85Z"/><path class="cls-7" d="M60.24,35.66a30.31,30.31,0,0,1-4.47-.12c-.36,0-2.46.09-2-.93A13.83,13.83,0,0,0,54.43,33a36,36,0,0,1,3.43,1.51c.57.28,1.18.46,1.76.7C59.77,35.27,60.81,35.63,60.24,35.66Z"/><path class="cls-6" d="M37.3,45.31a1.81,1.81,0,0,0-1-1.81s0,0,0,0c-1.06-1.41-4.28.62-5.48,1.24-1.42.73-2.86,1.26-4.33,1.85-.29.12-.41.21-.4.49a.08.08,0,0,0,.05.07,29.77,29.77,0,0,0,5.58.59c1.46.11,3.41.68,4.77,0C37.18,47.31,37.26,46,37.3,45.31Z"/><path class="cls-7" d="M33.21,47.42c-2-.09-4.08-.11-6.11-.36-1.2-.15.88-.75.93-.77a15.14,15.14,0,0,0,1.73-.68c1.17-.53,4-2.48,5.67-2.17,1.32.4,1.66,1.59,1.32,3.06S34.14,47.47,33.21,47.42Z"/><path class="cls-6" d="M45.38,59.53a6.48,6.48,0,0,0-1.07-2.61c-.68-1.21-1.19-2.48-1.82-3.71-.17-.34-.66-2.07-1.21-2.06a2.51,2.51,0,0,0-1.61.78c-.09.07-.1.14-.07.18a3.65,3.65,0,0,0-.29.37c-.35.47-1.36,2.3-.63,2.81,1.42,1,2.74,1.94,4.07,3.05.57.48,1.56,1.7,2.38,1.45C45.24,59.76,45.39,59.66,45.38,59.53Z"/><path class="cls-7" d="M44.5,59c-.31-.21-.61-.44-.9-.68-.7-.56-1.38-1.16-2.07-1.74a11.17,11.17,0,0,0-1.7-1.21c-1.38-.81-.66-2.44.3-3.4.53-.22,1.1-.22,1.34.46.3.85.85,1.66,1.23,2.49.63,1.39,1.46,2.7,2,4.13C45.12,59.5,45.05,59.48,44.5,59Z"/><g class="cls-8"><path class="cls-9" d="M46.92,7.32a2.14,2.14,0,0,0-.27-1.17C45.88,5,45,4,44.2,2.94A25.11,25.11,0,0,0,41.79,0L41.7,0c.74,1.7,1.33,3.45,1.92,5.21.43,1.23,1.2,2.6,1.18,3.93,0,.78-1,1.38-1.72,1.4a3.82,3.82,0,0,1-1.22-.14,2.73,2.73,0,0,0,2.23.18l.08,0A6.26,6.26,0,0,0,46,9.31h0A4.43,4.43,0,0,0,46.92,7.32Z"/><path class="cls-9" d="M63.86,7a18.87,18.87,0,0,1-3.15,3.46c-1.64,1.13-2.69-.75-3-2.29a2.24,2.24,0,0,0-.19.44c-.28,1,.48,2,1.07,2.63a3.55,3.55,0,0,0,2.77,1.19,1.6,1.6,0,0,0,.23,0,2.31,2.31,0,0,0,.55-.25,5.25,5.25,0,0,0,.53-.4A40.92,40.92,0,0,0,66.82,5.1a8.1,8.1,0,0,0,.23-.94C66.07,5.19,64.81,5.94,63.86,7Z"/><path class="cls-9" d="M62.17,26.22c-1.06-.22-3-.25-3.82-1.1s-.41-2,.37-2.87l-.18.08a2.61,2.61,0,0,0-.28.17,8.32,8.32,0,0,0-.86,1c-.51.65-.95,2-.46,2.7h0a2.25,2.25,0,0,0,.67.42c2.23.26,8.54,1,8.73,1a.63.63,0,0,0,.47-.12A37.85,37.85,0,0,0,62.17,26.22Z"/><path class="cls-9" d="M49.93,19.67a2.77,2.77,0,0,0-1.11-2.16,4.27,4.27,0,0,0-.91-.38,1.18,1.18,0,0,0-.25,0c.85.34,1.54,1.09.83,1.93a7,7,0,0,1-3.22,1.67c-1.28.45-2.57.95-3.82,1.51a.07.07,0,0,0,0,.06c.6.63,2.29.19,3,.12A13.43,13.43,0,0,0,49,21.63C49.82,21.21,50,20.62,49.93,19.67Z"/><path class="cls-9" d="M40.34,25.77l-.06,0c.61,1.14,0,2.81-.73,3.76-1.21,1.59-3,1.45-4.76,1.06a32,32,0,0,1-4.39-1.3l-1.35-.46c.71,1,4,2.24,4.43,2.48,2.4,1.22,5.75,3.41,7.16,0C41.26,29.86,41.34,27.15,40.34,25.77Z"/><path class="cls-9" d="M50.19,42.41a10.22,10.22,0,0,1-3.29-2.14c-.94-1.15.54-2.43,1.79-3.16-1.18-.31-2.84,1.53-3.22,2.45-.55,1.33.15,2.13,1.29,2.69.58.28,1.15.57,1.73.87s1.21.57,1.83.83c.84.34,1.7.67,2.52,1.08a1.62,1.62,0,0,0,1.06.13A18.78,18.78,0,0,0,50.19,42.41Z"/><path class="cls-9" d="M58,35.12a23.64,23.64,0,0,1-2.78-.31c-1.1-.26-1.26-.82-1.14-1.54a7.35,7.35,0,0,0-.71,1.61c-.09.24-.2.49-.28.75l0,0A6,6,0,0,0,55,35.9c1,.05,2,.15,2.93.17.68,0,2.46.33,3-.26a.21.21,0,0,0,0-.06A20.28,20.28,0,0,0,58,35.12Z"/><path class="cls-9" d="M37.3,45.31a1.81,1.81,0,0,0-1-1.81s0,0,0,0a1.37,1.37,0,0,0-1.2-.49,1.65,1.65,0,0,1,.86,1,1.44,1.44,0,0,1-1,1.85,24.22,24.22,0,0,1-3.71.42c-1.58.2-3.1.72-4.67,1a34.28,34.28,0,0,0,5.16.5c1.46.11,3.41.68,4.77,0C37.18,47.31,37.26,46,37.3,45.31Z"/><path class="cls-9" d="M43.23,57.61A31.6,31.6,0,0,1,40,53.79a2,2,0,0,1,.29-2.34,5.26,5.26,0,0,0-.63.48c-.09.07-.1.14-.07.18a3.65,3.65,0,0,0-.29.37c-.35.47-1.36,2.3-.63,2.81,1.42,1,2.74,1.94,4.07,3.05.49.41,1.28,1.36,2,1.47A24.76,24.76,0,0,0,43.23,57.61Z"/></g><path class="cls-5" d="M57.66,15.62c-.29-.5-.7-.85-1.24-.48-.23.15-.22.48-.25.72a5.46,5.46,0,0,0,0,1c0,.16,0,.32,0,.47,0,.34-.08.91.25,1.14s.45,0,.62-.1l.06-.05A2.32,2.32,0,0,0,58,17.5C58.4,16.93,58,16.13,57.66,15.62Z"/><path class="cls-5" d="M61,17.16c-.09-.17-.36-.06-.47,0l-.08.09c-.07.06-.1.12-.06.2h0l0,0c.06.1.18.08.27.06l0,0c.1,0,.26-.13.28-.24A.32.32,0,0,0,61,17.16Z"/><path class="cls-5" d="M51,26.68a2.37,2.37,0,0,0-.56-1.6.6.6,0,0,0-.25-.13.65.65,0,0,0-.22-.11,2.07,2.07,0,0,0-1.62.83c-1,1.06.46,2.47,1.59,2.39A1.28,1.28,0,0,0,51,26.68Z"/><path class="cls-5" d="M48.64,31.14a1.07,1.07,0,0,0-.74-.43c-.21-.05-.38-.17-.61-.09s-.43.26-.35.5l0,0a.75.75,0,0,0,0,.53.66.66,0,0,0,.58.44C47.94,32.11,48.9,31.66,48.64,31.14Z"/><path class="cls-5" d="M52.15,28.36a.17.17,0,0,0-.16-.09.38.38,0,0,0-.17,0,.22.22,0,0,0-.17.12c-.08.09-.21.23-.07.34s.43-.11.52-.23S52.19,28.42,52.15,28.36Z"/><path class="cls-5" d="M43.73,14c-.46-.42-1.09.23-1.27.63a4,4,0,0,0-.17.53.36.36,0,0,0,.29.47c.35.2.86-.13,1.07-.39S44.14,14.34,43.73,14Z"/><path class="cls-5" d="M45.67,13.09c0-.14-.29,0-.34,0a.92.92,0,0,0-.22.22h0c-.06.11,0,.24.15.21h0a.44.44,0,0,0,.35-.26A.25.25,0,0,0,45.67,13.09Z"/><path class="cls-5" d="M38.54,37.7a.54.54,0,0,0-.21-.42.41.41,0,0,0-.45,0h0a.48.48,0,0,0-.62.23,1.32,1.32,0,0,0-.14.76,1.09,1.09,0,0,0,.22.68c.23.26.65,0,.82-.19A1.54,1.54,0,0,0,38.54,37.7Z"/><path class="cls-5" d="M39.88,38.93l-.1-.06c-.08,0-.2,0-.27.09s-.2.27-.06.31a.4.4,0,0,0,.24,0C39.78,39.24,40,39,39.88,38.93Z"/><path class="cls-5" d="M41.68,46.36a.81.81,0,0,0-.44.08.53.53,0,0,0-.22,0,1.23,1.23,0,0,0-.57.31,1.88,1.88,0,0,0-.29.54.58.58,0,0,0,.07.62c.53.71,1.56-.42,1.77-.9A.44.44,0,0,0,41.68,46.36Z"/><path class="cls-10" d="M72.26,65.82a3,3,0,0,0-.34-.53A4.11,4.11,0,0,0,68.14,65a13.45,13.45,0,0,0-2.49,1.39c-2.51,1.76-3.92,4-5.79,6.29-2.37,3-5.47,5-8.41,7.32a52.24,52.24,0,0,0-8.06,7.74c-1.18-1.35-2.68-2.52-4.08-3.86s-3-2.95-4.39-4.51c-.55-.62-1.06-1.25-1.54-1.89-1.36.9-2.6,2-3.89,3a18.19,18.19,0,0,0-2.5,2A67.23,67.23,0,0,0,31.4,92.46c2.25,3.41,4.56,7.55,8.18,9.27a11.88,11.88,0,0,0,3.16.76,3.94,3.94,0,0,0,1.87-.65,5.29,5.29,0,0,0,2.14-3.63c3.71-1.58,7-4.58,10.32-6.85s6.56-4.44,9.76-6.79c.84-.68,1.7-1.36,2.49-2.1a.29.29,0,0,0,0-.09,17.25,17.25,0,0,0,3.86-9.56A14.14,14.14,0,0,0,72.26,65.82Z"/><path class="cls-11" d="M72.12,66.81A2.58,2.58,0,0,0,69.46,65a17,17,0,0,0-5.14,3.23c-2.17,2-3.52,4.59-5.54,6.7a64.32,64.32,0,0,1-7.17,5.89,93.64,93.64,0,0,0-8,7.13,10.25,10.25,0,0,1,1,1.39,18.3,18.3,0,0,1,.52,3.09,10.87,10.87,0,0,0-3.51-5.69c-1.41-1.22-2.81-2.37-4.1-3.72a48.79,48.79,0,0,1-3.78-4.23,9.49,9.49,0,0,1-.63-1,3.21,3.21,0,0,1-.24.45,5.35,5.35,0,0,1-1,1.06A6.37,6.37,0,0,0,32.61,78c-1.06.77-2.08,1.62-3.12,2.44-.42.33-.86.62-1.28.92L28.8,81a6.81,6.81,0,0,1-1.51,1.21,121.85,121.85,0,0,0,5.64,11.68c2.15,3.82,5.76,8.37,10.61,7.64a4.08,4.08,0,0,0,2.56-3c.09-.17.18-.34.26-.52a5.28,5.28,0,0,0,.45-1.13.38.38,0,0,1,0,.19c0,.2,0,.41,0,.61C54.07,93,61,87.78,68,82.75a13,13,0,0,0,2.5-3.16,17.26,17.26,0,0,0,2.08-5.94C72.88,71.55,73,68.8,72.12,66.81Z"/><path class="cls-11" d="M72.12,66.81A2.58,2.58,0,0,0,69.46,65a17,17,0,0,0-5.14,3.23c-2.17,2-3.52,4.59-5.54,6.7a64.32,64.32,0,0,1-7.17,5.89,93.64,93.64,0,0,0-8,7.13,10.25,10.25,0,0,1,1,1.39,18.3,18.3,0,0,1,.52,3.09,10.87,10.87,0,0,0-3.51-5.69c-1.41-1.22-2.81-2.37-4.1-3.72a48.79,48.79,0,0,1-3.78-4.23,9.49,9.49,0,0,1-.63-1,3.21,3.21,0,0,1-.24.45,5.35,5.35,0,0,1-1,1.06A6.37,6.37,0,0,0,32.61,78c-1.06.77-2.08,1.62-3.12,2.44-.42.33-.86.62-1.28.92L28.8,81a6.81,6.81,0,0,1-1.51,1.21,121.85,121.85,0,0,0,5.64,11.68c2.15,3.82,5.76,8.37,10.61,7.64a4.08,4.08,0,0,0,2.56-3c.09-.17.18-.34.26-.52a5.28,5.28,0,0,0,.45-1.13.38.38,0,0,1,0,.19c0,.2,0,.41,0,.61C54.07,93,61,87.78,68,82.75a13,13,0,0,0,2.5-3.16,17.26,17.26,0,0,0,2.08-5.94C72.88,71.55,73,68.8,72.12,66.81Z"/><path class="cls-12" d="M36.3,97.51c-1.94-2.75-3.43-5.87-5.09-8.8a41.24,41.24,0,0,1-3.31-6.94c-.2.14-.4.28-.61.4a121.85,121.85,0,0,0,5.64,11.68c1.57,2.81,3.94,6,7,7.21A13.82,13.82,0,0,1,36.3,97.51Z"/><path class="cls-12" d="M56.07,78c1.09-.78,2.55-1.6,3.1-2.88.15-.36.27-.72.39-1.09-.25.29-.51.59-.78.87a64.32,64.32,0,0,1-7.17,5.89,93.64,93.64,0,0,0-8,7.13c.21.26.4.52.59.78A94.07,94.07,0,0,1,56.07,78Z"/><path class="cls-13" d="M72.12,66.81A2.58,2.58,0,0,0,69.46,65a17,17,0,0,0-5.14,3.23l-.14.14a.25.25,0,0,1,.1.41c-2.8,3.15-3.33,6.91-3.91,10.91-.49,3.37-2.94,5-5.32,7.4-1.2,1.2-8.36,6.18-8.86,5.46s-.84-1.69-1.32-2.51c-.07-.12-.15-.23-.23-.35a14.37,14.37,0,0,1,.45,2.74,10.87,10.87,0,0,0-3.51-5.69c-1.41-1.22-2.81-2.37-4.1-3.72a48.79,48.79,0,0,1-3.78-4.23,9.49,9.49,0,0,1-.63-1,3.21,3.21,0,0,1-.24.45,5.35,5.35,0,0,1-1,1.06A6.37,6.37,0,0,0,32.61,78c-1.06.77-2.08,1.62-3.12,2.44-.42.33-.86.62-1.28.92L28.8,81a6.81,6.81,0,0,1-1.51,1.21c.5,1.19,1,2.38,1.56,3.56,0-.13,0-.26,0-.38-.11-1.67.44-3.7,2.24-4.3,2-.65,3.49.8,4.72,2.17a39.77,39.77,0,0,1,4.69,6.39c1.45,2.45,5.94,9.24,1.39,10.93a7.26,7.26,0,0,1-2.19.41,6.94,6.94,0,0,0,3.88.54,4.08,4.08,0,0,0,2.56-3c.09-.17.18-.34.26-.52a5.28,5.28,0,0,0,.45-1.13.38.38,0,0,1,0,.19c0,.2,0,.41,0,.61C54.07,93,61,87.78,68,82.75a13,13,0,0,0,2.5-3.16,17.26,17.26,0,0,0,2.08-5.94C72.88,71.55,73,68.8,72.12,66.81Z"/><path class="cls-13" d="M44.87,90c-.07-.12-.15-.23-.23-.35a14.37,14.37,0,0,1,.45,2.74,10.87,10.87,0,0,0-3.51-5.69c-1.41-1.22-2.81-2.37-4.1-3.72a48.79,48.79,0,0,1-3.78-4.23,9.49,9.49,0,0,1-.63-1,3.21,3.21,0,0,1-.24.45,5.35,5.35,0,0,1-1,1.06A6.37,6.37,0,0,0,32.61,78c-1,.72-1.93,1.5-2.89,2.26.86-.2,1.5-.92,2.43-.93a3,3,0,0,1,1.83,1c2.15,1.78,3.89,4,5.86,5.92,1.75,1.73,4.25,3.92,5.28,6.43a5,5,0,0,0,.17-1.39.26.26,0,0,1,.09-.19C45.22,90.68,45.06,90.35,44.87,90Z"/><path class="cls-13" d="M72.3,69.34a51.77,51.77,0,0,1-6.23,9.42A76,76,0,0,1,57.12,88c-1.65,1.44-3.24,2.94-4.91,4.35-1.46,1.23-3,2.88-4.8,3.51a.28.28,0,0,1-.34-.17c-.22-.6-.38-1.22-.59-1.83-.14,2.19-.77,4.71-2.23,6.2a5,5,0,0,1-2.53,1.43,7,7,0,0,0,1.82,0,4.08,4.08,0,0,0,2.56-3c.09-.17.18-.34.26-.52a5.28,5.28,0,0,0,.45-1.13.38.38,0,0,1,0,.19c0,.2,0,.41,0,.61C54.07,93,61,87.78,68,82.75a13,13,0,0,0,2.5-3.16,17.26,17.26,0,0,0,2.08-5.94,18.29,18.29,0,0,0,0-5C72.53,68.87,72.42,69.11,72.3,69.34Z"/><path class="cls-14" d="M57,87.75c-.39-.24-.9.06-1.12.43l0,0a.81.81,0,0,0-.16.64.87.87,0,0,0,.38.6c.44.3.94-.14,1.14-.5A.84.84,0,0,0,57,87.75Z"/><path class="cls-14" d="M56.5,88.18c-.18-.11-.4,0-.5.19l0,0c-.08.06-.08.2-.07.28a.35.35,0,0,0,.17.27c.19.14.41-.06.51-.22A.37.37,0,0,0,56.5,88.18Z"/><path class="cls-14" d="M59.4,86.76a.49.49,0,0,0-.46-.3.79.79,0,0,0-.65.43c-.12.17-.19.5,0,.64l.12,0a.64.64,0,0,0,.66-.1A.69.69,0,0,0,59.4,86.76Z"/><path class="cls-14" d="M39.44,95.44A.88.88,0,0,0,39,94.32s0,0,0,0a.79.79,0,0,0-.63-.16.85.85,0,0,0-.6.38c-.3.43.14.93.49,1.14A.84.84,0,0,0,39.44,95.44Z"/><path class="cls-14" d="M39,95a.39.39,0,0,0-.19-.51v0a.38.38,0,0,0-.29-.07.44.44,0,0,0-.27.17c-.13.2.06.42.23.51A.37.37,0,0,0,39,95Z"/><path class="cls-14" d="M40.43,97.85a.48.48,0,0,0,.3-.46.81.81,0,0,0-.42-.65c-.18-.11-.51-.19-.64,0a.34.34,0,0,0-.06.12.64.64,0,0,0,.11.65C39.89,97.74,40.15,98,40.43,97.85Z"/><path class="cls-14" d="M48.72,88a.89.89,0,0,0-1.2,0l-.05,0a.78.78,0,0,0-.36.55.89.89,0,0,0,.16.69c.31.43.93.18,1.24-.09A.84.84,0,0,0,48.72,88Z"/><path class="cls-14" d="M48.12,88.25a.4.4,0,0,0-.54,0h0c-.09,0-.14.16-.16.24a.36.36,0,0,0,.07.32c.14.19.42.07.56,0A.37.37,0,0,0,48.12,88.25Z"/><path class="cls-14" d="M51.32,87.86a.5.5,0,0,0-.33-.44.81.81,0,0,0-.76.19c-.16.13-.35.41-.2.61a.76.76,0,0,0,.09.09.63.63,0,0,0,.66.11C51,88.34,51.32,88.16,51.32,87.86Z"/><path class="cls-10" d="M38.22,65.9c-.76-1.3-2.57-.17-3.56.73.6-1.83,0-3.66-2.14-5a7.08,7.08,0,0,0-8.16.27c-2.72,1.25-4.42,5.08-4.66,8a16.45,16.45,0,0,0,.9,7.61c1,3.35,3,6.37,6.61,7.1A6.23,6.23,0,0,0,31.9,83a5,5,0,0,1-3.54.37c-.24-.06-.27-.47,0-.51a7,7,0,0,0,5-4,.27.27,0,0,1,.52.07,6.93,6.93,0,0,1-.16,1.45.26.26,0,0,1,0,.28.91.91,0,0,0-.11.16c-.07.24-.13.49-.21.73a8.75,8.75,0,0,0,1-1.55c1.23-1.74,1.51-4.34,1.46-6.45,0-.3,0-.59.05-.88.09-2.24,1.38-3.64,2.37-5.45A1.13,1.13,0,0,0,38.22,65.9Z"/><path class="cls-11" d="M38,66.58a3.29,3.29,0,0,1-.94,1.86c-.18.21-.36.42-.55.62a6.44,6.44,0,0,0-.9,3c-.17,1.35-.18,2.7-.33,4v0a14.63,14.63,0,0,1-.61,2.45l-.18.38a6.33,6.33,0,0,1-1.9,2.84l.16-.08.07-.06c-.17.18-.34.36-.53.54a5.83,5.83,0,0,1-6.67,1.24,7.72,7.72,0,0,1-2.25-1.73,10,10,0,0,1-2.8-6,16.73,16.73,0,0,1-.44-3.27,14.54,14.54,0,0,1,1.1-6.14,10.7,10.7,0,0,1,.7-1.44c1.07-2.08,3.9-4,6.3-3.82a8.6,8.6,0,0,1,1.8.16c3.17.68,5.7,3.83,3.42,6.81a9.37,9.37,0,0,0-.53-2.19c-1.15-3-5.22-3.63-7.82-2.54-.06,0-.09.18,0,.15a6.7,6.7,0,0,1,6.05,1.17c1.68,1.38,3,5,.94,6.78-.14-.59-.33-1.18-.52-1.74-1-2.86-3.14-4.78-5.8-4.55a5.07,5.07,0,0,0-1.72.58c2.61-.7,4.59.19,6.15,2.43,1.26,1.8,2.63,5.66.65,7.36a6.91,6.91,0,0,0-2.24-4.11,9.33,9.33,0,0,0-.82-.69,8.47,8.47,0,0,0-2.6-1.23,4.07,4.07,0,0,0-3.32.91,3.7,3.7,0,0,1,4,0A11.16,11.16,0,0,1,29.25,73c1.6,1.79,1.27,4.19.31,6.2-.64,1.36-2.69,3-3.38.63A4.68,4.68,0,0,1,26.42,77c.21.28.43.55.66.82a.12.12,0,0,0,.09,0c-.12-1.43-2.31-3.84-3.9-3.22.07,0,.15,0,.31.06a3.6,3.6,0,0,1,1.3.75l.07.06-.06,0a2.2,2.2,0,0,1-1.31.21c-.08,0-.13.17-.06.2a1.78,1.78,0,0,0,1.76-.17c.21.18.42.37.62.57a1.53,1.53,0,0,1,.18.18c.07.11.15.21.22.31a4.27,4.27,0,0,0,.11,4.5c1.45,1.86,3.68-2.23,4-3.09a5.84,5.84,0,0,0,.44-2.17,3.32,3.32,0,0,0,1.05-1.22,3.34,3.34,0,0,0,.69,1.86c0-.31,0-.63,0-1a11.91,11.91,0,0,1-.31-1.44,5.91,5.91,0,0,1,0-.84,6.17,6.17,0,0,0-.11-1.65,3.64,3.64,0,0,0,1.3-3.23,6.74,6.74,0,0,0,.86-1.29,7,7,0,0,1,1-.76,3.15,3.15,0,0,1,1.38-.84C37.26,65.64,38,65.89,38,66.58Z"/><path class="cls-15" d="M26.48,65.49c1.75.44,3.26,1.54,3.36,3.45.07,1.22-.66,2-1.9,1.66-.83-.24-1.45-.95-2.28-1.2a3,3,0,0,0-2.93.38,3.86,3.86,0,0,1,2.45-.36,8.47,8.47,0,0,1,2.6,1.23,9.33,9.33,0,0,1,.82.69,6.91,6.91,0,0,1,2.24,4.11c2-1.7.61-5.56-.65-7.36A5.61,5.61,0,0,0,26.48,65.49Z"/><path class="cls-15" d="M31.14,64.59a6.31,6.31,0,0,0-.89-.6,1.11,1.11,0,0,1,.15,1.17c-.52.81-1.46.37-2.1-.06a3.35,3.35,0,0,0-3.63.18h.26c.27-.08.56-.14.83-.2,2.66-.23,4.8,1.69,5.8,4.55.19.56.38,1.15.52,1.74C34.18,69.64,32.82,66,31.14,64.59Z"/><path class="cls-15" d="M31,61.48a1.16,1.16,0,0,1,0,.66c-.15.51-.9.49-1.3.47a9.77,9.77,0,0,0-2.36.17c2.27-.09,4.7.84,5.55,3A9.37,9.37,0,0,1,33.44,68C35.48,65.33,33.66,62.52,31,61.48Z"/><path class="cls-15" d="M37.64,65.91a3.38,3.38,0,0,1-1,1.46,7.4,7.4,0,0,0-1.87,3,13.39,13.39,0,0,1-.67,2.06.27.27,0,0,1-.49-.06,7.63,7.63,0,0,1,.75-5l0,0a6.74,6.74,0,0,1-.86,1.29,3.64,3.64,0,0,1-1.3,3.23,6.17,6.17,0,0,1,.11,1.65,5.91,5.91,0,0,0,0,.84,11.91,11.91,0,0,0,.31,1.44c0,.32,0,.64,0,1a3.34,3.34,0,0,1-.69-1.86,3.32,3.32,0,0,1-1.05,1.22,5.84,5.84,0,0,1-.44,2.17c-.34.86-2.57,5-4,3.09a4.27,4.27,0,0,1-.11-4.5c-.07-.1-.15-.2-.22-.31a1.53,1.53,0,0,0-.18-.18c-.2-.2-.41-.39-.62-.57a1.78,1.78,0,0,1-1.76.17c-.07,0,0-.2.06-.2a2.2,2.2,0,0,0,1.31-.21l.06,0-.07-.06a3.6,3.6,0,0,0-1.3-.75c-.16,0-.24,0-.31-.06,1.59-.62,3.78,1.79,3.9,3.22a.12.12,0,0,1-.09,0c-.23-.27-.45-.54-.66-.82a4.68,4.68,0,0,0-.24,2.81c.69,2.32,2.74.73,3.38-.63,1-2,1.29-4.41-.31-6.2a11.16,11.16,0,0,0-3.41-2.65A3.85,3.85,0,0,0,22.65,70a5.16,5.16,0,0,1,4.77,2.28,4.86,4.86,0,0,1,1.09,3.24c0,.34-.21,1.06-.68,1-.7,0-1.17-.68-1.56-1.18A3.39,3.39,0,0,0,23,73.85c-.88.07-2,.35-2.74-.34a.47.47,0,0,1-.1-.1,17.09,17.09,0,0,0,.38,2.29,10,10,0,0,0,2.8,6,7.72,7.72,0,0,0,2.25,1.73,5.83,5.83,0,0,0,6.67-1.24c.19-.18.36-.36.53-.54l-.07.06-.16.08A6.33,6.33,0,0,0,34.48,79l.18-.38a14.63,14.63,0,0,0,.61-2.45v0c.15-1.35.16-2.7.33-4a6.44,6.44,0,0,1,.9-3c.19-.2.37-.41.55-.62A3.29,3.29,0,0,0,38,66.58.71.71,0,0,0,37.64,65.91Z"/><path class="cls-10" d="M109.54,191.41c.31-.57-.27-1.5.41-1.87a.29.29,0,0,0,.08-.07,12.92,12.92,0,0,0,3.33-3.31,47,47,0,0,0,3.57-6.49c1.16-2.45,1.26-4.82,3.38-6.74,2.41-2.18,3.36-6.48.29-8.7-1.95-1.42-5.93-2.92-8.49-1.89a6.91,6.91,0,0,0-1.18.47.32.32,0,0,0-.15,0h0a40.37,40.37,0,0,1-9.13-6.94,66.86,66.86,0,0,0-5-4.82,6.36,6.36,0,0,0-2.18-1.21,114.2,114.2,0,0,1,9.52-9.8c1.93-1.73,3.77-3.57,5.67-5.34.92-.87,2-2.29,1.07-3.55-2.09-2.75-6.59-4.74-10-4.85a8,8,0,0,0-5.94,2.22.15.15,0,0,0-.12,0l-.47.56a19.52,19.52,0,0,0-1.6,1.93,55.79,55.79,0,0,0-6.78,9.84c-2.11,4.07-4.23,8.79-4.17,13.49a7.33,7.33,0,0,0-.24.76,3.63,3.63,0,0,0,1.49,3.47A5.61,5.61,0,0,0,87.54,160c0,.9,8.42,4.68,9.51,5.18a50.53,50.53,0,0,0,9.62,3.4,13.13,13.13,0,0,0-1.9,2.39c-.91,1.22-1.84,2.43-2.71,3.69-1.07,1.52-2,3.17-2.94,4.73-.7,1.1-1.45,2.16-2.09,3.29a2.62,2.62,0,0,0-.61-.25,3.09,3.09,0,0,0-3.12,1.22c-.91,1.19-.21,2.45.84,3.18a3,3,0,0,0,2.41.41c0,1.11,1.46,1.61,2.49,1.23,0,.06,0,.11,0,.17a1.74,1.74,0,0,0,1.48,1.39,2.9,2.9,0,0,0,1.59-.26,1.4,1.4,0,0,0,.45,1,2.06,2.06,0,0,0,1.69.29,1,1,0,0,0,0,.25l0,0c.18.3.33.63.53.92a4.32,4.32,0,0,0,3.41.26A2.18,2.18,0,0,0,109.54,191.41Z"/><path class="cls-11" d="M105.05,191.54c-.81-1.36,1-2.37,2.39-2.29v0a2.18,2.18,0,0,0-.23-.09,1.48,1.48,0,0,0-.55-.06,2.34,2.34,0,0,0-1,.32l-.05,0-.23.13a2.35,2.35,0,0,0-1,1,4.05,4.05,0,0,1-.92,0c-.62-.09-.68-.93-.52-1.39a1.49,1.49,0,0,1,1.22-.74,2,2,0,0,1,.67.15,2.84,2.84,0,0,1,.58.2c0-.32-.57-.59-.83-.65a2.42,2.42,0,0,0-2.14.63.87.87,0,0,0-.22.34c-.59.14-1.13.46-1.61.36a1.23,1.23,0,0,1-.38-.08,1,1,0,0,1-.55-1.11,3.38,3.38,0,0,1,.11-.34,1.12,1.12,0,0,1,.25-.45l0-.06h0a2.31,2.31,0,0,1,1.75-.7,1.69,1.69,0,0,0-1.56,0,2,2,0,0,0-1.18,1.14c-.77.29-1.74.27-1.8-.69a1.26,1.26,0,0,1,.21-1,1.7,1.7,0,0,1,1.17-.7h.1a.49.49,0,0,1,.24,0,1.69,1.69,0,0,1,.62.14c-.08-.42-.81-.52-1.17-.46a2.37,2.37,0,0,0-1.81,1.44,0,0,0,0,0,0,0,2.5,2.5,0,0,1-2-.16,1.89,1.89,0,0,1-.89-2.52,2.09,2.09,0,0,1,3.09-.95v0a2.07,2.07,0,0,1,1.52,1.46,2,2,0,0,0-.81-1.56c1.52-2.26,2.93-4.59,4.34-6.9.92-1.51,2-2.93,3-4.35a22.06,22.06,0,0,1,2.23-3.09l.75.13a2.62,2.62,0,0,0-.8-.79c-6.58-2.19-13.11-4.35-19-8.09a9.85,9.85,0,0,0,1.66-.49,8,8,0,0,1-1.47-.07l-.53.13a4.39,4.39,0,0,1-3-.5,3.47,3.47,0,0,1-2.5-2,6.34,6.34,0,0,1-.06-3.18c.22-1.25.38-2.51.66-3.75a33,33,0,0,1,4.08-9.77c1.09-2.1,2.4-4.11,3.65-6.1,1.07-1.7,2.5-3.14,3.73-4.72.31-.33.63-.65,1-1,2.19-2,5.23-2.11,7.94-1.32a19,19,0,0,1,5,2.42,4.37,4.37,0,0,1,2.22,2.67c.18,1-1.07,2-1.72,2.6-3.48,3.23-7.24,6.41-10.62,9.89l.23-.28c-.85.92-1.7,1.85-2.51,2.8A12.18,12.18,0,0,0,93,151.92c.44-.58.86-1.17,1.28-1.77.6.57,2.2,1.65,1.84,1.31l.32.28a35.75,35.75,0,0,1,5.9,5.37,43.23,43.23,0,0,0,6,5.24c.58.35,1.18.65,1.77.93a4.6,4.6,0,0,0,1.69.14l-.52-.29c.34-.12.68-.23,1-.37l.23-.07c3.91-.58,8.64,1.17,9.09,5.47.35,3.33-3.17,4.83-4.3,7.63-.6,1.47-.92,3-1.61,4.45a55.69,55.69,0,0,1-2.77,5.09,11.39,11.39,0,0,1-4,3.93c.29,1,.37,2-.63,2.7S105.65,192.54,105.05,191.54Z"/><path class="cls-12" d="M84.69,145.93a52.16,52.16,0,0,1,5.48-10.06c.75-1.16,1.44-2.38,2.12-3.59.22-.38.5-.84.75-1.33a28.88,28.88,0,0,0-2.5,3.22c-1.25,2-2.56,4-3.65,6.1A33,33,0,0,0,82.81,150c-.28,1.24-.44,2.5-.66,3.75a6.34,6.34,0,0,0,.06,3.18,1.08,1.08,0,0,0,.08.19C82.14,153.29,83.55,149,84.69,145.93Z"/><path class="cls-12" d="M97.68,183.16a2.85,2.85,0,0,0,1.3-1,70,70,0,0,0,4.84-7.19c1.29-2.07,2.21-4.49,4.15-6a5.88,5.88,0,0,0-1.27.13c-.68.81-1.23,1.86-1.82,2.66-1,1.42-2.11,2.84-3,4.35-1.41,2.31-2.82,4.64-4.34,6.9Z"/><path class="cls-12" d="M93.92,184.3a3.13,3.13,0,0,1,2-.9,9.72,9.72,0,0,0,1.3-.11,2.77,2.77,0,0,0-.43-.18v0a2.09,2.09,0,0,0-3.09.95,2.21,2.21,0,0,0-.16.65Q93.74,184.48,93.92,184.3Z"/><path class="cls-13" d="M108.92,189.26a11.39,11.39,0,0,0,4-3.93,55.69,55.69,0,0,0,2.77-5.09c.69-1.45,1-3,1.61-4.45,1.13-2.8,4.65-4.3,4.3-7.63-.45-4.3-5.18-6-9.09-5.47l-.23.07c-.33.14-.67.25-1,.37l.52.29a4.6,4.6,0,0,1-1.69-.14c-.59-.28-1.19-.58-1.77-.93a43.23,43.23,0,0,1-6-5.24,35.75,35.75,0,0,0-5.9-5.37l-.32-.28c.36.34-1.24-.74-1.84-1.31-.42.6-.84,1.19-1.28,1.77a12.18,12.18,0,0,1,2.79-4.65c.81-1,1.66-1.88,2.51-2.8l-.23.28c3.38-3.48,7.14-6.66,10.62-9.89.65-.61,1.9-1.58,1.72-2.6a4.37,4.37,0,0,0-2.22-2.67,19,19,0,0,0-5-2.42c-2.71-.79-5.75-.69-7.94,1.32-.34.31-.66.63-1,1-1.23,1.58-2.66,3-3.73,4.72-1.25,2-2.56,4-3.65,6.1l-.51.88a2.77,2.77,0,0,1,3.76.22c2.55,2.48,2.73,6.18,1.49,9.35a26.72,26.72,0,0,1-2.59,5c-.81,1.2-2,2.82-3.68,2.78a4.5,4.5,0,0,1-3.17-1.59s0,0,0,.05a3.47,3.47,0,0,0,2.5,2,4.39,4.39,0,0,0,3,.5l.53-.13a8,8,0,0,0,1.47.07,9.85,9.85,0,0,1-1.66.49c5.92,3.74,12.45,5.9,19,8.09a2.62,2.62,0,0,1,.8.79l-.75-.13a22.06,22.06,0,0,0-2.23,3.09c-1,1.42-2.11,2.84-3,4.35-1.41,2.31-2.82,4.64-4.34,6.9a2,2,0,0,1,.81,1.56,2.07,2.07,0,0,0-1.52-1.46v0a2.42,2.42,0,0,0-1.06-.32,1.72,1.72,0,0,1,.48.31,1.42,1.42,0,0,1-.25,2.39,2,2,0,0,1-2.23-.87,1.1,1.1,0,0,1-.14-.21,1.88,1.88,0,0,0,1,2.17,2.5,2.5,0,0,0,2,.16,0,0,0,0,1,0,0,2.37,2.37,0,0,1,1.81-1.44c.34-.06,1,0,1.14.4a1.12,1.12,0,0,1,.38.24.24.24,0,0,1,.09.18.56.56,0,0,1-.1.83,1.73,1.73,0,0,1-1.42.38A.93.93,0,0,1,98,185.9l.07-.09a1.53,1.53,0,0,0-.51.47,1.26,1.26,0,0,0-.21,1c.06,1,1,1,1.8.69a2,2,0,0,1,1.18-1.14,1.75,1.75,0,0,1,1.48-.07,1.2,1.2,0,0,1,.63.25,1,1,0,0,1,.63.61c.32,1.13-1.16,1.18-1.87.83-.31-.14-.74-.46-.75-.84a.71.71,0,0,1,.21-.52,1.68,1.68,0,0,0-.52.41h0l0,.06a1.12,1.12,0,0,0-.25.45,3.38,3.38,0,0,0-.11.34,1,1,0,0,0,.55,1.11,1.23,1.23,0,0,0,.38.08c.48.1,1-.22,1.61-.36a.87.87,0,0,1,.22-.34,2.42,2.42,0,0,1,2.14-.63c.26.06.85.33.83.65l-.06,0,.08,0a.27.27,0,0,1-.21.48.41.41,0,0,1-.07.11,1,1,0,0,1-1.42-.13.27.27,0,0,1,0-.32.93.93,0,0,1,.89-.43,1.78,1.78,0,0,0-.45-.08,1.49,1.49,0,0,0-1.22.74c-.16.46-.1,1.3.52,1.39a4.05,4.05,0,0,0,.92,0,2.35,2.35,0,0,1,1-1l.23-.13.05,0a2.34,2.34,0,0,1,1-.32,1.48,1.48,0,0,1,.55.06,2.18,2.18,0,0,1,.23.09v0c-1.35-.08-3.2.93-2.39,2.29.6,1,2.39,1,3.24.42S109.21,190.26,108.92,189.26Zm-7.1-4.27c-1.9-.37-3.48-1.66-2.56-3.71a15.09,15.09,0,0,1,2-3.09c1-1.31,2-2.72,2.88-4.12.66-1,1.31-2,2-3a5.55,5.55,0,0,1,1.41-1.74,3.32,3.32,0,0,1,1.09-.42,11.76,11.76,0,0,1-.55-1.06c-.34-.71-1.22-.73-1.92-.88-1.06-.24-2.12-.48-3.17-.78a42.93,42.93,0,0,1-7.34-2.82c-1.26-.62-2.5-1.3-3.79-1.86a4,4,0,0,1-1.94-1.28.26.26,0,0,1,0-.37c1.56-1.29,3.33-2.61,4-4.5a7.36,7.36,0,0,0,.06-.81,10.27,10.27,0,0,1,0-2.6.27.27,0,0,1,.35-.15c3,1.52,5.2,4.19,7.67,6.44s4.9,5,8.12,5.86c2.41.62,5.9-.11,7.1,2.73a3.08,3.08,0,0,1-.58,2.91A7.29,7.29,0,0,1,115.4,171a4.33,4.33,0,0,0-1.39,2.34,29.15,29.15,0,0,1-5.59,9.38A6.82,6.82,0,0,1,101.82,185Zm5.23,5.77c-.38,0-.92,0-1.08-.42-.3-.83,1-1.21,1.59-.76a1.26,1.26,0,0,1,.65.37.27.27,0,0,1,0,.33A1.81,1.81,0,0,1,107.05,190.76Z"/><path class="cls-13" d="M88.07,138.15a19.63,19.63,0,0,0,2,3.06c.06.09.13.17.2.26a6.93,6.93,0,0,1,1,1.22c.18.22.37.43.56.62,0,0,.87,1.07,1.13.63a6.31,6.31,0,0,0,.44-.95.27.27,0,0,1,.49,0,10.45,10.45,0,0,0,2.06,4.15c.78-.9,1.58-1.79,2.39-2.66l-.23.28c3.38-3.48,7.14-6.66,10.62-9.89.65-.61,1.9-1.58,1.72-2.6a4.37,4.37,0,0,0-2.22-2.67,19,19,0,0,0-5-2.42c-2.71-.79-5.75-.69-7.94,1.32-.34.31-.66.63-1,1-1.23,1.58-2.66,3-3.73,4.72C89.72,135.48,88.87,136.81,88.07,138.15Z"/><path class="cls-13" d="M117.25,168.85a3.21,3.21,0,0,1-.5.89l-.18.21c1.53.06,3.46-.51,2.56-2.3a4.1,4.1,0,0,0-1.17-1.41,1.94,1.94,0,0,1,.15.62A2.23,2.23,0,0,1,117.25,168.85Z"/><path class="cls-13" d="M118.8,172.85a12.4,12.4,0,0,0-4.53,6.07c-.61,1.91-1,4.1-2.29,5.72-2.18,2.79-5.68,2.63-8.77,1.68,2,1.34,5.21,2.55,5.86,4.5a3.4,3.4,0,0,0-.15-1.56,11.39,11.39,0,0,0,4-3.93,55.69,55.69,0,0,0,2.77-5.09c.69-1.45,1-3,1.61-4.45,1-2.43,3.74-3.88,4.24-6.39A9.26,9.26,0,0,1,118.8,172.85Z"/><path class="cls-10" d="M117.93,167.89a2.54,2.54,0,0,1-1,1.26,2.8,2.8,0,0,0,1.34-.79,1.13,1.13,0,0,0,.24-.44,1.07,1.07,0,0,0-.12-.59,3.94,3.94,0,0,0-.58-.84A2.16,2.16,0,0,1,117.93,167.89Z"/><path class="cls-10" d="M77.3,129.21a12.11,12.11,0,0,0-3.56-5.63,8.52,8.52,0,0,0-2.54-1.44,9.32,9.32,0,0,0-1.22-.28l4.25.21s.1-.08,0-.09c-2.35-.23-4.7-.46-7-.59,0,0,0,0-.09,0a55,55,0,0,0-11.32.36c-4.8.72-9.65,1.37-14.14,3.13a6.08,6.08,0,0,0-4.7.57,5.35,5.35,0,0,0-2.46,3.87s0,0,0,0a.27.27,0,0,1,0,.09,1.09,1.09,0,0,0,0,.18c-.25,1.35-2.75,3.45-3.49,4.32-1.23,1.45-2.41,2.95-3.55,4.47-1.83,2.46-3.57,5.22-5.57,7.64a27,27,0,0,0-2.21-3.56c-1-1.35-2-2.76-3.15-4.11l.18-.18a4.49,4.49,0,0,0,.78-1.25,3,3,0,0,0,.21-3,3.33,3.33,0,0,0-3.31-1.57,4.86,4.86,0,0,0-2,.84,1.71,1.71,0,0,0-1.42-1.12,2.67,2.67,0,0,0-2.25.85c-.75-.92-2.48-.23-3.25.47a.86.86,0,0,0-.13.14.45.45,0,0,0-.31-.32,3,3,0,0,0-1.86.35A2,2,0,0,0,2,134.85a1.5,1.5,0,0,0-2,1.27c-.19,1.56,1.2,2.45,2.56,2.48a8.16,8.16,0,0,0,1.33,8.5c1.61,2,3.64,3.57,5.13,5.68,1.61,2.27,2.06,5.26,2.79,7.89A6.31,6.31,0,0,0,14.76,165c1.43.73,3.58,1.53,5.2,1,2.25-.75,3.51-2.48,4.52-4.46a16,16,0,0,0,.7-3.1,14.14,14.14,0,0,1,.74-4,16.49,16.49,0,0,1,3.73-5.32,19,19,0,0,1,3.5-3.72c2.16-1.9,4.54-3.54,6.8-5.32a18.83,18.83,0,0,0,4.23-4.27,5.22,5.22,0,0,0,.77-2.64,12.66,12.66,0,0,1,1.38,0c3.28.33,10.9,1.09,13.93,1.35,2.46.21,4.89.41,7.36.49,1.26,0,2.52,0,3.78,0a12,12,0,0,1,2.93-.09.48.48,0,0,0,.39-.16,2.63,2.63,0,0,0,2.18-.64C78,132.74,77.71,130.75,77.3,129.21Z"/><path class="cls-11" d="M8.89,133.59a.05.05,0,0,0,0-.05l.07-.1a1.82,1.82,0,0,1,2.95-.05l.08.1A6.6,6.6,0,0,0,10.64,135a2.27,2.27,0,0,0-.17,2.45A10.75,10.75,0,0,0,9,137.19c0-.05,0-.09-.11-.12C7.35,136.56,8.25,134.51,8.89,133.59Z"/><path class="cls-11" d="M5.53,134.18a1.88,1.88,0,0,1,2.82-.87,3.69,3.69,0,0,0-1,2.61,2.22,2.22,0,0,0,.45,1.19c-.29,0-.59,0-.88,0a.14.14,0,0,0-.07-.06,2.3,2.3,0,0,1-1.28-1A2.44,2.44,0,0,1,5.53,134.18Z"/><path class="cls-13" d="M12,133.49l-.08-.1-.16-.16a3.35,3.35,0,0,0-1.69,1.33c-.34.47-.64,1-1.28,1.08a.71.71,0,0,1-.66-.53c-.24.82-.18,1.66.72,2,.08,0,.11.07.11.12a10.75,10.75,0,0,1,1.48.29,2.27,2.27,0,0,1,.17-2.45A6.6,6.6,0,0,1,12,133.49Z"/><path class="cls-13" d="M8.35,133.31l-.1-.07a1.44,1.44,0,0,0-.89.66,7.41,7.41,0,0,1-.48.93.88.88,0,0,1-1.31.26.73.73,0,0,1-.2-.26,2,2,0,0,0,.17,1.26,2.3,2.3,0,0,0,1.28,1,.14.14,0,0,1,.07.06c.29,0,.59,0,.88,0a2.22,2.22,0,0,1-.45-1.19A3.69,3.69,0,0,1,8.35,133.31Z"/><path class="cls-11" d="M75.2,134.1a7.91,7.91,0,0,0-1.16.09c-1.2-.11-2.61.22-3.74.22-2.71,0-5.43-.09-8.13-.3S51.28,133,47.25,132.56c-.39,0-.78,0-1.17,0a8.41,8.41,0,0,0-2.51.72,2.29,2.29,0,0,0-.42.64,6.29,6.29,0,0,1,1.36-.71l-.2.56a7.67,7.67,0,0,1-1.42,2.88c-1.66,2.13-4.25,3.74-6.39,5.35a34.28,34.28,0,0,0-7.41,7,47.92,47.92,0,0,0-3.32,4.47,5.35,5.35,0,0,0-.95,3.59,9.83,9.83,0,0,1-.91,3.88,12.42,12.42,0,0,1-2.68,3.71,2.72,2.72,0,0,1-1.56.72l-.17,0a6,6,0,0,1-4.63-1.29c-2.25-1.95-2.74-4.73-3.17-7.51,0-.11-.07-.23-.11-.34-1.17-3.61-3.44-6-6-8.62a9.92,9.92,0,0,1-2.86-4.8,7.9,7.9,0,0,1,.78-4.66,2.69,2.69,0,0,1-1.86-.35,2.67,2.67,0,0,1-.68-.66,2,2,0,0,1-.29-1.39c.07-.74.74-.89,1.34-.75a1.73,1.73,0,0,0,0,.68,2.54,2.54,0,0,0,.31.76,2.32,2.32,0,0,0,.76.59,3.64,3.64,0,0,0,.74,0A1.84,1.84,0,0,1,2.7,136a1.34,1.34,0,0,1-.08-.63,1.53,1.53,0,0,1,.89-1.51,1.09,1.09,0,0,1,1.12-.13h0a.62.62,0,0,1,.14.18h0a.6.6,0,0,1,.06.27s0,.07,0,.09A2.36,2.36,0,0,0,6,137.3a7.85,7.85,0,0,0-1.49.48c.36,0,1.07,0,1.39,0a8.5,8.5,0,0,1,2.62-.07,6.14,6.14,0,0,1,.72.15c.78.06,1.55.17,2.31.3a2.7,2.7,0,0,1-.61-1.69,2.83,2.83,0,0,1,.25-1l0-.05s.05-.11.08-.16c.71-1.33,2.53-2.5,3.95-2.18a2.67,2.67,0,0,1,2,2c.37,1.31-.84,3.19-2,4.05a1.88,1.88,0,0,0,.66-.24c.92,1.1,1.83,2.23,2.75,3.34a27.07,27.07,0,0,1,2.07,2.89A16.84,16.84,0,0,1,23,148.42c0-.1,0-.19-.07-.29s0,0,0,.05c-.21-.55-.44-1.08-.69-1.6,2.46-2.91,4.53-6.3,6.8-9.29,1.43-1.89,3-3.69,4.48-5.53a9.88,9.88,0,0,0,1.08-1.45,2.6,2.6,0,0,0,.19.74s0,0,0,0a6.33,6.33,0,0,1,.74-3,4.45,4.45,0,0,1,2.37-2.49,5.52,5.52,0,0,1,3-.35l0,0c.72,0,1.44.11,2.16.17l-.57-.26a82.6,82.6,0,0,1,13.25-2.9,61.52,61.52,0,0,1,12.14-.47c2.84.81,5.19,1.32,7.13,3.93A13,13,0,0,1,77,130.17C77.37,131.44,77.46,134.06,75.2,134.1Z"/><path class="cls-12" d="M28.3,139.35a46.66,46.66,0,0,0,5.82-7.76.27.27,0,0,1,.46,0c.13.24.25.5.38.75a7.52,7.52,0,0,1,2.44-4.79c2.64-2.17,5.88-1.49,9.06-1-.78-.24-1.56-.45-2.36-.63-.24,0-.31-.43-.05-.51a63.87,63.87,0,0,1,9.28-2.49c2-.3,4-.55,6-1-1.22.09-2.43.22-3.63.41a82.6,82.6,0,0,0-13.25,2.9l.57.26c-.72-.06-1.44-.15-2.16-.17l0,0a5.52,5.52,0,0,0-3,.35A4.45,4.45,0,0,0,35.47,128a6.33,6.33,0,0,0-.74,3s0,0,0,0a2.6,2.6,0,0,1-.19-.74,9.88,9.88,0,0,1-1.08,1.45c-1.5,1.84-3,3.64-4.48,5.53-1.59,2.1-3.08,4.38-4.68,6.56A53.58,53.58,0,0,0,28.3,139.35Z"/><path class="cls-12" d="M11.27,137.64l.86.62c-.27-1.53-.21-3.31.92-4.46a4.62,4.62,0,0,1,.88-.68,4.63,4.63,0,0,0-2.6,2.1c0,.05-.05.11-.08.16l0,.05a2.83,2.83,0,0,0-.25,1A2.64,2.64,0,0,0,11.27,137.64Z"/><path class="cls-12" d="M6.94,148.1a13.4,13.4,0,0,1-3-5.2,14.32,14.32,0,0,1-.23-4.71l-.26.18a7.75,7.75,0,0,0-.74,4.55,9.92,9.92,0,0,0,2.86,4.8,26.1,26.1,0,0,1,5.26,6.66A23.61,23.61,0,0,0,6.94,148.1Z"/><path class="cls-13" d="M77,130.17A13,13,0,0,0,75,125.69c-1.94-2.61-4.29-3.12-7.13-3.93a61.52,61.52,0,0,0-12.14.47c-2.53.4-5,.82-7.44,1.34a12.27,12.27,0,0,1,2.45.57.26.26,0,0,1,0,.48,20.46,20.46,0,0,0-4.86,2.25c1.72.9,4.3.55,6.17.69s4.17.06,6,1.07a.27.27,0,0,1,0,.49,15.15,15.15,0,0,1-5,.66c-2.23.08-4.46,0-6.69.11-.69,0-2.26.53-2.74-.25-.32-.51-.29-1.2-.57-1.74a4.3,4.3,0,0,0-1.42-1.54,3.85,3.85,0,0,1-.74,4,4.44,4.44,0,0,1-3.73,1.15c1.41.8,3.2,1.32,2.3,3.47-1,2.36-3.57,3.87-5.47,5.45-1.72,1.41-3.49,2.76-5.2,4.19-1,.82-1.91,1.64-2.8,2.53a11.41,11.41,0,0,1-1.29,1.31c-.66.46-1.43-.19-2.07-1.06.12.27.22.54.33.81,0,0,0,0,0-.05s.05.19.07.29a16.84,16.84,0,0,0-2.23-3.37,27.07,27.07,0,0,0-2.07-2.89c-.92-1.11-1.83-2.24-2.75-3.34a1.88,1.88,0,0,1-.66.24c1.14-.86,2.35-2.74,2-4.05a2.71,2.71,0,0,0-1.57-1.85,2.54,2.54,0,0,0-1.93.88,3.48,3.48,0,0,0-.72,3.08,1.41,1.41,0,0,1,.09.88c-.28.58-1.19.46-1.61.14h0c-.73-.13-1.47-.23-2.21-.29a6.14,6.14,0,0,0-.72-.15,8.5,8.5,0,0,0-2.62.07c-.32,0-1,.06-1.39,0A7.85,7.85,0,0,1,6,137.3a2.36,2.36,0,0,1-1.16-3.07s0,0,0-.09a.6.6,0,0,0,0-.24,11.63,11.63,0,0,0-.5,1.27,1,1,0,0,1-1.22.65.9.9,0,0,1-.48-.46,1.46,1.46,0,0,0,.08.59,1.84,1.84,0,0,0,1.08,1.23,3.64,3.64,0,0,1-.74,0,2.32,2.32,0,0,1-.76-.59,2.54,2.54,0,0,1-.31-.76,1.73,1.73,0,0,1,0-.68,1.13,1.13,0,0,0-.18,0,7.81,7.81,0,0,0,0,1.37c-.05.4-.35.85-.82.77l-.09,0,0,.06a2.67,2.67,0,0,0,.68.66,2.69,2.69,0,0,0,1.86.35A15.14,15.14,0,0,0,2.85,140a15.81,15.81,0,0,1,5.42-.47c2,.08,4.65.41,5.93,2.18a5.36,5.36,0,0,1,.85,3.34,6.31,6.31,0,0,0,1.2,4.27c1.54,2,3.9,3.68,4.48,6.23.45,1.94,0,4.78-2.1,5.6-2.67,1-4.4-.58-6.37-2.16l-.19-.14a9.22,9.22,0,0,0,2.8,5.37,6,6,0,0,0,4.63,1.29l.17,0a2.72,2.72,0,0,0,1.56-.72A12.42,12.42,0,0,0,23.91,161a9.83,9.83,0,0,0,.91-3.88,5.35,5.35,0,0,1,.95-3.59,47.92,47.92,0,0,1,3.32-4.47,34.28,34.28,0,0,1,7.41-7c2.14-1.61,4.73-3.22,6.39-5.35a7.67,7.67,0,0,0,1.42-2.88l.2-.56a6.29,6.29,0,0,0-1.36.71,2.29,2.29,0,0,1,.42-.64,8.41,8.41,0,0,1,2.51-.72c.39,0,.78,0,1.17,0,4,.43,12.25,1.35,14.92,1.55s5.42.3,8.13.3c1.13,0,2.54-.33,3.74-.22a7.91,7.91,0,0,1,1.16-.09C77.46,134.06,77.37,131.44,77,130.17Z"/><path class="cls-10" d="M12.59,148.53h-.06l-.57.05a6.13,6.13,0,0,1-1.42-.09,7.86,7.86,0,0,1-1.77-.61l-.44-.11c0,.67,1.92,1.38,2.33,1.42a7.16,7.16,0,0,0,4.7-.85h0A13.4,13.4,0,0,1,12.59,148.53Z"/><path class="cls-10" d="M113.22,81.35c-.15-.83-.32-1.68-.51-2.54a28.12,28.12,0,0,0-1.61-6.34c-1.34-3.4-2.48-6.88-4.95-9.65-4.1-4.59-10.83-5.23-16.57-4.57a37.72,37.72,0,0,0-18.13,7,39.94,39.94,0,0,0-6.26,6,4.34,4.34,0,0,1,3.4-.15.28.28,0,0,1,0,.42c-4,4-7.36,8.53-8.41,14.21a.27.27,0,0,1-.51,0,14.74,14.74,0,0,1-.22-5.37,8.66,8.66,0,0,0-.58,1.84,39.25,39.25,0,0,0-2.16,13.41,43.46,43.46,0,0,0,3.92,18.21,17.29,17.29,0,0,0,2,9.34,26.34,26.34,0,0,0,6.54,7.41,25.74,25.74,0,0,0,19,5.66c6.52-.65,12.81-4.19,17.8-8.29,4.65-3.83,8.47-9.9,5.29-15.77a.23.23,0,0,0-.11-.11A75.13,75.13,0,0,0,114,93.28,56.72,56.72,0,0,0,113.22,81.35Z"/><path class="cls-11" d="M113.31,93.52a78.72,78.72,0,0,1-4.39,24c-.1.29.25.14.33,0,.58-1.36,1.1-2.76,1.56-4.18,3.07,6.48-2.56,12.43-7.68,16-5.3,3.64-11,6.08-17.51,6.27-6,.18-11.77-2.44-16.35-6.12a21.15,21.15,0,0,1-8.41-15.26,28.82,28.82,0,0,0,3.25,5.23c.11.15.37-.12.28-.25C57,107.75,54.86,91.21,60.93,78.7a37.86,37.86,0,0,1,11.3-13.27,38.13,38.13,0,0,1,17.64-6.37c5.63-.64,11.55.37,15.64,4.55,2.3,2.37,3.42,5.76,4.55,8.78a60.43,60.43,0,0,1,2.4,8.67c.05.23.09.45.13.67A57.46,57.46,0,0,1,113.31,93.52Z"/><path class="cls-12" d="M65.3,72a42.11,42.11,0,0,0-4.37,6.67,37.67,37.67,0,0,0-3.53,17C58.38,87.4,61.36,79.49,65.3,72Z"/><path class="cls-13" d="M113.31,93.52a57.46,57.46,0,0,0-.72-11.79c0-.22-.08-.44-.13-.67a60.43,60.43,0,0,0-2.4-8.67c-1.13-3-2.25-6.41-4.55-8.78-4.09-4.18-10-5.19-15.64-4.55a38.13,38.13,0,0,0-17.64,6.37,35.61,35.61,0,0,0-4.49,3.86c.44.25.89.49,1.35.71A50.39,50.39,0,0,0,80,73.6a34.11,34.11,0,0,0,7.54.78c1.51,0,7.25-.24,8.26.57a5.67,5.67,0,0,1,1.69,3.16,29,29,0,0,1,.7,8.71c-.15,2.45-.58,5.12-2.2,7.07a5.3,5.3,0,0,1-3.3,2,12.53,12.53,0,0,1-5-.82,28.7,28.7,0,0,0-12.93-.73C70.54,95.13,67,97,63.15,98.71c-1.08.47-2.53,1.08-3.68.43a4.38,4.38,0,0,1-2-2.43l0-.15a44.89,44.89,0,0,0,7,22.56c.09.13-.17.4-.28.25a28.82,28.82,0,0,1-3.25-5.23,21.15,21.15,0,0,0,8.41,15.26c4.58,3.68,10.36,6.3,16.35,6.12,6.48-.19,12.21-2.63,17.51-6.27,5.12-3.52,10.75-9.47,7.68-16-.46,1.42-1,2.82-1.56,4.18-.08.17-.43.32-.33,0A78.72,78.72,0,0,0,113.31,93.52Zm-26.2,17.09a6.58,6.58,0,0,1-5.26,2.4,13.29,13.29,0,0,1-2.87-.1,37.59,37.59,0,0,1-4.74-.3,26.77,26.77,0,0,1-6.83-1.22c-4.91-2-5.9-10.32-1-12.85,2.49-1.29,5.36-1.3,8.1-1.16a26,26,0,0,1,8,1.22c2.22.85,4.28,2.31,5,4.68C88.16,105.42,88.47,108.65,87.11,110.61Z"/><path class="cls-13" d="M113.31,93.52a57.46,57.46,0,0,0-.72-11.79c0-.22-.08-.44-.13-.67a60.43,60.43,0,0,0-2.4-8.67c-1.13-3-2.25-6.41-4.55-8.78l-.51-.48a20.94,20.94,0,0,0-1.45,3.8c-.87,3-1.37,6.48.32,9.35,1.53,2.6,4.06,4.41,4.42,7.63a16.64,16.64,0,0,1-1.5,8.54c-2.93,6.09-10.21,6.6-16.12,5.48-3.6-.68-7.15-1.79-10.81-2.12a22.93,22.93,0,0,0-6,.29,15,15,0,0,0-2,.44c.54.06,1.09.06,1.55.08,1.09,0,2.17,0,3.26,0,3.6.08,7.18,1,10.69,1.72a27.82,27.82,0,0,1,6.82,2.11c1.89.94,3.6,2.33,3.47,4.63a9.35,9.35,0,0,1-3.7,6.8c-2.54,1.86-6.23,2-9.27,2.2a89,89,0,0,1-11.89,0A60.8,60.8,0,0,1,61,112.61a41.13,41.13,0,0,0,3.44,6.51c.09.13-.17.4-.28.25a28.82,28.82,0,0,1-3.25-5.23,21.15,21.15,0,0,0,8.41,15.26c4.58,3.68,10.36,6.3,16.35,6.12,6.48-.19,12.21-2.63,17.51-6.27,5.12-3.52,10.75-9.47,7.68-16-.46,1.42-1,2.82-1.56,4.18-.08.17-.43.32-.33,0A78.72,78.72,0,0,0,113.31,93.52Z"/><path class="cls-13" d="M104.79,99.24c-1.79,1.08-4.54.7-6.49.49a46,46,0,0,1-5.82-1.12c-4.15-1-8.11-2.19-12.39-2.54-6.24-.52-13.36-.14-18,4.71-.09.1,0,.22.09.13,6.5-5.68,15.94-4.5,23.72-3,3.77.71,7.35,2.09,11.17,2.61,2.46.34,5.68.63,7.78-.95C105,99.43,105,99.11,104.79,99.24Z"/><g class="cls-16"><path class="cls-14" d="M102.51,103.85c-.16-.43-.75-.5-1.15-.34h0a.75.75,0,0,0-.51.41.82.82,0,0,0-.07.7c.17.5.83.46,1.21.3A.83.83,0,0,0,102.51,103.85Z"/><path class="cls-14" d="M101.86,103.89c-.07-.19-.33-.22-.51-.15h0a.41.41,0,0,0-.23.18.36.36,0,0,0,0,.32c.07.23.37.21.54.13A.37.37,0,0,0,101.86,103.89Z"/><path class="cls-14" d="M105,104.53a.5.5,0,0,0-.19-.52.79.79,0,0,0-.77-.06c-.2.07-.46.29-.39.51a.47.47,0,0,0,.07.12.6.6,0,0,0,.58.31A.69.69,0,0,0,105,104.53Z"/></g><g class="cls-16"><path class="cls-14" d="M105.52,89.82c.42.18.88-.18,1-.58l0,0a.78.78,0,0,0,.07-.65.86.86,0,0,0-.46-.54c-.47-.24-.9.27-1.06.65A.84.84,0,0,0,105.52,89.82Z"/><path class="cls-14" d="M106,89.33c.19.08.39-.09.47-.26v0a.35.35,0,0,0,0-.3.41.41,0,0,0-.21-.24c-.21-.1-.41.12-.48.29A.38.38,0,0,0,106,89.33Z"/><path class="cls-14" d="M103.28,91.14a.49.49,0,0,0,.49.23.8.8,0,0,0,.59-.51c.09-.19.12-.53-.1-.63l-.12,0a.63.63,0,0,0-.64.2A.68.68,0,0,0,103.28,91.14Z"/></g><g class="cls-16"><path class="cls-14" d="M61.53,103.41c.42.18.88-.19,1-.58l0,0a.78.78,0,0,0,.07-.65.83.83,0,0,0-.46-.54c-.47-.24-.9.27-1.06.65A.84.84,0,0,0,61.53,103.41Z"/><path class="cls-14" d="M62,102.92c.19.08.39-.09.47-.26,0,0,0,0,0,0a.39.39,0,0,0-.18-.54c-.21-.1-.41.12-.47.29A.39.39,0,0,0,62,102.92Z"/><path class="cls-14" d="M59.28,104.73a.49.49,0,0,0,.5.23.79.79,0,0,0,.58-.51c.09-.19.12-.53-.09-.63l-.13,0a.61.61,0,0,0-.63.2A.67.67,0,0,0,59.28,104.73Z"/></g><g class="cls-16"><path class="cls-14" d="M111.51,117.68c0,.45.56.7,1,.66l.06,0a.81.81,0,0,0,.61-.24.85.85,0,0,0,.26-.66c0-.53-.65-.68-1.06-.64S111.47,117.17,111.51,117.68Z"/><path class="cls-14" d="M112.14,117.83c0,.2.25.31.44.3h0a.35.35,0,0,0,.27-.11.35.35,0,0,0,.12-.29c0-.24-.29-.31-.48-.29A.38.38,0,0,0,112.14,117.83Z"/><path class="cls-14" d="M109.3,116.29a.48.48,0,0,0,0,.55.78.78,0,0,0,.73.28c.2,0,.52-.13.51-.37a.51.51,0,0,0,0-.13c0-.23-.28-.41-.47-.47A.68.68,0,0,0,109.3,116.29Z"/></g><path class="cls-11" d="M63.38,38.06s3.7-5.79-.16-11.63-8.72-6.68-8.72-6.68a3.74,3.74,0,0,1,.84,3.93C54.41,25.87,49.41,39,59,42.2Z"/><path class="cls-17" d="M59,42.42H58.9a8,8,0,0,1-5-4.33c-2.4-5.3.61-13,1.24-14.49a3.54,3.54,0,0,0-.79-3.68.23.23,0,0,1-.05-.26.24.24,0,0,1,.24-.12c.2,0,5,.92,8.86,6.78s.2,11.81.16,11.87l0,0-4.42,4.14A.2.2,0,0,1,59,42.42ZM55.08,20.13a3.72,3.72,0,0,1,.46,3.63c-.61,1.46-3.57,9-1.24,14.14A7.49,7.49,0,0,0,58.91,42l4.29-4c.24-.39,3.45-5.9-.17-11.37A15.29,15.29,0,0,0,55.08,20.13Z"/><path class="cls-13" d="M63.44,26.8a13.69,13.69,0,0,1,.48,3,2.63,2.63,0,0,1-.78,2.1.66.66,0,0,1-1,0,5.66,5.66,0,0,1-.77-2A22.89,22.89,0,0,0,60,26.47a9.72,9.72,0,0,0-2.66-3.37c-.59-.46-1.21-.89-1.8-1.33a4,4,0,0,1,.06.62,6.83,6.83,0,0,1,.09,3.86c-.51,2.46-1.45,4.75-1.05,7.32a11.13,11.13,0,0,0,.71,2.6c.11.25.32.63.2.91-.32.76-1.58-.11-1.89-.41a.46.46,0,0,0-.07-.07A7.73,7.73,0,0,0,59,42.2l4.42-4.14S66.92,32.51,63.44,26.8Z"/><path class="cls-18" d="M61.12,32.09A12,12,0,0,0,57,23.54s0,0,0,0c3.46,3.37,4,8.13,3.41,12.74-1.75,1.08-3.71-.24-4.29-2A8.27,8.27,0,0,1,56,29.77h0c-.67,2.06-1.14,4.87.63,6.53a3,3,0,0,0,3.71.29,35.41,35.41,0,0,1-1.25,5.51c0,.09.14.07.16,0C60.52,38.82,61.44,35.65,61.12,32.09Z"/><g class="cls-19"><path class="cls-20" d="M61.16,32.38a10.5,10.5,0,0,0-2.31-6.51,15.31,15.31,0,0,0-1.38-1.58c-1.29,3.92-3.79,8.52-.55,12a4.38,4.38,0,0,0,4,.38A19.92,19.92,0,0,0,61.16,32.38Z"/><path class="cls-17" d="M59.21,37.2h0a3.88,3.88,0,0,1-2.43-.73c-2.86-3.07-1.43-7-.17-10.4.23-.64.45-1.25.65-1.85a.21.21,0,0,1,.15-.14.23.23,0,0,1,.21.05,10.86,10.86,0,0,1,1,1.12,5.71,5.71,0,0,0,.39.47,10.76,10.76,0,0,1,2.36,6.64,20.79,20.79,0,0,1-.23,4.36.26.26,0,0,1-.14.17A5.32,5.32,0,0,1,59.21,37.2ZM57.57,24.69c-.17.5-.36,1-.55,1.53-1.27,3.48-2.59,7.08.06,9.93a3.5,3.5,0,0,0,2.13.62h0a4.75,4.75,0,0,0,1.52-.25,19.15,19.15,0,0,0,.21-4.13A10.29,10.29,0,0,0,58.68,26l-.39-.48C58.05,25.23,57.82,25,57.57,24.69Z"/></g><path class="cls-12" d="M56.09,20.6s6.46,3.34,8.1,9.19A31.26,31.26,0,0,0,56.09,20.6Z"/><path class="cls-11" d="M107.2,56.46c0-.06,0-.13,0-.19.38-3.89.37-7.81.65-11.71.64-8.9.24-17.48-6.44-24.19A28.48,28.48,0,0,0,96,16.11a24.93,24.93,0,0,0-13.9-3.62c-5.14.29-10.9,1.33-14.33,5.55a16,16,0,0,0-3.22,8.2,16.86,16.86,0,0,1-4.64,10.28c-2.76,2.8-5.85,5.28-7.07,9.19a17.37,17.37,0,0,0,3,15.11c6.7,8.24,18.74,11.43,28.92,11.75,5.47.18,11.41.88,16.17-2.45C105.36,67,106.68,61.54,107.2,56.46Z"/><path class="cls-21" d="M90.5,73h0c-1.29,0-2.6-.06-3.87-.11l-1.86-.08c-18-.58-26.34-8.46-29.08-11.83a17.63,17.63,0,0,1-3.07-15.31c1-3.32,3.43-5.67,5.74-7.93.46-.45.92-.9,1.37-1.36a16.69,16.69,0,0,0,4.59-10.15,16,16,0,0,1,3.26-8.3c3.67-4.52,10-5.39,14.49-5.64a25.22,25.22,0,0,1,14,3.66,27.61,27.61,0,0,1,5.49,4.29c6.39,6.41,7.22,14.37,6.51,24.36-.12,1.66-.19,3.36-.25,5-.09,2.2-.18,4.48-.4,6.71l0,.2c-.43,4.32-1.56,10.46-6.34,13.8C97.7,72.66,93.83,73,90.5,73ZM83.26,12.67c-.4,0-.79,0-1.18,0-4.37.25-10.61,1.09-14.17,5.47a15.68,15.68,0,0,0-3.17,8.09A17.05,17.05,0,0,1,60,36.67c-.45.46-.91.91-1.37,1.36C56.28,40.36,54,42.56,53,45.78a17.2,17.2,0,0,0,3,14.9c2.7,3.32,10.9,11.1,28.75,11.67l1.87.08c1.26,0,2.57.11,3.85.11h0c3.26,0,7-.31,10.32-2.6,4.63-3.25,5.73-9.26,6.16-13.5l0-.19c.21-2.22.3-4.49.39-6.69.06-1.64.13-3.34.25-5,.71-9.87-.11-17.73-6.38-24a27.13,27.13,0,0,0-5.4-4.23A25.26,25.26,0,0,0,83.26,12.67Z"/><path class="cls-13" d="M91.11,59.67a24,24,0,0,0-.9-5.31c-.18-.69-.51-3.54-1.77-2.59-1.58,1.18-2,3.37-2.81,5.07-.19.42-.48.85-1,.8a35.64,35.64,0,0,1-3.77-.91c-3.51-.72-7-1.6-10.57-2-1.38-.15-2.73-.16-4.11-.19a3.86,3.86,0,0,1-2.44-.62c-1.13-1-1.69-2.47-2.87-3.42-1.51-1.21-1.21,1.28-1.13,2.14a2.16,2.16,0,0,1-.54,2,17.38,17.38,0,0,0-2.48,1.85,28.39,28.39,0,0,1,9.2-.14c3.5.41,7,.65,10.5,1.26A52.13,52.13,0,0,1,86.9,60.81a48.56,48.56,0,0,1,7.33,3.45,12.76,12.76,0,0,0-2-2.54A2.93,2.93,0,0,1,91.11,59.67Z"/><path class="cls-13" d="M79.3,62.6a11.35,11.35,0,0,0-4-2.22c-1.59-.53-3.42-1-5-.11a11.26,11.26,0,0,0-1.22.76,4.17,4.17,0,0,0-.59,1,.23.23,0,0,1-.09.28l0,.08c1.59-1.17,3.68-1,5.6-.76a24.13,24.13,0,0,1,6.26,1.84Z"/><path class="cls-13" d="M76.55,50.31A2.87,2.87,0,0,1,74.4,49a24.06,24.06,0,0,1-5.9,1.13,37,37,0,0,1-3.87.38,8.9,8.9,0,0,0,2.63.5,13.68,13.68,0,0,0,3.13-.17A10.42,10.42,0,0,1,72,50.48c1.58,0,2.59,1.36,4.16,1.42,1.83.08,5.54-1,4.87-3.49A5.11,5.11,0,0,1,76.55,50.31Z"/><path class="cls-13" d="M77.31,44.86A.28.28,0,0,1,77,44.6,8.59,8.59,0,0,0,74.12,37a7.17,7.17,0,0,1,.29,7.41,12.89,12.89,0,0,1-6.58,5.54c-.79.33-1.62.67-2.48.94a9.43,9.43,0,0,0,1.06-.07,25.83,25.83,0,0,0,3.69-.71c1-.26,2.33-1,3.36-1s1.34.83,2.26,1.23a4.21,4.21,0,0,0,3.74-.2C82.14,48.43,80.46,44,77.31,44.86Zm-.6,3.58c-1,0-2.76-.54-2.2-1.91a2.39,2.39,0,0,1,1.82-1.3A3.14,3.14,0,0,1,78,45.1c.63.15,1.51.55,1.55,1.31C79.6,47.82,77.87,48.44,76.71,48.44Z"/><path class="cls-12" d="M65.89,50.25c-.89-.06-2.27-.14-2.78-1a5.38,5.38,0,0,1-.38-3.52,13,13,0,0,1,3.89-8.06A8.84,8.84,0,0,1,72,35.74a7.18,7.18,0,0,0-7.44,2.73,16.2,16.2,0,0,0-2.53,8.65,22.63,22.63,0,0,0,0,2.31c.74,1.37,2.63,1.56,4.32,1.36a25.8,25.8,0,0,0,3.27-.61A21.82,21.82,0,0,1,65.89,50.25Z"/><path class="cls-12" d="M68.87,23.89a5,5,0,0,0-1.67,2.34,6.89,6.89,0,0,1,2.19-1.92,3.79,3.79,0,0,1,3.42.17A2.79,2.79,0,0,0,68.87,23.89Z"/><path class="cls-12" d="M90.68,25.38a4.93,4.93,0,0,0-.54.05c2.16.22,3.44,1.6,4.5,3.57C95,26.9,92.72,25.29,90.68,25.38Z"/><path class="cls-13" d="M90.66,25.77a6.65,6.65,0,0,0-4.19-.42.24.24,0,0,1-.12.07A7.63,7.63,0,0,0,82,28.3a11.58,11.58,0,0,0-.73,11.3C83,43.22,87,45.15,90.67,42.83s4.5-8.08,3.5-12C93.65,28.82,92.61,26.73,90.66,25.77Z"/><path class="cls-13" d="M73.65,25a4.11,4.11,0,0,0-3.77,0,7.94,7.94,0,0,0-3.7,6.09,6,6,0,0,0,.55,3.45,5.13,5.13,0,0,0,1,1.26,7.7,7.7,0,0,1,4.63,0,.25.25,0,0,1,.21,0c2.48.55,3-4.34,3.07-6C75.82,28,75.55,25.88,73.65,25Z"/><path class="cls-13" d="M73.62,26.51a3.47,3.47,0,0,0-3.21,0,6.74,6.74,0,0,0-3.14,5.16,5,5,0,0,0,.47,2.94,4.22,4.22,0,0,0,.88,1.07,6.51,6.51,0,0,1,3.93,0,.21.21,0,0,1,.19,0c2.1.47,2.49-3.68,2.6-5.06C75.46,29,75.23,27.22,73.62,26.51Z"/><path class="cls-12" d="M53.36,48.74c.93-4.8,4-8.39,7.94-10.94a12.93,12.93,0,0,0-5.43,2.79,14.19,14.19,0,0,0-3.06,5.12,17.36,17.36,0,0,0,1.64,13A17.57,17.57,0,0,1,53.36,48.74Z"/><path class="cls-12" d="M76.41,21.34a1.93,1.93,0,0,0,.17-1.76,4.06,4.06,0,0,1-2,2A1.3,1.3,0,0,0,76.41,21.34Z"/><path class="cls-12" d="M82.45,22a3.85,3.85,0,0,1-.68-2A3.27,3.27,0,0,0,81.68,22a1.61,1.61,0,0,0,2.08,1.1A5.63,5.63,0,0,1,82.45,22Z"/><path class="cls-13" d="M95,22.36c-2-1.05-4.47-.53-6.53.12-1.67.52-3.61,2.34-5.46,1.67A2.79,2.79,0,0,1,81.5,22c-.39,1.36-.66,2.91.35,3.77,1.27,1.09,2.92-.07,4.22-.55a29.35,29.35,0,0,1,3.77-1.17c1.71-.38,3.7-.47,5.06.84a10.19,10.19,0,0,1,2.26,4C97.91,26.82,96.93,23.34,95,22.36Z"/><path class="cls-13" d="M79.11,25a2,2,0,0,0,2.06,2.13C80.67,26.27,79.68,25.78,79.11,25Z"/><path class="cls-13" d="M82.33,43.63A3.89,3.89,0,0,1,82,45.72c-.08.16-2.11-2.16-3.36-2.06a4.32,4.32,0,0,0-2.93,1.79,4.38,4.38,0,0,1,3.08-.21,2,2,0,0,1,1,2.65c-1,2.07-4.07,1.39-5.06-.31a21.15,21.15,0,0,1-6.07,2.06c-1.5.22-3.6.44-4.92-.52-2.07-1.49-1.3-5.19-.67-7.25.88-2.93,3.17-5.89,6.51-5.94a7.43,7.43,0,0,1,1.07.06,7.3,7.3,0,0,0-.94-.1,6.83,6.83,0,0,0-3.47.75,14.1,14.1,0,0,0-2.79,3,12.16,12.16,0,0,0-.82,1.56,21.32,21.32,0,0,0-.48,2.32c-.31,2.06-1.23,6.55,1.75,7.13a14.47,14.47,0,0,0,6.72-.56c.91-.25,2.51-1.16,3.46-.79.29.11.5.44.73.64a4.06,4.06,0,0,0,3,.8,4.24,4.24,0,0,0,3.46-2.65,3,3,0,0,0-.2-1.28,33.23,33.23,0,0,1,4,4.15C85.67,49.35,83.71,44.71,82.33,43.63Z"/><path class="cls-13" d="M101.42,20.37A28.48,28.48,0,0,0,96,16.11a24.93,24.93,0,0,0-13.9-3.62c-5.14.29-10.9,1.33-14.33,5.55a12.3,12.3,0,0,0-1.18,1.73,21.9,21.9,0,0,1,12.82-6.14c5.2-.62,11,.38,15.31,3.5,3.89,2.81,7.52,8.17,6.28,13.2-.73,3-3.43,5.06-4.12,8.05s1,5.51,1.6,8.34c0,.13,0,.39-.19.33a12.5,12.5,0,0,0-11,.26c2.92.9,11,3.75,13.35,5.76,1.24,1,2.8,2.22,2.81,4a10.43,10.43,0,0,1-1.61,5.26,16.81,16.81,0,0,1-8.06,7c-.76.31-1.57.59-2.41.84C86.14,72.4,80,71.53,74.59,70A44.82,44.82,0,0,1,63.54,65.3a18.17,18.17,0,0,1-10-9.8,17.35,17.35,0,0,1-1.34-5.94,17.65,17.65,0,0,0,3.65,11.26c6.7,8.24,18.74,11.43,28.92,11.75,5.47.18,11.41.88,16.17-2.45,4.42-3.1,5.74-8.58,6.26-13.66,0-.06,0-.13,0-.19.38-3.89.37-7.81.65-11.71C108.5,35.66,108.1,27.08,101.42,20.37Z"/><path class="cls-13" d="M79.92,70a10,10,0,0,1-3.35-1.24,3.72,3.72,0,0,0,3.54,2.47,5.12,5.12,0,0,0,2.54-.9.23.23,0,0,1,.1-.33c.3-.15.61-.32.91-.49a.34.34,0,0,0,.06-.06A8.77,8.77,0,0,1,79.92,70Z"/><path class="cls-13" d="M101.42,20.37c-.61-.61-1.27-1.21-2-1.78.54.59,1,1.2,1.54,1.85a22.58,22.58,0,0,1,4.35,9.79c.6,3.87-.6,7.2-1.31,11a16.19,16.19,0,0,0,0,7.13,53.17,53.17,0,0,1,1.23,5.28c.87,6-1.52,12.66-6.79,16a24,24,0,0,1-8.35,3.14c3.8,0,7.57-.37,10.8-2.63,4.42-3.1,5.74-8.58,6.26-13.66,0-.06,0-.13,0-.19.38-3.89.37-7.81.65-11.71C108.5,35.66,108.1,27.08,101.42,20.37Z"/><path class="cls-13" d="M91.37,38a9.59,9.59,0,0,0,.08-7.63.27.27,0,0,1,.39-.3,3.44,3.44,0,0,1,1,.87,5.26,5.26,0,0,0-5.74-4.15A7.87,7.87,0,0,0,81,30.69a6.09,6.09,0,0,1,.8-.62c.25-.16.46.14.36.36-1,2.28-1.74,4.89-.79,7.32a8.2,8.2,0,0,0,3.09,4.16c3.43,1.44,8.54-.87,8.68-4.85a16.36,16.36,0,0,1-1.37,1.26A.27.27,0,0,1,91.37,38Z"/><path class="cls-13" d="M77.76,26c-.18.4-.43.79-.25,1.24a2.08,2.08,0,0,0,.75.88c.14-.8.2-2.13-.37-2.62A1.42,1.42,0,0,1,77.76,26Z"/><path class="cls-13" d="M77.37,25.11l.06-.08a.3.3,0,0,1,.12-.17A3.56,3.56,0,0,0,78,23.21a6.69,6.69,0,0,0-.46-3.06c-.16.84-.29,1.93-1,2.26s-1.6-.13-2.27-.6c-1.53-1.07-3.55-2.5-5.13-.71a8.08,8.08,0,0,0-1.4,2.26,3.45,3.45,0,0,1,2.75-1.22c1.85.16,3.21,1.85,4.7,2.75C75.81,25.26,76.78,25.82,77.37,25.11Z"/><path class="cls-22" d="M66.12,26.1A12.25,12.25,0,0,1,71,17.88a30.14,30.14,0,0,1,6.91-3.5C71.38,15.7,64.2,19.49,66.12,26.1Z"/><path class="cls-11" d="M112.22,38.75A10.46,10.46,0,0,0,104.73,42a12,12,0,0,0-1.2,2.27,12.44,12.44,0,0,0-1.2,5.25,3.48,3.48,0,0,0,2.92,3.27l.48.1c6.43.62,12.11-7.49,13.18-9.14a3.75,3.75,0,0,1,3.73-1.51S119.22,38.66,112.22,38.75Z"/><path class="cls-13" d="M103.55,50a.2.2,0,0,1,.24-.1,9.27,9.27,0,0,0,6.16.46,10.68,10.68,0,0,0,5.11-3.83c1-1.18,2-2.43,3.51-2.82l.41-.07a3.36,3.36,0,0,1,2.27-1.41,28.43,28.43,0,0,0-8.74-.71c-3,.29-6.56,1.12-8.26,3.88-.09.15-.3,0-.32-.09a5.23,5.23,0,0,1,.15-2.24,10.52,10.52,0,0,0-.55,1.18,12.44,12.44,0,0,0-1.2,5.25A3.4,3.4,0,0,0,103.54,52,2.35,2.35,0,0,1,103.55,50Z"/><path class="cls-17" d="M122.77,42.09a11.33,11.33,0,0,0-3.5-2.21,17.24,17.24,0,0,0-7-1.31,10.66,10.66,0,0,0-7.61,3.27,11.07,11.07,0,0,0-.6,1.76,13.57,13.57,0,0,1,.85-1.5,10.34,10.34,0,0,1,7.36-3.17,16.84,16.84,0,0,1,6.9,1.29,12.43,12.43,0,0,1,3,1.76,3.75,3.75,0,0,0-3.35,1.64c-.64,1-6.49,9.69-13,9.06l-.48-.1a4.23,4.23,0,0,1-.76-.25,3.15,3.15,0,0,1-1.71-1.61,4.43,4.43,0,0,1-.54-.43,3.48,3.48,0,0,0,2.11,2.38,4.93,4.93,0,0,0,.82.27l.51.1c2.77.27,5.71-1,8.74-3.76a30.8,30.8,0,0,0,4.61-5.46,3.51,3.51,0,0,1,3.53-1.43l.57.12Z"/><path class="cls-18" d="M117.73,42.31s0,0,0,0a12,12,0,0,0-9.4,1.38,18,18,0,0,0-4.74,3.92L103,48.86c.65-.69,1.32-1.37,2-2a3,3,0,0,0,2.31,2.91c2.37.53,4.44-1.43,5.76-3.14,0,0,0,0,0,0a8.24,8.24,0,0,1-3.78,2.47c-1.79.5-4-.37-4.06-2.43C108.76,43.56,113,41.34,117.73,42.31Z"/><g class="cls-19"><path class="cls-20" d="M107.54,49.56a6.1,6.1,0,0,0,5-1.93,25.8,25.8,0,0,0,3.93-5.41,11.6,11.6,0,0,0-2.94-.12A15.15,15.15,0,0,0,107,44.64a28.11,28.11,0,0,0-2.46,1.84A3.65,3.65,0,0,0,107.54,49.56Z"/><path class="cls-17" d="M108.22,49.83h0a5.52,5.52,0,0,1-.71,0,3.87,3.87,0,0,1-3.24-3.27.22.22,0,0,1,.08-.2,27.93,27.93,0,0,1,2.48-1.85,15,15,0,0,1,6.67-2.57,11,11,0,0,1,3,.11.24.24,0,0,1,.17.13.23.23,0,0,1,0,.2,26.33,26.33,0,0,1-4,5.45A6.67,6.67,0,0,1,108.22,49.83Zm-3.5-3.26a3.42,3.42,0,0,0,2.86,2.77,5.88,5.88,0,0,0,4.8-1.87,24.57,24.57,0,0,0,3.72-5.08,10.59,10.59,0,0,0-2.55-.07,14.72,14.72,0,0,0-6.48,2.5A29.12,29.12,0,0,0,104.72,46.57Z"/></g><path class="cls-12" d="M121.8,41.85s-7.53-5.34-14.94-1.2C106.86,40.65,113.42,38.27,121.8,41.85Z"/><path class="cls-23" d="M110.75,31.79l-2,.28c-.64.1-1.19.38-1.82.51-.13,0-.27.25-.06.22.62-.1,1.18-.36,1.8-.45s1.32-.17,2-.28C110.83,32,111,31.76,110.75,31.79Z"/><path class="cls-23" d="M110.46,34.42l-3-.07c-.12,0-.32.21-.13.22,1,.07,2,.11,3,.13C110.44,34.7,110.7,34.43,110.46,34.42Z"/><path class="cls-23" d="M77.14,14.77a28.25,28.25,0,0,0-.91-3.95c0-.06-.16,0-.14.08A37.75,37.75,0,0,1,77,14.83C77,14.92,77.15,14.85,77.14,14.77Z"/><path class="cls-23" d="M78.67,14.51l0-2.94c0-.1-.22,0-.22.08l-.08,2.94C78.42,14.7,78.66,14.61,78.67,14.51Z"/><path class="cls-23" d="M98.88,12.45c.07-.16-.26-.07-.32.05-.87,2-1.83,4-2.6,6.1-.06.17.27.08.31,0C97.1,16.5,98,14.49,98.88,12.45Z"/><path class="cls-23" d="M100.22,16.73c-.56,1.08-1.2,2.11-1.75,3.2-.09.18.21.13.27,0,.59-1.07,1.22-2.12,1.78-3.2C100.62,16.55,100.28,16.6,100.22,16.73Z"/><path class="cls-23" d="M68,18.66a17.89,17.89,0,0,1-1.23-2c0-.06-.18,0-.15.07a13.62,13.62,0,0,0,1.22,2C67.84,18.8,68,18.71,68,18.66Z"/><path class="cls-23" d="M68.71,18.14c-.26-.76-.45-1.53-.69-2.29,0-.14-.36,0-.31.16a20,20,0,0,0,.73,2.27C68.49,18.39,68.75,18.26,68.71,18.14Z"/><path class="cls-23" d="M86.61,13.61a17.37,17.37,0,0,1,0-2c0-.12-.26,0-.27.07a16,16,0,0,0-.11,2.08C86.27,13.87,86.61,13.75,86.61,13.61Z"/><path class="cls-23" d="M87.94,12.54c0-.16-.26-.07-.28,0a4.49,4.49,0,0,1-.31,1c-.07.15.24.07.29,0A4.11,4.11,0,0,0,87.94,12.54Z"/><path class="cls-14" d="M72.38,18.24a1.16,1.16,0,0,0-1.57.18l-.07,0a1,1,0,0,0-.41.76,1.16,1.16,0,0,0,.29.89c.46.52,1.23.12,1.61-.27A1.1,1.1,0,0,0,72.38,18.24Z"/><path class="cls-14" d="M72,18.57a.68.68,0,0,0-.9.1l0,0a.6.6,0,0,0-.23.43.63.63,0,0,0,.16.51c.26.3.71.08.92-.15A.62.62,0,0,0,72,18.57Z"/><path class="cls-14" d="M75.56,17.91a.63.63,0,0,0-.48-.53,1.1,1.1,0,0,0-1,.33c-.19.19-.4.58-.19.82a.47.47,0,0,0,.13.11.85.85,0,0,0,.87.08C75.24,18.58,75.59,18.31,75.56,17.91Z"/><path class="cls-14" d="M85.6,15.14a.89.89,0,0,0-1.12-.43h-.06a.79.79,0,0,0-.54.37.83.83,0,0,0-.12.7c.13.51.79.52,1.18.39A.85.85,0,0,0,85.6,15.14Z"/><path class="cls-14" d="M88,16.24a.49.49,0,0,0-.14-.53.82.82,0,0,0-.77-.11c-.2.05-.48.25-.42.48a.61.61,0,0,0,0,.12c.06.22.36.34.56.36A.67.67,0,0,0,88,16.24Z"/><path class="cls-14" d="M102.72,38.19c-.13-.44-.71-.55-1.12-.43h0a.77.77,0,0,0-.54.37.83.83,0,0,0-.12.7c.13.51.79.52,1.18.39A.85.85,0,0,0,102.72,38.19Z"/><path class="cls-14" d="M105.18,39.05a.49.49,0,0,0-.14-.53.82.82,0,0,0-.77-.11c-.2.05-.48.25-.42.48a.61.61,0,0,0,.05.12c.06.22.36.34.56.36A.68.68,0,0,0,105.18,39.05Z"/><path class="cls-14" d="M94.74,65.52c-.43-.18-.88.19-1,.59l0,0a.78.78,0,0,0-.06.65.85.85,0,0,0,.46.54c.47.23.9-.28,1-.66A.84.84,0,0,0,94.74,65.52Z"/><path class="cls-14" d="M97,64.19a.5.5,0,0,0-.5-.23.81.81,0,0,0-.59.52c-.08.18-.11.52.1.63a.31.31,0,0,0,.13,0,.61.61,0,0,0,.63-.2A.67.67,0,0,0,97,64.19Z"/><path class="cls-14" d="M101.6,24.06c.2-.42-.15-.89-.54-1.07l0,0a.78.78,0,0,0-.65-.09.83.83,0,0,0-.56.44c-.25.46.24.91.62,1.08A.85.85,0,0,0,101.6,24.06Z"/><path class="cls-14" d="M101.12,23.62c.09-.19-.07-.4-.24-.48l0,0a.37.37,0,0,0-.29,0,.39.39,0,0,0-.25.2c-.11.21.11.41.28.48A.37.37,0,0,0,101.12,23.62Z"/><path class="cls-14" d="M102.84,26.35a.48.48,0,0,0,.25-.49.79.79,0,0,0-.49-.6c-.19-.1-.52-.14-.64.07a.5.5,0,0,0,0,.13c-.11.2,0,.49.18.64A.67.67,0,0,0,102.84,26.35Z"/><path class="cls-13" d="M83.15,69.1a6.59,6.59,0,0,1-3.78.61,12.42,12.42,0,0,1-2.73-1c-.07,0-.17.07-.15.13.25.83,1.84,1.36,2.55,1.48a5,5,0,0,0,4.13-1C83.24,69.21,83.29,69,83.15,69.1Z"/><path class="cls-24" d="M73.43,43.71a.88.88,0,0,0-1.18.14l0,0a.75.75,0,0,0-.31.57.82.82,0,0,0,.22.67c.34.4.92.1,1.21-.19A.84.84,0,0,0,73.43,43.71Z"/><path class="cls-24" d="M73.15,44a.5.5,0,0,0-.67.08h0a.44.44,0,0,0-.18.33.47.47,0,0,0,.12.38c.2.23.53.06.7-.11A.48.48,0,0,0,73.15,44Z"/><path class="cls-24" d="M75.83,43.47a.48.48,0,0,0-.37-.4.81.81,0,0,0-.73.25c-.15.13-.31.43-.15.61a.25.25,0,0,0,.1.08.63.63,0,0,0,.66.06A.66.66,0,0,0,75.83,43.47Z"/><path class="cls-24" d="M70.17,40.63a.6.6,0,0,0-.82.09l0,0a.5.5,0,0,0-.21.39.53.53,0,0,0,.15.46c.23.27.64.07.84-.13A.58.58,0,0,0,70.17,40.63Z"/><path class="cls-24" d="M70,40.8a.34.34,0,0,0-.47.05h0a.33.33,0,0,0-.12.23.34.34,0,0,0,.08.26c.14.16.37,0,.48-.08A.33.33,0,0,0,70,40.8Z"/><path class="cls-24" d="M66.73,46.72a.33.33,0,0,0-.25-.28.57.57,0,0,0-.51.17c-.1.1-.21.3-.1.43a.18.18,0,0,0,.07.05.41.41,0,0,0,.45,0C66.56,47.06,66.74,46.92,66.73,46.72Z"/><path class="cls-13" d="M96.55,43.32a32,32,0,0,0-5.13-3.06,5.17,5.17,0,0,1-1.41,1,6.17,6.17,0,0,1-4.46.48C83,41,81.64,39.06,80.86,36.69h0a54,54,0,0,0-9.1-1.51,44.42,44.42,0,0,0-5,0c-.8,0-1.6.14-2.4.24l-.4.08a3.11,3.11,0,0,0-2.73,1.18c-.13.21-.14.51.16.53,1.27.08,2.52.18,3.76.29.24-.22.5-.4.67-.53a6.08,6.08,0,0,1,4.77-1.06,6.22,6.22,0,0,1,5.36,3.41c.54.14,2.21.45,2.76.61A151.44,151.44,0,0,0,96,44.17C96.29,44.23,96.91,43.58,96.55,43.32Z"/><path class="cls-25" d="M77.13,23.69c-.59,1.95-1.64.69-2.58,0a8.47,8.47,0,0,0-3.48-1.83,3.49,3.49,0,0,0-2.39.44s-1.1.95-.77.94c0,0-.16.1-.08.13h0c.05,0,.1,0,.12-.06,2.83-4.41,8.67,5.88,9.73.24C77.78,23.16,77.21,23.44,77.13,23.69Z"/><path class="cls-25" d="M96.49,26.33C95.57,24,93,23.14,90.63,23.49a20.88,20.88,0,0,0-4.24,1.19,27.16,27.16,0,0,1-2.92,1c-1.29.31-1.6-1.22-1.92-2.09,0-.12-.23,0-.21.13.11.55.1,2.16.84,2.42,1.2.4,2.46-.26,3.58-.68,3.48-1.3,7.94-2.65,10.41,1.11C96.26,26.7,96.55,26.46,96.49,26.33Z"/><path class="cls-25" d="M80,45.42c-1.46-1.14-3.28-.5-4.75.2-.07,0-.12.19,0,.14,1.72-.66,3.3-1.09,4.78.3,1.18,1.09,1.31,2.8-.76,3.82a4.44,4.44,0,0,1-3.13.17,2.45,2.45,0,0,1-1.44-1.2.66.66,0,0,0-.49-.27,6.8,6.8,0,0,0-2.16.59c-1.38.24-2.8.73-4,1a11.72,11.72,0,0,1-4.72.05C62,50,62.45,47.06,62.45,46c0-3.4,1.92-9,5.64-9.89A8.23,8.23,0,0,1,71.18,36h.09a7.73,7.73,0,0,1,5.18,3c0,.07.2-.07.17-.14a5.32,5.32,0,0,0-3.12-2.77c1.26.11,2.51.32,3.8.55.06,0,.18-.11.1-.14a11.62,11.62,0,0,0-4.32-1l.1-.11a2.43,2.43,0,0,0,.35-.57,5,5,0,0,0,.52-1.19,8.26,8.26,0,0,0,.45-2.8c.11-1.14.09-3.24-1-3.89-2.23-1.31-4.23.42-5.19,2.42-1,2.15-.68,4.94,1.55,6.12l.06,0-.34,0a4,4,0,0,1-1.57-1,3.83,3.83,0,0,1-.82-1.94c0-.06-.11,0-.11,0A3.54,3.54,0,0,0,67.72,35a2.58,2.58,0,0,0,.79.64,5.8,5.8,0,0,0-.63.16h0a2.92,2.92,0,0,1-.94-.77,5.13,5.13,0,0,1-.59-1s-.1,0-.09.06A2.85,2.85,0,0,0,67.48,36c-2.43,1-3.69,3.32-4.7,5.86A13.75,13.75,0,0,0,62,47.38c0,.65-.37,2.9.66,3.14a11.43,11.43,0,0,0,5.33.06c2-.42,4.3-1.3,6.35-1a.6.6,0,0,1,.09.13,2.57,2.57,0,0,0,1.88,1c1.46.11,3.43-.13,4.41-1.4S81.35,46.46,80,45.42Z"/><path class="cls-25" d="M91.26,31.85c-.05-.21-.1-.41-.16-.6a2.14,2.14,0,0,1,.13.19s.09,0,.07-.05l-.4-.74A4.51,4.51,0,0,0,89.78,29a3.76,3.76,0,0,0-2-1.32,4.1,4.1,0,0,0-4,1.1c-2.56,2.75-3.11,7.8-.47,10.67,2.23,2.43,7,.83,8-2.12A10.35,10.35,0,0,0,91.26,31.85Z"/><path class="cls-25" d="M91.63,38.27c-1.54,3.33-5.72,3.68-8.57,2,0,0-.15.07-.11.11,2.63,2.33,7.7,1.6,8.77-2.08C91.74,38.2,91.65,38.24,91.63,38.27Z"/><path class="cls-25" d="M69.9,26.48a2.81,2.81,0,0,0-1,.54,1.87,1.87,0,0,0-.64.7c0,.05,0,.06.06.05a4.11,4.11,0,0,0,.62-.48,3.82,3.82,0,0,1,.49-.33,2,2,0,0,0,.46-.28C70,26.63,70,26.44,69.9,26.48Z"/><path class="cls-25" d="M91.58,29.85a2.05,2.05,0,0,0-.49-.72,6.49,6.49,0,0,0-.73-.66s-.08,0-.06.05c.18.28.38.54.55.82s.18.27.26.41.1.25.23.31S91.61,30,91.58,29.85Z"/><path class="cls-25" d="M89.4,61c-1.39-.68-2.84-1.24-4.26-1.88a89.32,89.32,0,0,0-9.4-2.59,45.6,45.6,0,0,0-9.8-1.26c-2.92,0-6.08-.16-8.85.85a.54.54,0,0,0-.19.16c-.11.1-.21.27-.13.36a12.07,12.07,0,0,0,2.08.92c-.46-.35-.93-.69-1.36-1.06a31.2,31.2,0,0,1,8.19-.5,48.12,48.12,0,0,1,10.41,1.47c5.9,1.36,11.83,3.07,17.09,6.12A19.48,19.48,0,0,0,89.4,61Z"/><path class="cls-25" d="M76.46,60.1a13.32,13.32,0,0,0-3.87-.69,9,9,0,0,0-2.34.28,3.7,3.7,0,0,0-.57.49,6.63,6.63,0,0,0-.63.87c2.66-1.82,6.7-.08,9.48,1.05C77.84,61.42,77.19,60.69,76.46,60.1Z"/><path class="cls-12" d="M66.06,57.52c1.79.15,3.57.3,5.35.42A54.64,54.64,0,0,1,79.17,59a33.56,33.56,0,0,0-9.39-2c-2.67-.28-5.71-.53-8.33.23A30,30,0,0,0,66.06,57.52Z"/><path class="cls-23" d="M95,22.06c0-.1-.15,0-.16,0a22.1,22.1,0,0,1-1.68,3.42c-.06.13.14.08.19,0,.34-.54.59-1.13.88-1.7A7.65,7.65,0,0,0,95,22.06Z"/><path class="cls-23" d="M96,24.56c-.38.64-.83,1.23-1.27,1.83-.08.11.14.1.19,0a18.24,18.24,0,0,0,1.3-1.86C96.27,24.44,96,24.47,96,24.56Z"/><path class="cls-26" d="M115.62,127.23c-.84-.24-2-.57-1.79-1.65a17.84,17.84,0,0,0,.25-3.1,31.86,31.86,0,0,0-.13-4.58,9,9,0,0,0-.53-2.05,9.4,9.4,0,0,0-.83-1.27,3.91,3.91,0,0,1,.41-.33c.13-.11.28-.38.13-.53-.72-.72-2.14-.46-.94-1.38s2.55-1.77,3.82-2.67c.42-.57.83-1.16,1.28-1.71-1.14-.29-2.66.22-3.76.49a31.08,31.08,0,0,0-4.5,2,25.18,25.18,0,0,0,2.84-2.49c.11-.13.28-.53,0-.59-1.31-.32-3.58,1-4.69,1.57-.4.22-2.44,1.53-3.54,2.29.2-1.37,1.2-2.07,1.71-3.26.07-.17,0-.37-.24-.29a13.89,13.89,0,0,0-5.74,3.88c.15-1.15,1.1-2.29.55-3.43-.11-.23-.43.06-.49.17-.87,1.56-1.58,3.91-3.32,4.71-1.38.64-3.5.63-5,.78-3.2.3-6.41.34-9.62.37A75.62,75.62,0,0,1,71,113.53a12.12,12.12,0,0,1-4.18-1,.22.22,0,0,1-.17,0l-.26-.21a2.9,2.9,0,0,1-.52-.46c-.69-.65-1.3-1.4-2-2a2.89,2.89,0,0,0-.46,2.14c-.6-.91-1.43-2.26-2.25-2.26-.14,0-.27.2-.26.33,0,.58.21,1.18.29,1.77-1-.78-2.38-1.71-3.57-1.39a.51.51,0,0,0-.33.48c0,.93,1.22,1.86,1.7,2.67a4,4,0,0,0,.37.64l.09.11c-.07.26-.16.51-.21.74-.21.86-.37,1.73-.51,2.61-.07.42-.16,1-.2,1.61a41.58,41.58,0,0,0-11.28,1.43c-.49.13-3,.59-2.84,1.68.15.82,1.72.91,2.92.92a1.27,1.27,0,0,0-.7,1.18.14.14,0,0,0,.11.14c2.29.34,4.79-.6,7.12-.25-1.72.71-3.73,1.43-4.92,2.73a.34.34,0,0,0-.09.36c.36,1.07,3.53.66,4.38.66a57.88,57.88,0,0,0,7.44-.51,3.52,3.52,0,0,0-1.32,1.09.26.26,0,0,0,0,.32c.38.43,1.37.21,2.23-.07-2.36,1.84-7.33,5.85-6.52,6.36s2.25-.18,3-.42c2-.63,3.89-1.46,5.85-2.13-.77.64-1.71,1.32-1.66,2.24a.16.16,0,0,0,.11.13,7.33,7.33,0,0,0,2.91-.07,20.74,20.74,0,0,0,4.89-1,13.8,13.8,0,0,0-1.91,4c-.36,1.62,2.7.55,3.14.4a15.84,15.84,0,0,0,2.73-1.37c.18-.1.37-.21.55-.33-.53.52-1,1.12-1,1.68,0,.06,0,.09.09.12a2.36,2.36,0,0,0,1.72-.2c1.39-.5,2.8-.92,4.18-1.44.35-.13-1.4,1.95-1.62,2.38s-.4.66-.18,1.1c.5,1,4.49-.16,5.16-.34a17.72,17.72,0,0,0,6.3-2.76c-.22,1-.45,2.65.64,2a7.13,7.13,0,0,0,2.72-3.94,20.39,20.39,0,0,0,1,2c.47.87,1.21,2.3,2.36,2.28a.59.59,0,0,0,.43-.32,3.4,3.4,0,0,0,.21-2.19,3.15,3.15,0,0,0,1.84,1.3c.16,0,.3-.13.35-.27.27-.73-.24-1.91-.69-2.86a14.18,14.18,0,0,0,3.28,1.29c.82.22,2.81.84,3.63.34,1-.62.55-2.06,0-3.23,1.33,1,2.89,1.93,4.46,1.26.89-.39.52-2.18.08-3.62a7.94,7.94,0,0,0,4.6,2.11.49.49,0,0,0,.39-.41,6.3,6.3,0,0,0-1.38-3.5c1.66.35,3.83.65,5-.31.13-.1.3-.37.2-.55C117.82,127.76,116.6,127.51,115.62,127.23Z"/><path class="cls-27" d="M116.53,129a17.79,17.79,0,0,1-4.12-.34c-.28,0-.64.4-.43.64a8.4,8.4,0,0,1,1.91,3.46,11.81,11.81,0,0,1-3.35-1.67c-.64-.2-1.28-.42-1.92-.64.26,1.32.87,4.19.19,4a10.32,10.32,0,0,1-2.5-.58,12,12,0,0,1-2.64-1.1,16,16,0,0,1,.82,1.78c.59,1.46.54,1.94-1.33,1.73a12.57,12.57,0,0,1-3.64-1c-.8-.19-1.58-.47-2.37-.7a.28.28,0,0,0,0,.13c.44,1,.79,2.09,1.19,3.13a2.82,2.82,0,0,1-.77-.56,6.15,6.15,0,0,1-1.42-1.94c-.13-.25-.48.16-.46.33.1.63.15,1.26.2,1.89.13,1.84-1.31-.15-1.72-.74-.22-.33-.43-.68-.64-1l-.3-.43c-.32-.43-.68-.82-1-1.22,0,.05,0,.1,0,.15a7.3,7.3,0,0,1-1.41,3.37c-1.5,2.1-1.09-.18-.83-1.06.1-.32-.18-.38-.4-.2-2.47,2.09-5.75,3-8.88,3.45-1,.14-2.86.33-1.66-1.18a11.41,11.41,0,0,0,1.54-2.28c.07-.16.08-.47-.19-.36-1.77.69-3.56,1.29-5.33,2-1.45.54-.12-.89-.13-.88.56-.66,1.09-1.34,1.69-2,.22-.23,0-.53-.24-.31a14.52,14.52,0,0,1-6.7,3.38c-1.51.21.53-3.7.69-4l.31-.62a6.85,6.85,0,0,1-1.41.16,45.53,45.53,0,0,1-4.53.76c-.05,0-2.46.3-1.59-.49a12.56,12.56,0,0,0,1.72-1.7c.12-.15.18-.52-.13-.42-2.64.82-5.15,2-7.82,2.75-2.48.68.37-1.84,1-2.38q2-1.61,4-3.17c.11-.14.21-.28.31-.43a10,10,0,0,1-2.11.13.26.26,0,0,1-.18-.45,9.53,9.53,0,0,1,2.68-1.63,60.78,60.78,0,0,1-9.34.78c-.68,0-1.36,0-2,0s-2.2-.14-1.75-.44a20.31,20.31,0,0,1,3.27-1.71c.48-.39,1-.72,1.47-1.12l.39-.33a16,16,0,0,0-4.32,0c-.84,0-1.65.11-2.49.14-1.37,0,.25-.54.73-.68.16,0,.56-.6.22-.65a16.78,16.78,0,0,0-1.72-.2l-1.3-.06q-.75.06-.06-.6c2-.43,3.86-1.09,5.9-1.36a54.58,54.58,0,0,1,5.76-.42,18,18,0,0,1,2.56-.18c1.49,0,3.06.12,4.6.09a30.89,30.89,0,0,0-5.24-.64,18.8,18.8,0,0,1,.13-2.49c.1-.64.38-1.45.54-2.22-.21-.32-.42-.63-.6-1-.41-.6-.85-1.67-1-1.94-.59-.94-.47-.73.39-.38a10.15,10.15,0,0,1,2.42,1.54c.22.16.54-.21.55-.41a6.31,6.31,0,0,0-.39-1.9c-.24-.82.46.34.53.43.52.64,1,1.3,1.47,2,.14.21.4-.11.43-.26.1-.69.09-1.38.2-2.06,0,0,1,1.36,1.14,1.5a5.39,5.39,0,0,0,3.47,1.75,71.68,71.68,0,0,0,12.68.83A75.93,75.93,0,0,0,93.79,114a6.47,6.47,0,0,0,3.48-1.22,11,11,0,0,0,2.25-3.69c.1,1.13-.92,2.25-.75,3.38,0,.28.38.1.48,0a11.49,11.49,0,0,1,1.91-2c.87-.74,2.89-1.54,3.35-2a5.31,5.31,0,0,0-1.44,2.77,6,6,0,0,1,.12.72l0,0a.59.59,0,0,0,.28-.22c.73-.51,1.72-.92,2.4-1.31,1-.56,3.41-2.09,5-2.19-1.07,1-2.39,1.86-3.4,2.94a.45.45,0,0,0-.12.21,15,15,0,0,0,2.3-.5,13.45,13.45,0,0,1,1.74-.87c1.28-.49,3.34-1.33,4.9-1.21-1.07.77-2.22,1.45-3.27,2.25-.82.63-1.87,1.11-2.34,2a.39.39,0,0,0,0,.46,4.12,4.12,0,0,0,1.52.69.56.56,0,0,0-.18.25s0,0,0,0l0,0a7,7,0,0,1,.94,2.68,12.93,12.93,0,0,1,.36,1.93,24.92,24.92,0,0,1-.29,7.21c-.25,1.24,1.31,1.46,2.17,1.7C115.58,128.11,118.29,128.92,116.53,129Z"/><path class="cls-28" d="M115.18,128c-.86-.24-2.42-.46-2.17-1.7a24.92,24.92,0,0,0,.29-7.21,12.93,12.93,0,0,0-.36-1.93,7,7,0,0,0-.94-2.68l0,0s0,0,0,0a.56.56,0,0,1,.18-.25,4.12,4.12,0,0,1-1.52-.69.39.39,0,0,1,0-.46c.47-.94,1.52-1.42,2.34-2,1-.8,2.2-1.48,3.27-2.25-1.56-.12-3.62.72-4.9,1.21a13.45,13.45,0,0,0-1.74.87,15,15,0,0,1-2.3.5.45.45,0,0,1,.12-.21c1-1.08,2.33-1.92,3.4-2.94a3.13,3.13,0,0,0-.59.09c-.92.63-1.82,1.29-2.69,2a17.06,17.06,0,0,1-5.86,3.18,58.28,58.28,0,0,1-15.27,2.15,133.42,133.42,0,0,1-16.49-.1c-2.76-.24-5.46-.94-8.21-1.18-.68-.06-1.38-.08-2.07-.14.1.17.21.33.31.49-.16.77-.44,1.58-.54,2.22a18.8,18.8,0,0,0-.13,2.49,30.89,30.89,0,0,1,5.24.64c-1.54,0-3.11-.09-4.6-.09a18,18,0,0,0-2.56.18,55,55,0,0,0-5.49.39,42.45,42.45,0,0,1,5.29,0c4.58.3,8.94,1.59,13.43,2.45a75.43,75.43,0,0,0,15.14,1.45c2.58,0,5.16-.17,7.73-.44,2.31-.23,4.63-.69,6.95-.74a.27.27,0,0,1,.13.5c-2.4,1.52-5.39,1.64-8.08,2.31s-5.79.83-8.43,2a25.79,25.79,0,0,0,6.44-.4,59.27,59.27,0,0,0,7.38-1.27.27.27,0,0,1,.26.45,58.57,58.57,0,0,1-8.87,8.44c-2,1.65-4.62,4.1-7.39,3.91a.26.26,0,0,1-.19-.45c1.23-1.53,3.1-3.7,3.7-5.89-2.74,1.39-5.34,3.08-8.41,3.7a.27.27,0,0,1-.3-.39c1.07-1.86,2.56-3.63,3.13-5.67-1.22.87-2.38,1.85-3.61,2.7-1.4,1-2.82,2.21-4.55,2.48a.27.27,0,0,1-.34-.25,9.17,9.17,0,0,1,1.24-5.07,21.4,21.4,0,0,1-7.12,3.28c-.21,0-.43-.19-.3-.39A33.42,33.42,0,0,0,69,126.75a14.89,14.89,0,0,1-7.5,5.36.27.27,0,0,1-.3-.39A22.67,22.67,0,0,1,65,127.17a16.11,16.11,0,0,0-2.2.63c-.24.08-.47-.28-.26-.45A10.1,10.1,0,0,0,64.81,125a15,15,0,0,0-1.63.56,10.55,10.55,0,0,1-1.93.34l-4.53.49a25.69,25.69,0,0,1-5,.27c-.42,0-.83-.09-1.25-.15a10,10,0,0,0-.88.55c-.45.3,1.13.41,1.75.44s1.36,0,2,0a60.78,60.78,0,0,0,9.34-.78A9.53,9.53,0,0,0,60,128.38a.26.26,0,0,0,.18.45,10,10,0,0,0,2.11-.13c-.1.15-.2.29-.31.43q-2,1.56-4,3.17c-.67.54-3.52,3.06-1,2.38,2.67-.74,5.18-1.93,7.82-2.75.31-.1.25.27.13.42a12.56,12.56,0,0,1-1.72,1.7c-.87.79,1.54.49,1.59.49a45.53,45.53,0,0,0,4.53-.76,6.85,6.85,0,0,0,1.41-.16l-.31.62c-.16.32-2.2,4.23-.69,4a14.52,14.52,0,0,0,6.7-3.38c.27-.22.46.08.24.31-.6.63-1.13,1.31-1.69,2,0,0-1.32,1.42.13.88,1.77-.67,3.56-1.27,5.33-2,.27-.11.26.2.19.36a11.41,11.41,0,0,1-1.54,2.28c-1.2,1.51.69,1.32,1.66,1.18,3.13-.48,6.41-1.36,8.88-3.45.22-.18.5-.12.4.2-.26.88-.67,3.16.83,1.06a7.3,7.3,0,0,0,1.41-3.37c0-.05,0-.1,0-.15.35.4.71.79,1,1.22l.3.43c.21.35.42.7.64,1,.41.59,1.85,2.58,1.72.74,0-.63-.1-1.26-.2-1.89,0-.17.33-.58.46-.33a6.15,6.15,0,0,0,1.42,1.94,2.82,2.82,0,0,0,.77.56c-.4-1-.75-2.1-1.19-3.13a.28.28,0,0,1,0-.13c.79.23,1.57.51,2.37.7a12.57,12.57,0,0,0,3.64,1c1.87.21,1.92-.27,1.33-1.73a16,16,0,0,0-.82-1.78,12,12,0,0,0,2.64,1.1,10.32,10.32,0,0,0,2.5.58c.68.17.07-2.7-.19-4,.64.22,1.28.44,1.92.64a11.81,11.81,0,0,0,3.35,1.67,8.4,8.4,0,0,0-1.91-3.46c-.21-.24.15-.69.43-.64a17.79,17.79,0,0,0,4.12.34C118.29,128.92,115.58,128.11,115.18,128Z"/><path class="cls-28" d="M115.18,128c-.86-.24-2.42-.46-2.17-1.7a24.92,24.92,0,0,0,.29-7.21,12.93,12.93,0,0,0-.36-1.93,7,7,0,0,0-.94-2.68l0,0s0,0,0,0a.56.56,0,0,1,.18-.25,4.12,4.12,0,0,1-1.52-.69.39.39,0,0,1,0-.46c.47-.94,1.52-1.42,2.34-2,1-.8,2.2-1.48,3.27-2.25-1.56-.12-3.62.72-4.9,1.21a13.45,13.45,0,0,0-1.74.87,15,15,0,0,1-2.3.5.45.45,0,0,1,.12-.21c1-1.08,2.33-1.92,3.4-2.94a3.13,3.13,0,0,0-.59.09c-.92.63-1.82,1.29-2.69,2a17.06,17.06,0,0,1-5.86,3.18,58.28,58.28,0,0,1-15.27,2.15,133.42,133.42,0,0,1-16.49-.1c-2.76-.24-5.46-.94-8.21-1.18-.68-.06-1.38-.08-2.07-.14.1.17.21.33.31.49-.07.33-.16.67-.25,1,2.06,1.44,5,1.76,7.32,2.23a81.46,81.46,0,0,0,12.25,1.78,106.72,106.72,0,0,0,13.5-.2c2.37-.18,4.75-.35,7.1-.74,2-.32,3.89-.93,5.87-1.11a.26.26,0,0,1,.19.45,7.62,7.62,0,0,1-3.19,1.56c-1.48.42-3,.85-4.43,1.26-3.29.9-6.6,1.7-10,2.29-2,.36-4.1.64-6.16.87a23,23,0,0,0,6.26.08c2.59-.18,5.14-.58,7.7-.95a90.81,90.81,0,0,0,13.69-2.7.27.27,0,0,1,.3.39c-1.66,2.5-4.41,3.67-6.69,5.47a17.39,17.39,0,0,0,4.42-1.26.27.27,0,0,1,.32.33,24.52,24.52,0,0,0-.79,6.5.27.27,0,0,1-.34.26,10.82,10.82,0,0,1-2.49-1.66,18.71,18.71,0,0,0-3.52-2c.38,1.92,1.08,3.76,1.59,5.65a.27.27,0,0,1-.33.33c-2.28-.72-4.33-2-6.66-2.62a12.74,12.74,0,0,0,1.62,5.26l.25.24a2.82,2.82,0,0,0,.77.56c-.4-1-.75-2.1-1.19-3.13a.28.28,0,0,1,0-.13c.79.23,1.57.51,2.37.7a12.57,12.57,0,0,0,3.64,1c1.87.21,1.92-.27,1.33-1.73a16,16,0,0,0-.82-1.78,12,12,0,0,0,2.64,1.1,10.32,10.32,0,0,0,2.5.58c.68.17.07-2.7-.19-4,.64.22,1.28.44,1.92.64a11.81,11.81,0,0,0,3.35,1.67,8.4,8.4,0,0,0-1.91-3.46c-.21-.24.15-.69.43-.64a17.79,17.79,0,0,0,4.12.34C118.29,128.92,115.58,128.11,115.18,128Z"/><path class="cls-29" d="M111.94,112.81c-.92-.35-2.66.24-3.58.46-2.58.64-5.22,1.13-7.83,1.66-.56.12-1.11.22-1.67.32l-3.91.62c-2.75.37-5.52.63-8.31.8a100.94,100.94,0,0,1-15.06-.27c-2.23-.2-4.44-.5-6.65-.85-.91-.14-1.81-.35-2.7-.55l-.37-.11-1.6-.2a.14.14,0,0,0-.07-.1,2.34,2.34,0,0,1-.43-.26c-.12-.1-.2-.25-.32-.36a.67.67,0,0,0-.81-.13.83.83,0,0,0-.39.55,1.4,1.4,0,0,0-.1.35.82.82,0,0,0,.24.76.81.81,0,0,0,.79.14l.23-.07.22,0a6.64,6.64,0,0,1,1,.24c.65.21,1.34.51,1.88.65,1.25.32,2.52.58,3.79.82,2.08.39,16.51.57,21.69.3,7.09-.36,9.71-1.21,14.59-1.94,2.13-.32,4.25-.65,6.35-1.13,1-.22,2.68-.31,3.15-1.36A.26.26,0,0,0,111.94,112.81Z"/><path class="cls-30" d="M80.75,118c-5.86,0-13.08-.17-14.52-.44-1-.19-2.43-.46-3.8-.82-.34-.09-.72-.23-1.12-.38l-.78-.28-.12,0a8.22,8.22,0,0,0-.83-.2h-.14l-.21.07a1,1,0,0,1-1.31-1.15,1.82,1.82,0,0,1,.11-.38,1.09,1.09,0,0,1,.48-.68.88.88,0,0,1,1.07.16,1.12,1.12,0,0,1,.18.2,1,1,0,0,0,.14.15,2,2,0,0,0,.39.24.31.31,0,0,1,.11.09c.5.05,1,.12,1.49.19l.39.1.18,0c.82.18,1.67.38,2.51.51,2.55.39,4.65.66,6.63.84,3.26.29,6.45.44,9.48.44,1.88,0,3.75-.06,5.55-.17,3-.19,5.69-.45,8.29-.8,1.3-.21,2.6-.42,3.9-.61l1.67-.32,1.76-.36c2-.39,4.06-.81,6.06-1.3l.49-.13a10.11,10.11,0,0,1,2.43-.45,2.21,2.21,0,0,1,.78.12.42.42,0,0,1,.25.24.56.56,0,0,1,0,.42c-.43,1-1.7,1.19-2.72,1.37l-.59.11c-2.11.48-4.3.83-6.36,1.14-1.4.21-2.62.43-3.81.64a73,73,0,0,1-10.8,1.3C86.4,117.9,83.83,118,80.75,118Zm-21.35-2.6h0l.23,0a8.12,8.12,0,0,1,.89.21l.12,0,.81.29a10,10,0,0,0,1.08.37c1.36.35,2.73.62,3.77.81,1.42.27,8.6.43,14.44.43,3.08,0,5.64,0,7.2-.12a73.55,73.55,0,0,0,10.74-1.3c1.19-.21,2.42-.43,3.83-.65,2-.3,4.23-.65,6.33-1.12.18,0,.38-.08.6-.12.92-.16,2.07-.37,2.4-1.12a.23.23,0,0,0,0-.07,1.83,1.83,0,0,0-.63-.09,10.21,10.21,0,0,0-2.32.43l-.5.14c-2,.49-4.07.9-6.07,1.3l-1.76.36-1.68.32c-1.31.19-2.61.4-3.91.61-2.62.36-5.35.62-8.33.81-1.81.11-3.69.17-5.58.17-3,0-6.24-.15-9.52-.45-2-.17-4.1-.44-6.66-.84-.85-.13-1.71-.33-2.54-.52l-.18,0-.38-.11-1.56-.19a.22.22,0,0,1-.19-.14,3.69,3.69,0,0,1-.43-.27,2,2,0,0,1-.2-.22.86.86,0,0,0-.13-.14.45.45,0,0,0-.54-.12.62.62,0,0,0-.29.4.14.14,0,0,1,0,.06,1.71,1.71,0,0,0-.09.3.63.63,0,0,0,.18.56.6.6,0,0,0,.59.09l.19-.06A.15.15,0,0,1,59.4,115.35Z"/><path class="cls-29" d="M68.9,34.29c-1.33-1.41-.85-3.8-.11-5.34a3.65,3.65,0,0,1,3.1-2.17c1.75-.09,2.15,1.74,2.25,3.06a10.93,10.93,0,0,1-.23,3c0,.13-.17.55-.31,1a1.87,1.87,0,0,1-.15.32C72.42,35.69,70.37,35.83,68.9,34.29Z"/><path class="cls-31" d="M74.14,29.84c-.1-1.32-.5-3.15-2.25-3.06A3.65,3.65,0,0,0,68.79,29a7.75,7.75,0,0,0-.65,2,4.92,4.92,0,0,1,.72-1.45c.73-1,1.94-1.88,3.19-1.16,1.46.85,2,2.91,1.79,4.66a1.67,1.67,0,0,0,.07-.24A10.93,10.93,0,0,0,74.14,29.84Z"/><path class="cls-29" d="M90.33,38.53a4.76,4.76,0,0,1-6.67.61c-2.34-2-1.9-6.13-.79-8.61A4.14,4.14,0,0,1,87.51,28a5,5,0,0,1,3,2.59,12.39,12.39,0,0,1,.79,4A6,6,0,0,1,90.33,38.53Z"/><path class="cls-31" d="M88.07,29.6A5.5,5.5,0,0,1,91.31,34a11.44,11.44,0,0,0-.75-3.46,5,5,0,0,0-3-2.59,4.14,4.14,0,0,0-4.64,2.58A10.59,10.59,0,0,0,82,35.62C82.05,32.22,84.34,28.13,88.07,29.6Z"/><path class="cls-32" d="M73.28,32.54A1.36,1.36,0,1,1,72.16,31,1.36,1.36,0,0,1,73.28,32.54Z"/><path class="cls-33" d="M73,32.54a1,1,0,1,1-.86-1.21A1,1,0,0,1,73,32.54Z"/><path class="cls-29" d="M71.7,31.82a.38.38,0,0,1-.44.31A.36.36,0,0,1,71,31.7a.37.37,0,0,1,.43-.31A.38.38,0,0,1,71.7,31.82Z"/><path class="cls-32" d="M88.93,34.41a1.74,1.74,0,1,1-3.44-.57,1.74,1.74,0,0,1,3.44.57Z"/><path class="cls-33" d="M88.52,34.4a1.34,1.34,0,1,1-1.11-1.53A1.34,1.34,0,0,1,88.52,34.4Z"/><path class="cls-29" d="M86.9,33.49a.49.49,0,0,1-.56.4.49.49,0,0,1-.4-.56.5.5,0,0,1,.56-.4A.49.49,0,0,1,86.9,33.49Z"/><path class="cls-29" d="M58.6,50.53c.21-1.53,1.58,0,1.78.2A16.07,16.07,0,0,1,62,52.85a14.14,14.14,0,0,1,1.43,2.52,28.13,28.13,0,0,0-4.68.36c-.05-.33-.1-.67-.14-1A15.16,15.16,0,0,1,58.6,50.53Z"/><path class="cls-34" d="M58.78,56a.2.2,0,0,1-.13,0,.22.22,0,0,1-.09-.14c0-.27-.07-.53-.11-.79l0-.22a15.63,15.63,0,0,1,0-4.26c.1-.72.45-.87.72-.87.48,0,1,.52,1.4.91l0,0a16.17,16.17,0,0,1,1.55,2l.12.18a14.41,14.41,0,0,1,1.45,2.55.22.22,0,0,1-.2.31h0a27.5,27.5,0,0,0-4.64.36Zm.32-5.88c-.14,0-.24.16-.28.49a15.14,15.14,0,0,0,0,4.14l0,.22c0,.18.06.37.08.56a26.88,26.88,0,0,1,4.16-.33A14.8,14.8,0,0,0,61.85,53l-.12-.18a15.48,15.48,0,0,0-1.5-1.92l0,0C59.58,50.2,59.26,50.07,59.1,50.07Z"/><path class="cls-31" d="M60.09,51.74A8.84,8.84,0,0,1,60.93,54c.12,1.1-.76,1.34-1.58,1.7a28.29,28.29,0,0,1,4.11-.28A14.14,14.14,0,0,0,62,52.85a16.07,16.07,0,0,0-1.65-2.12c-.13-.14-.77-.84-1.25-.87A10.39,10.39,0,0,1,60.09,51.74Z"/><path class="cls-29" d="M84.91,55.4a21.79,21.79,0,0,1,1.22-2.53c.2-.35,2.38-3.91,3.2-.81a30.26,30.26,0,0,1,.88,9.15c-1.11-.27-2.2-.79-3.3-1.11-.74-.22-1.47-.5-2.2-.77a1.1,1.1,0,0,1-.8-.91C84.2,57.4,84.52,56.4,84.91,55.4Z"/><path class="cls-34" d="M90.21,61.43h0a15.47,15.47,0,0,1-1.89-.62c-.47-.18-1-.36-1.42-.49-.63-.19-1.25-.42-1.84-.64l-.37-.13a1.34,1.34,0,0,1-1-1.07.41.41,0,0,1,0-.11c.32-1.13.65-2.12,1-3a20.64,20.64,0,0,1,1.23-2.56s1.24-2.18,2.38-2.18c.56,0,1,.48,1.23,1.42a30.52,30.52,0,0,1,.88,9.22.22.22,0,0,1-.09.16A.21.21,0,0,1,90.21,61.43Zm-6.08-3a.89.89,0,0,0,.66.69l.37.14c.59.22,1.2.45,1.82.62s1,.33,1.44.51,1,.39,1.58.54a29.79,29.79,0,0,0-.88-8.82c-.13-.49-.38-1.09-.8-1.09-.75,0-1.76,1.54-2,2a20.61,20.61,0,0,0-1.21,2.5C84.77,56.37,84.45,57.34,84.13,58.43Z"/><path class="cls-31" d="M89.33,52.06c-.21-.79-.51-1.15-.84-1.24a34,34,0,0,1-.19,4.74,5.24,5.24,0,0,1-.61,2.54C87,59,86,58.6,85,58.64a7.51,7.51,0,0,1-1.06,0,1.09,1.09,0,0,0,.74.7c.73.27,1.46.55,2.2.77,1.1.32,2.19.84,3.3,1.11A30.26,30.26,0,0,0,89.33,52.06Z"/><path class="cls-35" d="M128.52,39.69c1.07-.38,4.18-1.63,2.31-3.07-1.12-.86-2.45-.1-3.25.77-1.2,1.28-2.68,2.67-3.24,4.39C125,41.41,127.75,40,128.52,39.69Z"/><path class="cls-36" d="M127.84,39.29c.57-.2,2.23-.87,1.23-1.64-.6-.46-1.31,0-1.74.41a7,7,0,0,0-1.73,2.35A24.62,24.62,0,0,1,127.84,39.29Z"/><path class="cls-35" d="M132.84,47.1a2.76,2.76,0,0,0-.05-.51A3.79,3.79,0,0,0,129,44.74a13.36,13.36,0,0,0-4.7,1.43,19.09,19.09,0,0,1,3.69,1.4,7.08,7.08,0,0,0,2.65.91C131.5,48.62,132.86,48.14,132.84,47.1Z"/><path class="cls-36" d="M131.67,46.19a.9.9,0,0,0,0-.18,1.37,1.37,0,0,0-1.36-.67,4.62,4.62,0,0,0-1.69.52,7.12,7.12,0,0,1,1.33.5,2.43,2.43,0,0,0,.95.32C131.18,46.74,131.67,46.56,131.67,46.19Z"/><path class="cls-10" d="M117.56,120.89c2.45-2.83,3.36-7.64,1.48-10.8a44.45,44.45,0,0,0,7.95-9c1.9-2.61,3.89-5.47,4.8-8.64h0c1.94-.48,2.13-2.76,1.31-4.3a4.89,4.89,0,0,0-2-1.55c-1.24-1.46-2.59-2.79-3.73-4.35-1.41-1.94-2.75-3.93-4.16-5.87a105.2,105.2,0,0,0-8.46-10c-2.31-2.45-5.51-4.62-8.91-4.74,0,0,0,0,0,0l-.27,0A7.9,7.9,0,0,0,103,62c-.14.05,0,.16.12.17l-.11,0a12.16,12.16,0,0,1,5.92,2.7c.22.17.08.59-.22.48-2.59-1-6.55-.56-8.21,2-1.41,2.13-1.06,4.56,0,6.68,2.5,2.41,6.07,3.85,8.92,5.71a26.73,26.73,0,0,1,5,4.36c1.54,1.66,3.47,3.25,4.49,5.28a.27.27,0,0,0,.07.08,10.21,10.21,0,0,0-1.57,3.92c-.5,1.94-1.14,3.83-1.69,5.75a15,15,0,0,1-3.47,5.6c-2.62-.44-5.41-1.94-7.68.35l0,0a4.51,4.51,0,0,0-.81,2.06c-.16,1.32.06,2.45-.46,3.72a16.24,16.24,0,0,0-1.54,4.19,7.57,7.57,0,0,0,0,1.84,5,5,0,0,0,3,1.93c.06.24.37.45.53.58a5.48,5.48,0,0,0,1.18.66,2.81,2.81,0,0,0,1,.22,3.23,3.23,0,0,0,1.84,1.1,6.35,6.35,0,0,0,1,.15.31.31,0,0,0,0,.08,1.27,1.27,0,0,0,.27.35,5.8,5.8,0,0,0,1.17.58,5.4,5.4,0,0,0,3.16,0A7,7,0,0,0,117.56,120.89Z"/><path class="cls-11" d="M112.75,122.21a4.18,4.18,0,0,1-1.86-.73,1.07,1.07,0,0,0,.59-.26c.07-.06-.08-.11-.13-.08-.52.31-1.54,0-2.06-.18a3,3,0,0,1-1.14-.75,2.44,2.44,0,0,0,.74-.27c.08,0-.06-.1-.09-.1a6,6,0,0,1-2.21-.4,4.07,4.07,0,0,1-.72-.51.22.22,0,0,0,.11-.32c-1.82-.34-3.89-1.23-3.83-3.2a6.3,6.3,0,0,1,1.29-3.49c.69-1,1.64-1.8,1.76-3-.49.61-1,1.18-1.55,1.77a8.53,8.53,0,0,0,.7-1.4c.05-.31,0-1.87,0-1.82A3.42,3.42,0,0,1,106,105c1.86-1.41,4-.42,6.12-.13h0a3.36,3.36,0,0,0,1.27-.13h-.18a17,17,0,0,0,2.92-4.18,41.18,41.18,0,0,0,1.59-4.86c.27-.81.48-1.65.72-2.47a7.39,7.39,0,0,1,.79-2.46c.11-.21.23-.4.35-.59l.16-.29a3.91,3.91,0,0,1,1.09-1.19c.76-.75,1.6-1.41,2.42-2.14h0c-1.21.9-2.53,1.29-3.68,2.31-1.29-2.33-3.61-4.24-5.43-6.14a32.5,32.5,0,0,0-7.58-5.46c-3-1.72-7.12-3.73-7.86-7.47-.33-1.67.78-3.43,1.56-4.81a6.63,6.63,0,0,1,3.86-3c5.19-.38,8.83,3.2,12.14,7a112.74,112.74,0,0,1,7.55,9.36c2,2.8,4,5.35,6.21,7.91a.77.77,0,0,0-.26.07,2.47,2.47,0,0,1,.6.32l.1.12c.23.13.48.26.72.41h0l.32.2a2.54,2.54,0,0,1,.64.5,2.32,2.32,0,0,1,.94,2.56A2.55,2.55,0,0,1,131.68,92a.24.24,0,0,1-.23.11l-.18.08a41.79,41.79,0,0,1-5.11,8.6,66.51,66.51,0,0,1-4.45,5.73c-.94,1.08-2.13,2-3,3.07l-.24-.3c.17.87.92,2.16,1,2.71a10.38,10.38,0,0,1,.07,3.29,8.37,8.37,0,0,1-2.3,4.71,7.22,7.22,0,0,1-2.21,1.92A6.83,6.83,0,0,1,112.75,122.21Z"/><path class="cls-12" d="M108.4,62.93c2.7,1.21,4.87,3.85,6.79,6,5,5.66,9.44,11.78,14.15,17.7a.26.26,0,0,1-.14.44l-1.26.29a8.2,8.2,0,0,1,5.16,2.72,2.46,2.46,0,0,0-1-2.16,2.54,2.54,0,0,0-.64-.5l-.32-.2h0c-.24-.15-.49-.28-.72-.41l-.1-.12a2.47,2.47,0,0,0-.6-.32.77.77,0,0,1,.26-.07c-2.2-2.56-4.24-5.11-6.21-7.91A112.74,112.74,0,0,0,116.19,69c-2.78-3.19-5.8-6.22-9.79-6.88C107.14,62.4,107.82,62.68,108.4,62.93Z"/><path class="cls-13" d="M121.89,86.35a14,14,0,0,1-1.57-1.61,27.57,27.57,0,0,0-2.47-2.24c-3.45-2.92-7.25-5.61-10.37-8.91-2-2.06-4.38-5.53-2.21-8.32a5.33,5.33,0,0,1,4.3-2,10.09,10.09,0,0,0-5.52-1.19,6.63,6.63,0,0,0-3.86,3c-.78,1.38-1.89,3.14-1.56,4.81.74,3.74,4.83,5.75,7.86,7.47a32.5,32.5,0,0,1,7.58,5.46c1.82,1.9,4.14,3.81,5.43,6.14A31.51,31.51,0,0,1,123,86.76,2.2,2.2,0,0,1,121.89,86.35Z"/><path class="cls-13" d="M116.11,100.61a17,17,0,0,1-2.92,4.18h.18a2.8,2.8,0,0,1-.64.13,5.83,5.83,0,0,0,1.44.84c1.82.57,2.56-1.3,3-2.63s1-2.73,1.42-4.15c1.35-5,2.46-10.41,7.74-12.29-1.05-.15-2.28.19-3.32.08-.76.67-1.54,1.28-2.24,2a3.91,3.91,0,0,0-1.09,1.19l-.16.29c-.12.19-.24.38-.35.59a7.39,7.39,0,0,0-.79,2.46c-.24.82-.45,1.66-.72,2.47A41.18,41.18,0,0,1,116.11,100.61Z"/><path class="cls-13" d="M117.21,120a8.37,8.37,0,0,0,2.3-4.71,10.38,10.38,0,0,0-.07-3.29c-.09-.55-.84-1.84-1-2.71l.24.3c.91-1.11,2.1-2,3-3.07a66.51,66.51,0,0,0,4.45-5.73,41.79,41.79,0,0,0,5.11-8.6l.18-.08a.24.24,0,0,0,.23-.11A2.55,2.55,0,0,0,133,90.49a2.32,2.32,0,0,0-.94-2.56,2.54,2.54,0,0,0-.64-.5l-.32-.2h0c-.24-.15-.49-.28-.72-.41l-.1-.12-.48-.28a2,2,0,0,0,.64.73,3,3,0,0,1,1.4,2.54c-.19,1.77-1.69,2.15-3.21,2.11a37.48,37.48,0,0,1-4.48,7.55,44.8,44.8,0,0,1-7.47,8.71,5,5,0,0,1,1.5,2.47,7.17,7.17,0,0,1-.16,4.37c-1,2.3-3.46,4.72-6.19,3.69-1.39-.53-1.66-1.65-2.54-2.72-1-1.22-2.49-1.15-3.68-2-2.16-1.61-.61-3.84.69-5.41-1.35-.76-1.23-2.1-.51-3.25a3.21,3.21,0,0,0-1.47,2.28s.07,1.51,0,1.82a8.53,8.53,0,0,1-.7,1.4c.52-.59,1.06-1.16,1.55-1.77-.12,1.21-1.07,2-1.76,3a6.3,6.3,0,0,0-1.29,3.49c-.06,2,2,2.86,3.83,3.2a.22.22,0,0,1-.11.32,4.07,4.07,0,0,0,.72.51,6,6,0,0,0,2.21.4s.17.06.09.1a2.44,2.44,0,0,1-.74.27,3,3,0,0,0,1.14.75c.52.17,1.54.49,2.06.18.05,0,.2,0,.13.08a1.07,1.07,0,0,1-.59.26,4.18,4.18,0,0,0,1.86.73,6.83,6.83,0,0,0,2.25-.34A7.22,7.22,0,0,0,117.21,120Z"/><path class="cls-13" d="M117.21,120l.24-.27a8,8,0,0,1-5.15.38,9.15,9.15,0,0,1-3-1.29,21.45,21.45,0,0,1-2.63-2.59,18.66,18.66,0,0,1-2.62-2.48,4.32,4.32,0,0,1-.65-1.79h0a6.3,6.3,0,0,0-1.29,3.49c-.06,2,2,2.86,3.83,3.2a.22.22,0,0,1-.11.32,4.07,4.07,0,0,0,.72.51,6,6,0,0,0,2.21.4s.17.06.09.1a2.44,2.44,0,0,1-.74.27,3,3,0,0,0,1.14.75c.52.17,1.54.49,2.06.18.05,0,.2,0,.13.08a1.07,1.07,0,0,1-.59.26,4.18,4.18,0,0,0,1.86.73,6.83,6.83,0,0,0,2.25-.34A7.22,7.22,0,0,0,117.21,120Z"/><path class="cls-37" d="M112.14,119.71c-1.4-.45-3.33-.88-4.22-2.14a10.39,10.39,0,0,0-1-1.39,25.64,25.64,0,0,1-2.48-2.07c-.08-.11-.47-.15-.37,0,.5.9,1.44,1.41,2.09,2.2a18,18,0,0,0,1.45,2c1.07,1,2.95,1.37,4.32,1.68C112.29,120.15,112.5,119.83,112.14,119.71Z"/><g class="cls-16"><path class="cls-14" d="M111.94,75.53c0,.45.57.69,1,.66l0,0a.78.78,0,0,0,.61-.24.83.83,0,0,0,.27-.66c0-.53-.65-.68-1.06-.64S111.9,75,111.94,75.53Z"/><path class="cls-14" d="M112.57,75.67a.39.39,0,0,0,.45.3h0a.35.35,0,0,0,.27-.11.38.38,0,0,0,.12-.29c0-.24-.29-.31-.48-.29A.39.39,0,0,0,112.57,75.67Z"/><path class="cls-14" d="M109.74,74.14a.48.48,0,0,0,0,.55.78.78,0,0,0,.73.28c.2,0,.52-.13.51-.37a.28.28,0,0,0,0-.13c0-.23-.27-.42-.46-.47A.68.68,0,0,0,109.74,74.14Z"/></g></g></g></g></svg>