<svg xmlns="http://www.w3.org/2000/svg" viewBox="0 0 185.17 106.58"><defs><style>.cls-1{isolation:isolate;}.cls-2{fill:#4496aa;}.cls-3,.cls-4,.cls-5{fill:#56e0bf;}.cls-13,.cls-22,.cls-4{mix-blend-mode:screen;}.cls-21,.cls-25,.cls-29,.cls-5,.cls-7{mix-blend-mode:multiply;}.cls-6{fill:#143b4e;}.cls-21,.cls-6{opacity:0.5;}.cls-7,.cls-8{fill:#bbc4d6;}.cls-9{fill:#5a5e67;}.cls-10{fill:#4992c0;}.cls-11{fill:#140099;}.cls-12{fill:#61a5c8;}.cls-13{fill:#97ee9c;}.cls-14{fill:#5997c4;}.cls-15{fill:#5b856f;}.cls-16{fill:#44688e;}.cls-17{fill:#485a73;}.cls-18{fill:#344585;}.cls-19{fill:#7f4329;}.cls-20,.cls-21,.cls-22{fill:#b25e39;}.cls-22{opacity:0.6;}.cls-23,.cls-25{fill:#c5dcc7;}.cls-24{fill:#5f6a60;}.cls-26{fill:#ea3048;}.cls-27{fill:#e772b0;}.cls-28{fill:#fff;}.cls-29{fill:#cecece;}.cls-30{fill:#7d492b;}.cls-31{fill:#4e2e1b;}</style></defs><g class="cls-1"><g id="Layer_2" data-name="Layer 2"><g id="Layer_1-2" data-name="Layer 1"><path class="cls-2" d="M170.53,74.19c.05-.08.1-.16.14-.24a4.65,4.65,0,0,0-.48-5.3c-1.75-1.91-4.86-.28-6.43,1a4.5,4.5,0,0,0-1.87,4.59c-.76.25-1.51.58-2.19.85-2.12.84-4.26,1.63-6.36,2.53-1.9.81-3.75,1.69-5.58,2.62-.77.39-2.19,1-3.2,1.57-.21-.79-.4-1.58-.54-2.38-.56-3.11-1.14-6.2-1.57-9.33-.78-5.64-1.71-11.28-2.1-17A3.57,3.57,0,0,0,140,48a3.51,3.51,0,0,0-2.72-1c-2.9-1.06-6.73-.1-9.56.8A59.21,59.21,0,0,0,116.66,53a66.48,66.48,0,0,0-9.9,6.91,41.7,41.7,0,0,0-3.64,3.52,12.1,12.1,0,0,0-1,1s-.09.07-.07.1,0,0,0,0a1.34,1.34,0,0,0-.18.36.14.14,0,0,0,0,.06v.09h0a.05.05,0,0,0,.06.06l.1,0c0,.37,0,.79,0,.78a22.79,22.79,0,0,0,.48,3.07A35,35,0,0,0,104,74.35c1,2.58,2.43,6.64,5.29,7.65,2.5.88,6.19-2.54,8-3.76,3.28-2.19,6.48-4.57,9.54-7.06a73.54,73.54,0,0,0,1.75,14.23,7.12,7.12,0,0,0-.7,6.92,6,6,0,0,0,4.3,3.41,11.28,11.28,0,0,0,5.94-.47,15.19,15.19,0,0,0,3.16-.91c3.15-1.06,6.29-2.34,9.39-3.58,2.67-1.07,5.39-2.08,8-3.28.38-.18.79-.34,1.21-.5,1-.66,2.36-.87,3.39-1.56a2.77,2.77,0,0,1,1.49-.59l.15-.1a4.37,4.37,0,0,0,2.68-.35,2.08,2.08,0,0,0,1.28-2.19A4.58,4.58,0,0,0,170.59,81a2.35,2.35,0,0,0,.57-2.12,1.24,1.24,0,0,0-.38-.73A3.94,3.94,0,0,0,171.6,77C172.13,75.93,171.94,74.13,170.53,74.19Z"/><path class="cls-3" d="M163.73,84.53c-3.81,1.57-7.6,3.2-11.42,4.77-2.54,1-5.12,2-7.7,3-1.32.5-2.62,1-4,1.53-.16.06-.87.36-1.6.63a.17.17,0,0,0-.13,0c-1.57.27-3.25,1-4.85.75a9.24,9.24,0,0,1-2-.52,4.48,4.48,0,0,1-3.47-2.83,6.06,6.06,0,0,1-.49-2.08c0-.06,0-.12,0-.18a5.47,5.47,0,0,1,.65-3.3,13,13,0,0,1,1.07-2.1,5.64,5.64,0,0,0-.66.63c-.29-4.89-1.19-9.75-1.42-14.65a55.63,55.63,0,0,1,.2-9.31c0-.41.09-.83.12-1.24,0-.59-.05-1.18-.07-1.78s-.09-1.32-.16-2a48.93,48.93,0,0,0-.82,6.89,15.13,15.13,0,0,1-.74-2.15c-.12-.5-.21-1-.3-1.52,0,.26-.08.51-.11.77s0,.3,0,.45a11.74,11.74,0,0,0,1.12,3.87c-.06,1.6-.07,3.18-.08,4.72,0,.59,0,1.19,0,1.79-2.61,2.18-5.34,4.26-8.14,6.17-2.45,1.68-7.1,6-10.14,4.21-1.31-.79-2.11-2.78-2.79-4.08a35.23,35.23,0,0,1-1.9-4.42,44.85,44.85,0,0,1-1.39-5.39,23.69,23.69,0,0,0-.27-2.48c.4-.51,1.33-1.22,1.59-1.51a40.15,40.15,0,0,1,4.27-3.76,67.25,67.25,0,0,1,9.33-6.17c5.62-3.17,11.65-6,18.12-5.65a4.73,4.73,0,0,0-1.12.88c-.1.12,0,.26.12.15a3.8,3.8,0,0,1,4.86.23,3.27,3.27,0,0,1,1.07,2.14,3.53,3.53,0,0,1-.54,2c0,2.08.14,4.19.3,6.29.06.41.11.82.16,1.23.35,3.08.8,6.12,1.27,9.18.64,4.18,1.31,8.34,2.19,12.46.43.82.89,1.62,1.37,2.42-.15-.67-.33-1.34-.5-2,.28-.16.54-.32.77-.43,2.29-1.14,4.57-2.3,6.92-3.31,3.06-1.31,6.14-2.46,9.26-3.53l1.82-1.39a8.27,8.27,0,0,0-1.08.22,4.7,4.7,0,0,1,2.41-4.41c1.63-1.09,3.95-1.37,5.16.43,1.66,2.48-.63,5.36-3,6.56a3.61,3.61,0,0,1-.29-.48c0,.51,0,1-.06,1.53l.15,0a6.5,6.5,0,0,1-.1,2.11A8.61,8.61,0,0,1,163.73,84.53Z"/><path class="cls-4" d="M147.32,81.7c2-.85,4.1-1.63,6.15-2.44s4.1-1.69,6.12-2.59c.91-.4,1.86-.73,2.76-1.13.68-.6,1.37-1.2,2-1.81-1.38-.76-1.79-2-.43-3.33a10.75,10.75,0,0,1,1.38-1.07,5,5,0,0,0-.5.29A4.7,4.7,0,0,0,162.43,74a8.27,8.27,0,0,1,1.08-.22l-1.82,1.39c-3.12,1.07-6.2,2.22-9.26,3.53-2.35,1-4.63,2.17-6.92,3.31-.23.11-.49.27-.77.43a2.68,2.68,0,0,0,.07.27A23.21,23.21,0,0,1,147.32,81.7Z"/><path class="cls-4" d="M129.76,84.18a38.64,38.64,0,0,0-.67-3.89,68.34,68.34,0,0,1-.63-8.45c0-5.19,1.08-10.64-.6-15.66,0,.54.11,1.08.12,1.61s0,1.19.07,1.78c0,.41-.07.83-.12,1.24a55.63,55.63,0,0,0-.2,9.31c.23,4.9,1.13,9.76,1.42,14.65A5.67,5.67,0,0,1,129.76,84.18Z"/><path class="cls-4" d="M104.79,63.19c1.48-1.12,3-2.15,4.49-3.29a77.33,77.33,0,0,1,9.56-6.5c5-2.77,10.74-5.81,16.62-5.79l.1-.07c-6.47-.34-12.5,2.48-18.12,5.65a67.25,67.25,0,0,0-9.33,6.17,40.15,40.15,0,0,0-4.27,3.76c-.26.29-1.19,1-1.59,1.51q0,.09.06.21A16.44,16.44,0,0,0,104.79,63.19Z"/><path class="cls-5" d="M126,59c.09.51.18,1,.3,1.52a15.13,15.13,0,0,0,.74,2.15,48.93,48.93,0,0,1,.82-6.89l0,.34c0-.47.1-.94.18-1.4a24.85,24.85,0,0,0,.45-3.08c-3.33,3.81-3.27,8.86-3.2,13.71a.27.27,0,0,1-.33.26,27.51,27.51,0,0,0-6.36-1.09.27.27,0,0,1-.23-.4,20.42,20.42,0,0,1,1.25-2.47c.22-.35,1.13-1.28.54-1.55-.91-.4-1.91-.56-2.83-.93-1.24-.5-2.39-1.46-1.76-2.92.71-1.67,2.21-2.84,3.56-4-.57.3-1.13.61-1.69.93a67.25,67.25,0,0,0-9.33,6.17,40.15,40.15,0,0,0-4.27,3.76c-.26.29-1.19,1-1.59,1.51a23.69,23.69,0,0,1,.27,2.48,44.85,44.85,0,0,0,1.39,5.39,35.23,35.23,0,0,0,1.9,4.42c.68,1.3,1.48,3.29,2.79,4.08,3,1.84,7.69-2.53,10.14-4.21,2.8-1.91,5.53-4,8.14-6.17,0-.6,0-1.2,0-1.79,0-1.54,0-3.12.08-4.72a11.74,11.74,0,0,1-1.12-3.87c0-.15,0-.3,0-.45S125.91,59.28,126,59Z"/><path class="cls-5" d="M119,74a.27.27,0,0,1-.06-.49,11.18,11.18,0,0,0,3.28-3.82c.47-.92,1.49-3,.12-3.68s-3.37-.27-5-.19a.27.27,0,0,1-.23-.4A29,29,0,0,0,119,62.73c.07-.13.14-.27.22-.4.4-.85.5-1.64-.24-2a7.28,7.28,0,0,0-5-.51.27.27,0,0,1-.32-.33c.48-1.88,1.55-3.58,2.2-5.4a63,63,0,0,0-7.83,5.31,40.15,40.15,0,0,0-4.27,3.76c-.26.29-1.19,1-1.59,1.51a23.69,23.69,0,0,1,.27,2.48,44.85,44.85,0,0,0,1.39,5.39,35.23,35.23,0,0,0,1.9,4.42c.68,1.3,1.48,3.29,2.79,4.08,3,1.84,7.69-2.53,10.14-4.21,1.06-.72,2.1-1.47,3.13-2.23C120.91,74.34,119.93,74.17,119,74Z"/><path class="cls-5" d="M170,70.05a2.84,2.84,0,0,0-2-1.27,2,2,0,0,1,.35.78,4.79,4.79,0,0,1-1.94,4.77,4.1,4.1,0,0,1-1.15.65c-.62.22-.47.47-.5,1.06a3.55,3.55,0,0,1-.78,1.91,6.47,6.47,0,0,1-5.19,2.25,17.67,17.67,0,0,0-4.29.33,20.41,20.41,0,0,0-3.35,1.31c-1.45.7-5.42,2.86-6.37.64.17.67.35,1.33.5,2-.48-.8-.94-1.6-1.37-2.42-.88-4.12-1.55-8.28-2.19-12.46-.47-3.06-.92-6.1-1.27-9.18,0-.41-.1-.82-.16-1.23-.16-2.1-.26-4.21-.3-6.29a3.53,3.53,0,0,0,.54-2,3.27,3.27,0,0,0-1.07-2.14,4.34,4.34,0,0,0-1.82-.91,4.35,4.35,0,0,1,.63,4.18c-.74,1.86-2.69,2.91-4.23,4.15a20.33,20.33,0,0,0,3.9-1.75.27.27,0,0,1,.39.16c.69,2.46.55,5.26.74,7.8a61.17,61.17,0,0,1,.1,7.66c-.11,2.12-.73,7.25-4.14,6-3.82-1.45-6-6.13-6.72-9.86a34.07,34.07,0,0,1-.5-3.65,59.94,59.94,0,0,0,0,7.58c.23,4.9,1.13,9.76,1.42,14.65a5.64,5.64,0,0,1,.66-.63,13,13,0,0,0-1.07,2.1,5.47,5.47,0,0,0-.65,3.3c0,.06,0,.12,0,.18a6.06,6.06,0,0,0,.49,2.08,4.48,4.48,0,0,0,3.47,2.83,9.24,9.24,0,0,0,2,.52c1.6.22,3.28-.48,4.85-.75a.17.17,0,0,1,.13,0c.73-.27,1.44-.57,1.6-.63,1.33-.49,2.63-1,4-1.53,2.58-1,5.16-1.91,7.7-3,3.82-1.57,7.61-3.2,11.42-4.77a8.61,8.61,0,0,0,3-4.81,6.5,6.5,0,0,0,.1-2.11l-.15,0c0-.51.05-1,.06-1.53a3.61,3.61,0,0,0,.29.48C169.37,75.41,171.66,72.53,170,70.05Z"/><path class="cls-3" d="M167.13,83.9a2.15,2.15,0,0,1-1.35,0c0-.13,0-.23-.2-.16l-.18.08-.11,0a16.89,16.89,0,0,0,1-1.44h0a3.43,3.43,0,0,0,2.28,0C168.56,83.21,167.86,83.61,167.13,83.9Z"/><path class="cls-3" d="M169.75,81.15a3.47,3.47,0,0,1-3,.59h0l0,0-.05,0v0a6.93,6.93,0,0,0,.72-2h.07a5.26,5.26,0,0,0,3-1.17,2,2,0,0,1,.2.64A1.9,1.9,0,0,1,169.75,81.15Z"/><path class="cls-5" d="M169.75,81.15a3.47,3.47,0,0,1-3,.59h0l0,0-.05,0v0a6.93,6.93,0,0,0,.72-2h.07a5.26,5.26,0,0,0,3-1.17,2,2,0,0,1,.2.64A1.9,1.9,0,0,1,169.75,81.15Z"/><path class="cls-3" d="M170.52,77.65a5.85,5.85,0,0,1-2.93,1.29l-.08,0c0-.15,0-.3.05-.45a3.31,3.31,0,0,0-.11-1.17v0a8.72,8.72,0,0,0,2.93-2.86C171.64,75,171.45,76.73,170.52,77.65Z"/><path class="cls-5" d="M170.52,77.65a5.85,5.85,0,0,1-2.93,1.29l-.08,0c0-.15,0-.3.05-.45a3.31,3.31,0,0,0-.11-1.17v0a8.72,8.72,0,0,0,2.93-2.86C171.64,75,171.45,76.73,170.52,77.65Z"/><path class="cls-6" d="M136.08,82.5a.64.64,0,0,0-.44-.59,1,1,0,0,0-1,.23c-.22.17-.48.55-.29.81a.46.46,0,0,0,.12.12.86.86,0,0,0,.88.17C135.69,83.14,136.07,82.9,136.08,82.5Z"/><path class="cls-6" d="M140.55,79.76a.19.19,0,0,0-.13-.17.32.32,0,0,0-.28.07c-.06,0-.13.15-.08.22a.08.08,0,0,0,0,0,.21.21,0,0,0,.24,0C140.44,79.93,140.54,79.87,140.55,79.76Z"/><path class="cls-6" d="M133.07,80.86a.38.38,0,0,0-.26-.34.59.59,0,0,0-.59.13c-.13.1-.28.32-.17.47a.23.23,0,0,0,.07.07.48.48,0,0,0,.51.1C132.84,81.23,133.06,81.09,133.07,80.86Z"/><path class="cls-6" d="M130.31,89.93a1.19,1.19,0,0,0-1.61,0l-.07,0a1,1,0,0,0-.49.72,1.1,1.1,0,0,0,.19.93c.41.58,1.24.26,1.67-.09A1.13,1.13,0,0,0,130.31,89.93Z"/><path class="cls-6" d="M127.75,98a.65.65,0,0,0-.44-.59,1.09,1.09,0,0,0-1,.23c-.21.17-.47.55-.28.81a.34.34,0,0,0,.12.12.86.86,0,0,0,.88.18C127.36,98.63,127.74,98.39,127.75,98Z"/><path class="cls-6" d="M132.22,95.25a.17.17,0,0,0-.13-.16.29.29,0,0,0-.28.06c-.06,0-.13.15-.08.22a.08.08,0,0,0,0,0,.23.23,0,0,0,.24,0A.27.27,0,0,0,132.22,95.25Z"/><path class="cls-6" d="M124.74,96.35a.39.39,0,0,0-.26-.34.61.61,0,0,0-.59.13c-.13.1-.28.32-.17.47a.23.23,0,0,0,.07.07.48.48,0,0,0,.51.1C124.51,96.72,124.73,96.59,124.74,96.35Z"/><path class="cls-2" d="M182.89,86.06A4.43,4.43,0,0,0,185,81c-.7-2-3.45-2.84-5.37-2.27a7.09,7.09,0,0,0-2.82,1.38c-.15.12-.38.29-.62.49a12.28,12.28,0,0,0-4.35.37c-3.44.67-6.68,1.68-10.23,1.58-3.34-.09-6.32-1-9.65-.28-.55.12-4.18,2-3.2,2.75a.17.17,0,0,0-.21,0c-.77-.15-1.54-.29-2.31-.41a33.81,33.81,0,0,0-5.32-.35c-2.2,0-4.24.73-6.38,1.1a8.32,8.32,0,0,0-3.75-1.09,14.66,14.66,0,0,0-2.21.14c-4-1.49-8.33-1.53-12.6-1.48-3.84,0-7.2.77-10.28,3.2a26.49,26.49,0,0,0-9.12,13.09,6,6,0,0,0-.47,2.77c-.09.1-.14.23,0,.25l.12,0a1.17,1.17,0,0,1,0,.11.1.1,0,0,0,.12,0l.12,0c.32.13.67.32.93.42a22,22,0,0,0,4.91.86,64,64,0,0,0,9.28.55,71.85,71.85,0,0,0,9.72-.8,26.84,26.84,0,0,0,6.65-1.4l.64,0c1.55-.16,3.1-.42,4.64-.64,2.87-.4,5.73-.82,8.58-1.34,3.15-.58,6.48-.87,9.71-1.46a22.57,22.57,0,0,0,4.1,1.36,31,31,0,0,0,8.5,1.4,42.74,42.74,0,0,0,9-.44,8.66,8.66,0,0,0,2.05-.59,4.48,4.48,0,0,0,2.3.13c1.4-.33,3.13-2.16,2.22-3.58a4,4,0,0,0,.69-.52,2.16,2.16,0,0,0,.5-2.81,3.67,3.67,0,0,0,1.42-1.2,2.17,2.17,0,0,0,.32-2.09,1.22,1.22,0,0,0-.17-.31,3.48,3.48,0,0,0,1-.78,2.46,2.46,0,0,0,.35-2.39A1.38,1.38,0,0,0,182.89,86.06Z"/><path class="cls-3" d="M182.76,89c-1.45,1.07-2.92.67-4.43.1.45.85,1.68.8,2.61,1a2.36,2.36,0,0,1,.63.17l.37-.13a2,2,0,0,1,.25.75c.21,1-.93,1.69-1.67,2a3.74,3.74,0,0,1-2.89-.38c.11.8,1.34.9,2,1.07a.89.89,0,0,1,.42.23,2.44,2.44,0,0,0,.44-.13,1.83,1.83,0,0,1-.64,2.39c-.79.55-1.7.16-2.54,0h0a.93.93,0,0,0,1,.68,1.48,1.48,0,0,1,.78,0,1,1,0,0,1,.37,1.2,2.55,2.55,0,0,1-2,2.06,3,3,0,0,1-3.2-1.42.21.21,0,0,0,0,.07,1.11,1.11,0,0,0,.22,1.19c-3.77,1.41-8.92,1-12.45.55A40.59,40.59,0,0,1,155.15,99c-.78-.24-1.52-.53-2.3-.75a27,27,0,0,0,4.54-1.34l0,0a34.27,34.27,0,0,1-5.89.66c-3.68.68-7.37,1.24-11.06,1.91-2.84.52-5.71.89-8.56,1.31-.63.09-1.56.14-2.5.27.08-.18.09-.39-.14-.29-3.14,1.39-6.76,1.69-10.13,2.18a68.3,68.3,0,0,1-9.59.46,75.34,75.34,0,0,1-11-1c-.52-.08-1.37-.46-2-.52a24,24,0,0,1,11.21-16.39c3.1-1.85,6.69-1.75,10.19-1.75a38.55,38.55,0,0,1,5.58.26c1.18.17,2.32.52,3.47.8a1.89,1.89,0,0,1-1.13.21c-.1,0-.3.19-.18.28l.16.1c2.93-.66,5.89-.94,8.52.88,2.06,1.41,3.22,3.11,3.22,5.49,1.09-2.43-.39-4.53-2.34-5.93,1.22-.08,2.52-.5,3.67-.66a25.48,25.48,0,0,1,6.81.25c.78.1,1.56.24,2.33.4a28.35,28.35,0,0,1,3.56.56c1.5.31,3,.56,4.48,1A10.91,10.91,0,0,0,153,86.13a37.79,37.79,0,0,0-4.06-1c1.51-2.71,5.38-2.51,8-2.15a38.22,38.22,0,0,0,6.84.43A40.12,40.12,0,0,0,170.61,82a14,14,0,0,1,4.74-.56.57.57,0,0,0,0,.44c0-.11-.18,0-.2.09l0,.08v.06c1.48-1.54,3.29-3.13,5.56-3.06,1.66.06,3.31.69,3.78,2.42a3.14,3.14,0,0,1-.64,2.81,2.53,2.53,0,0,1-1.12,1.12l-.17.07c-.23.15-.46.28-.69.4a3.63,3.63,0,0,1-2.87.08,3,3,0,0,0,2.55.73,4.26,4.26,0,0,0,.78-.28A1.49,1.49,0,0,1,182.76,89Z"/><path class="cls-4" d="M130,85.35a9.81,9.81,0,0,1,3.18.81,10.19,10.19,0,0,1,4.23,4.1,6.84,6.84,0,0,0-3-4c-2.55-1.76-5.4-1.56-8.24-.94A28.19,28.19,0,0,0,130,85.35Z"/><path class="cls-4" d="M150.09,84.83c.59,0,1.34-.81,1.88-1.07a5.46,5.46,0,0,1,2.12-.38c2.17,0,4.23.58,6.39.74A17.51,17.51,0,0,0,167.57,83l2.64-.86a35.7,35.7,0,0,1-6.45,1.26,38.22,38.22,0,0,1-6.84-.43c-2.62-.36-6.49-.56-8,2.15l1,.21A.28.28,0,0,1,150.09,84.83Z"/><path class="cls-4" d="M137,87.46a3.94,3.94,0,0,0-.48-.84c-.14-.17,0-.38.23-.4a89.68,89.68,0,0,1,9.42.08c1.85,0,3.7,0,5.55.08h-.08a28.35,28.35,0,0,0-3.56-.56c-.77-.16-1.55-.3-2.33-.4a25.48,25.48,0,0,0-6.81-.25c-1.15.16-2.45.58-3.67.66A8,8,0,0,1,137,87.46Z"/><path class="cls-5" d="M181.94,90.08l-.37.13a2.36,2.36,0,0,0-.63-.17c-.42-.07-.9-.1-1.34-.19.37,1.38-.88,1.85-2.23,1.88a7.27,7.27,0,0,0-3.16.61,13.29,13.29,0,0,1-4.31,1.35,35.27,35.27,0,0,1-6.08,0,27.44,27.44,0,0,1-4.25-.42,4.71,4.71,0,0,1-2.84-1.54,12.77,12.77,0,0,0-2.35-2.9c1.06,2.31-1.41,3.58-3.47,4.17a29.2,29.2,0,0,1-4.14.84,15.17,15.17,0,0,1-4.79.31,3.65,3.65,0,0,1-2.93-2.77,10.6,10.6,0,0,0-1.42-2.81,3.86,3.86,0,0,1,0,3.17,5.93,5.93,0,0,0-2.05-4.56,7,7,0,0,1,.85,6.46,3.31,3.31,0,0,1-2.28,2c-1.23.35-3.25-.84-4.32-1.3A16.11,16.11,0,0,1,124.69,91c-.79-.8-1.87-2-1.61-3.24a3.92,3.92,0,0,1,2.58-2.52c-.07-.09.11-.27.2-.26a1.82,1.82,0,0,0,.4,0q.31-.14.63-.24a32.87,32.87,0,0,0-3.37-.78,38.55,38.55,0,0,0-5.58-.26c-3.5,0-7.09-.1-10.19,1.75a24,24,0,0,0-11.21,16.39c.62.06,1.47.44,2,.52a75.34,75.34,0,0,0,11,1,68.3,68.3,0,0,0,9.59-.46c3.37-.49,7-.79,10.13-2.18.23-.1.22.11.14.29.94-.13,1.87-.18,2.5-.27,2.85-.42,5.72-.79,8.56-1.31,3.69-.67,7.38-1.23,11.06-1.91a34.27,34.27,0,0,0,5.89-.66l0,0a27,27,0,0,1-4.54,1.34c.78.22,1.52.51,2.3.75a40.59,40.59,0,0,0,6.82,1.37c3.53.44,8.68.86,12.45-.55a1.11,1.11,0,0,1-.22-1.19.21.21,0,0,1,0-.07,3,3,0,0,0,3.2,1.42,2.55,2.55,0,0,0,2-2.06,1,1,0,0,0-.37-1.2,1.48,1.48,0,0,0-.78,0,.93.93,0,0,1-1-.68h0c.84.18,1.75.57,2.54,0a1.83,1.83,0,0,0,.64-2.39,2.44,2.44,0,0,1-.44.13.89.89,0,0,0-.42-.23c-.65-.17-1.88-.27-2-1.07a3.74,3.74,0,0,0,2.89.38c.74-.29,1.88-1,1.67-2A2,2,0,0,0,181.94,90.08Z"/><path class="cls-5" d="M156.74,97a5,5,0,0,0,1.66-1.26c-1.45,0-2.88.17-4.32.3-.92.08-1.83.13-2.75.18-2,.39-4.13.55-6.19.79-1.5.18-4.33.69-5.46-.72-.74-.93-.64-2-1-3.13-.05-.13-.09-.27-.14-.41a6.65,6.65,0,0,1-1,4.63c-.86,1.09-2.52,1.24-3.81,1.38a19.79,19.79,0,0,1-5.9-.18,9,9,0,0,1-7-6.92,8.26,8.26,0,0,1,.25-5.57,5.28,5.28,0,0,1,2-2.15,40.57,40.57,0,0,0-5.17-.22c-3.5,0-7.09-.1-10.19,1.75a24,24,0,0,0-11.21,16.39c.62.06,1.47.44,2,.52a75.34,75.34,0,0,0,11,1,68.3,68.3,0,0,0,9.59-.46c3.37-.49,7-.79,10.13-2.18.23-.1.22.11.14.29.94-.13,1.87-.18,2.5-.27,2.85-.42,5.72-.79,8.56-1.31,3.69-.67,7.38-1.23,11.06-1.91A37.84,37.84,0,0,0,156.74,97Z"/><path class="cls-5" d="M174.19,98.65a4.11,4.11,0,0,1-2.18-.92,21.35,21.35,0,0,1-8.49,1.88,48.89,48.89,0,0,1-5.68-.29c-.66,0-1.31-.08-2-.14a42.48,42.48,0,0,0,6.09,1.17c3.53.44,8.68.86,12.45-.55A1.11,1.11,0,0,1,174.19,98.65Z"/><path class="cls-5" d="M180,93.73a.89.89,0,0,0-.42-.23c-.24-.06-.55-.11-.86-.2a1.92,1.92,0,0,1-.35,2,2.1,2.1,0,0,1-1,.71c.82.18,1.7.54,2.47,0a1.83,1.83,0,0,0,.64-2.39A2.44,2.44,0,0,1,180,93.73Z"/><path class="cls-5" d="M179.06,96.7a1.48,1.48,0,0,0-.78,0,.93.93,0,0,1-1-.65l-.07,0c.71,1.25.09,2.42-1.44,2.63a6.37,6.37,0,0,1-1.45,0,3,3,0,0,0,3.11,1.29,2.55,2.55,0,0,0,2-2.06A1,1,0,0,0,179.06,96.7Z"/><path class="cls-5" d="M178.64,92.81a2.64,2.64,0,0,0,1.88,0c.64-.25,1.6-.83,1.69-1.62A5.46,5.46,0,0,1,178.64,92.81Z"/><path class="cls-5" d="M182.26,86.4a4.26,4.26,0,0,1-.78.28,3.06,3.06,0,0,1-.85,0c.63,1.54-.46,2.38-1.78,2.56l.33.11a.21.21,0,0,1,.27.08,3.61,3.61,0,0,0,3.31-.47A1.49,1.49,0,0,0,182.26,86.4Z"/><path class="cls-5" d="M184.42,81.47c-.47-1.73-2.12-2.36-3.78-2.42a6.38,6.38,0,0,0-4.35,1.89c2-1,5.34-.6,5.84,1.76.39,1.82-1.42,3.3-3.08,3.19l.08.13a3.6,3.6,0,0,0,2.67-.15c.23-.12.46-.25.69-.4l.17-.07a2.53,2.53,0,0,0,1.12-1.12A3.14,3.14,0,0,0,184.42,81.47Z"/><path class="cls-2" d="M156.63,92.57c-.19-.89-.58-2.65-1.55-3.11h0a8,8,0,0,1,.76,6A3.41,3.41,0,0,0,156.63,92.57Z"/><path class="cls-6" d="M127.5,93.71c-.6-.17-1.14.39-1.3,1l0,.06a1,1,0,0,0,0,.88,1.16,1.16,0,0,0,.71.64c.66.23,1.15-.51,1.29-1A1.13,1.13,0,0,0,127.5,93.71Z"/><path class="cls-6" d="M131.61,98.67a.67.67,0,0,0-.7-.22,1,1,0,0,0-.69.79c-.09.26-.07.71.24.82a.47.47,0,0,0,.17,0,.83.83,0,0,0,.81-.37A.92.92,0,0,0,131.61,98.67Z"/><path class="cls-6" d="M128.2,99.11a.38.38,0,0,0-.41-.13.61.61,0,0,0-.4.46c0,.15,0,.42.14.48h.1c.17.06.38-.09.47-.22A.52.52,0,0,0,128.2,99.11Z"/><path class="cls-6" d="M160.1,93.7c-.43-.13-.84.29-.95.7l0,0a.78.78,0,0,0,0,.65.86.86,0,0,0,.52.47c.49.17.85-.38.95-.77A.83.83,0,0,0,160.1,93.7Z"/><path class="cls-6" d="M163.13,97.35a.49.49,0,0,0-.52-.16.79.79,0,0,0-.51.58c-.06.19,0,.52.18.6l.13,0a.62.62,0,0,0,.59-.27A.69.69,0,0,0,163.13,97.35Z"/><path class="cls-6" d="M160.62,97.67a.28.28,0,0,0-.3-.09.46.46,0,0,0-.3.33c0,.12,0,.31.11.36h.07a.37.37,0,0,0,.35-.16A.4.4,0,0,0,160.62,97.67Z"/><path class="cls-2" d="M96.24,26.65C97.89,21.08,98.57,15.38,101,10c.75-1.69,3.87-7.37-.14-6.39.37-.83.72-2.21-.08-2.72-1.6-1-3.24.76-4.33,1.79a17.71,17.71,0,0,0-1.8,2,5.12,5.12,0,0,0,.2-4c-.75-1.65-2.41,0-3,.74a20.63,20.63,0,0,0-3.37,6.66c-.62,2-1.52,4.46-1.4,6.63-1-3.08-.26-6.27-.48-9.45-.08-1.19-.3-3-1.86-2.66C82.86,3.06,82.3,6.55,82,8a30.2,30.2,0,0,0-.63,7.6.19.19,0,0,0-.06.12c0,.72,0,1.43.06,2.14s.33,1.65-.69,2a.13.13,0,0,0-.07.09c-1.07.32-2.1-1.89-2.52-2.42a3,3,0,0,0-5.17,1.26c-.27,1.27,1.09,1.87,2,2.39,2.24,1.32,2.18,3.95,3.16,6.07,1.28,2.78,3.83,7,7.25,7.13.31.9.57,2.34.68,2.68.53,1.79,1,3.58,1.4,5.4l-.11-.1A76.77,76.77,0,0,0,75.15,42c-4.89.24-10.84.86-15.06,3.56-1.62,1-.88,2.64-.05,3.9a49.61,49.61,0,0,0,4.77,6.73c2,2.12,4,4.11,5.86,6.33A3.21,3.21,0,0,0,73.15,64a.55.55,0,0,0,.5.15c3.36-.61,6.6-2.33,9.71-3.7,3.44-1.51,6.88-3,10.28-4.61,2.27-1,4.53-2.12,6.73-3.33l.5-.37a5.73,5.73,0,0,0,1.56-2c.68-2.07-.5-4.9-1.35-6.8-2-4.37-5.12-8.07-7.49-12.2A10.44,10.44,0,0,0,96.24,26.65Z"/><path class="cls-3" d="M89.89,5.48a18.58,18.58,0,0,1,2.5-4.05c2.13-2.67,2.21,1.75,2,2.56S94,5.34,93.73,6A16.59,16.59,0,0,0,91,14.5h0a23.3,23.3,0,0,0-3.61.72A28.89,28.89,0,0,1,89.89,5.48Z"/><path class="cls-5" d="M92.47,6.23A15.88,15.88,0,0,0,91,9.66a12,12,0,0,1-1,2.59c-.45.8-1.7,1.81-2.26.44a4.13,4.13,0,0,1-.15-.5,18.3,18.3,0,0,0-.38,3,23.3,23.3,0,0,1,3.61-.72h0A16.59,16.59,0,0,1,93.73,6c.22-.67.46-1.34.65-2a6.32,6.32,0,0,0,.06-1.5A17.72,17.72,0,0,1,92.47,6.23Z"/><path class="cls-3" d="M90.5,32.29c-.08,0-.22.27-.09.27a4.54,4.54,0,0,0,2.72-1,79.54,79.54,0,0,0,4.37,7c1.72,2.74,6.82,10.13,3.32,13a.41.41,0,0,0-.08.12c-.82.43-1.61.82-2.34,1.19q-3.7,1.9-7.52,3.58c-2.94,1.31-5.87,2.66-8.83,3.94a50.78,50.78,0,0,1-7.8,3.08h-.13c-2.21.22-3.11-1.83-4.38-3.29-1.53-1.73-3.32-3.22-4.8-5a46,46,0,0,1-4.07-5.92c-1-1.63-1.15-3.15,1-4a26.7,26.7,0,0,1,2.77-1,48.53,48.53,0,0,1,14.58-1.8c2.24,0,4.48.12,6.72.29.51,0,1,.08,1.51.12.66,3,1.43,5.74,3.59,8.08.09.1.24-.12.18-.22-2.09-3.44-2.85-6.92-3.78-10.77a33.41,33.41,0,0,0-1.59-5.61,4.83,4.83,0,0,0,.73-.12,6.6,6.6,0,0,1-1.12-.29A4.91,4.91,0,0,1,83.09,33a13.52,13.52,0,0,1-3.54-4,18.62,18.62,0,0,1-2-4.74,6.12,6.12,0,0,0-1.33-2.8,7.28,7.28,0,0,0-.62-.51,4.17,4.17,0,0,1-2.07-1.54c-.4-.69.44-1.43,1-1.7A2.61,2.61,0,0,1,77,17.48c1.19.86,1.61,2.4,2.77,3.33a1.82,1.82,0,0,0,1-.31,3.83,3.83,0,0,1,4.21.24,10.58,10.58,0,0,1,1.85,2.56c.58-2.12-2.81-4.66-4.66-3.91a.29.29,0,0,1-.38-.3c0-.27,0-.54.08-.8s0-.44-.07-.66l0-.41A47.27,47.27,0,0,1,82,10.29c.14-1.07.32-2.13.55-3.18.08-.35.17-.69.28-1a9.64,9.64,0,0,1,1-2.32c.36-.54,1.22-1.16,1.74-.45a1.78,1.78,0,0,1,.34,1.14c.46,1.65.14,3.59.08,5.27a14.28,14.28,0,0,0,.73,5.7,10.15,10.15,0,0,0-2,1A15.81,15.81,0,0,0,86.5,16a13.2,13.2,0,0,1,1.36-.4,15.1,15.1,0,0,1,2.67-.4,20.46,20.46,0,0,1,4.56-.09,8.62,8.62,0,0,0-3.93-.59,1.21,1.21,0,0,1,0-.18c0-.05,0,0-.07,0a11.32,11.32,0,0,0,.53-2.21A31.7,31.7,0,0,1,93.2,7.93a15.14,15.14,0,0,1,2.35-3.66,17.77,17.77,0,0,1,1.6-1.65l.11-.09a3.08,3.08,0,0,1,2.1-1.36c1.42-.09,1.26,1.51,1.09,2.43a.26.26,0,0,1-.25.23c-3.77,1.36-4.36,6.72-5.88,9.85l.77-.68c1-2.41,1.58-5.09,3.21-7.16a4.16,4.16,0,0,1,1.25-1.06c.8-.66,1.8-1.15,2.44-.6s.47,1.46.1,2.29h0c-.18.42-.36.83-.55,1.25-.8,1.75-1.65,3.44-2.29,5.25a74.6,74.6,0,0,0-2.52,9.41C95.87,26.33,95.07,31.14,90.5,32.29Z"/><path class="cls-4" d="M75.63,20.91a7.28,7.28,0,0,1,.62.51,6.12,6.12,0,0,1,1.33,2.8,18.62,18.62,0,0,0,2,4.74c.15.22.31.45.46.69a33.84,33.84,0,0,1-1.83-5.74,4.79,4.79,0,0,0-1.84-3,13.48,13.48,0,0,1-1.91-1.53,2.56,2.56,0,0,1-.66-1.07.94.94,0,0,0-.21,1.1A4.17,4.17,0,0,0,75.63,20.91Z"/><path class="cls-4" d="M82.93,7.35A10.13,10.13,0,0,1,84.39,3.2a2,2,0,0,0-.56.56,9.64,9.64,0,0,0-1,2.32c-.11.34-.2.68-.28,1-.23,1-.41,2.11-.55,3.18-.17,1.43-.26,2.84-.29,4.25C82.12,12.14,82.49,9.73,82.93,7.35Z"/><path class="cls-4" d="M71.87,43.4c2.38-.24,4.79-.4,7.18-.45,1.69,0,3.39-.06,5.08,0,1.12.07,2.29.29,3.42.26l-.09-.39c-.5,0-1-.09-1.51-.12-2.24-.17-4.48-.24-6.72-.29a48.53,48.53,0,0,0-14.58,1.8,26.7,26.7,0,0,0-2.77,1c-1.07.44-1.56,1-1.67,1.72C63.51,44.51,67.88,43.79,71.87,43.4Z"/><path class="cls-4" d="M90.65,49.71c-1-2.65-1.39-5.45-2.18-8.17-.51-1.74-1-3.48-1.48-5.25-.16-.69-.13-1.64-.63-2a4.61,4.61,0,0,1-.5.07A33.41,33.41,0,0,1,87.45,40,39.13,39.13,0,0,0,90.65,49.71Z"/><path class="cls-5" d="M97.5,38.56a79.54,79.54,0,0,1-4.37-7,4.54,4.54,0,0,1-2.72,1c-.13,0,0-.25.09-.27,4.57-1.15,5.37-6,6.23-9.9.16-.78.34-1.55.52-2.33-.2.42-.4.83-.58,1.23a36.44,36.44,0,0,1-2.29,4.49c-1.34,2.2-3.25,5-5.88,5.79a8.27,8.27,0,0,1-7.35-1.39,13.5,13.5,0,0,1-2.64-3.25,12.55,12.55,0,0,0,1,2,13.52,13.52,0,0,0,3.54,4,4.91,4.91,0,0,0,2.38.93l.13,0c2.43-.23,5.4.18,6.89,2.12a23.1,23.1,0,0,1,2.61,4.75,16.6,16.6,0,0,1,1.48,5c.16,1.65,0,6.48-2.45,6.74a3.47,3.47,0,0,1-3-1.58s0,0-.06,0c-2.16-2.34-2.93-5.05-3.59-8.08l-.23,0a.41.41,0,0,0,0,.11,11.34,11.34,0,0,0,.09,2.79,8,8,0,0,1-.18,4.38C85.9,53,83.06,53.39,80.26,53c-1.89-.26-3.7-.89-5.57-1.26a26.11,26.11,0,0,0-7-.38,29.24,29.24,0,0,0-5,.77c.71,1.05,1.45,2.06,2.25,3,1.48,1.78,3.27,3.27,4.8,5,1.27,1.46,2.17,3.51,4.38,3.29h.13a50.78,50.78,0,0,0,7.8-3.08c3-1.28,5.89-2.63,8.83-3.94q3.81-1.68,7.52-3.58c.73-.37,1.52-.76,2.34-1.19a.41.41,0,0,1,.08-.12C104.32,48.69,99.22,41.3,97.5,38.56Z"/><path class="cls-5" d="M98.72,40.49A17.27,17.27,0,0,1,100,46.22a6.41,6.41,0,0,1-1.55,4.66,13.22,13.22,0,0,1-6.21,3.17c-9,2.26-19.1-2.48-27.89.37l.59.76c1.48,1.78,3.27,3.27,4.8,5,1.27,1.46,2.17,3.51,4.38,3.29h.13a50.78,50.78,0,0,0,7.8-3.08c3-1.28,5.89-2.63,8.83-3.94q3.81-1.68,7.52-3.58c.73-.37,1.52-.76,2.34-1.19a.41.41,0,0,1,.08-.12C103.68,49.22,100.81,43.87,98.72,40.49Z"/><path class="cls-5" d="M90.5,32.29c3.18-.8,4.53-3.37,5.35-6.18a14,14,0,0,1-7.69,6.61c1.85.37,3.73-.62,5.57,0-.21-.36-.41-.74-.6-1.11a4.54,4.54,0,0,1-2.72,1C90.28,32.56,90.42,32.31,90.5,32.29Z"/><path class="cls-5" d="M102.05,4.25a2.83,2.83,0,0,1-.55,1.64c-1.28,2-2.92,3.55-3.55,5.93-.14.55-1.25,3.53-2.24,1.92a2.8,2.8,0,0,1-.38-1.34c-.08.2-.15.4-.24.6l-.77.68c1.52-3.13,2.11-8.49,5.88-9.85a.26.26,0,0,0,.25-.23c.17-.88.32-2.37-.91-2.43a.84.84,0,0,1,.13.27c.29,1.08-.51,1.7-1.23,2.37a12.85,12.85,0,0,0-3.22,4.47c-.29.7-.48,1.45-.78,2.16s-1.18,2.87-2.23,1.74a1.61,1.61,0,0,1-.37-.66c-.06.18-.12.37-.17.56a11.32,11.32,0,0,1-.53,2.21s.08,0,.07,0a1.21,1.21,0,0,0,0,.18,8.62,8.62,0,0,1,3.93.59,20.46,20.46,0,0,0-4.56.09,15.1,15.1,0,0,0-2.67.4,13.2,13.2,0,0,0-1.36.4,15.81,15.81,0,0,1-1.81.41,10.15,10.15,0,0,1,2-1A14.28,14.28,0,0,1,86,9.72c.06-1.68.38-3.62-.08-5.27a1.78,1.78,0,0,0-.34-1.14c-.48-.64-1.23-.18-1.63.31a.86.86,0,0,1,.65.15c1.06.66,1,2.28.91,3.37A39.33,39.33,0,0,1,85,12.68c-.22,1.05-.59,3.24-2.07,3.19a1.44,1.44,0,0,1-1.2-.7c0,.68,0,1.37,0,2l0,.41c0,.2,0,.41.06.62.6-.35,1.14-.76,1.76-1.07a16.59,16.59,0,0,1,2.79-1.08,24.56,24.56,0,0,1,6.44-.87,10.91,10.91,0,0,1,5.34,1.12h0c.32-1.13.67-2.26,1.07-3.37.64-1.81,1.49-3.5,2.29-5.25.19-.42.37-.83.55-1.25h0C102.45,5.67,102.64,4.83,102.05,4.25Z"/><path class="cls-5" d="M78.48,21.22c1.84,1,4.3-.27,6.14,1a7,7,0,0,1,2.48,4.63,10.58,10.58,0,0,0-.1-2.25,10.45,10.45,0,0,0-.19-1.35v0A10.58,10.58,0,0,0,85,20.74a3.83,3.83,0,0,0-4.21-.24,1.82,1.82,0,0,1-1,.31c-1.16-.93-1.58-2.47-2.77-3.33a2.61,2.61,0,0,0-2.49.19,2.47,2.47,0,0,0-.38.25C76,17.12,77.32,20.55,78.48,21.22Z"/><path class="cls-2" d="M94,17.49c-2.32,1.58-4.57,3.52-5.56,6.22-.74,2-1.09,4.67.36,6.45.12.16.32-.17.26-.3-2.51-5.26,1.46-8.91,5-12.19C94.13,17.6,94.16,17.39,94,17.49Z"/><path class="cls-6" d="M84.1,52.36a.63.63,0,0,0-.43-.59,1.08,1.08,0,0,0-1,.23c-.22.17-.48.55-.29.81a.46.46,0,0,0,.12.12.84.84,0,0,0,.88.17C83.71,53,84.09,52.76,84.1,52.36Z"/><path class="cls-6" d="M88.57,49.62a.2.2,0,0,0-.12-.17.33.33,0,0,0-.29.07c-.06,0-.13.15-.08.22a.08.08,0,0,0,0,0,.21.21,0,0,0,.24,0C88.46,49.79,88.56,49.73,88.57,49.62Z"/><path class="cls-6" d="M81.09,50.72a.38.38,0,0,0-.26-.34.59.59,0,0,0-.59.13c-.13.1-.28.32-.17.47a.23.23,0,0,0,.07.07.48.48,0,0,0,.51.1C80.86,51.09,81.08,51,81.09,50.72Z"/><path class="cls-2" d="M42.53,85.87c-.74-2.79-1.19-5.6-1.78-8.44A50.17,50.17,0,0,0,38,69.65c-.55-1.41-1.43-2.94-3.22-2.22-4.64,1.89-8.59,6.38-11.61,10.23a76.83,76.83,0,0,0-6.91,10.42c-.58-2.91-.35-5.84-.67-8.75v-.14c0-.09,0-.18,0-.26a5.2,5.2,0,0,0,.55-.21h.07l.3-.18c2.65-.8,4.23-4,5.06-6.64.12-.29.24-.58.34-.86.84-2.19,2.6-3.15,4.19-4.62a1.16,1.16,0,0,0,.31-1.35c-.32-1.55-2.5-1-3.78-.48,1.21-1.61,1.21-3.64-.45-5.67A7.39,7.39,0,0,0,14,56.43c-3.12.33-6.1,3.55-7.31,6.33C5.09,66.49,3.79,71.44,7,77c.48.51-.43,5-.45,5.16C6.46,83.27,6,87.21,6,88.08a44.45,44.45,0,0,0,.71,10c.48,2.68,1.51,5.33,3.72,7a7.71,7.71,0,0,0,5.22.12,14.68,14.68,0,0,0,1.47-.78c2.3-1.11,4.53-2.36,6.75-3.63,3.25-1.87,6.49-3.8,9.71-5.72,2.91-1.75,6.19-3.4,8.63-5.79a.52.52,0,0,0,.16-.49A3.24,3.24,0,0,0,42.53,85.87Z"/><path class="cls-3" d="M41.32,89.25a.61.61,0,0,0-.07.1,49.81,49.81,0,0,1-7,4.59c-2.76,1.68-5.56,3.28-8.33,4.93-2.38,1.42-4.8,2.78-7.26,4.06-1.05.55-2.24,1.2-3.48,1.79a8.84,8.84,0,0,1-1.81.42c-1.68.2-3.14-1.21-4.06-2.41-1.89-2.47-2.27-6-2.61-9a44.73,44.73,0,0,1,.05-9.11c.12-.9.25-1.8.41-2.7a22.41,22.41,0,0,0,.76-4.39,7.41,7.41,0,0,0,.71.49s.08,0,.11,0a8.85,8.85,0,0,1-2.88-5.24,14.57,14.57,0,0,1,.43-7.32,15.49,15.49,0,0,1,3.17-5.72,11.14,11.14,0,0,1,1.17-1.2c1.77-1.69,5.22-2.63,7.55-1.66a8.44,8.44,0,0,1,1.73.76c2.92,1.74,4.37,5.72,1.11,7.91a9.41,9.41,0,0,0,.2-2.35c-.13-3.34-3.95-5.37-6.9-5.16-.07,0-.16.15-.06.16a7,7,0,0,1,5.61,3.19c1.22,1.94,1.33,6-1.34,7.05.06-.63.07-1.28.07-1.9,0-3.18-1.51-5.8-4.23-6.47a4.86,4.86,0,0,0-1.9,0c2.83.18,4.49,1.73,5.29,4.48.64,2.21.7,6.51-1.83,7.52a7.27,7.27,0,0,0-.85-4.83,6.81,6.81,0,0,0-.58-1,8.64,8.64,0,0,0-2.17-2.1,4.29,4.29,0,0,0-3.6-.22,3.91,3.91,0,0,1,3.95,1.39,11.93,11.93,0,0,1,2.48,3.77c1,2.33-.15,4.6-1.77,6.27-1.1,1.13-3.67,2-3.57-.52A4.83,4.83,0,0,1,11,72.15c.12.34.24.69.38,1a.1.1,0,0,0,.08.07c.36-1.46-1-4.59-2.79-4.5,0,.07.14.06.28.15a4.08,4.08,0,0,1,1,1.19l0,.08-.08,0A2.33,2.33,0,0,1,8.57,70c-.07,0-.18.12-.12.18a1.88,1.88,0,0,0,1.8.42c.15.25.29.51.43.77a1.92,1.92,0,0,1,.12.25c0,.12.07.25.11.38a4.44,4.44,0,0,0-1.4,4.5c.81,2.34,4.4-1,5-1.72a6.16,6.16,0,0,0,1.17-2,3.52,3.52,0,0,0,1.45-.86,3.4,3.4,0,0,0,.09,2.18c.06.14.24-.07.25-.15.08-.81.1-1.62.26-2.42a5.73,5.73,0,0,1,.24-.85A6.84,6.84,0,0,0,18.45,69a3.77,3.77,0,0,0,2.37-2.77,7.29,7.29,0,0,0,1.29-1,7,7,0,0,1,1.23-.43A3.25,3.25,0,0,1,25,64.42c.59,0,1.27.56,1,1.24a3.45,3.45,0,0,1-1.56,1.53l-.76.43a6.92,6.92,0,0,0-1.9,2.66c-.64,1.33-1.11,2.72-1.75,4l-.29.55a7.14,7.14,0,0,1-2.68,2.86,7.25,7.25,0,0,1-5.23.68c-.08,0-.2.15-.11.19a5.62,5.62,0,0,0,3.46.43l0,.43v.07c0,.35.1,1.94,0,2.63a25.59,25.59,0,0,0,.25,4.63,27.47,27.47,0,0,0,2.9,9.49c-.58-2.5-1.35-5-1.9-7.47.37-.64.74-1.28,1.12-1.91,1.16-1.92,2.4-3.79,3.65-5.65a48.65,48.65,0,0,1,9.9-10.85,25.34,25.34,0,0,1,2.4-1.7c2-1.25,3.1-.23,3.87,1.5A46.62,46.62,0,0,1,39.86,77c.6,2.24.78,4.56,1.31,6.81C41.62,85.65,42.78,87.57,41.32,89.25Z"/><path class="cls-3" d="M8.1,63.34A13.94,13.94,0,0,1,14,57.1a9.18,9.18,0,0,1,1.71-.62,8.27,8.27,0,0,0-5.06,2,11.14,11.14,0,0,0-1.17,1.2,15.49,15.49,0,0,0-3.17,5.72,14.57,14.57,0,0,0-.43,7.32,9.13,9.13,0,0,0,.8,2.5C5.31,71.47,6.35,66.73,8.1,63.34Z"/><path class="cls-3" d="M8.41,98.73A36.48,36.48,0,0,1,7.22,88.6c.11-3.33.56-6.65.61-10-.14,1.13-.5,2.31-.69,3.33s-.29,1.8-.41,2.7a44.73,44.73,0,0,0-.05,9.11c.34,3,.72,6.51,2.61,9A8.87,8.87,0,0,0,10.44,104,20.86,20.86,0,0,1,8.41,98.73Z"/><path class="cls-3" d="M25.27,76a54.9,54.9,0,0,0-4.05,5.24C20,83.12,18.73,85,17.57,86.91c-.38.63-.75,1.27-1.12,1.91.07.34.16.67.24,1h.06c1.71-3.7,4.47-6.75,6.49-10.28C23.89,78.4,24.54,77.18,25.27,76Z"/><path class="cls-3" d="M19.85,61.37A6.52,6.52,0,0,0,17.22,59a4.27,4.27,0,0,1,1,1c.81,1.1,1.52,2.75,1,4.1a.26.26,0,0,1-.48.06,8.24,8.24,0,0,0-2.09-2.81,7.28,7.28,0,0,1,1.94,5.2c0,.62,0,1.27-.07,1.9C21.18,67.41,21.07,63.31,19.85,61.37Z"/><path class="cls-3" d="M17.74,64.53A6.17,6.17,0,0,0,15.44,61c1.77,1.89,2.15,5.51.47,7.34a.26.26,0,0,1-.34,0,6.6,6.6,0,0,1,.34,3.68C18.44,71,18.38,66.74,17.74,64.53Z"/><path class="cls-3" d="M9.8,74.85c-.1,2.54,2.47,1.65,3.57.52,1.62-1.67,2.76-3.94,1.77-6.27a12,12,0,0,0-1.68-2.86,6.06,6.06,0,0,0-.54-.47,7.56,7.56,0,0,1,1.24,5.52C14,72.54,12.92,75,11.42,75.12s-1.09-1.65-.73-2.58A4.4,4.4,0,0,0,9.8,74.85Z"/><path class="cls-3" d="M9.94,70.19l.08,0,0-.08a6.8,6.8,0,0,0-.6-.82,7.5,7.5,0,0,0-.67-.48h0l-.27-.16a5.93,5.93,0,0,1,.66,1.51A1.81,1.81,0,0,0,9.94,70.19Z"/><path class="cls-3" d="M41.17,83.77c-.53-2.25-.71-4.57-1.31-6.81a46.62,46.62,0,0,0-2.47-6.75c-.77-1.73-1.91-2.75-3.87-1.5a25.34,25.34,0,0,0-2.4,1.7c-.3.24-.58.48-.87.73a3.12,3.12,0,0,1,1.34-.21c2.68.24.62,7.4.25,8.54a32.22,32.22,0,0,1-7.73,12.67,36.91,36.91,0,0,1-3,2.74,6.77,6.77,0,0,1-1.68,1.24A1,1,0,0,1,18.27,96c0,.1.06.21.08.31a27.47,27.47,0,0,1-2.9-9.49,25.59,25.59,0,0,1-.25-4.63c.05-.69,0-2.28,0-2.63v-.07l0-.43a5.62,5.62,0,0,1-3.46-.43c-.09,0,0-.21.11-.19a7.25,7.25,0,0,0,5.23-.68,7.14,7.14,0,0,0,2.68-2.86l.29-.55c.64-1.33,1.11-2.72,1.75-4a6.92,6.92,0,0,1,1.9-2.66l.76-.43A3.45,3.45,0,0,0,26,65.66c.26-.68-.42-1.19-1-1.24a3.25,3.25,0,0,0-1.65.37,7,7,0,0,0-1.23.43,7.29,7.29,0,0,1-1.29,1A3.77,3.77,0,0,1,18.45,69,6.84,6.84,0,0,1,18,70.64a5.73,5.73,0,0,0-.24.85c-.16.8-.18,1.61-.26,2.42,0,.08-.19.29-.25.15a3.4,3.4,0,0,1-.09-2.18,3.52,3.52,0,0,1-1.45.86,6.16,6.16,0,0,1-1.17,2c-.63.74-4.22,4.06-5,1.72a4.44,4.44,0,0,1,1.4-4.5c0-.13-.07-.26-.11-.38a1.92,1.92,0,0,0-.12-.25c-.14-.26-.28-.52-.43-.77a1.66,1.66,0,0,1-1.1,0A3,3,0,0,1,9,71.92c-.32.91-.78,2.12-1.88,2.14A1.42,1.42,0,0,1,6,73.4,8.78,8.78,0,0,0,8.72,78s-.07.06-.11,0a7.41,7.41,0,0,1-.71-.49,8.86,8.86,0,0,1-.23,2c.37-.42.89-.53,1.68,0,4,2.73,3.09,8,4.11,12.14.64,2.54,2.39,5.37,1.88,8.08a4.84,4.84,0,0,1-4.09,3.7,2.78,2.78,0,0,1-1.57-.29c.92,1.06,2.21,2.1,3.67,1.93a8.84,8.84,0,0,0,1.81-.42c1.24-.59,2.43-1.24,3.48-1.79,2.46-1.28,4.88-2.64,7.26-4.06,2.77-1.65,5.57-3.25,8.33-4.93a49.81,49.81,0,0,0,7-4.59.61.61,0,0,1,.07-.1C42.78,87.57,41.62,85.65,41.17,83.77Z"/><path class="cls-5" d="M41.17,83.77c-.53-2.25-.71-4.57-1.31-6.81a46.62,46.62,0,0,0-2.47-6.75c-.52-1.16-1.2-2-2.19-2a12.13,12.13,0,0,0-1,2.83,23.36,23.36,0,0,0-.09,9.85,16.14,16.14,0,0,0,1.57,5c.3.49,1.71,1.78,1.53,2.46-.4,1.48-2.51,2-3.65,2.77-2.91,2-5.75,4.15-8.61,6.23a67,67,0,0,1-8,5.47,10.87,10.87,0,0,1-6.36,1.39,3.69,3.69,0,0,0,2.76,1,8.84,8.84,0,0,0,1.81-.42c1.24-.59,2.43-1.24,3.48-1.79,2.46-1.28,4.88-2.64,7.26-4.06,2.77-1.65,5.57-3.25,8.33-4.93a49.81,49.81,0,0,0,7-4.59.61.61,0,0,1,.07-.1C42.78,87.57,41.62,85.65,41.17,83.77Z"/><path class="cls-5" d="M18.22,96a27.33,27.33,0,0,1-2.77-9.23,25.59,25.59,0,0,1-.25-4.63c.05-.69,0-2.28,0-2.63v-.07l0-.43a5.1,5.1,0,0,1-1.57.08c-1.08,6,.27,12.93,4.55,17.39Z"/><path class="cls-3" d="M20.53,60.56a.28.28,0,0,1-.19.18,4.44,4.44,0,0,1,.86,2.44,9.41,9.41,0,0,1-.2,2.35c3.26-2.19,1.81-6.17-1.11-7.91l-.51-.27A3,3,0,0,1,20.53,60.56Z"/><path class="cls-6" d="M33.51,86.11a1.19,1.19,0,0,0-1.61,0l-.07,0a1,1,0,0,0-.5.72,1.16,1.16,0,0,0,.2.94c.41.57,1.24.26,1.66-.1A1.12,1.12,0,0,0,33.51,86.11Z"/><path class="cls-6" d="M31,94.18a.64.64,0,0,0-.44-.59,1.06,1.06,0,0,0-1,.23c-.22.16-.47.54-.28.8a.34.34,0,0,0,.12.12.83.83,0,0,0,.88.18C30.55,94.81,30.93,94.58,31,94.18Z"/><path class="cls-6" d="M35.41,91.43a.16.16,0,0,0-.12-.16.29.29,0,0,0-.28.06c-.06,0-.13.15-.08.23l0,0c0,.07.17.07.25,0S35.41,91.54,35.41,91.43Z"/><path class="cls-6" d="M27.93,92.54a.37.37,0,0,0-.25-.35.63.63,0,0,0-.6.14c-.13.09-.27.31-.16.47l.07.07a.5.5,0,0,0,.51.1C27.7,92.91,27.92,92.77,27.93,92.54Z"/><path class="cls-2" d="M109,66.67a13.3,13.3,0,0,0-5.47-4.91A15.07,15.07,0,0,0,99,60.37c-.52-.07-2.46.35-3.38.36-.32-.22-.65-.44-1-.65A45.49,45.49,0,0,0,83,55.34a36.66,36.66,0,0,0-12.46-1.27c-.4,0-.79.08-1.18.12h0C59,54.75,48.33,55.11,39,60a12.6,12.6,0,0,0-5.83,6.63c0,.44,0,.87,0,1.31a30.39,30.39,0,0,0,2.7,11.27,55.69,55.69,0,0,0,4.29,8.52A36.84,36.84,0,0,0,45,91.86c5.57,4,12,6.44,18.5,8.5a86.47,86.47,0,0,0,30.39,3.79c2.09-.68,4.15-1.44,6.21-2.19,6.69-3.71,11-11.58,11.77-19.07C112.4,77.53,111.77,71.35,109,66.67Z"/><path class="cls-3" d="M94,103.52c-2.37.12-4.75.17-7.16.1a82.57,82.57,0,0,1-22.1-3.77c-11.74-3.61-23.5-9.18-29.67-20-1.82-4-3.16-7.5-1.86-12,1.43-5,5.5-7.32,10-9,5.48-2,11.22-2.8,17-3.39A26.44,26.44,0,0,1,63.84,55c3.22-.13,6.84-.83,10.06-.2a40.15,40.15,0,0,1,7.87,1.13,50.34,50.34,0,0,1,12.44,4.72,25.85,25.85,0,0,1,5.37,4.08l1.5,1.06,1.22.87a31.61,31.61,0,0,0-6.41-5.8,14.4,14.4,0,0,1,4.39.3,14.14,14.14,0,0,1,6.45,3.77c3.78,3.66,4.46,9.45,4.65,14.43C111.82,90.49,105,100.86,94,103.52Z"/><path class="cls-4" d="M77.48,55.78A70.68,70.68,0,0,1,85,56.84c-1.08-.33-2.17-.63-3.26-.9a40.15,40.15,0,0,0-7.87-1.13c-3.22-.63-6.84.07-10.06.2a5.84,5.84,0,0,0-.73.05C67.78,56,72.81,55.38,77.48,55.78Z"/><path class="cls-5" d="M54.9,67.94c5.56-2.83,11.93-7.06,13.72-13.3-1.63.11-3.25.3-4.78.37a26.44,26.44,0,0,0-3.56.45c-5.77.59-11.51,1.37-17,3.39-4.54,1.66-8.61,4-10,9a12.67,12.67,0,0,0-.51,3.94A36.2,36.2,0,0,0,54.9,67.94Z"/><path class="cls-5" d="M111.38,79.37c-.19-5-.87-10.77-4.65-14.43a14.14,14.14,0,0,0-6.45-3.77,14.4,14.4,0,0,0-4.39-.3,31.61,31.61,0,0,1,6.41,5.8l-1.22-.87-1.5-1.06a25.85,25.85,0,0,0-5.37-4.08,45.48,45.48,0,0,0-6.44-2.91,13.16,13.16,0,0,1,2.9,3.45,22.77,22.77,0,0,1,2,16.12c-1.43,6.11-5,12.19-10.47,15.52S70,96.72,63.7,95.65a52.23,52.23,0,0,1-18.26-7,39.09,39.09,0,0,1-10.4-9,1.11,1.11,0,0,1,.07.16c6.17,10.83,17.93,16.4,29.67,20a82.57,82.57,0,0,0,22.1,3.77c2.41.07,4.79,0,7.16-.1C105,100.86,111.82,90.49,111.38,79.37Z"/><path class="cls-5" d="M111.38,79.37c-.19-5-.87-10.77-4.65-14.43a14.14,14.14,0,0,0-6.45-3.77,14.4,14.4,0,0,0-4.39-.3,31.61,31.61,0,0,1,6.41,5.8l-1.22-.87-1.5-1.06a25.85,25.85,0,0,0-5.37-4.08l-.15-.08a28.64,28.64,0,0,1,2.92,4,.27.27,0,0,1-.3.39c-.58-.13-1.65-.64-2.22-.41-.92.39.56,2.49.86,2.83a20.34,20.34,0,0,1,2.61,3,.27.27,0,0,1-.23.4,5,5,0,0,0-1.71.33c.69.79,1.82,1.07,2.45,2a.27.27,0,0,1-.16.39,14.66,14.66,0,0,0-2.36,1.14,10.14,10.14,0,0,0-1.42,1c-.51,1.26,1.26,1.8,2.39,1.57a.26.26,0,0,1,.21.48c-.66.41-1.7.91-2,1.64s1.92.83,2.25.86.4.37.13.5a12,12,0,0,0-3.93,2.69c-.53.62-1.54,2-.12,2.18.46.06.91.11,1.36.2a.27.27,0,0,1,.12.44,15.41,15.41,0,0,0-1.57,1.45,2.09,2.09,0,0,0-.6.94c-.12.74,1.31.71,1.69.74a.27.27,0,0,1,.23.4,12.47,12.47,0,0,1-1.52,1.73c-.82.88-2,2.16-.25,2.77a.28.28,0,0,1,.12.45c-.85.93-2,1.5-2.84,2.47s1.42.81,2,.88c.22,0,.23.31.12.45-2.17,2.63-6.07,3.17-9.21,3.68a39.19,39.19,0,0,1-6,.66,76.9,76.9,0,0,0,9.84.91c2.41.07,4.79,0,7.16-.1C105,100.86,111.82,90.49,111.38,79.37Z"/><path class="cls-6" d="M83.73,95c-.6-.17-1.15.4-1.3,1,0,0,0,0-.05.06a1.08,1.08,0,0,0,0,.88,1.14,1.14,0,0,0,.7.64c.67.23,1.16-.51,1.3-1A1.13,1.13,0,0,0,83.73,95Z"/><path class="cls-6" d="M87.84,99.91a.68.68,0,0,0-.71-.22,1.09,1.09,0,0,0-.69.79c-.08.26-.06.72.24.82a.52.52,0,0,0,.17,0,.85.85,0,0,0,.82-.37A.92.92,0,0,0,87.84,99.91Z"/><path class="cls-6" d="M89.85,95.08a.17.17,0,0,0-.2-.06.29.29,0,0,0-.19.21c0,.08,0,.2.07.23h0a.23.23,0,0,0,.23-.1C89.86,95.28,89.91,95.17,89.85,95.08Z"/><path class="cls-6" d="M84.43,100.35a.38.38,0,0,0-.41-.13.62.62,0,0,0-.4.46c-.05.15,0,.42.14.48h.1c.17.06.37-.09.47-.21A.54.54,0,0,0,84.43,100.35Z"/><path class="cls-7" d="M103,63.55c.57,1.56,1.08,3.16,1.5,4.77.64,2.46,1,5,1.81,7.45a59.44,59.44,0,0,0-1.62-8.53c-.33-1.26-.75-2.48-1.18-3.72s-.71-2.79-1.75-3.54a1.28,1.28,0,0,0-.48-.26C101.78,61,102.48,62.23,103,63.55Z"/><path class="cls-8" d="M106.51,80.11a1.79,1.79,0,0,0-.1,2.17l0,0c0-.24,0-.48,0-.71Q106.51,80.86,106.51,80.11Z"/><path class="cls-9" d="M106.44,82.54a.21.21,0,0,1-.19-.12l.18-.1-.19.09a2,2,0,0,1,.09-2.43.22.22,0,0,1,.25-.08.22.22,0,0,1,.15.21c0,.57,0,1,0,1.51l0,.5,0,.21a.2.2,0,0,1-.16.2Z"/><path class="cls-7" d="M104.32,92.65c-.86,2.07-1.57,4.19-2.43,6.25a27.71,27.71,0,0,1-2.54,4.46,6.87,6.87,0,0,1-2,2.25c.09.19.31.25.69,0,1.38-.77,2-2.37,2.8-3.68a43.66,43.66,0,0,0,2.87-6.31,36.09,36.09,0,0,0,1.62-5.4C105,91.07,104.65,91.86,104.32,92.65Z"/><path class="cls-3" d="M17.34,45.44s.33-7-6-10.19S.22,33.78.22,33.78a3.81,3.81,0,0,1,2.74,3c.29,2.41,2.55,16.56,12.59,14.51Z"/><path class="cls-10" d="M13.63,51.75h0c-8.81,0-10.7-13.38-10.89-14.91A3.61,3.61,0,0,0,.16,34a.22.22,0,0,1-.16-.2.23.23,0,0,1,.14-.22,10.87,10.87,0,0,1,3.46-.48,17.35,17.35,0,0,1,7.8,2c6.43,3.23,6.17,10.33,6.16,10.4a.11.11,0,0,1,0,0l-1.79,5.9a.24.24,0,0,1-.16.15A9.76,9.76,0,0,1,13.63,51.75ZM.91,33.82a3.79,3.79,0,0,1,2.26,3c.19,1.49,2,14.53,10.46,14.53h0a8.89,8.89,0,0,0,1.75-.18l1.74-5.74c0-.46.06-6.95-5.92-9.95a16.88,16.88,0,0,0-7.6-1.92A12,12,0,0,0,.91,33.82Z"/><path class="cls-5" d="M11.69,35.46a14,14,0,0,1,2,2.45A2.62,2.62,0,0,1,14,40.16c-.15.36-.45.64-.87.48a5.86,5.86,0,0,1-1.69-1.37,24.13,24.13,0,0,0-3-2.36,9.79,9.79,0,0,0-4.06-1.62c-.75-.11-1.51-.17-2.26-.26a3,3,0,0,1,.37.52,6.78,6.78,0,0,1,2,3.36c.79,2.43,1.13,4.92,2.78,7a11.55,11.55,0,0,0,2,1.94c.22.16.6.39.64.7.1.83-1.46.7-1.88.59L8,49.1a7.85,7.85,0,0,0,7.57,2.23l1.79-5.89S17.66,38.74,11.69,35.46Z"/><path class="cls-11" d="M12.33,41.31a12.22,12.22,0,0,0-8-5.45s0,0,0,0C9.09,37.1,12,41,13.8,45.4c-1,1.84-3.39,1.66-4.8.41a8.44,8.44,0,0,1-2.36-4s0,0,0,0c.45,2.16,1.47,4.87,3.87,5.44a3,3,0,0,0,3.42-1.63,36.83,36.83,0,0,1,1.69,5.5c0,.09.16,0,.15-.08C15.21,47.55,14.41,44.29,12.33,41.31Z"/><path class="cls-12" d="M12.5,41.54A10.7,10.7,0,0,0,7.16,37a16.07,16.07,0,0,0-2-.69c.86,4.11,1,9.44,5.61,10.88a4.48,4.48,0,0,0,3.74-1.7A20.08,20.08,0,0,0,12.5,41.54Z"/><path class="cls-10" d="M11.14,47.41h0a2.86,2.86,0,0,1-.42,0C6.64,46.11,5.92,42,5.29,38.29c-.12-.69-.23-1.34-.36-2a.25.25,0,0,1,.06-.2.24.24,0,0,1,.2-.06,9.59,9.59,0,0,1,1.46.48l.59.22a10.9,10.9,0,0,1,5.44,4.66,20.06,20.06,0,0,1,2,4,.2.2,0,0,1,0,.22A4.94,4.94,0,0,1,11.14,47.41ZM5.43,36.58c.1.52.2,1.07.29,1.63C6.36,41.93,7,45.78,10.82,47l.32,0a4.45,4.45,0,0,0,3.09-1.55,19,19,0,0,0-1.91-3.75,10.5,10.5,0,0,0-5.23-4.5L6.5,37C6.13,36.81,5.78,36.68,5.43,36.58Z"/><path class="cls-13" d="M2.06,33.72s7.39-.33,11.81,4A31.82,31.82,0,0,0,2.06,33.72Z"/><path class="cls-3" d="M65.36,39.45a1.42,1.42,0,0,1-.08-.18c-1.65-3.63-3.64-7.08-5.37-10.66C56,20.43,51.25,13.05,42,10.52a28.74,28.74,0,0,0-7-1,25.42,25.42,0,0,0-14.11,3.85c-4.39,2.87-8.94,6.71-9.83,12.18a16.29,16.29,0,0,0,1.32,8.86,17.16,17.16,0,0,1,1.11,11.43c-1,3.87-2.47,7.63-1.57,11.7a17.68,17.68,0,0,0,10.35,11.8c10.09,3.87,22.33.57,31.48-4.3,4.92-2.62,10.52-5,13-10.38C69.1,49.7,67.48,44.19,65.36,39.45Z"/><path class="cls-14" d="M32,71.27a27.35,27.35,0,0,1-9.83-1.72A18,18,0,0,1,11.69,57.6c-.77-3.46.16-6.74,1.05-9.92.18-.62.36-1.25.52-1.88a17,17,0,0,0-1.1-11.29,16.41,16.41,0,0,1-1.34-9c.95-5.85,6.13-9.84,9.93-12.32A25.6,25.6,0,0,1,34.63,9.31H35a28.87,28.87,0,0,1,7,1c8.89,2.42,13.66,9,18.1,18.2.74,1.54,1.54,3.07,2.32,4.56,1,2,2.11,4,3.05,6.11l.08.18c1.81,4,3.92,10,1.4,15.41C64.7,59.59,60,62,55.52,64.36l-1.68.88C46.54,69.13,38.79,71.27,32,71.27ZM34.63,9.75A25.17,25.17,0,0,0,21,13.56c-3.74,2.45-8.81,6.35-9.73,12a16,16,0,0,0,1.3,8.75,17.44,17.44,0,0,1,1.13,11.57c-.17.63-.35,1.26-.53,1.89-.92,3.27-1.79,6.35-1,9.7A17.49,17.49,0,0,0,22.33,69.14,26.9,26.9,0,0,0,32,70.83c6.72,0,14.4-2.12,21.63-6L55.32,64c4.45-2.31,9.05-4.7,11.25-9.39,2.44-5.21.36-11.08-1.41-15l-.08-.18c-.94-2.07-2-4.11-3-6.09-.78-1.49-1.59-3-2.33-4.57-4.38-9.06-9.09-15.59-17.82-18a27.92,27.92,0,0,0-6.91-1Z"/><path class="cls-4" d="M18.46,67c-3.41-2.9-6.22-7.07-5.87-11.74.22-2.93,1.44-5.58,2.12-8.41A17,17,0,0,0,13.85,37a47.23,47.23,0,0,1-2.65-9.23,11.46,11.46,0,0,1-.06-2.68,3.94,3.94,0,0,0-.1.47,16.29,16.29,0,0,0,1.32,8.86,17.16,17.16,0,0,1,1.11,11.43c-1,3.87-2.47,7.63-1.57,11.7A17.66,17.66,0,0,0,20,68.25C19.48,67.87,19,67.47,18.46,67Z"/><path class="cls-5" d="M26.18,25.58a32.9,32.9,0,0,1-1.75-3.79C24,23.43,24.25,25.2,26.18,25.58Z"/><path class="cls-5" d="M23.43,25.09a10.1,10.1,0,0,0,.36,2.82C24.64,27.2,24.08,25.94,23.43,25.09Z"/><path class="cls-5" d="M54.47,61.46a7,7,0,0,0,4.34-2.73c1.17-2,.14-3.65-1.25-5C58.43,56.55,56.83,59.66,54.47,61.46Z"/><path class="cls-5" d="M65.36,39.45a1.42,1.42,0,0,1-.08-.18c-1.65-3.63-3.64-7.08-5.37-10.66C56,20.43,51.25,13.05,42,10.52a28.74,28.74,0,0,0-7-1,27.54,27.54,0,0,0-8.1,1.1l.52-.11C33,9.39,39.18,9.6,44.25,12.39a16.44,16.44,0,0,1,5.23,4.4,19,19,0,0,1,3.42,9c.51,3.47.85,7,3,9.88,1.95,2.67,4.54,4.74,6,7.77,2.82,5.85,2.28,12.75-2.64,17.29a40.62,40.62,0,0,1-7,5.06c.52-.26,1-.51,1.52-.78,4.92-2.62,10.52-5,13-10.38C69.1,49.7,67.48,44.19,65.36,39.45Z"/><path class="cls-5" d="M43,32.16c-.74,3-3.65,6-6.73,5.33C39.7,39.89,43.82,36,43,32.16Z"/><path class="cls-5" d="M17.94,42.56a.92.92,0,0,0,1-.69,10.84,10.84,0,0,1-1.74-.6A1.09,1.09,0,0,0,17.94,42.56Z"/><path class="cls-5" d="M48.76,39.1c-.23-.18,0-.48.26-.44a16.35,16.35,0,0,1,2.82.77c-1.11-2.3-4.89-6.92-6.64-3.32-1.22,2.52.32,5.44.83,8.06a7.94,7.94,0,0,0,.54-2.55c0-.29.46-.38.52-.07a22.11,22.11,0,0,1-.21,9.68,13.75,13.75,0,0,1-4.82,7c-3.67,3-8.78,5.88-13.78,5.78a9.75,9.75,0,0,0,4.18.45c1.94-.12,3.66.65,5.59.71A18.85,18.85,0,0,0,50.26,61c3.56-2.91,5.45-6.79,4.63-11.41A17,17,0,0,0,48.76,39.1Z"/><path class="cls-4" d="M37.47,59.78a28.93,28.93,0,0,1-8.57,2.7c-.61.12-1.27.26-1.95.36a15.38,15.38,0,0,0,3.88-.14,22.59,22.59,0,0,0,7.74-2.81,16.6,16.6,0,0,0,5.91-5.25,9.09,9.09,0,0,0,1.07-2.79A19.18,19.18,0,0,1,37.47,59.78Z"/><path class="cls-4" d="M22.24,53.45A8.76,8.76,0,0,1,20.17,49c-.43-1.81-.89-4.39-.29-6.41a8.82,8.82,0,0,0-.87,5.3,12.4,12.4,0,0,0,4.22,8.41,8.08,8.08,0,0,0,4-2.87C25.5,54,23.8,55,22.24,53.45Z"/><path class="cls-5" d="M34.55,43.39a6.71,6.71,0,0,0-2.44,2.81,3.68,3.68,0,0,1,2.52-1.61c1.26-.08,2.35.49,2.31,1.88s-1.64,2.32-2.8,2.5a4,4,0,0,1-2-.17c-1-.32-2.15,1.23-2.75,1.87-1.5,1.59-4.95,6.27-7.65,4.42a5.36,5.36,0,0,1-1.55-1.73c.1.49.2,1,.34,1.46.32,1.15.89,3.25,2.31,3.5,2,.34,4-2.14,5.15-3.44s2.13-2.73,3.64-3.48a2.62,2.62,0,0,1,1.94.13A3.34,3.34,0,0,0,36.77,51a6.08,6.08,0,0,0,2.49-5C39,43.53,36.7,42,34.55,43.39Z"/><path class="cls-5" d="M30.3,21.68c-1.33,1.7-2.73,2.85-4.51,1.93,0,.21.08.42.12.63a6.5,6.5,0,0,0,1.23,1.43c1.05.86,2,.51,2.74-.46.94-1.17,1.63-2.51,2.61-3.64,1.7-2,3.61-3.94,6.23-3.93C35.68,16.08,32.1,19.38,30.3,21.68Z"/><path class="cls-5" d="M23,24.49a4,4,0,0,1-.6,2.35c-.8.92-1.88.45-2.92.36a7.86,7.86,0,0,0-3.48.24,2.39,2.39,0,0,0-1.66,2.07c.72-1.35,2.59-1.47,4.36-1.24,1.17.15,3.3.85,4.37.13S23.55,25.77,23,24.49Z"/><path class="cls-5" d="M22.49,40.42a11.45,11.45,0,0,1,6-1,5.68,5.68,0,0,1,2.7,1.05,11.81,11.81,0,0,0-4.05-2.27.26.26,0,0,1-.07-.48A6.19,6.19,0,0,1,30,36.93c-1.23-.41-2.46,0-3.8-.11-.51,0-.69-.51-.8-1-.61-2.26-2.52-6-5.3-6-3.16,0-5,3.79-5.08,6.53a7.11,7.11,0,0,0,.79,3.9c.87,1.42,2,1.57,3.46,1.9a.27.27,0,0,1,.19.33,10.11,10.11,0,0,0-.64,3A7.35,7.35,0,0,1,22.49,40.42Z"/><path class="cls-5" d="M36.08,21.6c-5.44-.92-6.85,5-6,9.18.1.46.21.94.34,1.4A10,10,0,0,0,36.28,38c3.45.49,7.61-1.51,7.79-5.42C44.27,28.26,40.53,22.35,36.08,21.6Z"/><path class="cls-5" d="M36.07,22.63c-4.9-.83-6.17,4.55-5.4,8.27q.13.63.3,1.26a9,9,0,0,0,5.27,5.24c3.11.44,6.86-1.37,7-4.89C43.44,28.63,40.08,23.31,36.07,22.63Z"/><path class="cls-5" d="M65.36,39.45a1.42,1.42,0,0,1-.08-.18c-1.65-3.63-3.64-7.08-5.37-10.66C56,20.43,51.25,13.05,42,10.52a28.74,28.74,0,0,0-7-1,25.42,25.42,0,0,0-14.11,3.85c-.37.24-.75.5-1.12.76a20.47,20.47,0,0,1,15.18-1.41,16,16,0,0,1,7.26,4,8.08,8.08,0,0,1,2.29,3.65,15.36,15.36,0,0,1,0,4.88C44.31,27,44,29,45,30.55a10.73,10.73,0,0,0,3.32,3c2.34,1.64,4.85,3.31,6.58,5.63,2.58,3.45,3.19,8.49,2.21,12.91a10.13,10.13,0,0,1-1.77,8.43,14,14,0,0,1-6.12,4.16,25.92,25.92,0,0,1-3.5,1.86,24.34,24.34,0,0,1-6.3,1.62,40.08,40.08,0,0,1-13.86-.37c-4.25-1-8.47-3-11.2-6.56a14.3,14.3,0,0,1-2.64-5.58l0-.19a12.11,12.11,0,0,0,.26,2,17.68,17.68,0,0,0,10.35,11.8c10.09,3.87,22.33.57,31.48-4.3,4.92-2.62,10.52-5,13-10.38C69.1,49.7,67.48,44.19,65.36,39.45Z"/><path class="cls-4" d="M13.7,33.49a12.48,12.48,0,0,1,.15-9.74,30.9,30.9,0,0,1,4.32-6.6C13.07,21.64,8.65,28.62,13.7,33.49Z"/><path class="cls-3" d="M60.8,21.26a10.62,10.62,0,0,0-5,6.65,12,12,0,0,0,.08,2.61,12.72,12.72,0,0,0,1.61,5.25,3.55,3.55,0,0,0,4.23,1.4l.48-.16c6-2.71,6.89-12.76,7-14.75A3.8,3.8,0,0,1,71.76,19S66.94,17.64,60.8,21.26Z"/><path class="cls-5" d="M58.86,35.58a.18.18,0,0,1,.16-.2,9.51,9.51,0,0,0,5.67-2.72,11,11,0,0,0,2.57-6c.26-1.54.49-3.15,1.66-4.27a3.22,3.22,0,0,1,.33-.28,3.46,3.46,0,0,1,1.28-2.39,28.69,28.69,0,0,0-8.06,3.81c-2.52,1.78-5.23,4.31-5.32,7.61a.19.19,0,0,1-.33.09,5.28,5.28,0,0,1-1-2.06,11.75,11.75,0,0,0,.11,1.32,12.72,12.72,0,0,0,1.61,5.25,3.42,3.42,0,0,0,2.31,1.55A2.37,2.37,0,0,1,58.86,35.58Z"/><path class="cls-10" d="M71.81,18.86a11.5,11.5,0,0,0-4.21-.17,17.74,17.74,0,0,0-6.89,2.41,10.88,10.88,0,0,0-5.05,6.76A11.85,11.85,0,0,0,56,29.71,11.36,11.36,0,0,1,56,28a10.43,10.43,0,0,1,4.88-6.54,17.41,17.41,0,0,1,6.74-2.36,12,12,0,0,1,3.53.05,3.82,3.82,0,0,0-2.12,3.14c-.06,1.2-.81,11.84-6.87,14.59l-.47.15a4.77,4.77,0,0,1-.8.17,3.26,3.26,0,0,1-2.33-.56,3.2,3.2,0,0,1-.69-.11,3.56,3.56,0,0,0,3.07,1,7.19,7.19,0,0,0,.85-.18l.51-.17c2.58-1.17,4.54-3.78,5.8-7.76a30.35,30.35,0,0,0,1.3-7.15,3.57,3.57,0,0,1,2.4-3.05l.56-.19Z"/><path class="cls-11" d="M67.48,21.62a0,0,0,0,0,0,0,12.25,12.25,0,0,0-7.6,6,18,18,0,0,0-2.19,5.87c0,.47.08.94.14,1.41.22-.94.47-1.88.77-2.81a3,3,0,0,0,3.52,1.39c2.37-.73,3.19-3.51,3.49-5.69,0,0,0,0,0,0a8.42,8.42,0,0,1-2.09,4.1c-1.32,1.35-3.7,1.69-4.81-.09C60.19,27.27,62.82,23.16,67.48,21.62Z"/><path class="cls-12" d="M62.16,33.18a6.21,6.21,0,0,0,3.43-4.24,26,26,0,0,0,.72-6.76,11,11,0,0,0-2.65,1.39,15.27,15.27,0,0,0-4.51,5.57c-.47.94-.88,1.9-1.25,2.87A3.72,3.72,0,0,0,62.16,33.18Z"/><path class="cls-10" d="M60.83,33.65h0a3.83,3.83,0,0,1-3.1-1.5.2.2,0,0,1,0-.21A29,29,0,0,1,59,29a15.48,15.48,0,0,1,4.58-5.65A11,11,0,0,1,66.23,22a.24.24,0,0,1,.2,0,.22.22,0,0,1,.1.18A26.54,26.54,0,0,1,65.8,29a6.34,6.34,0,0,1-3.56,4.38A3.76,3.76,0,0,1,60.83,33.65ZM58.15,32a3.5,3.5,0,0,0,3.94,1,5.92,5.92,0,0,0,3.29-4.09,24.33,24.33,0,0,0,.7-6.38,10.45,10.45,0,0,0-2.29,1.24,15.12,15.12,0,0,0-4.45,5.5A26.85,26.85,0,0,0,58.15,32Z"/><path class="cls-13" d="M70.84,19.14s-9.36-.89-13.8,6.52C57,25.66,61.62,20.24,70.84,19.14Z"/><path class="cls-15" d="M56,15.87l-1.6,1.25c-.52.41-.86.94-1.35,1.37-.1.09-.11.36,0,.23.5-.4.86-.92,1.37-1.31s1.08-.82,1.6-1.25C56.18,16.05,56.19,15.71,56,15.87Z"/><path class="cls-15" d="M57.06,18.34l-2.72,1.48c-.11.05-.18.34,0,.26.92-.45,1.83-.91,2.72-1.41C57.19,18.6,57.27,18.22,57.06,18.34Z"/><path class="cls-15" d="M17.68,17.9a27.78,27.78,0,0,0-2.81-3s-.13.09-.08.14a39.66,39.66,0,0,1,2.76,3C17.61,18.12,17.73,18,17.68,17.9Z"/><path class="cls-15" d="M18.89,16.89l-1.44-2.62c-.05-.09-.2.09-.16.18l1.43,2.63C18.77,17.19,18.94,17,18.89,16.89Z"/><path class="cls-15" d="M35.69,4.82c0-.18-.27.07-.25.2.25,2.24.42,4.49.8,6.71,0,.18.27-.07.25-.19C36.17,9.3,36,7.06,35.69,4.82Z"/><path class="cls-15" d="M39,7.92c.05,1.23,0,2.48.08,3.71,0,.21.26,0,.26-.12,0-1.25,0-2.49-.06-3.73C39.31,7.56,39,7.77,39,7.92Z"/><path class="cls-15" d="M11.54,26a18.51,18.51,0,0,1-2.1-1.14c-.07,0-.15.11-.09.14a13.74,13.74,0,0,0,2.09,1.16C11.51,26.18,11.61,26,11.54,26Z"/><path class="cls-15" d="M11.94,25.15c-.61-.54-1.17-1.13-1.77-1.68-.1-.09-.3.2-.19.31a21.35,21.35,0,0,0,1.8,1.63C11.88,25.48,12,25.23,11.94,25.15Z"/><path class="cls-15" d="M37.72,16.93c0-.09-.16,0-.14.11a21.64,21.64,0,0,1,.26,3.87c0,.15.17,0,.17-.08,0-.65,0-1.3-.08-1.95A8,8,0,0,0,37.72,16.93Z"/><path class="cls-15" d="M39.89,18.62c0,.76-.11,1.51-.19,2.26,0,.14.17,0,.18-.06a17.71,17.71,0,0,0,.21-2.3C40.09,18.36,39.89,18.52,39.89,18.62Z"/><path class="cls-15" d="M25.45,12.07a16.16,16.16,0,0,1-1-1.83c-.05-.11-.25.11-.21.2a16,16,0,0,0,1,1.89C25.29,12.47,25.52,12.19,25.45,12.07Z"/><path class="cls-15" d="M26.08,10.45c0-.16-.27.06-.23.18a4.24,4.24,0,0,1,.21,1c0,.16.26-.06.24-.18A4.15,4.15,0,0,0,26.08,10.45Z"/><path class="cls-6" d="M15.24,23.38c-.6-.17-1.14.39-1.3.95l0,.06a1,1,0,0,0,0,.87,1.1,1.1,0,0,0,.71.64c.66.23,1.15-.51,1.29-1A1.13,1.13,0,0,0,15.24,23.38Z"/><path class="cls-6" d="M15.08,23.86c-.34-.1-.66.22-.74.54l0,0a.62.62,0,0,0,0,.5.66.66,0,0,0,.41.36c.38.13.65-.29.73-.6A.63.63,0,0,0,15.08,23.86Z"/><path class="cls-6" d="M17.88,21.47a.66.66,0,0,0-.7-.22,1.09,1.09,0,0,0-.69.78c-.08.27-.06.72.24.83l.17,0a.82.82,0,0,0,.81-.37A.92.92,0,0,0,17.88,21.47Z"/><path class="cls-6" d="M25.33,13.93a.89.89,0,0,0-1.2.2l-.06,0a.82.82,0,0,0-.29.6.86.86,0,0,0,.26.68c.37.39.95.05,1.24-.26A.86.86,0,0,0,25.33,13.93Z"/><path class="cls-6" d="M28,13.68a.48.48,0,0,0-.39-.39.8.8,0,0,0-.74.28c-.15.15-.3.47-.13.64l.11.08a.64.64,0,0,0,.68,0C27.8,14.2,28.06,14,28,13.68Z"/><path class="cls-6" d="M52.14,25.59a.89.89,0,0,0-1.2.19l0,0a.76.76,0,0,0-.29.6.83.83,0,0,0,.25.68c.37.38,1,.05,1.24-.26A.86.86,0,0,0,52.14,25.59Z"/><path class="cls-6" d="M54.75,25.1a.49.49,0,0,0-.4-.39.82.82,0,0,0-.74.29c-.14.15-.29.46-.12.64l.11.08a.65.65,0,0,0,.67,0A.71.71,0,0,0,54.75,25.1Z"/><path class="cls-6" d="M44,13.69c0-.47-.58-.71-1-.67l-.06,0a.79.79,0,0,0-.61.25.86.86,0,0,0-.27.67c0,.54.67.69,1.09.64A.85.85,0,0,0,44,13.69Z"/><path class="cls-6" d="M43.34,13.54c0-.21-.27-.32-.46-.3h0a.35.35,0,0,0-.27.11.36.36,0,0,0-.12.31c0,.24.3.3.48.28S43.36,13.77,43.34,13.54Z"/><path class="cls-6" d="M46.24,15.08a.5.5,0,0,0,0-.56.8.8,0,0,0-.74-.28c-.21,0-.53.14-.52.39a.69.69,0,0,0,0,.13c0,.23.29.42.48.47A.7.7,0,0,0,46.24,15.08Z"/><path class="cls-16" d="M22.2,25.77c.46,2-1.1,1.45-2.27,1.34a8.57,8.57,0,0,0-4,.14A3.55,3.55,0,0,0,14,28.85s-.48,1.4-.2,1.22c0,0-.09.17,0,.16h0c.05,0,.07-.08.07-.12.27-5.32,10.64.79,8.71-4.72C22.5,25,22.14,25.52,22.2,25.77Z"/><path class="cls-16" d="M40.63,18.28c-2-1.6-4.75-1-6.61.47A21.65,21.65,0,0,0,30.87,22a25.89,25.89,0,0,1-2.07,2.36c-1,.94-2-.26-2.76-.87-.1-.07-.18.15-.12.22.38.43,1.19,1.86,2,1.71,1.25-.25,2-1.47,2.81-2.4,2.41-2.92,5.66-6.38,9.75-4.31C40.61,18.73,40.73,18.37,40.63,18.28Z"/><path class="cls-17" d="M35.77,43.49c-1.87-.26-3.15,1.22-4.09,2.59,0,.06,0,.22.06.12,1.18-1.45,2.36-2.63,4.37-2.16,1.6.37,2.58,1.81,1.27,3.76a4.51,4.51,0,0,1-2.68,1.74,2.54,2.54,0,0,1-1.88-.33.65.65,0,0,0-.56,0,6.92,6.92,0,0,0-1.62,1.62c-1.09.91-2.1,2.06-3,2.87a11.72,11.72,0,0,1-4.14,2.44c-1.39.53-2.43-2.3-2.95-3.2-1.73-3-2.87-8.92,0-11.59a8.84,8.84,0,0,1,2.67-1.69h.05l0,0a7.89,7.89,0,0,1,6.09,0c.08,0,.15-.16.09-.2a5.41,5.41,0,0,0-4.17-.87c1.18-.54,2.38-1,3.64-1.44.06,0,.1-.19,0-.18a11.62,11.62,0,0,0-4.34,1.29.55.55,0,0,0,0-.16,2.53,2.53,0,0,0,0-.67,6.2,6.2,0,0,0-.15-1.32,8.51,8.51,0,0,0-1-2.7c-.49-1.06-1.57-2.9-2.88-2.91-2.63,0-3.52,2.51-3.35,4.76.18,2.42,1.91,4.71,4.47,4.62h.06l-.28.18A4,4,0,0,1,19.63,40a4,4,0,0,1-1.71-1.3s-.08.07-.06.1a3.61,3.61,0,0,0,1.79,1.76,2.44,2.44,0,0,0,1,.16c-.17.15-.33.31-.48.47h0A3,3,0,0,1,19,41a7,7,0,0,1-1-.59s-.08.07-.05.1a3,3,0,0,0,2,1c-1.66,2.08-1.57,4.8-1.18,7.56a14.08,14.08,0,0,0,2.13,5.29c.34.57,1.14,2.75,2.18,2.44a11.69,11.69,0,0,0,4.72-2.65c1.53-1.37,3.15-3.33,5.08-4.15l.15.06a2.56,2.56,0,0,0,2.18,0c1.35-.64,3-1.85,3.19-3.47S37.47,43.73,35.77,43.49Z"/><path class="cls-3" d="M24.13,36.16a9.42,9.42,0,0,1-4.74,2.67,2.86,2.86,0,0,0,.92.47c2.07.62,3.82-.54,3.92-2.47l0-.36C24.18,36.37,24.15,36.26,24.13,36.16Z"/><path class="cls-16" d="M21.41,39.69h0a4,4,0,0,1-1.16-.18,3.08,3.08,0,0,1-1-.5.21.21,0,0,1-.08-.22.23.23,0,0,1,.17-.17A9.32,9.32,0,0,0,24,36a.21.21,0,0,1,.21-.06.23.23,0,0,1,.16.17c0,.1,0,.2.07.3s0,.27,0,.4A2.93,2.93,0,0,1,21.41,39.69ZM20,38.92a2.47,2.47,0,0,0,.42.17,3.46,3.46,0,0,0,1,.16h0A2.5,2.5,0,0,0,24,36.82a1.65,1.65,0,0,0,0-.21A9.58,9.58,0,0,1,20,38.92Z"/><path class="cls-3" d="M17.5,34.66c1.06-1.32,3.14-2,4.79-2.47-.78-1-1.88-1.85-3.15-1a3.73,3.73,0,0,0-1.64,3.49Z"/><path class="cls-16" d="M17.5,34.88h-.07a.23.23,0,0,1-.15-.2A4,4,0,0,1,19,31c1.11-.71,2.3-.34,3.44,1.08a.21.21,0,0,1,0,.2.23.23,0,0,1-.15.15c-2.34.61-3.86,1.39-4.67,2.4A.21.21,0,0,1,17.5,34.88Zm2.65-3.82a1.61,1.61,0,0,0-.89.28,3.45,3.45,0,0,0-1.55,2.77,9.77,9.77,0,0,1,4.19-2A2.51,2.51,0,0,0,20.15,31.06Z"/><path class="cls-18" d="M38.81,25.81l-.45-.45.21.11s.07-.07,0-.09l-.73-.45A4.53,4.53,0,0,0,36,24a3.85,3.85,0,0,0-2.44-.15,4.16,4.16,0,0,0-3,3c-.88,3.73,1.2,8.46,5,9.66,3.21,1,6.66-2.85,6-5.93A10.54,10.54,0,0,0,38.81,25.81Z"/><path class="cls-3" d="M30.65,29a9.13,9.13,0,0,1,6.88-3.84l-.09-.07a5.12,5.12,0,0,0-4-.73A4.2,4.2,0,0,0,30.65,29Z"/><path class="cls-16" d="M30.65,29.18h-.06a.24.24,0,0,1-.16-.2,4.46,4.46,0,0,1,2.94-4.86h0A12.06,12.06,0,0,1,34.79,24a4.43,4.43,0,0,1,2.78.87l.06,0a.25.25,0,0,1,.09.25.22.22,0,0,1-.18.17,8.85,8.85,0,0,0-6.7,3.74A.23.23,0,0,1,30.65,29.18Zm2.83-4.65a3.9,3.9,0,0,0-2.64,3.78A9.51,9.51,0,0,1,36.9,25a4,4,0,0,0-2.11-.51A13.07,13.07,0,0,0,33.48,24.53Z"/><path class="cls-3" d="M37.89,33a8.47,8.47,0,0,1-5.22,1.18,5.09,5.09,0,0,0,3,2,4.85,4.85,0,0,0,5.58-3.93,5.47,5.47,0,0,0-.17-2A8.89,8.89,0,0,1,37.89,33Z"/><path class="cls-16" d="M36.49,36.44a4.47,4.47,0,0,1-.82-.07,5.24,5.24,0,0,1-3.17-2.1.21.21,0,0,1,0-.25.21.21,0,0,1,.23-.1,4.17,4.17,0,0,0,.88.09,9.64,9.64,0,0,0,4.2-1.24,8.77,8.77,0,0,0,3.14-2.69.24.24,0,0,1,.22-.1.26.26,0,0,1,.18.16,5.82,5.82,0,0,1,.18,2.1A5,5,0,0,1,36.49,36.44Zm-3.29-2a4.67,4.67,0,0,0,2.55,1.51,4.53,4.53,0,0,0,.74.07,4.63,4.63,0,0,0,4.58-3.81A5.27,5.27,0,0,0,41,30.72a9.53,9.53,0,0,1-3,2.43,10,10,0,0,1-4.41,1.29Z"/><path class="cls-18" d="M42.39,31.29c.33,3.72-3.18,6.14-6.57,6.08,0,0-.1.14,0,.15,3.5.73,7.61-2.49,6.69-6.28C42.45,31.18,42.39,31.25,42.39,31.29Z"/><path class="cls-18" d="M17.22,31.91a2.75,2.75,0,0,0-.57,1,1.77,1.77,0,0,0-.21,1s0,0,.07,0a4,4,0,0,0,.31-.74,3.89,3.89,0,0,1,.27-.54,2.77,2.77,0,0,0,.26-.48C17.37,32,17.33,31.8,17.22,31.91Z"/><path class="cls-18" d="M38.08,23.88a2.1,2.1,0,0,0-.81-.39,6.45,6.45,0,0,0-1-.21s-.06.06,0,.08c.3.15.61.28.9.44l.44.23c.13.07.22.18.36.16A.21.21,0,0,0,38.08,23.88Z"/><path class="cls-17" d="M47.08,39.41c-.15-.07-.51.18-.36.33,2,2.21,2.18,6.1,2,8.88a15.81,15.81,0,0,1-4,9.06c-2.46,2.78-6,4.11-9.48,5-.51.14-1,.25-1.52.36h-.05a.2.2,0,0,0-.16,0l-1.26.23a23.82,23.82,0,0,1-4.82.82,22.85,22.85,0,0,0,6.64-.59,23.94,23.94,0,0,0,5.13.65,19.93,19.93,0,0,0,5.61-1.14,13.17,13.17,0,0,0,8.07-6.5C55.85,50.57,53.27,42.16,47.08,39.41Z"/><path class="cls-17" d="M49.1,38.13A2.8,2.8,0,0,0,47.37,37c-.48-.11-1.39-.14-1.72.31-1,1.34.12,3.54.57,4.9,0,.06.12,0,.11-.08a13,13,0,0,1-.57-3.75c.13-1.71,2.27-.38,3,.09C48.91,38.6,49.22,38.28,49.1,38.13Z"/><path class="cls-17" d="M57.1,53.48c0-.06-.14.05-.13.1.82,3.18-.24,5.48-2.72,7.48-.09.08-.18.42,0,.32C57.32,60.05,58.91,56.34,57.1,53.48Z"/><path class="cls-6" d="M59.9,42.78c-.59-.17-1.14.39-1.29.95l0,.06a1.08,1.08,0,0,0,0,.88,1.14,1.14,0,0,0,.71.63c.67.23,1.15-.51,1.29-1A1.13,1.13,0,0,0,59.9,42.78Z"/><path class="cls-6" d="M62.55,50.81a.63.63,0,0,0-.7-.22,1.05,1.05,0,0,0-.69.78c-.08.26-.07.72.24.82a.47.47,0,0,0,.17,0c.3.1.65-.16.81-.37A.92.92,0,0,0,62.55,50.81Z"/><path class="cls-6" d="M64.56,46a.17.17,0,0,0-.19-.06.28.28,0,0,0-.19.22c0,.07,0,.2.06.23h.05c.08,0,.18,0,.23-.1A.26.26,0,0,0,64.56,46Z"/><path class="cls-6" d="M59.14,51.24a.36.36,0,0,0-.4-.12.62.62,0,0,0-.41.45c0,.15,0,.42.14.48l.1,0a.52.52,0,0,0,.48-.22A.55.55,0,0,0,59.14,51.24Z"/><path class="cls-6" d="M16.13,53.88c-.47-.13-.91.31-1,.75l0,0a.86.86,0,0,0,0,.7.91.91,0,0,0,.56.51c.53.18.92-.41,1-.84A.89.89,0,0,0,16.13,53.88Z"/><path class="cls-6" d="M18.23,60.25a.5.5,0,0,0-.56-.17.83.83,0,0,0-.55.62c-.06.2-.05.57.19.65a.34.34,0,0,0,.14,0c.23.08.51-.12.64-.3A.72.72,0,0,0,18.23,60.25Z"/><path class="cls-6" d="M19.82,56.41a.12.12,0,0,0-.15,0,.22.22,0,0,0-.15.17c0,.06,0,.16.05.18h0c.06,0,.14,0,.18-.08A.21.21,0,0,0,19.82,56.41Z"/><path class="cls-6" d="M15.53,60.6a.3.3,0,0,0-.33-.11.52.52,0,0,0-.32.37c0,.12,0,.33.11.38h.08c.14,0,.3-.07.38-.17A.43.43,0,0,0,15.53,60.6Z"/><path class="cls-6" d="M42.58,44.89c-.47-.13-.9.31-1,.75l0,.06a.83.83,0,0,0,0,.69,1,1,0,0,0,.57.51c.52.18.91-.41,1-.83A.9.9,0,0,0,42.58,44.89Z"/><path class="cls-6" d="M24.9,41.24c-.47-.14-.91.31-1,.75l0,0a.86.86,0,0,0,0,.7.87.87,0,0,0,.56.5c.53.19.92-.4,1-.83A.9.9,0,0,0,24.9,41.24Z"/><path class="cls-6" d="M21.81,41.39c-.3-.09-.58.2-.66.49l0,0a.54.54,0,0,0,0,.45.58.58,0,0,0,.37.33c.34.12.59-.26.67-.54A.58.58,0,0,0,21.81,41.39Z"/><path class="cls-6" d="M16.78,36.46c-.48-.13-.91.32-1,.76l0,.05a.82.82,0,0,0,0,.7.89.89,0,0,0,.56.51c.53.19.92-.41,1-.84A.9.9,0,0,0,16.78,36.46Z"/><path class="cls-6" d="M41.84,25.14c-.47-.14-.91.31-1,.75a.21.21,0,0,0,0,.06.86.86,0,0,0,0,.7.91.91,0,0,0,.56.51c.54.18.93-.41,1-.84A.9.9,0,0,0,41.84,25.14Z"/><path class="cls-6" d="M17.38,39.31c-.35-.1-.67.23-.76.55a.08.08,0,0,0,0,0,.57.57,0,0,0,0,.51.68.68,0,0,0,.41.37c.39.14.68-.3.76-.61A.65.65,0,0,0,17.38,39.31Z"/><path class="cls-6" d="M36.94,53.09a.52.52,0,0,0-.56-.18.86.86,0,0,0-.55.63c-.06.2,0,.57.19.65l.14,0c.23.08.51-.12.64-.3A.72.72,0,0,0,36.94,53.09Z"/><path class="cls-6" d="M38.53,49.25a.14.14,0,0,0-.15,0,.26.26,0,0,0-.16.18s0,.15.06.18h0a.18.18,0,0,0,.18-.08A.2.2,0,0,0,38.53,49.25Z"/><path class="cls-6" d="M34.23,53.44a.28.28,0,0,0-.32-.11.5.5,0,0,0-.32.37c0,.12,0,.33.11.38h.08a.41.41,0,0,0,.38-.17A.41.41,0,0,0,34.23,53.44Z"/><path class="cls-19" d="M120.07,90.53a3.09,3.09,0,0,0,1.62-.58.44.44,0,0,0,.17-.45,4.61,4.61,0,0,0-2.15-2.19c-.29-.19-1-.63-1.72-1,1.65-.25,3.58-.89,3.93-1.88.51-1.43-2.91-2-5.26-2.43a17.27,17.27,0,0,0,2-.75c.83-.35,2.34-.75,2.84-1.62.94-1.67-2.82-2.16-5-2.36a4.9,4.9,0,0,0,2.39-1.46c.08-.09.17-.26.1-.38-.49-.91-2.4-.39-3.54-.21,1.91-1.41,5.12-3.29,5.42-5.46.4-3-3.12-2.32-5.18-1.72a4,4,0,0,0,1.16-1.55c0-.08,0-.2,0-.26-.34-.27-.5-.23-1,0a6.92,6.92,0,0,0-.86.38c-.11.07-1.26.81-.78.39a19.36,19.36,0,0,0,3.47-3.65c2.42-3.54-3.18-2.84-5.56-2.36a7.63,7.63,0,0,0,2.18-2.75.26.26,0,0,0,0-.27l-.17-.18a.19.19,0,0,0-.19,0,12.32,12.32,0,0,0-2.12,1.13c.78-.81,1.54-1.64,2.27-2.51s1.55-1.62,1.6-2.64c0-.09,0-.19-.11-.21-.66-.18-2.45.89-4.26,2.18-.65.42-1.29.87-1.95,1.32a16.74,16.74,0,0,0-2.57,2.18l-.28.26a8.81,8.81,0,0,0-3.47-.08,6.45,6.45,0,0,0-2.24.58,7.41,7.41,0,0,0-1.65-2c-.17-.11-.4.13-.44.27A5.16,5.16,0,0,0,99,61.32c.15.42.41,1.27.84,1.36-.84-.18-1.57-.74-2.43-.85a.4.4,0,0,0-.4.36c-.16,1.21,1.43,2.56,2.52,3.46-1.06,0-2.68,0-2.55,1,.18,1.25,1.94,2.88,3.44,3.76l-1,.12c-.33,0-.8.19-.92.54-.27.75,1.14,1.69,2,2.3-1.52.3-3.32.76-3.86,2.32-.3.84.92,1.35,2.15,1.62a5.9,5.9,0,0,0-2,1.32c-.76.87,1.65,1.45,3,1.71C97.76,81.24,95,82.71,95,85a.24.24,0,0,0,.06.11,6.59,6.59,0,0,0,3.66.15c-1.72.91-3.94,2.35-3.39,3.6a.14.14,0,0,0,.15.08,2.31,2.31,0,0,0,1.24-.17l.56-.19c-2.62,2.41-5.13,5.84-.89,4.83-1.2.83-2.43,1.88-2.1,2.61s1.7.52,2.78.21a17.94,17.94,0,0,0-4.64,5.4c-.65,1.19.12,1.33,1.16,1.12-1.54.91-3,2-2.83,3.24s4.27-.11,4.92-.3a10.86,10.86,0,0,1,5.6.11,39.57,39.57,0,0,0,6.52.64,25.5,25.5,0,0,0,10.57-1.82c1.64-.33,4-1.06,3.76-2.63-.14-1.12-.86-1.31-1.85-1.44a2.55,2.55,0,0,0,.7-.73c.49-.83-.26-1.51-1.3-2,.57-.06,1.5-.21,1.7-.82.35-1.1-1.75-2-3.56-2.59,1.15,0,2.3-.07,3.45-.1.85,0,1.49-.09,1.93-.86C123.91,92.22,121.74,91.17,120.07,90.53Z"/><path class="cls-20" d="M122.57,93.24c-.23.82-1.52.85-2.18.87-1.18,0-2.35,0-3.52,0a9.87,9.87,0,0,0,1.38.77c.66.28,2.15.63,2.41,1.38s-1,1.11-2.23,1.24l.82.51c.46.28,1.21.67,1.22,1.3a.42.42,0,0,1-.06.34,2.31,2.31,0,0,1-1.16,1.19c1.24.1,2.44.37,2.15,1.46-.18.68-1.28,1.11-1.87,1.26l-.63.16c-6,2.54-12.54,2.33-18.88,1-.47,0-1-.08-1.43-.11a7.93,7.93,0,0,0-2.38.18c-.63.2-1.23.43-1.71.56h-.06a4.57,4.57,0,0,1-.72.14c-1.15.18-3,.34-1.87-.76a28.44,28.44,0,0,1,4.66-3,.73.73,0,0,0,.24-.43c-.58.25-1.15.51-1.74.74-.43.18-1.44.75-1.9.4-.74-.56.25-1.88,1.24-2.93l.06-.08a18.69,18.69,0,0,1,4-3.66,1,1,0,0,0,.28-.54c-.69.16-1.37.33-2.07.45-.3,0-1.05.21-1.22-.2s.16-.94.56-1.24c.77-.58,1.55-1.16,2.28-1.81a12.6,12.6,0,0,1-2.43.37L95.2,93c-.41,0-.47-.19-.35-.52a.55.55,0,0,1,0-.17,6.74,6.74,0,0,1,1.55-2.06c.75-.87,1.59-1.67,2.31-2.57l-1.14.44c-.5.18-1.31.67-1.66,0s.92-1.24,1.2-1.45a21.3,21.3,0,0,1,3-1.85c-1.06,0-2.13,0-3.19.08-.49,0-1.11.08-1.31-.46s1.11-1.6,1.65-2c.31-.3.56-.53.64-.59a6.91,6.91,0,0,1,.82-.5,16.4,16.4,0,0,1,2-1.23l-2.08-.54c-.37-.1-1.21-.32-1.12-.88-.05,0-.06-.09,0-.12l0,0c.27-.6,1.36-1,2-1.3a4.84,4.84,0,0,1-1.86-1c-1.7-1.55,2.34-2.39,3.9-2.78a.48.48,0,0,0,.08-.18,15.64,15.64,0,0,0-1.53-1c-.42-.27-1.3-.74-.93-1.36.13-.23.5-.24.72-.3l1.09-.33.15,0c-.58-.46-1.14-1-1.73-1.4A4.5,4.5,0,0,1,97.66,67c-.33-1.11,1.56-1.08,2.84-.89.09-.12.15-.27,0-.36-.67-.59-1.3-1.23-1.93-1.85-.92-.91-1.74-1.65-.48-1.12.58.25,1.48.84,2.07.38l0,0a10.91,10.91,0,0,1-.49-1.21,16.36,16.36,0,0,1-1-3,.29.29,0,0,1,.47-.28c.8.63,1.25,1.94,2.24,2.34a6.55,6.55,0,0,1-.61-.78,14.79,14.79,0,0,1,2.27-.27,12.24,12.24,0,0,1,2.58.12,1.21,1.21,0,0,0-.18.18l.18-.18h0s-.34.49-.6.85a.39.39,0,0,1-.1.08l.57-.32.72-.52.79-.56a24.35,24.35,0,0,1,2.71-2.15l.46-.31.06-.05c.82-.67,1.75-1.25,2.55-1.94A5.4,5.4,0,0,1,114.65,54a.28.28,0,0,1,.34.34,5.63,5.63,0,0,1-1.58,2,35.65,35.65,0,0,1-2.79,3c-.18.22-.36.44-.52.66a.41.41,0,0,0,0,.11c.47-.31.94-.61,1.43-.89a8,8,0,0,1,1.76-1,.29.29,0,0,1,.35.35c-.42,1.25-1.59,2.1-2.55,3.06,0,.08.09.13.23.09,2.12-.51,8.66-1.69,5,2.57a16.09,16.09,0,0,1-1.77,1.59,5.88,5.88,0,0,0-1,1.83l.76-.43a3.05,3.05,0,0,1,1.58-.67.29.29,0,0,1,.27.36,3.44,3.44,0,0,1-1,1.49c1.9-.68,4.08-1.14,5.05.43s-1.08,3-2.4,3.93c-.53.44-1.08.85-1.63,1.27a14.83,14.83,0,0,0-1.4,1.46l.64,0a7.75,7.75,0,0,1,2.58-.09.29.29,0,0,1,.17.41c-.34.56-.93.67-1.47.95s-1,.54-1.53.78c1.07.12,2.13.37,3.2.59.44.1,2.43.14,2.54.83.14.92-1.24,1.52-1.91,1.83A19,19,0,0,1,115.48,82c.48.14.94.29,1.34.38,1.09.24,3.69.29,4.35,1.41s-2.27,2-4.47,2.43c.54.3,1.07.62,1.6.94.75.47,2.29,1,2.72,1.86s-.82,1.23-2,1.3c.83.5,1.62,1.08,2.41,1.55C121.88,92.13,122.75,92.58,122.57,93.24Z"/><path class="cls-21" d="M101.47,105.09c4.23-5.69,5.93-13.43,6.22-20.28.36-8.37-.66-17.35-4.5-24.9h0a14.79,14.79,0,0,0-2.27.27,6.55,6.55,0,0,0,.61.78,2.68,2.68,0,0,1-1-.85,61.78,61.78,0,0,1,2.21,10.32,53.84,53.84,0,0,1,.44,12.87,63,63,0,0,1-3,13.64,38.34,38.34,0,0,1-2.55,6.1c-.32.6-.66,1.19-1,1.77a8.89,8.89,0,0,1,2-.1c.48,0,1,.06,1.43.11Z"/><path class="cls-21" d="M121.45,91.86c-.79-.47-1.58-1-2.41-1.55,1.16-.07,2.46-.37,2-1.3s-2-1.39-2.72-1.86c-.53-.32-1.06-.64-1.6-.94,2.2-.44,5.14-1.29,4.47-2.43s-3.26-1.17-4.35-1.41c-.4-.09-.86-.24-1.34-.38a19,19,0,0,0,3.46-1.22c.67-.31,2-.91,1.91-1.83-.11-.69-2.1-.73-2.54-.83-1.07-.22-2.13-.47-3.2-.59.51-.24,1-.52,1.53-.78s1.13-.39,1.47-.95a.29.29,0,0,0-.17-.41,7.75,7.75,0,0,0-2.58.09l-.45,0a.26.26,0,0,1,.06.25c-.35,1-1.56,1.57-2.54,2a17.55,17.55,0,0,1,2.5.2,6.69,6.69,0,0,1,3,.9c1,.77-.64,1.78-1.22,2a18.89,18.89,0,0,1-2.54,1,6.11,6.11,0,0,1,2.34.9c2.14,1.43-1.53,2.42-3.62,2.87a3.85,3.85,0,0,1,.9.36.27.27,0,0,1,0,.45,4.74,4.74,0,0,1-1.59.75,9.07,9.07,0,0,1,3.28.49c.67.27,2.72,1.5,1.81,2.47a1.79,1.79,0,0,1-.25.22c1.19.22,2.22.68,2.49,1.77a.26.26,0,0,1-.18.32,14.18,14.18,0,0,1-4.43.73c2.31,1.16,4.77,2.79,2.88,3.79a6.21,6.21,0,0,1-2.85.53c1.67,1,3.15,2.37,1.62,3.1a6,6,0,0,1-1.84.49,2,2,0,0,1,.76.79c.52,1.08-.79,1.44-1.62,1.59a33.62,33.62,0,0,1-7,.63,26.67,26.67,0,0,1-4.09-.35,22.61,22.61,0,0,0-4.32-.62.27.27,0,0,1-.19-.45c1.26-1.24,2.62-2.36,3.93-3.54-2,.38-3.71,1.7-5.78,1.8a.27.27,0,0,1-.26-.34c.69-2,2.64-3.42,4.25-4.73l.92-.75a9.66,9.66,0,0,1-3.37-.65.26.26,0,0,1-.09-.36,7.63,7.63,0,0,1,2-2.33,12.74,12.74,0,0,1-2.76-.06.26.26,0,0,1-.19-.32,8.61,8.61,0,0,1,4-4.2c-.71,0-1.42,0-2.12-.07a.27.27,0,0,1-.14-.5,22.64,22.64,0,0,1,2.73-1.75c-1.77-.69-4.09-1.47-2.48-3.11a10,10,0,0,1,3.75-2.15h0a6.28,6.28,0,0,1-2.36-1.67.29.29,0,0,1,0-.33,6.32,6.32,0,0,1,3.13-1.14c-.81-.23-1.67-.27-2.5-.46a.26.26,0,0,1-.06-.48,14.43,14.43,0,0,1,3.77-1c-1.15-1-3-1.15-3.87-2.54a.27.27,0,0,1,.16-.39c.93-.25,1.87-.4,2.81-.57-1.47-1.31-3.66-1.64-4.72-3.43a.27.27,0,0,1,.16-.39,8.69,8.69,0,0,1,3.48-.22c-.79-.91-1.76-1.65-2.58-2.55-.16-.18,0-.54.26-.44a7.62,7.62,0,0,0,1.28.35,18.57,18.57,0,0,1-2.46-4c.17.5.36,1,.55,1.49a10.91,10.91,0,0,0,.49,1.21l0,0c-.59.46-1.49-.13-2.07-.38-1.26-.53-.44.21.48,1.12.63.62,1.26,1.26,1.93,1.85.1.09,0,.24,0,.36-1.28-.19-3.17-.22-2.84.89a4.5,4.5,0,0,0,1.78,1.94c.59.45,1.15.94,1.73,1.4l-.15,0-1.09.33c-.22.06-.59.07-.72.3-.37.62.51,1.09.93,1.36a15.64,15.64,0,0,1,1.53,1,.48.48,0,0,1-.08.18c-1.56.39-5.6,1.23-3.9,2.78a4.84,4.84,0,0,0,1.86,1c-.64.29-1.73.7-2,1.3l0,0c-.06,0-.05.07,0,.12-.09.56.75.78,1.12.88l2.08.54a16.4,16.4,0,0,0-2,1.23,6.91,6.91,0,0,0-.82.5c-.08.06-.33.29-.64.59-.54.39-1.91,1.32-1.65,2s.82.49,1.31.46c1.06-.06,2.13-.06,3.19-.08a21.3,21.3,0,0,0-3,1.85c-.28.21-1.51.92-1.2,1.45s1.16.14,1.66,0l1.14-.44c-.72.9-1.56,1.7-2.31,2.57a6.74,6.74,0,0,0-1.55,2.06.55.55,0,0,0,0,.17c-.12.33-.06.55.35.52l.64-.08a12.6,12.6,0,0,0,2.43-.37c-.73.65-1.51,1.23-2.28,1.81-.4.3-.78.74-.56,1.24s.92.25,1.22.2c.7-.12,1.38-.29,2.07-.45a1,1,0,0,1-.28.54,18.69,18.69,0,0,0-4,3.66l-.06.08c-1,1-2,2.37-1.24,2.93.46.35,1.47-.22,1.9-.4.59-.23,1.16-.49,1.74-.74a.73.73,0,0,1-.24.43,28.44,28.44,0,0,0-4.66,3c-1.14,1.1.72.94,1.87.76a4.57,4.57,0,0,0,.72-.14h.06c.48-.13,1.08-.36,1.71-.56a7.93,7.93,0,0,1,2.38-.18c.48,0,1,.06,1.43.11,6.34,1.28,12.88,1.49,18.88-1l.63-.16c.59-.15,1.69-.58,1.87-1.26.29-1.09-.91-1.36-2.15-1.46a2.31,2.31,0,0,0,1.16-1.19.42.42,0,0,0,.06-.34c0-.63-.76-1-1.22-1.3l-.82-.51c1.19-.13,2.49-.47,2.23-1.24s-1.75-1.1-2.41-1.38a9.87,9.87,0,0,1-1.38-.77c1.17,0,2.34,0,3.52,0,.66,0,2,0,2.18-.87C122.75,92.58,121.88,92.13,121.45,91.86Z"/><path class="cls-21" d="M107.09,62.29c1.45-.6,2.47-2,4.12-2.23a.27.27,0,0,1,.26.34,9.09,9.09,0,0,1-1.69,2.75c.83-.34,1.66-.7,2.51-1s2.59-.84,3.31.21-1.26,3-1.95,3.69a33.73,33.73,0,0,1-4.23,3.34,8.17,8.17,0,0,1,3.76-1.32.27.27,0,0,1,.23.4,5.62,5.62,0,0,1-1.85,2c2.46-1,6.63-2.56,6.52-.69-.1,1.61-2.37,3-3.47,4-.66.56-1.34,1.11-2,1.62a5.53,5.53,0,0,1,2.22,0h0A14.45,14.45,0,0,1,116.12,74c.55-.42,1.1-.83,1.63-1.27,1.32-.88,3.35-2.37,2.4-3.93s-3.15-1.11-5.05-.43a3.44,3.44,0,0,0,1-1.49.29.29,0,0,0-.27-.36,3.05,3.05,0,0,0-1.58.67l-.76.43a5.88,5.88,0,0,1,1-1.83,16.09,16.09,0,0,0,1.77-1.59c3.63-4.26-2.91-3.08-5-2.57-.14,0-.21,0-.23-.09,1-1,2.13-1.81,2.55-3.06a.29.29,0,0,0-.35-.35,8,8,0,0,0-1.76,1c-.49.28-1,.58-1.43.89a.41.41,0,0,1,0-.11c.16-.22.34-.44.52-.66a35.65,35.65,0,0,0,2.79-3,5.63,5.63,0,0,0,1.58-2,.28.28,0,0,0-.34-.34,5.4,5.4,0,0,0-1.73,1.15l-.09.07a12.85,12.85,0,0,1-1.94,2.44A28.42,28.42,0,0,0,107.09,62.29Z"/><path class="cls-22" d="M113.57,62.73c-1.37.62-2.76,1.2-4.14,1.79-.54.23-1.91,1.11-2.85,1.46.27-.33.59-.64.82-.92.79-1,1.48-2,2.36-2.84.18-.18.45-1-.09-.74a25.3,25.3,0,0,0-2.59,1.33A9.55,9.55,0,0,1,104.69,64,24.77,24.77,0,0,1,106.17,62a14.25,14.25,0,0,0,2.71-2.66c.13-.17.1-.51-.18-.34a33.46,33.46,0,0,0-2.82,1.93,3,3,0,0,1-3,.58,18,18,0,0,1-2.11-.81c-.14-.06-.33.22-.22.33,1.17,1.2,2.57,2.54,4.29,1.77a12.63,12.63,0,0,0-1.33,1.75c-.1.16-.2.59.09.65a5.07,5.07,0,0,0,3.14-1,9,9,0,0,0-1.95,2.74.67.67,0,0,0,0,.52,11.92,11.92,0,0,1-3.9-.11c-.51-.11-1.4.87-.88,1.28,2.21,1.78,4,2.89,6.78,1.38a20,20,0,0,0,7.13-6.59C114.1,63.12,114,62.52,113.57,62.73Z"/><path class="cls-22" d="M116,69.94a7.11,7.11,0,0,0-1.76.89A28.53,28.53,0,0,1,109.44,72c-.51.08-1.37.22-2.23.28l.38-.15c1.36-.57,2.4-1.71,3.7-2.3.07,0,.24-.2.13-.29-.5-.36-1.75.37-2.22.53a25.32,25.32,0,0,1-3.48,1.15,9.74,9.74,0,0,0-2.67.88c-.16.08-.42.48-.15.59a4.37,4.37,0,0,0,2.35.17,7.48,7.48,0,0,0,3.57.65l-1.69.94a7.81,7.81,0,0,0-1.88.76.34.34,0,0,0-.12.12l-.27.08c-.09,0-.24.24-.1.28a2.17,2.17,0,0,0,.62.1c4.29,1.22,8.22-2.3,10.82-5.36C116.36,70.2,116.32,69.8,116,69.94Z"/><path class="cls-22" d="M115.64,79.28c-1.15-1.2-4.3-1.15-5.82-1.38l-.37,0a5.28,5.28,0,0,0,1.36-.83c.1-.09.32-.45.07-.51a10.23,10.23,0,0,0-3.67.39,22.1,22.1,0,0,0-4.12.82c-.19.08-.8.71-.42.9a3.68,3.68,0,0,0,2.14.23l.22,0c1.25.08,2.49.14,3.73.31a18.27,18.27,0,0,0-2.59.4c-1.39.33-4.26,1.29-5.21,2.48-.1.12-.35.66,0,.69a7.36,7.36,0,0,0,1,0c-.16.29-.19.58.07.72l.14.07h0a12.81,12.81,0,0,0,4.53,1.26c-2.07.21-4.23.84-5.71,1.09-.15,0-.44.35-.21.44,1.47.59,3.2.29,4.75.26a17.46,17.46,0,0,1,3,0,3.82,3.82,0,0,0,2.25-.1c.26-.09.76-.65.43-.91a4,4,0,0,0-1.6-.73l.69,0c1.37,0,3.76-.06,4.27-1.66.06-.18.12-.5-.09-.64-1.36-.91-3.29-1-4.88-1.15l-.64-.06c2.17-.32,4.44-.38,6.42-1.45C115.59,79.83,115.82,79.48,115.64,79.28Zm-4.08,4a4.21,4.21,0,0,1,.42.12l-.53.08A2,2,0,0,0,111.56,83.25Z"/><path class="cls-22" d="M116.53,95.19c-.94-1.23-2.65-1.58-4-2.14a6.28,6.28,0,0,0-.83-.29,8.87,8.87,0,0,0,1-.21c.3-.09.71-.69.31-.89a7.17,7.17,0,0,0-1.28-.44,8.54,8.54,0,0,0,2.61-.83.8.8,0,0,0,.41-.87c-.43-1.46-4.85-1.43-6-1.51a17.71,17.71,0,0,0-9.11,1.64c-.16.08-.45.64-.08.6,1-.09,2-.22,3-.34a.44.44,0,0,0,.19.12,44.49,44.49,0,0,0,4.55,1.09l-.36,0a21.21,21.21,0,0,0-3.08.36c-1.23.28-2.17,1-3.34,1.36-.08,0-.28.26-.15.34.34.22.66.1,1.08.06,1.06-.13,2.09-.25,3.15-.32-.11.28-.1.54.11.68a18.37,18.37,0,0,0,5.15,2.56,22.26,22.26,0,0,0,5.7.39C116,96.59,116.9,95.66,116.53,95.19Z"/><path class="cls-22" d="M115.56,98.79c-2.47-2.17-7.36-3.41-10.53-2.29-.12,0-.38.37-.16.45l.37.16a0,0,0,0,1,0,0c.71,1.34,2.64,1.94,3.94,2.56,1.63.78,3.75.54,5.51.61C115.25,100.34,116.08,99.25,115.56,98.79Z"/><path class="cls-22" d="M111.75,101.5c-1.66-.29-3.25-.24-4.93-.37-1.18-.09-2.9-.84-4-.52a.36.36,0,0,0-.25.35c.35,1.46,2.71,1.7,3.88,1.8a8.62,8.62,0,0,0,5.24-.88C111.74,101.84,112,101.53,111.75,101.5Z"/><path class="cls-23" d="M104.65,67.24c-.33-1.26-.75-2.48-1.18-3.72s-.71-2.79-1.75-3.54-1.06.2-.76,1,.56,1.89.91,2.8a43.45,43.45,0,0,1,1.8,5.92,49.21,49.21,0,0,1,1.39,12.44,45.06,45.06,0,0,1-1.83,11.3,54.13,54.13,0,0,1-2,5.24,27.5,27.5,0,0,1-1.54,3c-.44.8-1,2.18-1.82,2.64s-.89,2,.17,1.35c1.38-.77,2-2.37,2.8-3.68a43.66,43.66,0,0,0,2.87-6.31,44.38,44.38,0,0,0,2.74-14A49.18,49.18,0,0,0,104.65,67.24Z"/><path class="cls-24" d="M97.66,106h0a.52.52,0,0,1-.53-.42,1.48,1.48,0,0,1,.67-1.47,5,5,0,0,0,1.44-2c.1-.21.2-.4.29-.56l.13-.23a26.4,26.4,0,0,0,1.39-2.76l.27-.64a45.66,45.66,0,0,0,1.7-4.58,44.77,44.77,0,0,0,1.82-11.24,49.67,49.67,0,0,0-1.38-12.39,44.31,44.31,0,0,0-1.79-5.89c-.18-.47-.32-.95-.46-1.41s-.28-.94-.46-1.39c-.08-.21-.33-1-.06-1.34s.61-.29,1.16.11a5.46,5.46,0,0,1,1.62,3c.07.23.14.46.21.67l0,.11c.4,1.18.82,2.39,1.14,3.62a48.4,48.4,0,0,1,1.84,14.44A44.78,44.78,0,0,1,104,95.74a43.78,43.78,0,0,1-2.89,6.34c-.14.24-.27.48-.41.74a7,7,0,0,1-2.47,3A1.1,1.1,0,0,1,97.66,106Zm3.44-46.08s0,0,0,0a1.36,1.36,0,0,0,.11.94c.18.46.33.94.47,1.41s.28.93.45,1.38a45.22,45.22,0,0,1,1.8,6,49.64,49.64,0,0,1,1.4,12.5,44.75,44.75,0,0,1-1.84,11.35,45.76,45.76,0,0,1-1.72,4.63l-.26.64a26.23,26.23,0,0,1-1.42,2.8l-.13.23c-.09.16-.18.35-.28.54A5.16,5.16,0,0,1,98,104.5a1,1,0,0,0-.45,1c0,.1.06.1.1.1h0a.71.71,0,0,0,.3-.11,6.7,6.7,0,0,0,2.3-2.85q.21-.39.42-.75a43,43,0,0,0,2.86-6.28,44.46,44.46,0,0,0,2.72-14,47.88,47.88,0,0,0-1.83-14.31c-.31-1.21-.73-2.42-1.13-3.58l0-.12c-.08-.21-.15-.44-.22-.68a5.25,5.25,0,0,0-1.45-2.76A1,1,0,0,0,101.1,59.92Z"/><path class="cls-23" d="M110.94,86.88h0a10.14,10.14,0,0,0-1.6-1.74,39.45,39.45,0,0,1-3.22-4l-.07-.06a1,1,0,0,0,.16-.25,5.28,5.28,0,0,1,1.86-2.09c.67-.5,1.85-1,2-1.93.06-.36,0-.69-.47-.5a8.23,8.23,0,0,0-2.57,2.13,4.92,4.92,0,0,0-1.4,2.45c0,.11,0,.21,0,.27a.75.75,0,0,0-.25.5A7,7,0,0,0,107.09,85c.72.94,1.72,2.77,3,3C110.65,88.13,111.11,87.26,110.94,86.88Z"/><path class="cls-24" d="M110.15,88.25H110c-1.08-.2-1.94-1.45-2.63-2.45-.16-.23-.31-.45-.45-.63a6.89,6.89,0,0,1-1.69-3.48.9.9,0,0,1,.19-.53.49.49,0,0,1,0-.29,5.12,5.12,0,0,1,1.44-2.56,8.75,8.75,0,0,1,2.66-2.18.52.52,0,0,1,.65.08.81.81,0,0,1,.12.65c-.12.83-.92,1.33-1.56,1.73-.19.12-.37.23-.52.34a5.2,5.2,0,0,0-1.78,2,1.19,1.19,0,0,1-.09.15A39.21,39.21,0,0,0,109.53,85c.16.17.33.33.51.5a5.43,5.43,0,0,1,1.12,1.28.25.25,0,0,1,0,.17,1.22,1.22,0,0,1-.21.81A1,1,0,0,1,110.15,88.25Zm-4.24-7a.24.24,0,0,1-.06.11.62.62,0,0,0-.19.34,6.72,6.72,0,0,0,1.61,3.24c.14.18.29.4.46.64.64.94,1.45,2.1,2.35,2.26h.07a.61.61,0,0,0,.46-.31.63.63,0,0,0,.13-.53.29.29,0,0,1,0-.09,5.81,5.81,0,0,0-1-1.08c-.18-.17-.37-.34-.53-.52a39.08,39.08,0,0,1-3.24-4A.17.17,0,0,1,105.91,81.21Zm-.06-.2,0,0a.24.24,0,0,1,0-.1.56.56,0,0,0,.12-.18A5.44,5.44,0,0,1,108,78.57a6.57,6.57,0,0,1,.55-.36c.59-.38,1.26-.8,1.36-1.42,0-.21,0-.29,0-.3a.37.37,0,0,0-.15,0,8,8,0,0,0-2.5,2.07,4.83,4.83,0,0,0-1.34,2.33s0,0,0,.06A0,0,0,0,0,105.85,81Z"/><path class="cls-25" d="M107.21,79.31a3.32,3.32,0,0,0-1.11,1.74.59.59,0,0,0,.14-.21,5.28,5.28,0,0,1,1.86-2.09c.67-.5,1.85-1,2-1.93a1,1,0,0,0,0-.35A38.59,38.59,0,0,0,107.21,79.31Z"/><path class="cls-25" d="M110.94,86.88h0a10.14,10.14,0,0,0-1.6-1.74,39.45,39.45,0,0,1-3.22-4l-.05,0a2,2,0,0,0,.31,1.17c.38.65.79,1.26,1.23,1.87.73,1,2.24,2.44,2.7,3.84A1,1,0,0,0,110.94,86.88Z"/><path class="cls-26" d="M44.86,62.52a21.26,21.26,0,0,1-5.46,1.15,15.51,15.51,0,0,1-4.14-.37,19.49,19.49,0,0,0,9.53-5c4.39-4.41,6-12.48,2.85-18a13.28,13.28,0,0,1,5.51,13.46C52.37,58.35,49,61,44.86,62.52Z"/><path class="cls-27" d="M49.34,55.35a14,14,0,0,0-.24,4.93,10,10,0,0,0,4-6.52,14.38,14.38,0,0,0,.12-4A8.06,8.06,0,0,0,49.34,55.35Z"/><path class="cls-28" d="M39.52,63.29c.91,0,.76-.85.49-1.63a20.18,20.18,0,0,1-2.51,1A4,4,0,0,0,39.52,63.29Z"/><path class="cls-28" d="M44.31,61.73a3.33,3.33,0,0,0-.92-2.15A16.82,16.82,0,0,1,41.31,61C42.28,61.69,44.15,62.76,44.31,61.73Z"/><path class="cls-28" d="M51.2,49.12c.32-.68-.89-1-2-1.2A16.73,16.73,0,0,1,49,50l.4-.08C49.92,49.83,50.94,49.68,51.2,49.12Z"/><path class="cls-28" d="M47.94,57.87c1.45-.92.76-2.69-.12-4a15.75,15.75,0,0,1-2.46,3.89A2.86,2.86,0,0,0,47.94,57.87Z"/><path class="cls-28" d="M50.12,52.2c.89-.51-.41-1.23-1.27-1.52a18.48,18.48,0,0,1-.51,1.8A3.44,3.44,0,0,0,50.12,52.2Z"/><path class="cls-28" d="M51.13,44.76c.7-.88-1.1-1.14-2.23-1.19a15.14,15.14,0,0,1,.32,2A3.13,3.13,0,0,0,51.13,44.76Z"/><path class="cls-28" d="M20.31,39.3c-1.89-.56-2.68-2.92-2.81-4.65a3.73,3.73,0,0,1,1.64-3.49c1.5-1,2.78.44,3.54,1.55A11.08,11.08,0,0,1,24,35.45c.05.12.13.57.23,1l0,.36C24.13,38.76,22.38,39.92,20.31,39.3Z"/><path class="cls-29" d="M24.2,36.47c-.1-.45-.18-.9-.23-1a11.08,11.08,0,0,0-1.29-2.74c-.76-1.11-2-2.52-3.54-1.55a3.73,3.73,0,0,0-1.64,3.49c0,.18,0,.38.07.58,1.54-1.57,4.7-3.08,5.43-.2.35,1.37-1.23,2.59-2.23,3.19a9.3,9.3,0,0,1-1.27.68,2.79,2.79,0,0,0,.81.4c2.07.62,3.82-.54,3.92-2.47Z"/><path class="cls-28" d="M41.29,32.22a4.85,4.85,0,0,1-5.58,3.93c-3.07-.58-4.78-4.45-5.06-7.2a4.2,4.2,0,0,1,2.79-4.63,5.12,5.12,0,0,1,4,.73,12.64,12.64,0,0,1,2.7,3.09A6,6,0,0,1,41.29,32.22Z"/><path class="cls-29" d="M40.14,28.14a12.64,12.64,0,0,0-2.7-3.09,5.12,5.12,0,0,0-4-.73A4.2,4.2,0,0,0,30.65,29a11.2,11.2,0,0,0,.2,1.18,6.56,6.56,0,0,1,4.68-3.2c1.74-.19,4.09.93,3.88,3-.17,1.75-2.52,2.77-3.92,3.29a19.3,19.3,0,0,1-2.87.86,5.15,5.15,0,0,0,3.09,2.08,4.85,4.85,0,0,0,5.58-3.93A6,6,0,0,0,40.14,28.14Z"/><path class="cls-30" d="M38.5,30a2,2,0,1,1-2-2A2,2,0,0,1,38.5,30Z"/><path class="cls-31" d="M38,30.1a1.56,1.56,0,1,1-1.56-1.56A1.56,1.56,0,0,1,38,30.1Z"/><path class="cls-28" d="M36,29.35a.56.56,0,0,1-.56.57.57.57,0,1,1,0-1.13A.56.56,0,0,1,36,29.35Z"/><path class="cls-30" d="M23.07,35.51a1.65,1.65,0,0,1-3.29,0,1.65,1.65,0,1,1,3.29,0Z"/><path class="cls-31" d="M22.69,35.56a1.26,1.26,0,1,1-1.26-1.26A1.26,1.26,0,0,1,22.69,35.56Z"/><path class="cls-28" d="M21,35a.46.46,0,1,1-.45-.46A.46.46,0,0,1,21,35Z"/></g></g></g></svg>